<?xml version="1.0" encoding="UTF-8" standalone="no"?><svg xmlns="http://www.w3.org/2000/svg" xmlns:xlink="http://www.w3.org/1999/xlink" height="1300" version="1.1" width="924"><defs/><g><g transform="translate(-62,2) scale(1,1)"><path d="M 72 8 L 976 8 L 976 1288 L 72 1288 L 72 8" fill="none" stroke="#000000" stroke-miterlimit="10"/></g><g transform="translate(-62,2) scale(1,1)"><path d="M 72 8 L 72 30 L 160.97900390625 30 L 171.97900390625 19 L 171.97900390625 8 L 72 8" fill="#ffffff" stroke="none"/></g><g transform="translate(-62,2) scale(1,1)"><path d="M 72 8 L 72 30 L 160.97900390625 30 L 171.97900390625 19 L 171.97900390625 8 L 72 8 L 72 8" fill="none" stroke="#000000" stroke-miterlimit="10"/></g><g transform="translate(-62,2) scale(1,1)"><g><path fill="none" stroke="none"/><text fill="#000000" font-family="Arial" font-size="13px" font-style="normal" font-weight="normal" stroke="none" text-decoration="none" x="96.72998046875" y="24">Inscription</text></g></g><g transform="translate(-62,2) scale(1,1)"><g><path fill="none" stroke="none"/><text fill="#000000" font-family="Arial" font-size="13px" font-style="normal" font-weight="bold" stroke="none" text-decoration="none" x="76.279541015625" y="24">sd</text></g></g><g transform="translate(-62,2) scale(1,1)"><path d="M 152.9981551846591 47.3 C 152.9981551846591 43.82060576 155.8765569068409 41 159.42724609375 41 C 162.9779352806591 41 165.85633700284092 43.82060576 165.85633700284092 47.3 C 165.85633700284092 50.779394239999995 162.9779352806591 53.6 159.42724609375 53.6 C 155.8765569068409 53.6 152.9981551846591 50.779394239999995 152.9981551846591 47.3 Z" fill="#ffffff" stroke="none"/></g><g transform="translate(-62,2) scale(1,1)"><path d="M 152.9981551846591 47.3 C 152.9981551846591 43.82060576 155.8765569068409 41 159.42724609375 41 C 162.9779352806591 41 165.85633700284092 43.82060576 165.85633700284092 47.3 C 165.85633700284092 50.779394239999995 162.9779352806591 53.6 159.42724609375 53.6 C 155.8765569068409 53.6 152.9981551846591 50.779394239999995 152.9981551846591 47.3 Z" fill="none" stroke="#000000" stroke-miterlimit="10"/></g><g transform="translate(-62,2) scale(1,1)"><path d="M 159.42724609375 53.6 L 159.42724609375 66.4" fill="none" stroke="#000000" stroke-miterlimit="10"/></g><g transform="translate(-62,2) scale(1,1)"><path d="M 152.6199733664773 58.4 L 166.23451882102273 58.4" fill="none" stroke="#000000" stroke-miterlimit="10"/></g><g transform="translate(-62,2) scale(1,1)"><path d="M 159.42724609375 66.4 L 149.97270063920456 79" fill="none" stroke="#000000" stroke-miterlimit="10"/></g><g transform="translate(-62,2) scale(1,1)"><path d="M 159.42724609375 66.4 L 168.88179154829547 79" fill="none" stroke="#000000" stroke-miterlimit="10"/></g><g transform="translate(-62,2) scale(1,1)"><g><path fill="none" stroke="none"/><text fill="#000000" font-family="Arial" font-size="13px" font-style="normal" font-weight="bold" stroke="none" text-decoration="none" x="114.635009765625" y="98">Lifeline1: User</text></g></g><g transform="translate(-62,2) scale(1,1)"><path d="M 160.5 105 L 160.5 1288" fill="none" stroke="#000000" stroke-dasharray="3" stroke-miterlimit="10"/></g><g transform="translate(-62,2) scale(1,1)"><rect fill="#C0C0C0" height="39" opacity="0.2" stroke="none" width="147.578125" x="319" y="47"/></g><g transform="translate(-62,2) scale(1,1)"><rect fill="#ffffff" height="39" stroke="none" width="147.578125" x="312" y="40"/></g><g transform="translate(-62,2) scale(1,1)"><path d="M 312 40 L 459.578125 40 L 459.578125 79 L 312 79 L 312 40 Z Z" fill="none" stroke="#000000" stroke-miterlimit="10"/></g><g transform="translate(-62,2) scale(1,1)"><g><path fill="none" stroke="none"/><text fill="#000000" font-family="Arial" font-size="13px" font-style="normal" font-weight="bold" stroke="none" text-decoration="none" x="321.5" y="58">Interface: Inscription</text></g></g><g transform="translate(-62,2) scale(1,1)"><path d="M 386.5 80 L 386.5 1288" fill="none" stroke="#000000" stroke-dasharray="3" stroke-miterlimit="10"/></g><g transform="translate(-62,2) scale(1,1)"><rect fill="#C0C0C0" height="39" opacity="0.2" stroke="none" width="155.5" x="519" y="47"/></g><g transform="translate(-62,2) scale(1,1)"><rect fill="#ffffff" height="39" stroke="none" width="155.5" x="512" y="40"/></g><g transform="translate(-62,2) scale(1,1)"><path d="M 512 40 L 667.5 40 L 667.5 79 L 512 79 L 512 40 Z Z" fill="none" stroke="#000000" stroke-miterlimit="10"/></g><g transform="translate(-62,2) scale(1,1)"><g><path fill="none" stroke="none"/><text fill="#000000" font-family="Arial" font-size="13px" font-style="normal" font-weight="bold" stroke="none" text-decoration="none" x="521.5" y="58">Controller: Inscription</text></g></g><g transform="translate(-62,2) scale(1,1)"><path d="M 590.5 80 L 590.5 1288" fill="none" stroke="#000000" stroke-dasharray="3" stroke-miterlimit="10"/></g><g transform="translate(-62,2) scale(1,1)"><rect fill="#C0C0C0" height="39" opacity="0.2" stroke="none" width="71.736328125" x="743" y="47"/></g><g transform="translate(-62,2) scale(1,1)"><rect fill="#ffffff" height="39" stroke="none" width="71.736328125" x="736" y="40"/></g><g transform="translate(-62,2) scale(1,1)"><path d="M 736 40 L 807.736328125 40 L 807.736328125 79 L 736 79 L 736 40 Z Z" fill="none" stroke="#000000" stroke-miterlimit="10"/></g><g transform="translate(-62,2) scale(1,1)"><g><path fill="none" stroke="none"/><text fill="#000000" font-family="Arial" font-size="13px" font-style="normal" font-weight="bold" stroke="none" text-decoration="none" x="753.799560546875" y="58">Users</text></g></g><g transform="translate(-62,2) scale(1,1)"><path d="M 772.5 80 L 772.5 1288" fill="none" stroke="#000000" stroke-dasharray="3" stroke-miterlimit="10"/></g><g transform="translate(-62,2) scale(1,1)"><rect fill="#C0C0C0" height="39" opacity="0.2" stroke="none" width="89.07177734375" x="863" y="47"/></g><g transform="translate(-62,2) scale(1,1)"><rect fill="#ffffff" height="39" stroke="none" width="89.07177734375" x="856" y="40"/></g><g transform="translate(-62,2) scale(1,1)"><path d="M 856 40 L 945.07177734375 40 L 945.07177734375 79 L 856 79 L 856 40 Z Z" fill="none" stroke="#000000" stroke-miterlimit="10"/></g><g transform="translate(-62,2) scale(1,1)"><g><path fill="none" stroke="none"/><text fill="#000000" font-family="Arial" font-size="13px" font-style="normal" font-weight="bold" stroke="none" text-decoration="none" x="865.5" y="58">Companies</text></g></g><g transform="translate(-62,2) scale(1,1)"><path d="M 901.5 80 L 901.5 1288" fill="none" stroke="#000000" stroke-dasharray="3" stroke-miterlimit="10"/></g><g transform="translate(-62,2) scale(1,1)"><path d="M 160 128 L 379 128" fill="none" stroke="#000000" stroke-miterlimit="10"/></g><g transform="translate(-62,2) scale(1,1)"><path d="M 368.83732514237585 132.209517756016 L 379 128 L 368.83732514237585 123.79048224398402" fill="#000000" stroke="none"/></g><g transform="translate(-62,2) scale(1,1)"><path d="M 368.83732514237585 132.209517756016 L 379 128 L 368.83732514237585 123.79048224398402 L 368.83732514237585 132.209517756016" fill="none" stroke="#000000" stroke-miterlimit="10"/></g><g transform="translate(-62,2) scale(1,1)"><g><path fill="none" stroke="none"/><text fill="#000000" font-family="Arial" font-size="13px" font-style="normal" font-weight="normal" stroke="none" text-decoration="none" x="212.5" y="123">1 : saisir(role,email)</text></g></g><g transform="translate(-62,2) scale(1,1)"><rect fill="#ffffff" height="28" stroke="none" width="13" x="379" y="128"/></g><g transform="translate(-62,2) scale(1,1)"><path d="M 379 128 L 392 128 L 392 156 L 379 156 L 379 128 Z Z" fill="none" stroke="#000000" stroke-miterlimit="10"/></g><g transform="translate(-62,2) scale(1,1)"><path d="M 160 168 L 379 168" fill="none" stroke="#000000" stroke-miterlimit="10"/></g><g transform="translate(-62,2) scale(1,1)"><path d="M 368.83732514237585 172.209517756016 L 379 168 L 368.83732514237585 163.790482243984" fill="#000000" stroke="none"/></g><g transform="translate(-62,2) scale(1,1)"><path d="M 368.83732514237585 172.209517756016 L 379 168 L 368.83732514237585 163.790482243984 L 368.83732514237585 172.209517756016" fill="none" stroke="#000000" stroke-miterlimit="10"/></g><g transform="translate(-62,2) scale(1,1)"><g><path fill="none" stroke="none"/><text fill="#000000" font-family="Arial" font-size="13px" font-style="normal" font-weight="normal" stroke="none" text-decoration="none" x="221.5" y="163">2 : cliqueSuivant</text></g></g><g transform="translate(-62,2) scale(1,1)"><rect fill="#ffffff" height="28" stroke="none" width="13" x="379" y="168"/></g><g transform="translate(-62,2) scale(1,1)"><path d="M 379 168 L 392 168 L 392 196 L 379 196 L 379 168 Z Z" fill="none" stroke="#000000" stroke-miterlimit="10"/></g><g transform="translate(-62,2) scale(1,1)"><path d="M 392 184 L 583 184" fill="none" stroke="#000000" stroke-miterlimit="10"/></g><g transform="translate(-62,2) scale(1,1)"><path d="M 572.8373251423759 188.209517756016 L 583 184 L 572.8373251423758 179.790482243984" fill="#000000" stroke="none"/></g><g transform="translate(-62,2) scale(1,1)"><path d="M 572.8373251423759 188.209517756016 L 583 184 L 572.8373251423758 179.790482243984 L 572.8373251423759 188.209517756016" fill="none" stroke="#000000" stroke-miterlimit="10"/></g><g transform="translate(-62,2) scale(1,1)"><g><path fill="none" stroke="none"/><text fill="#000000" font-family="Arial" font-size="13px" font-style="normal" font-weight="normal" stroke="none" text-decoration="none" x="422.5" y="179">3 : verifierEmail(email)</text></g></g><g transform="translate(-62,2) scale(1,1)"><rect fill="#ffffff" height="152" stroke="none" width="13" x="583" y="184"/></g><g transform="translate(-62,2) scale(1,1)"><path d="M 583 184 L 596 184 L 596 336 L 583 336 L 583 184 Z Z" fill="none" stroke="#000000" stroke-miterlimit="10"/></g><g transform="translate(-62,2) scale(1,1)"><path d="M 596 192 L 765 192" fill="none" stroke="#000000" stroke-miterlimit="10"/></g><g transform="translate(-62,2) scale(1,1)"><path d="M 754.8373251423759 196.209517756016 L 765 192 L 754.8373251423758 187.790482243984" fill="#000000" stroke="none"/></g><g transform="translate(-62,2) scale(1,1)"><path d="M 754.8373251423759 196.209517756016 L 765 192 L 754.8373251423758 187.790482243984 L 754.8373251423759 196.209517756016" fill="none" stroke="#000000" stroke-miterlimit="10"/></g><g transform="translate(-62,2) scale(1,1)"><g><path fill="none" stroke="none"/><text fill="#000000" font-family="Arial" font-size="13px" font-style="normal" font-weight="normal" stroke="none" text-decoration="none" x="602.5" y="191">4 : getUserByEmail(email)</text></g></g><g transform="translate(-62,2) scale(1,1)"><rect fill="#ffffff" height="144" stroke="none" width="13" x="765" y="192"/></g><g transform="translate(-62,2) scale(1,1)"><path d="M 765 192 L 778 192 L 778 336 L 765 336 L 765 192 Z Z" fill="none" stroke="#000000" stroke-miterlimit="10"/></g><g transform="translate(-62,2) scale(1,1)"><path d="M 765 256 L 596 256" fill="none" stroke="#000000" stroke-dasharray="3" stroke-miterlimit="10"/></g><g transform="translate(-62,2) scale(1,1)"><path d="M 606.1626748576241 251.790482243984 L 596 256 L 606.1626748576241 260.209517756016" fill="none" stroke="#000000" stroke-miterlimit="10"/></g><g transform="translate(-62,2) scale(1,1)"><g><path fill="none" stroke="none"/><text fill="#000000" font-family="Arial" font-size="13px" font-style="normal" font-weight="normal" stroke="none" text-decoration="none" x="618.5" y="271">5 : return(foundUser)</text></g></g><g transform="translate(-62,2) scale(1,1)"><path d="M 583 267 L 386 267" fill="none" stroke="#000000" stroke-dasharray="3" stroke-miterlimit="10"/></g><g transform="translate(-62,2) scale(1,1)"><path d="M 396.16267485762415 262.790482243984 L 386 267 L 396.16267485762415 271.209517756016" fill="none" stroke="#000000" stroke-miterlimit="10"/></g><g transform="translate(-62,2) scale(1,1)"><g><path fill="none" stroke="none"/><text fill="#000000" font-family="Arial" font-size="13px" font-style="normal" font-weight="normal" stroke="none" text-decoration="none" x="391.5" y="282">6 : Message(this email is taken)</text></g></g><g transform="translate(-62,2) scale(1,1)"><path d="M 765 320 L 596 320" fill="none" stroke="#000000" stroke-dasharray="3" stroke-miterlimit="10"/></g><g transform="translate(-62,2) scale(1,1)"><path d="M 606.1626748576241 315.790482243984 L 596 320 L 606.1626748576241 324.209517756016" fill="none" stroke="#000000" stroke-miterlimit="10"/></g><g transform="translate(-62,2) scale(1,1)"><g><path fill="none" stroke="none"/><text fill="#000000" font-family="Arial" font-size="13px" font-style="normal" font-weight="normal" stroke="none" text-decoration="none" x="638.5" y="335">7 : return(null)</text></g></g><g transform="translate(-62,2) scale(1,1)"><path d="M 160 368 L 379 368" fill="none" stroke="#000000" stroke-miterlimit="10"/></g><g transform="translate(-62,2) scale(1,1)"><path d="M 368.83732514237585 372.209517756016 L 379 368 L 368.83732514237585 363.790482243984" fill="#000000" stroke="none"/></g><g transform="translate(-62,2) scale(1,1)"><path d="M 368.83732514237585 372.209517756016 L 379 368 L 368.83732514237585 363.790482243984 L 368.83732514237585 372.209517756016" fill="none" stroke="#000000" stroke-miterlimit="10"/></g><g transform="translate(-62,2) scale(1,1)"><g><path fill="none" stroke="none"/><text fill="#000000" font-family="Arial" font-size="13px" font-style="normal" font-weight="normal" stroke="none" text-decoration="none" x="205.5" y="363">8 : saisir(fullname,cin)</text></g></g><g transform="translate(-62,2) scale(1,1)"><rect fill="#ffffff" height="28" stroke="none" width="13" x="379" y="368"/></g><g transform="translate(-62,2) scale(1,1)"><path d="M 379 368 L 392 368 L 392 396 L 379 396 L 379 368 Z Z" fill="none" stroke="#000000" stroke-miterlimit="10"/></g><g transform="translate(-62,2) scale(1,1)"><path d="M 160 404 L 379 404" fill="none" stroke="#000000" stroke-miterlimit="10"/></g><g transform="translate(-62,2) scale(1,1)"><path d="M 368.83732514237585 408.209517756016 L 379 404 L 368.83732514237585 399.790482243984" fill="#000000" stroke="none"/></g><g transform="translate(-62,2) scale(1,1)"><path d="M 368.83732514237585 408.209517756016 L 379 404 L 368.83732514237585 399.790482243984 L 368.83732514237585 408.209517756016" fill="none" stroke="#000000" stroke-miterlimit="10"/></g><g transform="translate(-62,2) scale(1,1)"><g><path fill="none" stroke="none"/><text fill="#000000" font-family="Arial" font-size="13px" font-style="normal" font-weight="normal" stroke="none" text-decoration="none" x="221.5" y="399">9 : cliqueSuivant</text></g></g><g transform="translate(-62,2) scale(1,1)"><rect fill="#ffffff" height="28" stroke="none" width="13" x="379" y="404"/></g><g transform="translate(-62,2) scale(1,1)"><path d="M 379 404 L 392 404 L 392 432 L 379 432 L 379 404 Z Z" fill="none" stroke="#000000" stroke-miterlimit="10"/></g><g transform="translate(-62,2) scale(1,1)"><path d="M 392 416 L 583 416" fill="none" stroke="#000000" stroke-miterlimit="10"/></g><g transform="translate(-62,2) scale(1,1)"><path d="M 572.8373251423759 420.209517756016 L 583 416 L 572.8373251423758 411.790482243984" fill="#000000" stroke="none"/></g><g transform="translate(-62,2) scale(1,1)"><path d="M 572.8373251423759 420.209517756016 L 583 416 L 572.8373251423758 411.790482243984 L 572.8373251423759 420.209517756016" fill="none" stroke="#000000" stroke-miterlimit="10"/></g><g transform="translate(-62,2) scale(1,1)"><g><path fill="none" stroke="none"/><text fill="#000000" font-family="Arial" font-size="13px" font-style="normal" font-weight="normal" stroke="none" text-decoration="none" x="432.5" y="411">10 : verifierCin(cin)</text></g></g><g transform="translate(-62,2) scale(1,1)"><rect fill="#ffffff" height="136" stroke="none" width="13" x="583" y="416"/></g><g transform="translate(-62,2) scale(1,1)"><path d="M 583 416 L 596 416 L 596 552 L 583 552 L 583 416 Z Z" fill="none" stroke="#000000" stroke-miterlimit="10"/></g><g transform="translate(-62,2) scale(1,1)"><path d="M 596 424 L 765 424" fill="none" stroke="#000000" stroke-miterlimit="10"/></g><g transform="translate(-62,2) scale(1,1)"><path d="M 754.8373251423759 428.209517756016 L 765 424 L 754.8373251423758 419.790482243984" fill="#000000" stroke="none"/></g><g transform="translate(-62,2) scale(1,1)"><path d="M 754.8373251423759 428.209517756016 L 765 424 L 754.8373251423758 419.790482243984 L 754.8373251423759 428.209517756016" fill="none" stroke="#000000" stroke-miterlimit="10"/></g><g transform="translate(-62,2) scale(1,1)"><g><path fill="none" stroke="none"/><text fill="#000000" font-family="Arial" font-size="13px" font-style="normal" font-weight="normal" stroke="none" text-decoration="none" x="615.5" y="419">11 : getUserByCin(cin)</text></g></g><g transform="translate(-62,2) scale(1,1)"><rect fill="#ffffff" height="128" stroke="none" width="13" x="765" y="424"/></g><g transform="translate(-62,2) scale(1,1)"><path d="M 765 424 L 778 424 L 778 552 L 765 552 L 765 424 Z Z" fill="none" stroke="#000000" stroke-miterlimit="10"/></g><g transform="translate(-62,2) scale(1,1)"><path d="M 765 480 L 596 480" fill="none" stroke="#000000" stroke-dasharray="3" stroke-miterlimit="10"/></g><g transform="translate(-62,2) scale(1,1)"><path d="M 606.1626748576241 475.790482243984 L 596 480 L 606.1626748576241 484.209517756016" fill="none" stroke="#000000" stroke-miterlimit="10"/></g><g transform="translate(-62,2) scale(1,1)"><g><path fill="none" stroke="none"/><text fill="#000000" font-family="Arial" font-size="13px" font-style="normal" font-weight="normal" stroke="none" text-decoration="none" x="615.5" y="495">12 : return(foundUser)</text></g></g><g transform="translate(-62,2) scale(1,1)"><path d="M 583 504 L 386 504" fill="none" stroke="#000000" stroke-dasharray="3" stroke-miterlimit="10"/></g><g transform="translate(-62,2) scale(1,1)"><path d="M 396.16267485762415 499.790482243984 L 386 504 L 396.16267485762415 508.209517756016" fill="none" stroke="#000000" stroke-miterlimit="10"/></g><g transform="translate(-62,2) scale(1,1)"><g><path fill="none" stroke="none"/><text fill="#000000" font-family="Arial" font-size="13px" font-style="normal" font-weight="normal" stroke="none" text-decoration="none" x="394.7236328125" y="519">13 : Message(this cin is taken)</text></g></g><g transform="translate(-62,2) scale(1,1)"><path d="M 765 544 L 596 544" fill="none" stroke="#000000" stroke-dasharray="3" stroke-miterlimit="10"/></g><g transform="translate(-62,2) scale(1,1)"><path d="M 606.1626748576241 539.790482243984 L 596 544 L 606.1626748576241 548.209517756016" fill="none" stroke="#000000" stroke-miterlimit="10"/></g><g transform="translate(-62,2) scale(1,1)"><g><path fill="none" stroke="none"/><text fill="#000000" font-family="Arial" font-size="13px" font-style="normal" font-weight="normal" stroke="none" text-decoration="none" x="634.5" y="559">14 : return(null)</text></g></g><g transform="translate(-62,2) scale(1,1)"><path d="M 160 569 L 379 569" fill="none" stroke="#000000" stroke-miterlimit="10"/></g><g transform="translate(-62,2) scale(1,1)"><path d="M 368.83732514237585 573.209517756016 L 379 569 L 368.83732514237585 564.790482243984" fill="#000000" stroke="none"/></g><g transform="translate(-62,2) scale(1,1)"><path d="M 368.83732514237585 573.209517756016 L 379 569 L 368.83732514237585 564.790482243984 L 368.83732514237585 573.209517756016" fill="none" stroke="#000000" stroke-miterlimit="10"/></g><g transform="translate(-62,2) scale(1,1)"><g><path fill="none" stroke="none"/><text fill="#000000" font-family="Arial" font-size="13px" font-style="normal" font-weight="normal" stroke="none" text-decoration="none" x="135.5" y="562">15 : saisir(companyName,industry,number)</text></g></g><g transform="translate(-62,2) scale(1,1)"><rect fill="#ffffff" height="28" stroke="none" width="13" x="379" y="569"/></g><g transform="translate(-62,2) scale(1,1)"><path d="M 379 569 L 392 569 L 392 597 L 379 597 L 379 569 Z Z" fill="none" stroke="#000000" stroke-miterlimit="10"/></g><g transform="translate(-62,2) scale(1,1)"><path d="M 392 581 L 583 581" fill="none" stroke="#000000" stroke-miterlimit="10"/></g><g transform="translate(-62,2) scale(1,1)"><path d="M 572.8373251423759 585.209517756016 L 583 581 L 572.8373251423758 576.790482243984" fill="#000000" stroke="none"/></g><g transform="translate(-62,2) scale(1,1)"><path d="M 572.8373251423759 585.209517756016 L 583 581 L 572.8373251423758 576.790482243984 L 572.8373251423759 585.209517756016" fill="none" stroke="#000000" stroke-miterlimit="10"/></g><g transform="translate(-62,2) scale(1,1)"><g><path fill="none" stroke="none"/><text fill="#000000" font-family="Arial" font-size="13px" font-style="normal" font-weight="normal" stroke="none" text-decoration="none" x="428.5" y="576">16 : verifier(number)</text></g></g><g transform="translate(-62,2) scale(1,1)"><rect fill="#ffffff" height="187" stroke="none" width="13" x="583" y="581"/></g><g transform="translate(-62,2) scale(1,1)"><path d="M 583 581 L 596 581 L 596 768 L 583 768 L 583 581 Z Z" fill="none" stroke="#000000" stroke-miterlimit="10"/></g><g transform="translate(-62,2) scale(1,1)"><path d="M 596 596 L 894 596" fill="none" stroke="#000000" stroke-miterlimit="10"/></g><g transform="translate(-62,2) scale(1,1)"><path d="M 883.8373251423759 600.209517756016 L 894 596 L 883.8373251423758 591.790482243984" fill="none" stroke="#000000" stroke-miterlimit="10"/></g><g transform="translate(-62,2) scale(1,1)"><g><path fill="none" stroke="none"/><text fill="#000000" font-family="Arial" font-size="13px" font-style="normal" font-weight="normal" stroke="none" text-decoration="none" x="615.5" y="586">17 : getCompanyByNumber(number)</text></g></g><g transform="translate(-62,2) scale(1,1)"><rect fill="#ffffff" height="172" stroke="none" width="13" x="894" y="596"/></g><g transform="translate(-62,2) scale(1,1)"><path d="M 894 596 L 907 596 L 907 768 L 894 768 L 894 596 Z Z" fill="none" stroke="#000000" stroke-miterlimit="10"/></g><g transform="translate(-62,2) scale(1,1)"><path d="M 894 672 L 596 672" fill="none" stroke="#000000" stroke-dasharray="3" stroke-miterlimit="10"/></g><g transform="translate(-62,2) scale(1,1)"><path d="M 606.1626748576241 667.790482243984 L 596 672 L 606.1626748576241 676.209517756016" fill="none" stroke="#000000" stroke-miterlimit="10"/></g><g transform="translate(-62,2) scale(1,1)"><g><path fill="none" stroke="none"/><text fill="#000000" font-family="Arial" font-size="13px" font-style="normal" font-weight="normal" stroke="none" text-decoration="none" x="665.5" y="687">18 : return(foundCompany)</text></g></g><g transform="translate(-62,2) scale(1,1)"><path d="M 583 680 L 386 680" fill="none" stroke="#000000" stroke-dasharray="3" stroke-miterlimit="10"/></g><g transform="translate(-62,2) scale(1,1)"><path d="M 396.16267485762415 675.790482243984 L 386 680 L 396.16267485762415 684.209517756016" fill="none" stroke="#000000" stroke-miterlimit="10"/></g><g transform="translate(-62,2) scale(1,1)"><g><path fill="none" stroke="none"/><text fill="#000000" font-family="Arial" font-size="13px" font-style="normal" font-weight="normal" stroke="none" text-decoration="none" x="381.5" y="695">19 : Message(this number is taken)</text></g></g><g transform="translate(-62,2) scale(1,1)"><path d="M 894 760 L 596 760" fill="none" stroke="#000000" stroke-dasharray="3" stroke-miterlimit="10"/></g><g transform="translate(-62,2) scale(1,1)"><path d="M 606.1626748576241 755.790482243984 L 596 760 L 606.1626748576241 764.209517756016" fill="none" stroke="#000000" stroke-miterlimit="10"/></g><g transform="translate(-62,2) scale(1,1)"><g><path fill="none" stroke="none"/><text fill="#000000" font-family="Arial" font-size="13px" font-style="normal" font-weight="normal" stroke="none" text-decoration="none" x="699.5" y="775">20 : return(null)</text></g></g><g transform="translate(-62,2) scale(1,1)"><path d="M 160 808 L 379 808" fill="none" stroke="#000000" stroke-miterlimit="10"/></g><g transform="translate(-62,2) scale(1,1)"><path d="M 368.83732514237585 812.209517756016 L 379 808 L 368.83732514237585 803.790482243984" fill="#000000" stroke="none"/></g><g transform="translate(-62,2) scale(1,1)"><path d="M 368.83732514237585 812.209517756016 L 379 808 L 368.83732514237585 803.790482243984 L 368.83732514237585 812.209517756016" fill="none" stroke="#000000" stroke-miterlimit="10"/></g><g transform="translate(-62,2) scale(1,1)"><g><path fill="none" stroke="none"/><text fill="#000000" font-family="Arial" font-size="13px" font-style="normal" font-weight="normal" stroke="none" text-decoration="none" x="208.5" y="803">21 : saisir(Password)</text></g></g><g transform="translate(-62,2) scale(1,1)"><rect fill="#ffffff" height="28" stroke="none" width="13" x="379" y="808"/></g><g transform="translate(-62,2) scale(1,1)"><path d="M 379 808 L 392 808 L 392 836 L 379 836 L 379 808 Z Z" fill="none" stroke="#000000" stroke-miterlimit="10"/></g><g transform="translate(-62,2) scale(1,1)"><path d="M 392 826 L 583 826" fill="none" stroke="#000000" stroke-miterlimit="10"/></g><g transform="translate(-62,2) scale(1,1)"><path d="M 572.8373251423759 830.209517756016 L 583 826 L 572.8373251423758 821.790482243984" fill="#000000" stroke="none"/></g><g transform="translate(-62,2) scale(1,1)"><path d="M 572.8373251423759 830.209517756016 L 583 826 L 572.8373251423758 821.790482243984 L 572.8373251423759 830.209517756016" fill="none" stroke="#000000" stroke-miterlimit="10"/></g><g transform="translate(-62,2) scale(1,1)"><g><path fill="none" stroke="none"/><text fill="#000000" font-family="Arial" font-size="13px" font-style="normal" font-weight="normal" stroke="none" text-decoration="none" x="415.5" y="821">22 : Inscription(données)</text></g></g><g transform="translate(-62,2) scale(1,1)"><rect fill="#ffffff" height="28" stroke="none" width="13" x="583" y="826"/></g><g transform="translate(-62,2) scale(1,1)"><path d="M 583 826 L 596 826 L 596 854 L 583 854 L 583 826 Z Z" fill="none" stroke="#000000" stroke-miterlimit="10"/></g><g transform="translate(-62,2) scale(1,1)"><path d="M 590 904 L 620 904 L 620 924 L 596 924" fill="none" stroke="#000000" stroke-miterlimit="10"/></g><g transform="translate(-62,2) scale(1,1)"><path d="M 606.1626748576241 919.790482243984 L 596 924 L 606.1626748576241 928.209517756016" fill="#000000" stroke="none"/></g><g transform="translate(-62,2) scale(1,1)"><path d="M 606.1626748576241 919.790482243984 L 596 924 L 606.1626748576241 928.209517756016 L 606.1626748576241 919.790482243984" fill="none" stroke="#000000" stroke-miterlimit="10"/></g><g transform="translate(-62,2) scale(1,1)"><g><path fill="none" stroke="none"/><text fill="#000000" font-family="Arial" font-size="13px" font-style="normal" font-weight="normal" stroke="none" text-decoration="none" x="638.5" y="918">23 : HashPassword(paassword)</text></g></g><g transform="translate(-62,2) scale(1,1)"><rect fill="#ffffff" height="132" stroke="none" width="13" x="583" y="924"/></g><g transform="translate(-62,2) scale(1,1)"><path d="M 583 924 L 596 924 L 596 1056 L 583 1056 L 583 924 Z Z" fill="none" stroke="#000000" stroke-miterlimit="10"/></g><g transform="translate(-62,2) scale(1,1)"><path d="M 596 984 L 765 984" fill="none" stroke="#000000" stroke-miterlimit="10"/></g><g transform="translate(-62,2) scale(1,1)"><path d="M 754.8373251423759 988.209517756016 L 765 984 L 754.8373251423758 979.790482243984" fill="#000000" stroke="none"/></g><g transform="translate(-62,2) scale(1,1)"><path d="M 754.8373251423759 988.209517756016 L 765 984 L 754.8373251423758 979.790482243984 L 754.8373251423759 988.209517756016" fill="none" stroke="#000000" stroke-miterlimit="10"/></g><g transform="translate(-62,2) scale(1,1)"><g><path fill="none" stroke="none"/><text fill="#000000" font-family="Arial" font-size="13px" font-style="normal" font-weight="normal" stroke="none" text-decoration="none" x="614.5" y="979">24 : création(données)</text></g></g><g transform="translate(-62,2) scale(1,1)"><rect fill="#ffffff" height="28" stroke="none" width="13" x="765" y="984"/></g><g transform="translate(-62,2) scale(1,1)"><path d="M 765 984 L 778 984 L 778 1012 L 765 1012 L 765 984 Z Z" fill="none" stroke="#000000" stroke-miterlimit="10"/></g><g transform="translate(-62,2) scale(1,1)"><path d="M 596 1040 L 894 1040" fill="none" stroke="#000000" stroke-miterlimit="10"/></g><g transform="translate(-62,2) scale(1,1)"><path d="M 883.8373251423759 1044.2095177560159 L 894 1040 L 883.8373251423758 1035.7904822439841" fill="#000000" stroke="none"/></g><g transform="translate(-62,2) scale(1,1)"><path d="M 883.8373251423759 1044.2095177560159 L 894 1040 L 883.8373251423758 1035.7904822439841 L 883.8373251423759 1044.2095177560159" fill="none" stroke="#000000" stroke-miterlimit="10"/></g><g transform="translate(-62,2) scale(1,1)"><g><path fill="none" stroke="none"/><text fill="#000000" font-family="Arial" font-size="13px" font-style="normal" font-weight="normal" stroke="none" text-decoration="none" x="679.5" y="1035">25 : création(données)</text></g></g><g transform="translate(-62,2) scale(1,1)"><rect fill="#ffffff" height="28" stroke="none" width="13" x="894" y="1040"/></g><g transform="translate(-62,2) scale(1,1)"><path d="M 894 1040 L 907 1040 L 907 1068 L 894 1068 L 894 1040 Z Z" fill="none" stroke="#000000" stroke-miterlimit="10"/></g><g transform="translate(-62,2) scale(1,1)"><path d="M 590 1072 L 620 1072 L 620 1092 L 596 1092" fill="none" stroke="#000000" stroke-miterlimit="10"/></g><g transform="translate(-62,2) scale(1,1)"><path d="M 606.1626748576241 1087.7904822439841 L 596 1092 L 606.1626748576241 1096.2095177560159" fill="#000000" stroke="none"/></g><g transform="translate(-62,2) scale(1,1)"><path d="M 606.1626748576241 1087.7904822439841 L 596 1092 L 606.1626748576241 1096.2095177560159 L 606.1626748576241 1087.7904822439841" fill="none" stroke="#000000" stroke-miterlimit="10"/></g><g transform="translate(-62,2) scale(1,1)"><g><path fill="none" stroke="none"/><text fill="#000000" font-family="Arial" font-size="13px" font-style="normal" font-weight="normal" stroke="none" text-decoration="none" x="627.5" y="1091">26 : EnvoieEmailVerification(email)</text></g></g><g transform="translate(-62,2) scale(1,1)"><rect fill="#ffffff" height="60" stroke="none" width="13" x="583" y="1092"/></g><g transform="translate(-62,2) scale(1,1)"><path d="M 583 1092 L 596 1092 L 596 1152 L 583 1152 L 583 1092 Z Z" fill="none" stroke="#000000" stroke-miterlimit="10"/></g><g transform="translate(-62,2) scale(1,1)"><path d="M 583 1128 L 386 1128" fill="none" stroke="#000000" stroke-dasharray="3" stroke-miterlimit="10"/></g><g transform="translate(-62,2) scale(1,1)"><path d="M 396.16267485762415 1123.7904822439841 L 386 1128 L 396.16267485762415 1132.2095177560159" fill="none" stroke="#000000" stroke-miterlimit="10"/></g><g transform="translate(-62,2) scale(1,1)"><g><path fill="none" stroke="none"/><text fill="#000000" font-family="Arial" font-size="13px" font-style="normal" font-weight="normal" stroke="none" text-decoration="none" x="394.5" y="1143">27 : Message(check your mail)</text></g></g><g transform="translate(-62,2) scale(1,1)"><path d="M 96 224 L 952 224 L 952 1264 L 96 1264 L 96 224" fill="none" stroke="#000000" stroke-miterlimit="10"/></g><g transform="translate(-62,2) scale(1,1)"><path d="M 96 224 L 96 246 L 125.72998046875 246 L 136.72998046875 235 L 136.72998046875 224 L 96 224" fill="#ffffff" stroke="none"/></g><g transform="translate(-62,2) scale(1,1)"><path d="M 96 224 L 96 246 L 125.72998046875 246 L 136.72998046875 235 L 136.72998046875 224 L 96 224 L 96 224" fill="none" stroke="#000000" stroke-miterlimit="10"/></g><g transform="translate(-62,2) scale(1,1)"><g><path fill="none" stroke="none"/><text fill="#000000" font-family="Arial" font-size="13px" font-style="normal" font-weight="bold" stroke="none" text-decoration="none" x="100.279541015625" y="240">alt</text></g></g><g transform="translate(-62,2) scale(1,1)"><g><path fill="none" stroke="none"/><text fill="#000000" font-family="Arial" font-size="13px" font-style="normal" font-weight="normal" stroke="none" text-decoration="none" x="115.5" y="273">[Email Existe]</text></g></g><g transform="translate(-62,2) scale(1,1)"><path d="M 96 290 L 952 290" fill="none" stroke="#000000" stroke-dasharray="10,3" stroke-miterlimit="10"/></g><g transform="translate(-62,2) scale(1,1)"><path d="M 120 464 L 936 464 L 936 1232 L 120 1232 L 120 464" fill="none" stroke="#000000" stroke-miterlimit="10"/></g><g transform="translate(-62,2) scale(1,1)"><path d="M 120 464 L 120 486 L 149.72998046875 486 L 160.72998046875 475 L 160.72998046875 464 L 120 464" fill="#ffffff" stroke="none"/></g><g transform="translate(-62,2) scale(1,1)"><path d="M 120 464 L 120 486 L 149.72998046875 486 L 160.72998046875 475 L 160.72998046875 464 L 120 464 L 120 464" fill="none" stroke="#000000" stroke-miterlimit="10"/></g><g transform="translate(-62,2) scale(1,1)"><g><path fill="none" stroke="none"/><text fill="#000000" font-family="Arial" font-size="13px" font-style="normal" font-weight="bold" stroke="none" text-decoration="none" x="124.279541015625" y="480">alt</text></g></g><g transform="translate(-62,2) scale(1,1)"><g><path fill="none" stroke="none"/><text fill="#000000" font-family="Arial" font-size="13px" font-style="normal" font-weight="normal" stroke="none" text-decoration="none" x="139.5" y="513">[Cin  existe]</text></g></g><g transform="translate(-62,2) scale(1,1)"><path d="M 120 530 L 936 530" fill="none" stroke="#000000" stroke-dasharray="10,3" stroke-miterlimit="10"/></g><g transform="translate(-62,2) scale(1,1)"><path d="M 136 640 L 920 640 L 920 1200 L 136 1200 L 136 640" fill="none" stroke="#000000" stroke-miterlimit="10"/></g><g transform="translate(-62,2) scale(1,1)"><path d="M 136 640 L 136 662 L 165.72998046875 662 L 176.72998046875 651 L 176.72998046875 640 L 136 640" fill="#ffffff" stroke="none"/></g><g transform="translate(-62,2) scale(1,1)"><path d="M 136 640 L 136 662 L 165.72998046875 662 L 176.72998046875 651 L 176.72998046875 640 L 136 640 L 136 640" fill="none" stroke="#000000" stroke-miterlimit="10"/></g><g transform="translate(-62,2) scale(1,1)"><g><path fill="none" stroke="none"/><text fill="#000000" font-family="Arial" font-size="13px" font-style="normal" font-weight="bold" stroke="none" text-decoration="none" x="140.279541015625" y="656">alt</text></g></g><g transform="translate(-62,2) scale(1,1)"><g><path fill="none" stroke="none"/><text fill="#000000" font-family="Arial" font-size="13px" font-style="normal" font-weight="normal" stroke="none" text-decoration="none" x="155.5" y="689">[company existe]</text></g></g><g transform="translate(-62,2) scale(1,1)"><path d="M 136 706 L 920 706" fill="none" stroke="#000000" stroke-dasharray="10,3" stroke-miterlimit="10"/></g></g></svg>