<?xml version="1.0" encoding="UTF-8" standalone="no"?><svg xmlns="http://www.w3.org/2000/svg" xmlns:xlink="http://www.w3.org/1999/xlink" height="164" version="1.1" width="730"><defs/><g><g transform="translate(-230,-198) scale(1,1)"><path d="M 262.91569797585225 257.68 C 262.91569797585225 252.886167936 266.80154030079774 249 271.594970703125 249 C 276.38840110545226 249 280.27424343039775 252.886167936 280.27424343039775 257.68 C 280.27424343039775 262.473832064 276.38840110545226 266.36 271.594970703125 266.36 C 266.80154030079774 266.36 262.91569797585225 262.473832064 262.91569797585225 257.68 Z" fill="#ffffff" stroke="none"/></g><g transform="translate(-230,-198) scale(1,1)"><path d="M 262.91569797585225 257.68 C 262.91569797585225 252.886167936 266.80154030079774 249 271.594970703125 249 C 276.38840110545226 249 280.27424343039775 252.886167936 280.27424343039775 257.68 C 280.27424343039775 262.473832064 276.38840110545226 266.36 271.594970703125 266.36 C 266.80154030079774 266.36 262.91569797585225 262.473832064 262.91569797585225 257.68 Z" fill="none" stroke="#000000" stroke-miterlimit="10"/></g><g transform="translate(-230,-198) scale(1,1)"><path d="M 271.594970703125 266.36 L 271.594970703125 283.64" fill="none" stroke="#000000" stroke-miterlimit="10"/></g><g transform="translate(-230,-198) scale(1,1)"><path d="M 262.40515252130683 272.84 L 280.78478888494317 272.84" fill="none" stroke="#000000" stroke-miterlimit="10"/></g><g transform="translate(-230,-198) scale(1,1)"><path d="M 271.594970703125 283.64 L 258.83133433948865 301" fill="none" stroke="#000000" stroke-miterlimit="10"/></g><g transform="translate(-230,-198) scale(1,1)"><path d="M 271.594970703125 283.64 L 284.35860706676135 301" fill="none" stroke="#000000" stroke-miterlimit="10"/></g><g transform="translate(-230,-198) scale(1,1)"><g><path fill="none" stroke="none"/><text fill="#000000" font-family="Arial" font-size="13px" font-style="normal" font-weight="bold" stroke="none" text-decoration="none" x="244.864990234375" y="320">Manager</text></g></g><g transform="translate(-230,-198) scale(1,1)"><path d="M 639 247 C 639 229.3268864 706.15728 215 789 215 C 871.84272 215 939 229.3268864 939 247 C 939 264.6731136 871.84272 279 789 279 C 706.15728 279 639 264.6731136 639 247 Z" fill="#C0C0C0" opacity="0.2" stroke="none"/></g><g transform="translate(-230,-198) scale(1,1)"><path d="M 632 240 C 632 222.3268864 699.15728 208 782 208 C 864.84272 208 932 222.3268864 932 240 C 932 257.6731136 864.84272 272 782 272 C 699.15728 272 632 257.6731136 632 240 Z" fill="#ffffff" stroke="none"/></g><g transform="translate(-230,-198) scale(1,1)"><path d="M 632 240 C 632 222.3268864 699.15728 208 782 208 C 864.84272 208 932 222.3268864 932 240 C 932 257.6731136 864.84272 272 782 272 C 699.15728 272 632 257.6731136 632 240 Z" fill="none" stroke="#000000" stroke-miterlimit="10"/></g><g transform="translate(-230,-198) scale(1,1)"><g><path fill="none" stroke="none"/><text fill="#000000" font-family="Arial" font-size="13px" font-style="normal" font-weight="bold" stroke="none" text-decoration="none" x="680.491455078125" y="245.5">saisir coordonnées personnelles</text></g></g><g transform="translate(-230,-198) scale(1,1)"><path d="M 639 327 C 639 309.3268864 710.1867168 295 798 295 C 885.8132832 295 957 309.3268864 957 327 C 957 344.6731136 885.8132832 359 798 359 C 710.1867168 359 639 344.6731136 639 327 Z" fill="#C0C0C0" opacity="0.2" stroke="none"/></g><g transform="translate(-230,-198) scale(1,1)"><path d="M 632 320 C 632 302.3268864 703.1867168 288 791 288 C 878.8132832 288 950 302.3268864 950 320 C 950 337.6731136 878.8132832 352 791 352 C 703.1867168 352 632 337.6731136 632 320 Z" fill="#ffffff" stroke="none"/></g><g transform="translate(-230,-198) scale(1,1)"><path d="M 632 320 C 632 302.3268864 703.1867168 288 791 288 C 878.8132832 288 950 302.3268864 950 320 C 950 337.6731136 878.8132832 352 791 352 C 703.1867168 352 632 337.6731136 632 320 Z" fill="none" stroke="#000000" stroke-miterlimit="10"/></g><g transform="translate(-230,-198) scale(1,1)"><g><path fill="none" stroke="none"/><text fill="#000000" font-family="Arial" font-size="13px" font-style="normal" font-weight="bold" stroke="none" text-decoration="none" x="683.6103515625" y="325.5">saisir  coordonnées de l'entreprise</text></g></g><g transform="translate(-230,-198) scale(1,1)"><path d="M 431 295 C 431 277.3268864 453.6096176 263 481.5 263 C 509.3903824 263 532 277.3268864 532 295 C 532 312.6731136 509.3903824 327 481.5 327 C 453.6096176 327 431 312.6731136 431 295 Z" fill="#C0C0C0" opacity="0.2" stroke="none"/></g><g transform="translate(-230,-198) scale(1,1)"><path d="M 424 288 C 424 270.3268864 446.6096176 256 474.5 256 C 502.3903824 256 525 270.3268864 525 288 C 525 305.6731136 502.3903824 320 474.5 320 C 446.6096176 320 424 305.6731136 424 288 Z" fill="#ffffff" stroke="none"/></g><g transform="translate(-230,-198) scale(1,1)"><path d="M 424 288 C 424 270.3268864 446.6096176 256 474.5 256 C 502.3903824 256 525 270.3268864 525 288 C 525 305.6731136 502.3903824 320 474.5 320 C 446.6096176 320 424 305.6731136 424 288 Z" fill="none" stroke="#000000" stroke-miterlimit="10"/></g><g transform="translate(-230,-198) scale(1,1)"><g><path fill="none" stroke="none"/><text fill="#000000" font-family="Arial" font-size="13px" font-style="normal" font-weight="bold" stroke="none" text-decoration="none" x="445.85302734375" y="293.5">s'inscrire</text></g></g><g transform="translate(-230,-198) scale(1,1)"><path d="M 423 288 L 304 287" fill="none" stroke="#000000" stroke-miterlimit="10"/></g><g transform="translate(-230,-198) scale(1,1)"><path d="M 526 280 L 631 264" fill="none" stroke="#000000" stroke-dasharray="3" stroke-miterlimit="10"/></g><g transform="translate(-230,-198) scale(1,1)"><path d="M 621.5874281054901 269.6924063743449 L 631 264 L 620.3191674364174 261.3694457335549" fill="none" stroke="#000000" stroke-miterlimit="10"/></g><g transform="translate(-230,-198) scale(1,1)"><g><path fill="none" stroke="none"/><text fill="#000000" font-family="Arial" font-size="13px" font-style="normal" font-weight="normal" stroke="none" text-decoration="none" x="545.5" y="266">«include»</text></g></g><g transform="translate(-230,-198) scale(1,1)"><path d="M 526 293 L 631 304" fill="none" stroke="#000000" stroke-dasharray="3" stroke-miterlimit="10"/></g><g transform="translate(-230,-198) scale(1,1)"><path d="M 620.4540413713752 307.12773985544413 L 631 304 L 621.3312350780146 298.7545272011586" fill="none" stroke="#000000" stroke-miterlimit="10"/></g><g transform="translate(-230,-198) scale(1,1)"><g><path fill="none" stroke="none"/><text fill="#000000" font-family="Arial" font-size="13px" font-style="normal" font-weight="normal" stroke="none" text-decoration="none" x="539.5" y="312">«include»</text></g></g></g></svg>