<?xml version="1.0" encoding="UTF-8" standalone="no"?><svg xmlns="http://www.w3.org/2000/svg" xmlns:xlink="http://www.w3.org/1999/xlink" height="652" version="1.1" width="804"><defs/><g><g transform="translate(-62,2) scale(1,1)"><path d="M 72 8 L 856 8 L 856 640 L 72 640 L 72 8" fill="none" stroke="#000000" stroke-miterlimit="10"/></g><g transform="translate(-62,2) scale(1,1)"><path d="M 72 8 L 72 30 L 190.59716796875 30 L 201.59716796875 19 L 201.59716796875 8 L 72 8" fill="#ffffff" stroke="none"/></g><g transform="translate(-62,2) scale(1,1)"><path d="M 72 8 L 72 30 L 190.59716796875 30 L 201.59716796875 19 L 201.59716796875 8 L 72 8 L 72 8" fill="none" stroke="#000000" stroke-miterlimit="10"/></g><g transform="translate(-62,2) scale(1,1)"><g><path fill="none" stroke="none"/><text fill="#000000" font-family="Arial" font-size="13px" font-style="normal" font-weight="normal" stroke="none" text-decoration="none" x="96.72998046875" y="24">Consulter Profil</text></g></g><g transform="translate(-62,2) scale(1,1)"><g><path fill="none" stroke="none"/><text fill="#000000" font-family="Arial" font-size="13px" font-style="normal" font-weight="bold" stroke="none" text-decoration="none" x="76.279541015625" y="24">sd</text></g></g><g transform="translate(-62,2) scale(1,1)"><path d="M 160.9981551846591 47.3 C 160.9981551846591 43.82060576 163.8765569068409 41 167.42724609375 41 C 170.9779352806591 41 173.85633700284092 43.82060576 173.85633700284092 47.3 C 173.85633700284092 50.779394239999995 170.9779352806591 53.6 167.42724609375 53.6 C 163.8765569068409 53.6 160.9981551846591 50.779394239999995 160.9981551846591 47.3 Z" fill="#ffffff" stroke="none"/></g><g transform="translate(-62,2) scale(1,1)"><path d="M 160.9981551846591 47.3 C 160.9981551846591 43.82060576 163.8765569068409 41 167.42724609375 41 C 170.9779352806591 41 173.85633700284092 43.82060576 173.85633700284092 47.3 C 173.85633700284092 50.779394239999995 170.9779352806591 53.6 167.42724609375 53.6 C 163.8765569068409 53.6 160.9981551846591 50.779394239999995 160.9981551846591 47.3 Z" fill="none" stroke="#000000" stroke-miterlimit="10"/></g><g transform="translate(-62,2) scale(1,1)"><path d="M 167.42724609375 53.6 L 167.42724609375 66.4" fill="none" stroke="#000000" stroke-miterlimit="10"/></g><g transform="translate(-62,2) scale(1,1)"><path d="M 160.6199733664773 58.4 L 174.23451882102273 58.4" fill="none" stroke="#000000" stroke-miterlimit="10"/></g><g transform="translate(-62,2) scale(1,1)"><path d="M 167.42724609375 66.4 L 157.97270063920456 79" fill="none" stroke="#000000" stroke-miterlimit="10"/></g><g transform="translate(-62,2) scale(1,1)"><path d="M 167.42724609375 66.4 L 176.88179154829547 79" fill="none" stroke="#000000" stroke-miterlimit="10"/></g><g transform="translate(-62,2) scale(1,1)"><g><path fill="none" stroke="none"/><text fill="#000000" font-family="Arial" font-size="13px" font-style="normal" font-weight="bold" stroke="none" text-decoration="none" x="122.635009765625" y="98">Lifeline1: User</text></g></g><g transform="translate(-62,2) scale(1,1)"><path d="M 168.5 105 L 168.5 640" fill="none" stroke="#000000" stroke-dasharray="3" stroke-miterlimit="10"/></g><g transform="translate(-62,2) scale(1,1)"><rect fill="#C0C0C0" height="39" opacity="0.2" stroke="none" width="114.3544921875" x="279" y="47"/></g><g transform="translate(-62,2) scale(1,1)"><rect fill="#ffffff" height="39" stroke="none" width="114.3544921875" x="272" y="40"/></g><g transform="translate(-62,2) scale(1,1)"><path d="M 272 40 L 386.3544921875 40 L 386.3544921875 79 L 272 79 L 272 40 Z Z" fill="none" stroke="#000000" stroke-miterlimit="10"/></g><g transform="translate(-62,2) scale(1,1)"><g><path fill="none" stroke="none"/><text fill="#000000" font-family="Arial" font-size="13px" font-style="normal" font-weight="bold" stroke="none" text-decoration="none" x="281.5" y="58">Interface: Profil</text></g></g><g transform="translate(-62,2) scale(1,1)"><path d="M 330.5 80 L 330.5 640" fill="none" stroke="#000000" stroke-dasharray="3" stroke-miterlimit="10"/></g><g transform="translate(-62,2) scale(1,1)"><rect fill="#C0C0C0" height="39" opacity="0.2" stroke="none" width="122.2763671875" x="471" y="47"/></g><g transform="translate(-62,2) scale(1,1)"><rect fill="#ffffff" height="39" stroke="none" width="122.2763671875" x="464" y="40"/></g><g transform="translate(-62,2) scale(1,1)"><path d="M 464 40 L 586.2763671875 40 L 586.2763671875 79 L 464 79 L 464 40 Z Z" fill="none" stroke="#000000" stroke-miterlimit="10"/></g><g transform="translate(-62,2) scale(1,1)"><g><path fill="none" stroke="none"/><text fill="#000000" font-family="Arial" font-size="13px" font-style="normal" font-weight="bold" stroke="none" text-decoration="none" x="473.5" y="58">Controller: Profil</text></g></g><g transform="translate(-62,2) scale(1,1)"><path d="M 526.5 80 L 526.5 640" fill="none" stroke="#000000" stroke-dasharray="3" stroke-miterlimit="10"/></g><g transform="translate(-62,2) scale(1,1)"><rect fill="#C0C0C0" height="39" opacity="0.2" stroke="none" width="71.736328125" x="759" y="47"/></g><g transform="translate(-62,2) scale(1,1)"><rect fill="#ffffff" height="39" stroke="none" width="71.736328125" x="752" y="40"/></g><g transform="translate(-62,2) scale(1,1)"><path d="M 752 40 L 823.736328125 40 L 823.736328125 79 L 752 79 L 752 40 Z Z" fill="none" stroke="#000000" stroke-miterlimit="10"/></g><g transform="translate(-62,2) scale(1,1)"><g><path fill="none" stroke="none"/><text fill="#000000" font-family="Arial" font-size="13px" font-style="normal" font-weight="bold" stroke="none" text-decoration="none" x="769.799560546875" y="58">Users</text></g></g><g transform="translate(-62,2) scale(1,1)"><path d="M 788.5 80 L 788.5 640" fill="none" stroke="#000000" stroke-dasharray="3" stroke-miterlimit="10"/></g><g transform="translate(-62,2) scale(1,1)"><path d="M 168 138 L 323 138" fill="none" stroke="#000000" stroke-miterlimit="10"/></g><g transform="translate(-62,2) scale(1,1)"><path d="M 312.83732514237585 142.209517756016 L 323 138 L 312.83732514237585 133.790482243984" fill="#000000" stroke="none"/></g><g transform="translate(-62,2) scale(1,1)"><path d="M 312.83732514237585 142.209517756016 L 323 138 L 312.83732514237585 133.790482243984 L 312.83732514237585 142.209517756016" fill="none" stroke="#000000" stroke-miterlimit="10"/></g><g transform="translate(-62,2) scale(1,1)"><g><path fill="none" stroke="none"/><text fill="#000000" font-family="Arial" font-size="13px" font-style="normal" font-weight="normal" stroke="none" text-decoration="none" x="178.5" y="133">1 : ConsulterPageProfil</text></g></g><g transform="translate(-62,2) scale(1,1)"><rect fill="#ffffff" height="28" stroke="none" width="13" x="323" y="138"/></g><g transform="translate(-62,2) scale(1,1)"><path d="M 323 138 L 336 138 L 336 166 L 323 166 L 323 138 Z Z" fill="none" stroke="#000000" stroke-miterlimit="10"/></g><g transform="translate(-62,2) scale(1,1)"><path d="M 336 155 L 519 155" fill="none" stroke="#000000" stroke-miterlimit="10"/></g><g transform="translate(-62,2) scale(1,1)"><path d="M 508.83732514237585 159.209517756016 L 519 155 L 508.83732514237585 150.790482243984" fill="#000000" stroke="none"/></g><g transform="translate(-62,2) scale(1,1)"><path d="M 508.83732514237585 159.209517756016 L 519 155 L 508.83732514237585 150.790482243984 L 508.83732514237585 159.209517756016" fill="none" stroke="#000000" stroke-miterlimit="10"/></g><g transform="translate(-62,2) scale(1,1)"><g><path fill="none" stroke="none"/><text fill="#000000" font-family="Arial" font-size="13px" font-style="normal" font-weight="normal" stroke="none" text-decoration="none" x="344.5" y="150">2 : demandeDonnées(token)</text></g></g><g transform="translate(-62,2) scale(1,1)"><rect fill="#ffffff" height="28" stroke="none" width="13" x="519" y="155"/></g><g transform="translate(-62,2) scale(1,1)"><path d="M 519 155 L 532 155 L 532 183 L 519 183 L 519 155 Z Z" fill="none" stroke="#000000" stroke-miterlimit="10"/></g><g transform="translate(-62,2) scale(1,1)"><path d="M 532 176 L 562 176 L 562 196 L 532 196" fill="none" stroke="#000000" stroke-miterlimit="10"/></g><g transform="translate(-62,2) scale(1,1)"><path d="M 542.1626748576241 191.790482243984 L 532 196 L 542.1626748576241 200.209517756016" fill="#000000" stroke="none"/></g><g transform="translate(-62,2) scale(1,1)"><path d="M 542.1626748576241 191.790482243984 L 532 196 L 542.1626748576241 200.209517756016 L 542.1626748576241 191.790482243984" fill="none" stroke="#000000" stroke-miterlimit="10"/></g><g transform="translate(-62,2) scale(1,1)"><g><path fill="none" stroke="none"/><text fill="#000000" font-family="Arial" font-size="13px" font-style="normal" font-weight="normal" stroke="none" text-decoration="none" x="575.174072265625" y="190">3 : VerificationToken(token)</text></g></g><g transform="translate(-62,2) scale(1,1)"><rect fill="#ffffff" height="332" stroke="none" width="13" x="519" y="196"/></g><g transform="translate(-62,2) scale(1,1)"><path d="M 519 196 L 532 196 L 532 528 L 519 528 L 519 196 Z Z" fill="none" stroke="#000000" stroke-miterlimit="10"/></g><g transform="translate(-62,2) scale(1,1)"><path d="M 519 266 L 330 266" fill="none" stroke="#000000" stroke-dasharray="3" stroke-miterlimit="10"/></g><g transform="translate(-62,2) scale(1,1)"><path d="M 340.16267485762415 261.790482243984 L 330 266 L 340.16267485762415 270.209517756016" fill="none" stroke="#000000" stroke-miterlimit="10"/></g><g transform="translate(-62,2) scale(1,1)"><g><path fill="none" stroke="none"/><text fill="#000000" font-family="Arial" font-size="13px" font-style="normal" font-weight="normal" stroke="none" text-decoration="none" x="345.5" y="281">4 : Message(tokenExpired)</text></g></g><g transform="translate(-62,2) scale(1,1)"><path d="M 532 337 L 781 337" fill="none" stroke="#000000" stroke-miterlimit="10"/></g><g transform="translate(-62,2) scale(1,1)"><path d="M 770.8373251423759 341.209517756016 L 781 337 L 770.8373251423758 332.790482243984" fill="#000000" stroke="none"/></g><g transform="translate(-62,2) scale(1,1)"><path d="M 770.8373251423759 341.209517756016 L 781 337 L 770.8373251423758 332.790482243984 L 770.8373251423759 341.209517756016" fill="none" stroke="#000000" stroke-miterlimit="10"/></g><g transform="translate(-62,2) scale(1,1)"><g><path fill="none" stroke="none"/><text fill="#000000" font-family="Arial" font-size="13px" font-style="normal" font-weight="normal" stroke="none" text-decoration="none" x="601.341796875" y="332">5 : getUserById(id)</text></g></g><g transform="translate(-62,2) scale(1,1)"><rect fill="#ffffff" height="143" stroke="none" width="13" x="781" y="337"/></g><g transform="translate(-62,2) scale(1,1)"><path d="M 781 337 L 794 337 L 794 480 L 781 480 L 781 337 Z Z" fill="none" stroke="#000000" stroke-miterlimit="10"/></g><g transform="translate(-62,2) scale(1,1)"><path d="M 781 408 L 532 408" fill="none" stroke="#000000" stroke-dasharray="3" stroke-miterlimit="10"/></g><g transform="translate(-62,2) scale(1,1)"><path d="M 542.1626748576241 403.790482243984 L 532 408 L 542.1626748576241 412.209517756016" fill="none" stroke="#000000" stroke-miterlimit="10"/></g><g transform="translate(-62,2) scale(1,1)"><g><path fill="none" stroke="none"/><text fill="#000000" font-family="Arial" font-size="13px" font-style="normal" font-weight="normal" stroke="none" text-decoration="none" x="614.5" y="423">6 : return(null)</text></g></g><g transform="translate(-62,2) scale(1,1)"><path d="M 519 432 L 330 432" fill="none" stroke="#000000" stroke-dasharray="3" stroke-miterlimit="10"/></g><g transform="translate(-62,2) scale(1,1)"><path d="M 340.16267485762415 427.790482243984 L 330 432 L 340.16267485762415 436.209517756016" fill="none" stroke="#000000" stroke-miterlimit="10"/></g><g transform="translate(-62,2) scale(1,1)"><g><path fill="none" stroke="none"/><text fill="#000000" font-family="Arial" font-size="13px" font-style="normal" font-weight="normal" stroke="none" text-decoration="none" x="340.5" y="447">7 : Message(User notFound)</text></g></g><g transform="translate(-62,2) scale(1,1)"><path d="M 781 472 L 532 472" fill="none" stroke="#000000" stroke-dasharray="3" stroke-miterlimit="10"/></g><g transform="translate(-62,2) scale(1,1)"><path d="M 542.1626748576241 467.790482243984 L 532 472 L 542.1626748576241 476.209517756016" fill="none" stroke="#000000" stroke-miterlimit="10"/></g><g transform="translate(-62,2) scale(1,1)"><g><path fill="none" stroke="none"/><text fill="#000000" font-family="Arial" font-size="13px" font-style="normal" font-weight="normal" stroke="none" text-decoration="none" x="612.5" y="487">8 : return(user)</text></g></g><g transform="translate(-62,2) scale(1,1)"><path d="M 519 504 L 330 504" fill="none" stroke="#000000" stroke-dasharray="3" stroke-miterlimit="10"/></g><g transform="translate(-62,2) scale(1,1)"><path d="M 340.16267485762415 499.790482243984 L 330 504 L 340.16267485762415 508.209517756016" fill="none" stroke="#000000" stroke-miterlimit="10"/></g><g transform="translate(-62,2) scale(1,1)"><g><path fill="none" stroke="none"/><text fill="#000000" font-family="Arial" font-size="13px" font-style="normal" font-weight="normal" stroke="none" text-decoration="none" x="359.5" y="519">9 : return JSON(User)</text></g></g><g transform="translate(-62,2) scale(1,1)"><path d="M 330 536 L 360 536 L 360 556 L 336 556" fill="none" stroke="#000000" stroke-miterlimit="10"/></g><g transform="translate(-62,2) scale(1,1)"><path d="M 346.16267485762415 551.790482243984 L 336 556 L 346.16267485762415 560.209517756016" fill="#000000" stroke="none"/></g><g transform="translate(-62,2) scale(1,1)"><path d="M 346.16267485762415 551.790482243984 L 336 556 L 346.16267485762415 560.209517756016 L 346.16267485762415 551.790482243984" fill="none" stroke="#000000" stroke-miterlimit="10"/></g><g transform="translate(-62,2) scale(1,1)"><g><path fill="none" stroke="none"/><text fill="#000000" font-family="Arial" font-size="13px" font-style="normal" font-weight="normal" stroke="none" text-decoration="none" x="366.5" y="555">10 : charger(User)</text></g></g><g transform="translate(-62,2) scale(1,1)"><rect fill="#ffffff" height="28" stroke="none" width="13" x="323" y="556"/></g><g transform="translate(-62,2) scale(1,1)"><path d="M 323 556 L 336 556 L 336 584 L 323 584 L 323 556 Z Z" fill="none" stroke="#000000" stroke-miterlimit="10"/></g><g transform="translate(-62,2) scale(1,1)"><path d="M 104 232 L 831 232 L 831 624 L 104 624 L 104 232" fill="none" stroke="#000000" stroke-miterlimit="10"/></g><g transform="translate(-62,2) scale(1,1)"><path d="M 104 232 L 104 254 L 133.72998046875 254 L 144.72998046875 243 L 144.72998046875 232 L 104 232" fill="#ffffff" stroke="none"/></g><g transform="translate(-62,2) scale(1,1)"><path d="M 104 232 L 104 254 L 133.72998046875 254 L 144.72998046875 243 L 144.72998046875 232 L 104 232 L 104 232" fill="none" stroke="#000000" stroke-miterlimit="10"/></g><g transform="translate(-62,2) scale(1,1)"><g><path fill="none" stroke="none"/><text fill="#000000" font-family="Arial" font-size="13px" font-style="normal" font-weight="bold" stroke="none" text-decoration="none" x="108.279541015625" y="248">alt</text></g></g><g transform="translate(-62,2) scale(1,1)"><g><path fill="none" stroke="none"/><text fill="#000000" font-family="Arial" font-size="13px" font-style="normal" font-weight="normal" stroke="none" text-decoration="none" x="123.5" y="281">[token expiré]</text></g></g><g transform="translate(-62,2) scale(1,1)"><path d="M 104 298 L 831 298" fill="none" stroke="#000000" stroke-dasharray="10,3" stroke-miterlimit="10"/></g><g transform="translate(-62,2) scale(1,1)"><g><path fill="none" stroke="none"/><text fill="#000000" font-family="Arial" font-size="13px" font-style="normal" font-weight="normal" stroke="none" text-decoration="none" x="123.5" y="324">[token valide]</text></g></g><g transform="translate(-62,2) scale(1,1)"><path d="M 128 376 L 815 376 L 815 608 L 128 608 L 128 376" fill="none" stroke="#000000" stroke-miterlimit="10"/></g><g transform="translate(-62,2) scale(1,1)"><path d="M 128 376 L 128 398 L 157.72998046875 398 L 168.72998046875 387 L 168.72998046875 376 L 128 376" fill="#ffffff" stroke="none"/></g><g transform="translate(-62,2) scale(1,1)"><path d="M 128 376 L 128 398 L 157.72998046875 398 L 168.72998046875 387 L 168.72998046875 376 L 128 376 L 128 376" fill="none" stroke="#000000" stroke-miterlimit="10"/></g><g transform="translate(-62,2) scale(1,1)"><g><path fill="none" stroke="none"/><text fill="#000000" font-family="Arial" font-size="13px" font-style="normal" font-weight="bold" stroke="none" text-decoration="none" x="132.279541015625" y="392">alt</text></g></g><g transform="translate(-62,2) scale(1,1)"><g><path fill="none" stroke="none"/><text fill="#000000" font-family="Arial" font-size="13px" font-style="normal" font-weight="normal" stroke="none" text-decoration="none" x="147.5" y="425">[user n'existe pas]</text></g></g><g transform="translate(-62,2) scale(1,1)"><path d="M 128 457 L 815 457" fill="none" stroke="#000000" stroke-dasharray="10,3" stroke-miterlimit="10"/></g><g transform="translate(-62,2) scale(1,1)"><g><path fill="none" stroke="none"/><text fill="#000000" font-family="Arial" font-size="13px" font-style="normal" font-weight="normal" stroke="none" text-decoration="none" x="147.5" y="483">[user existe]</text></g></g></g></svg>