<?xml version="1.0" encoding="UTF-8" standalone="no"?><svg xmlns="http://www.w3.org/2000/svg" xmlns:xlink="http://www.w3.org/1999/xlink" height="804" version="1.1" width="748"><defs/><g><g transform="translate(-118,2) scale(1,1)"><path d="M 128 8 L 856 8 L 856 792 L 128 792 L 128 8" fill="none" stroke="#000000" stroke-miterlimit="10"/></g><g transform="translate(-118,2) scale(1,1)"><path d="M 128 8 L 128 30 L 237.1962890625 30 L 248.1962890625 19 L 248.1962890625 8 L 128 8" fill="#ffffff" stroke="none"/></g><g transform="translate(-118,2) scale(1,1)"><path d="M 128 8 L 128 30 L 237.1962890625 30 L 248.1962890625 19 L 248.1962890625 8 L 128 8 L 128 8" fill="none" stroke="#000000" stroke-miterlimit="10"/></g><g transform="translate(-118,2) scale(1,1)"><g><path fill="none" stroke="none"/><text fill="#000000" font-family="Arial" font-size="13px" font-style="normal" font-weight="normal" stroke="none" text-decoration="none" x="152.72998046875" y="24">Modifier Profil</text></g></g><g transform="translate(-118,2) scale(1,1)"><g><path fill="none" stroke="none"/><text fill="#000000" font-family="Arial" font-size="13px" font-style="normal" font-weight="bold" stroke="none" text-decoration="none" x="132.279541015625" y="24">sd</text></g></g><g transform="translate(-118,2) scale(1,1)"><path d="M 184.9981551846591 47.3 C 184.9981551846591 43.82060576 187.8765569068409 41 191.42724609375 41 C 194.9779352806591 41 197.85633700284092 43.82060576 197.85633700284092 47.3 C 197.85633700284092 50.779394239999995 194.9779352806591 53.6 191.42724609375 53.6 C 187.8765569068409 53.6 184.9981551846591 50.779394239999995 184.9981551846591 47.3 Z" fill="#ffffff" stroke="none"/></g><g transform="translate(-118,2) scale(1,1)"><path d="M 184.9981551846591 47.3 C 184.9981551846591 43.82060576 187.8765569068409 41 191.42724609375 41 C 194.9779352806591 41 197.85633700284092 43.82060576 197.85633700284092 47.3 C 197.85633700284092 50.779394239999995 194.9779352806591 53.6 191.42724609375 53.6 C 187.8765569068409 53.6 184.9981551846591 50.779394239999995 184.9981551846591 47.3 Z" fill="none" stroke="#000000" stroke-miterlimit="10"/></g><g transform="translate(-118,2) scale(1,1)"><path d="M 191.42724609375 53.6 L 191.42724609375 66.4" fill="none" stroke="#000000" stroke-miterlimit="10"/></g><g transform="translate(-118,2) scale(1,1)"><path d="M 184.6199733664773 58.4 L 198.23451882102273 58.4" fill="none" stroke="#000000" stroke-miterlimit="10"/></g><g transform="translate(-118,2) scale(1,1)"><path d="M 191.42724609375 66.4 L 181.97270063920456 79" fill="none" stroke="#000000" stroke-miterlimit="10"/></g><g transform="translate(-118,2) scale(1,1)"><path d="M 191.42724609375 66.4 L 200.88179154829547 79" fill="none" stroke="#000000" stroke-miterlimit="10"/></g><g transform="translate(-118,2) scale(1,1)"><g><path fill="none" stroke="none"/><text fill="#000000" font-family="Arial" font-size="13px" font-style="normal" font-weight="bold" stroke="none" text-decoration="none" x="150.25" y="98">Lifeline: User</text></g></g><g transform="translate(-118,2) scale(1,1)"><path d="M 192.5 105 L 192.5 792" fill="none" stroke="#000000" stroke-dasharray="3" stroke-miterlimit="10"/></g><g transform="translate(-118,2) scale(1,1)"><rect fill="#C0C0C0" height="39" opacity="0.2" stroke="none" width="122.2763671875" x="519" y="47"/></g><g transform="translate(-118,2) scale(1,1)"><rect fill="#ffffff" height="39" stroke="none" width="122.2763671875" x="512" y="40"/></g><g transform="translate(-118,2) scale(1,1)"><path d="M 512 40 L 634.2763671875 40 L 634.2763671875 79 L 512 79 L 512 40 Z Z" fill="none" stroke="#000000" stroke-miterlimit="10"/></g><g transform="translate(-118,2) scale(1,1)"><g><path fill="none" stroke="none"/><text fill="#000000" font-family="Arial" font-size="13px" font-style="normal" font-weight="bold" stroke="none" text-decoration="none" x="521.5" y="58">Controller: Profil</text></g></g><g transform="translate(-118,2) scale(1,1)"><path d="M 574.5 80 L 574.5 792" fill="none" stroke="#000000" stroke-dasharray="3" stroke-miterlimit="10"/></g><g transform="translate(-118,2) scale(1,1)"><rect fill="#C0C0C0" height="39" opacity="0.2" stroke="none" width="114.3544921875" x="319" y="47"/></g><g transform="translate(-118,2) scale(1,1)"><rect fill="#ffffff" height="39" stroke="none" width="114.3544921875" x="312" y="40"/></g><g transform="translate(-118,2) scale(1,1)"><path d="M 312 40 L 426.3544921875 40 L 426.3544921875 79 L 312 79 L 312 40 Z Z" fill="none" stroke="#000000" stroke-miterlimit="10"/></g><g transform="translate(-118,2) scale(1,1)"><g><path fill="none" stroke="none"/><text fill="#000000" font-family="Arial" font-size="13px" font-style="normal" font-weight="bold" stroke="none" text-decoration="none" x="321.5" y="58">Interface: Profil</text></g></g><g transform="translate(-118,2) scale(1,1)"><path d="M 370.5 80 L 370.5 792" fill="none" stroke="#000000" stroke-dasharray="3" stroke-miterlimit="10"/></g><g transform="translate(-118,2) scale(1,1)"><rect fill="#ffffff" height="39" stroke="none" width="71.736328125" x="728" y="40"/></g><g transform="translate(-118,2) scale(1,1)"><path d="M 728 40 L 799.736328125 40 L 799.736328125 79 L 728 79 L 728 40 Z Z" fill="none" stroke="#000000" stroke-miterlimit="10"/></g><g transform="translate(-118,2) scale(1,1)"><g><path fill="none" stroke="none"/><text fill="#000000" font-family="Arial" font-size="13px" font-style="normal" font-weight="bold" stroke="none" text-decoration="none" x="745.799560546875" y="58">Users</text></g></g><g transform="translate(-118,2) scale(1,1)"><path d="M 764.5 80 L 764.5 792" fill="none" stroke="#000000" stroke-dasharray="3" stroke-miterlimit="10"/></g><g transform="translate(-118,2) scale(1,1)"><path d="M 192 280 L 363 280" fill="none" stroke="#000000" stroke-miterlimit="10"/></g><g transform="translate(-118,2) scale(1,1)"><path d="M 352.83732514237585 284.209517756016 L 363 280 L 352.83732514237585 275.790482243984" fill="#000000" stroke="none"/></g><g transform="translate(-118,2) scale(1,1)"><path d="M 352.83732514237585 284.209517756016 L 363 280 L 352.83732514237585 275.790482243984 L 352.83732514237585 284.209517756016" fill="none" stroke="#000000" stroke-miterlimit="10"/></g><g transform="translate(-118,2) scale(1,1)"><g><path fill="none" stroke="none"/><text fill="#000000" font-family="Arial" font-size="13px" font-style="normal" font-weight="normal" stroke="none" text-decoration="none" x="201.503173828125" y="275">1 : modifierDonnées(data)</text></g></g><g transform="translate(-118,2) scale(1,1)"><rect fill="#ffffff" height="28" stroke="none" width="13" x="363" y="280"/></g><g transform="translate(-118,2) scale(1,1)"><path d="M 363 280 L 376 280 L 376 308 L 363 308 L 363 280 Z Z" fill="none" stroke="#000000" stroke-miterlimit="10"/></g><g transform="translate(-118,2) scale(1,1)"><path d="M 192 324 L 363 324" fill="none" stroke="#000000" stroke-miterlimit="10"/></g><g transform="translate(-118,2) scale(1,1)"><path d="M 352.83732514237585 328.209517756016 L 363 324 L 352.83732514237585 319.790482243984" fill="#000000" stroke="none"/></g><g transform="translate(-118,2) scale(1,1)"><path d="M 352.83732514237585 328.209517756016 L 363 324 L 352.83732514237585 319.790482243984 L 352.83732514237585 328.209517756016" fill="none" stroke="#000000" stroke-miterlimit="10"/></g><g transform="translate(-118,2) scale(1,1)"><g><path fill="none" stroke="none"/><text fill="#000000" font-family="Arial" font-size="13px" font-style="normal" font-weight="normal" stroke="none" text-decoration="none" x="236.5" y="319">2 : cliqueSave</text></g></g><g transform="translate(-118,2) scale(1,1)"><rect fill="#ffffff" height="28" stroke="none" width="13" x="363" y="324"/></g><g transform="translate(-118,2) scale(1,1)"><path d="M 363 324 L 376 324 L 376 352 L 363 352 L 363 324 Z Z" fill="none" stroke="#000000" stroke-miterlimit="10"/></g><g transform="translate(-118,2) scale(1,1)"><path d="M 376 344 L 567 344" fill="none" stroke="#000000" stroke-miterlimit="10"/></g><g transform="translate(-118,2) scale(1,1)"><path d="M 556.8373251423759 348.209517756016 L 567 344 L 556.8373251423758 339.790482243984" fill="#000000" stroke="none"/></g><g transform="translate(-118,2) scale(1,1)"><path d="M 556.8373251423759 348.209517756016 L 567 344 L 556.8373251423758 339.790482243984 L 556.8373251423759 348.209517756016" fill="none" stroke="#000000" stroke-miterlimit="10"/></g><g transform="translate(-118,2) scale(1,1)"><g><path fill="none" stroke="none"/><text fill="#000000" font-family="Arial" font-size="13px" font-style="normal" font-weight="normal" stroke="none" text-decoration="none" x="408.588623046875" y="339">3 : modifierUser(data)</text></g></g><g transform="translate(-118,2) scale(1,1)"><rect fill="#ffffff" height="264" stroke="none" width="13" x="567" y="344"/></g><g transform="translate(-118,2) scale(1,1)"><path d="M 567 344 L 580 344 L 580 608 L 567 608 L 567 344 Z Z" fill="none" stroke="#000000" stroke-miterlimit="10"/></g><g transform="translate(-118,2) scale(1,1)"><path d="M 580 360 L 757 360" fill="none" stroke="#000000" stroke-miterlimit="10"/></g><g transform="translate(-118,2) scale(1,1)"><path d="M 746.8373251423759 364.209517756016 L 757 360 L 746.8373251423758 355.790482243984" fill="#000000" stroke="none"/></g><g transform="translate(-118,2) scale(1,1)"><path d="M 746.8373251423759 364.209517756016 L 757 360 L 746.8373251423758 355.790482243984 L 746.8373251423759 364.209517756016" fill="none" stroke="#000000" stroke-miterlimit="10"/></g><g transform="translate(-118,2) scale(1,1)"><g><path fill="none" stroke="none"/><text fill="#000000" font-family="Arial" font-size="13px" font-style="normal" font-weight="normal" stroke="none" text-decoration="none" x="587.503173828125" y="355">4 : UpdateUserById(id,data)</text></g></g><g transform="translate(-118,2) scale(1,1)"><rect fill="#ffffff" height="160" stroke="none" width="13" x="757" y="360"/></g><g transform="translate(-118,2) scale(1,1)"><path d="M 757 360 L 770 360 L 770 520 L 757 520 L 757 360 Z Z" fill="none" stroke="#000000" stroke-miterlimit="10"/></g><g transform="translate(-118,2) scale(1,1)"><path d="M 757 432 L 580 432" fill="none" stroke="#000000" stroke-dasharray="3" stroke-miterlimit="10"/></g><g transform="translate(-118,2) scale(1,1)"><path d="M 590.1626748576241 427.790482243984 L 580 432 L 590.1626748576241 436.209517756016" fill="none" stroke="#000000" stroke-miterlimit="10"/></g><g transform="translate(-118,2) scale(1,1)"><g><path fill="none" stroke="none"/><text fill="#000000" font-family="Arial" font-size="13px" font-style="normal" font-weight="normal" stroke="none" text-decoration="none" x="622.5" y="447">5 : return(error)</text></g></g><g transform="translate(-118,2) scale(1,1)"><path d="M 567 448 L 370 448" fill="none" stroke="#000000" stroke-dasharray="3" stroke-miterlimit="10"/></g><g transform="translate(-118,2) scale(1,1)"><path d="M 380.16267485762415 443.790482243984 L 370 448 L 380.16267485762415 452.209517756016" fill="none" stroke="#000000" stroke-miterlimit="10"/></g><g transform="translate(-118,2) scale(1,1)"><g><path fill="none" stroke="none"/><text fill="#000000" font-family="Arial" font-size="13px" font-style="normal" font-weight="normal" stroke="none" text-decoration="none" x="384.5" y="463">6 : Message(Error Updating)</text></g></g><g transform="translate(-118,2) scale(1,1)"><path d="M 757 504 L 580 504" fill="none" stroke="#000000" stroke-dasharray="3" stroke-miterlimit="10"/></g><g transform="translate(-118,2) scale(1,1)"><path d="M 590.1626748576241 499.790482243984 L 580 504 L 590.1626748576241 508.209517756016" fill="none" stroke="#000000" stroke-miterlimit="10"/></g><g transform="translate(-118,2) scale(1,1)"><g><path fill="none" stroke="none"/><text fill="#000000" font-family="Arial" font-size="13px" font-style="normal" font-weight="normal" stroke="none" text-decoration="none" x="599.200439453125" y="519">7 : return(updatedUser)</text></g></g><g transform="translate(-118,2) scale(1,1)"><path d="M 567 536 L 370 536" fill="none" stroke="#000000" stroke-dasharray="3" stroke-miterlimit="10"/></g><g transform="translate(-118,2) scale(1,1)"><path d="M 380.16267485762415 531.790482243984 L 370 536 L 380.16267485762415 540.209517756016" fill="none" stroke="#000000" stroke-miterlimit="10"/></g><g transform="translate(-118,2) scale(1,1)"><g><path fill="none" stroke="none"/><text fill="#000000" font-family="Arial" font-size="13px" font-style="normal" font-weight="normal" stroke="none" text-decoration="none" x="366.5" y="551">8 : Message(successfully updated)</text></g></g><g transform="translate(-118,2) scale(1,1)"><path d="M 567 585 L 370 585" fill="none" stroke="#000000" stroke-dasharray="3" stroke-miterlimit="10"/></g><g transform="translate(-118,2) scale(1,1)"><path d="M 380.16267485762415 580.790482243984 L 370 585 L 380.16267485762415 589.209517756016" fill="none" stroke="#000000" stroke-miterlimit="10"/></g><g transform="translate(-118,2) scale(1,1)"><g><path fill="none" stroke="none"/><text fill="#000000" font-family="Arial" font-size="13px" font-style="normal" font-weight="normal" stroke="none" text-decoration="none" x="383.5" y="600">9 : return Json(updatedUser)</text></g></g><g transform="translate(-118,2) scale(1,1)"><path d="M 370 616 L 400 616 L 400 636 L 376 636" fill="none" stroke="#000000" stroke-miterlimit="10"/></g><g transform="translate(-118,2) scale(1,1)"><path d="M 386.16267485762415 631.790482243984 L 376 636 L 386.16267485762415 640.209517756016" fill="#000000" stroke="none"/></g><g transform="translate(-118,2) scale(1,1)"><path d="M 386.16267485762415 631.790482243984 L 376 636 L 386.16267485762415 640.209517756016 L 386.16267485762415 631.790482243984" fill="none" stroke="#000000" stroke-miterlimit="10"/></g><g transform="translate(-118,2) scale(1,1)"><g><path fill="none" stroke="none"/><text fill="#000000" font-family="Arial" font-size="13px" font-style="normal" font-weight="normal" stroke="none" text-decoration="none" x="387.5" y="651">10 : charger(updatedUser)</text></g></g><g transform="translate(-118,2) scale(1,1)"><rect fill="#ffffff" height="28" stroke="none" width="13" x="363" y="636"/></g><g transform="translate(-118,2) scale(1,1)"><path d="M 363 636 L 376 636 L 376 664 L 363 664 L 363 636 Z Z" fill="none" stroke="#000000" stroke-miterlimit="10"/></g><g transform="translate(-118,2) scale(1,1)"><rect fill="#ffffff" height="87" stroke="none" width="680" x="152" y="128"/></g><g transform="translate(-118,2) scale(1,1)"><path d="M 152 128 L 832 128 L 832 215 L 152 215 L 152 128 Z Z" fill="none" stroke="#000000" stroke-miterlimit="10"/></g><g transform="translate(-118,2) scale(1,1)"><path d="M 152 128 L 152 150 L 177.1708984375 150 L 188.1708984375 139 L 188.1708984375 128 L 152 128 L 152 128" fill="none" stroke="#000000" stroke-miterlimit="10"/></g><g transform="translate(-118,2) scale(1,1)"><g><path fill="none" stroke="none"/><text fill="#000000" font-family="Arial" font-size="13px" font-style="normal" font-weight="normal" stroke="none" text-decoration="none" x="510.08544921875" y="139"/></g></g><g transform="translate(-118,2) scale(1,1)"><g><path fill="none" stroke="none"/><text fill="#000000" font-family="Arial" font-size="13px" font-style="normal" font-weight="bold" stroke="none" text-decoration="none" x="156.2763671875" y="144">ref</text></g></g><g transform="translate(-118,2) scale(1,1)"><path d="M 176 408 L 808 408 L 808 712 L 176 712 L 176 408" fill="none" stroke="#000000" stroke-miterlimit="10"/></g><g transform="translate(-118,2) scale(1,1)"><path d="M 176 408 L 176 430 L 205.72998046875 430 L 216.72998046875 419 L 216.72998046875 408 L 176 408" fill="#ffffff" stroke="none"/></g><g transform="translate(-118,2) scale(1,1)"><path d="M 176 408 L 176 430 L 205.72998046875 430 L 216.72998046875 419 L 216.72998046875 408 L 176 408 L 176 408" fill="none" stroke="#000000" stroke-miterlimit="10"/></g><g transform="translate(-118,2) scale(1,1)"><g><path fill="none" stroke="none"/><text fill="#000000" font-family="Arial" font-size="13px" font-style="normal" font-weight="bold" stroke="none" text-decoration="none" x="180.279541015625" y="424">alt</text></g></g><g transform="translate(-118,2) scale(1,1)"><g><path fill="none" stroke="none"/><text fill="#000000" font-family="Arial" font-size="13px" font-style="normal" font-weight="normal" stroke="none" text-decoration="none" x="195.5" y="457">[données invalides]</text></g></g><g transform="translate(-118,2) scale(1,1)"><path d="M 176 474 L 808 474" fill="none" stroke="#000000" stroke-dasharray="10,3" stroke-miterlimit="10"/></g><g transform="translate(-118,2) scale(1,1)"><g><path fill="none" stroke="none"/><text fill="#000000" font-family="Arial" font-size="13px" font-style="normal" font-weight="normal" stroke="none" text-decoration="none" x="195.5" y="500">[données valides]</text></g></g></g></svg>