<?xml version="1.0" encoding="UTF-8" standalone="no"?><svg xmlns="http://www.w3.org/2000/svg" xmlns:xlink="http://www.w3.org/1999/xlink" height="396" version="1.1" width="961"><defs/><g><g transform="translate(-254,-142) scale(1,1)"><path d="M 291.60661594460225 281.68 C 291.60661594460225 276.886167936 295.49245826954774 273 300.285888671875 273 C 305.07931907420226 273 308.96516139914775 276.886167936 308.96516139914775 281.68 C 308.96516139914775 286.473832064 305.07931907420226 290.36 300.285888671875 290.36 C 295.49245826954774 290.36 291.60661594460225 286.473832064 291.60661594460225 281.68 Z" fill="#ffffff" stroke="none"/></g><g transform="translate(-254,-142) scale(1,1)"><path d="M 291.60661594460225 281.68 C 291.60661594460225 276.886167936 295.49245826954774 273 300.285888671875 273 C 305.07931907420226 273 308.96516139914775 276.886167936 308.96516139914775 281.68 C 308.96516139914775 286.473832064 305.07931907420226 290.36 300.285888671875 290.36 C 295.49245826954774 290.36 291.60661594460225 286.473832064 291.60661594460225 281.68 Z" fill="none" stroke="#000000" stroke-miterlimit="10"/></g><g transform="translate(-254,-142) scale(1,1)"><path d="M 300.285888671875 290.36 L 300.285888671875 307.64" fill="none" stroke="#000000" stroke-miterlimit="10"/></g><g transform="translate(-254,-142) scale(1,1)"><path d="M 291.09607049005683 296.84 L 309.47570685369317 296.84" fill="none" stroke="#000000" stroke-miterlimit="10"/></g><g transform="translate(-254,-142) scale(1,1)"><path d="M 300.285888671875 307.64 L 287.52225230823865 325" fill="none" stroke="#000000" stroke-miterlimit="10"/></g><g transform="translate(-254,-142) scale(1,1)"><path d="M 300.285888671875 307.64 L 313.04952503551135 325" fill="none" stroke="#000000" stroke-miterlimit="10"/></g><g transform="translate(-254,-142) scale(1,1)"><g><path fill="none" stroke="none"/><text fill="#000000" font-family="Arial" font-size="13px" font-style="normal" font-weight="bold" stroke="none" text-decoration="none" x="268.5" y="344">Utilisateur</text></g></g><g transform="translate(-254,-142) scale(1,1)"><path d="M 439 319 C 439 305.7451648 463.62433599999997 295 494 295 C 524.375664 295 549 305.7451648 549 319 C 549 332.2548352 524.375664 343 494 343 C 463.62433599999997 343 439 332.2548352 439 319 Z" fill="#C0C0C0" opacity="0.2" stroke="none"/></g><g transform="translate(-254,-142) scale(1,1)"><path d="M 432 312 C 432 298.7451648 456.62433599999997 288 487 288 C 517.375664 288 542 298.7451648 542 312 C 542 325.2548352 517.375664 336 487 336 C 456.62433599999997 336 432 325.2548352 432 312 Z" fill="#ffffff" stroke="none"/></g><g transform="translate(-254,-142) scale(1,1)"><path d="M 432 312 C 432 298.7451648 456.62433599999997 288 487 288 C 517.375664 288 542 298.7451648 542 312 C 542 325.2548352 517.375664 336 487 336 C 456.62433599999997 336 432 325.2548352 432 312 Z" fill="none" stroke="#000000" stroke-miterlimit="10"/></g><g transform="translate(-254,-142) scale(1,1)"><g><path fill="none" stroke="none"/><text fill="#000000" font-family="Arial" font-size="13px" font-style="normal" font-weight="bold" stroke="none" text-decoration="none" x="452.687744140625" y="317.5">gérer profil</text></g></g><g transform="translate(-254,-142) scale(1,1)"><path d="M 431 312 L 338 311" fill="none" stroke="#000000" stroke-miterlimit="10"/></g><g transform="translate(-254,-142) scale(1,1)"><path d="M 639 287 C 639 273.7451648 673.0263552 263 715 263 C 756.9736448 263 791 273.7451648 791 287 C 791 300.2548352 756.9736448 311 715 311 C 673.0263552 311 639 300.2548352 639 287 Z" fill="#C0C0C0" opacity="0.2" stroke="none"/></g><g transform="translate(-254,-142) scale(1,1)"><path d="M 632 280 C 632 266.7451648 666.0263552 256 708 256 C 749.9736448 256 784 266.7451648 784 280 C 784 293.2548352 749.9736448 304 708 304 C 666.0263552 304 632 293.2548352 632 280 Z" fill="#ffffff" stroke="none"/></g><g transform="translate(-254,-142) scale(1,1)"><path d="M 632 280 C 632 266.7451648 666.0263552 256 708 256 C 749.9736448 256 784 266.7451648 784 280 C 784 293.2548352 749.9736448 304 708 304 C 666.0263552 304 632 293.2548352 632 280 Z" fill="none" stroke="#000000" stroke-miterlimit="10"/></g><g transform="translate(-254,-142) scale(1,1)"><g><path fill="none" stroke="none"/><text fill="#000000" font-family="Arial" font-size="13px" font-style="normal" font-weight="bold" stroke="none" text-decoration="none" x="660.69091796875" y="285.5">consulter profil</text></g></g><g transform="translate(-254,-142) scale(1,1)"><path d="M 647 371 C 647 355.5360256 677.4446336 343 715 343 C 752.5553664 343 783 355.5360256 783 371 C 783 386.4639744 752.5553664 399 715 399 C 677.4446336 399 647 386.4639744 647 371 Z" fill="#C0C0C0" opacity="0.2" stroke="none"/></g><g transform="translate(-254,-142) scale(1,1)"><path d="M 640 364 C 640 348.5360256 670.4446336 336 708 336 C 745.5553664 336 776 348.5360256 776 364 C 776 379.4639744 745.5553664 392 708 392 C 670.4446336 392 640 379.4639744 640 364 Z" fill="#ffffff" stroke="none"/></g><g transform="translate(-254,-142) scale(1,1)"><path d="M 640 364 C 640 348.5360256 670.4446336 336 708 336 C 745.5553664 336 776 348.5360256 776 364 C 776 379.4639744 745.5553664 392 708 392 C 670.4446336 392 640 379.4639744 640 364 Z" fill="none" stroke="#000000" stroke-miterlimit="10"/></g><g transform="translate(-254,-142) scale(1,1)"><g><path fill="none" stroke="none"/><text fill="#000000" font-family="Arial" font-size="13px" font-style="normal" font-weight="bold" stroke="none" text-decoration="none" x="664.305908203125" y="369.5">modifier profil</text></g></g><g transform="translate(-254,-142) scale(1,1)"><path d="M 631 291 L 543 304" fill="none" stroke="#000000" stroke-miterlimit="10"/></g><g transform="translate(-254,-142) scale(1,1)"><path d="M 561.8767631624438 292.70098179004015 L 543 304 L 564.3374996360293 309.35827484200354" fill="#FFFFFF" stroke="none"/></g><g transform="translate(-254,-142) scale(1,1)"><path d="M 561.8767631624438 292.70098179004015 L 543 304 L 564.3374996360293 309.35827484200354 L 561.8767631624438 292.70098179004015" fill="none" stroke="#000000" stroke-miterlimit="10"/></g><g transform="translate(-254,-142) scale(1,1)"><path d="M 639 348 L 543 325" fill="none" stroke="#000000" stroke-miterlimit="10"/></g><g transform="translate(-254,-142) scale(1,1)"><path d="M 564.7275288098471 321.54826249299475 L 543 325 L 560.8044299579483 337.92293596178956" fill="#FFFFFF" stroke="none"/></g><g transform="translate(-254,-142) scale(1,1)"><path d="M 564.7275288098471 321.54826249299475 L 543 325 L 560.8044299579483 337.92293596178956 L 564.7275288098471 321.54826249299475" fill="none" stroke="#000000" stroke-miterlimit="10"/></g><g transform="translate(-254,-142) scale(1,1)"><path d="M 431 183 C 431 169.7451648 459.4299152 159 494.5 159 C 529.5700848 159 558 169.7451648 558 183 C 558 196.2548352 529.5700848 207 494.5 207 C 459.4299152 207 431 196.2548352 431 183 Z" fill="#C0C0C0" opacity="0.2" stroke="none"/></g><g transform="translate(-254,-142) scale(1,1)"><path d="M 424 176 C 424 162.7451648 452.4299152 152 487.5 152 C 522.5700848 152 551 162.7451648 551 176 C 551 189.2548352 522.5700848 200 487.5 200 C 452.4299152 200 424 189.2548352 424 176 Z" fill="#ffffff" stroke="none"/></g><g transform="translate(-254,-142) scale(1,1)"><path d="M 424 176 C 424 162.7451648 452.4299152 152 487.5 152 C 522.5700848 152 551 162.7451648 551 176 C 551 189.2548352 522.5700848 200 487.5 200 C 452.4299152 200 424 189.2548352 424 176 Z" fill="none" stroke="#000000" stroke-miterlimit="10"/></g><g transform="translate(-254,-142) scale(1,1)"><g><path fill="none" stroke="none"/><text fill="#000000" font-family="Arial" font-size="13px" font-style="normal" font-weight="bold" stroke="none" text-decoration="none" x="446.947998046875" y="181.5">s'authentifier</text></g></g><g transform="translate(-254,-142) scale(1,1)"><path d="M 487 287 L 487 201" fill="none" stroke="#000000" stroke-dasharray="3" stroke-miterlimit="10"/></g><g transform="translate(-254,-142) scale(1,1)"><path d="M 491.209517756016 211.16267485762415 L 487 201 L 482.790482243984 211.16267485762415" fill="none" stroke="#000000" stroke-miterlimit="10"/></g><g transform="translate(-254,-142) scale(1,1)"><g><path fill="none" stroke="none"/><text fill="#000000" font-family="Arial" font-size="13px" font-style="normal" font-weight="normal" stroke="none" text-decoration="none" x="429.5" y="248">«include»</text></g></g><g transform="translate(-254,-142) scale(1,1)"><path d="M 903 288 C 903 274.19288 967.6948464 263 1047.5 263 C 1127.3051536 263 1192 274.19288 1192 288 C 1192 301.80712 1127.3051536 313 1047.5 313 C 967.6948464 313 903 301.80712 903 288 Z" fill="#C0C0C0" opacity="0.2" stroke="none"/></g><g transform="translate(-254,-142) scale(1,1)"><path d="M 896 281 C 896 267.19288 960.6948464 256 1040.5 256 C 1120.3051536 256 1185 267.19288 1185 281 C 1185 294.80712 1120.3051536 306 1040.5 306 C 960.6948464 306 896 294.80712 896 281 Z" fill="#ffffff" stroke="none"/></g><g transform="translate(-254,-142) scale(1,1)"><path d="M 896 281 C 896 267.19288 960.6948464 256 1040.5 256 C 1120.3051536 256 1185 267.19288 1185 281 C 1185 294.80712 1120.3051536 306 1040.5 306 C 960.6948464 306 896 294.80712 896 281 Z" fill="none" stroke="#000000" stroke-miterlimit="10"/></g><g transform="translate(-254,-142) scale(1,1)"><g><path fill="none" stroke="none"/><text fill="#000000" font-family="Arial" font-size="13px" font-style="normal" font-weight="bold" stroke="none" text-decoration="none" x="942.615966796875" y="286.5">modifier  données personnelles</text></g></g><g transform="translate(-254,-142) scale(1,1)"><path d="M 895 363 C 895 347.5360256 965.9628592 335 1053.5 335 C 1141.0371408 335 1212 347.5360256 1212 363 C 1212 378.4639744 1141.0371408 391 1053.5 391 C 965.9628592 391 895 378.4639744 895 363 Z" fill="#C0C0C0" opacity="0.2" stroke="none"/></g><g transform="translate(-254,-142) scale(1,1)"><path d="M 888 356 C 888 340.5360256 958.9628592 328 1046.5 328 C 1134.0371408 328 1205 340.5360256 1205 356 C 1205 371.4639744 1134.0371408 384 1046.5 384 C 958.9628592 384 888 371.4639744 888 356 Z" fill="#ffffff" stroke="none"/></g><g transform="translate(-254,-142) scale(1,1)"><path d="M 888 356 C 888 340.5360256 958.9628592 328 1046.5 328 C 1134.0371408 328 1205 340.5360256 1205 356 C 1205 371.4639744 1134.0371408 384 1046.5 384 C 958.9628592 384 888 371.4639744 888 356 Z" fill="none" stroke="#000000" stroke-miterlimit="10"/></g><g transform="translate(-254,-142) scale(1,1)"><g><path fill="none" stroke="none"/><text fill="#000000" font-family="Arial" font-size="13px" font-style="normal" font-weight="bold" stroke="none" text-decoration="none" x="938.865966796875" y="361.5">modifer  données professionnelles</text></g></g><g transform="translate(-254,-142) scale(1,1)"><path d="M 943 435 C 943 419.5360256 994.9349632 407 1059 407 C 1123.0650368 407 1175 419.5360256 1175 435 C 1175 450.4639744 1123.0650368 463 1059 463 C 994.9349632 463 943 450.4639744 943 435 Z" fill="#C0C0C0" opacity="0.2" stroke="none"/></g><g transform="translate(-254,-142) scale(1,1)"><path d="M 936 428 C 936 412.5360256 987.9349632 400 1052 400 C 1116.0650368 400 1168 412.5360256 1168 428 C 1168 443.4639744 1116.0650368 456 1052 456 C 987.9349632 456 936 443.4639744 936 428 Z" fill="#ffffff" stroke="none"/></g><g transform="translate(-254,-142) scale(1,1)"><path d="M 936 428 C 936 412.5360256 987.9349632 400 1052 400 C 1116.0650368 400 1168 412.5360256 1168 428 C 1168 443.4639744 1116.0650368 456 1052 456 C 987.9349632 456 936 443.4639744 936 428 Z" fill="none" stroke="#000000" stroke-miterlimit="10"/></g><g transform="translate(-254,-142) scale(1,1)"><g><path fill="none" stroke="none"/><text fill="#000000" font-family="Arial" font-size="13px" font-style="normal" font-weight="bold" stroke="none" text-decoration="none" x="981.20458984375" y="433.5">modifier  mot de passe</text></g></g><g transform="translate(-254,-142) scale(1,1)"><path d="M 935 507 C 935 491.5360256 987.606536 479 1052.5 479 C 1117.393464 479 1170 491.5360256 1170 507 C 1170 522.4639744 1117.393464 535 1052.5 535 C 987.606536 535 935 522.4639744 935 507 Z" fill="#C0C0C0" opacity="0.2" stroke="none"/></g><g transform="translate(-254,-142) scale(1,1)"><path d="M 928 500 C 928 484.5360256 980.606536 472 1045.5 472 C 1110.393464 472 1163 484.5360256 1163 500 C 1163 515.4639744 1110.393464 528 1045.5 528 C 980.606536 528 928 515.4639744 928 500 Z" fill="#ffffff" stroke="none"/></g><g transform="translate(-254,-142) scale(1,1)"><path d="M 928 500 C 928 484.5360256 980.606536 472 1045.5 472 C 1110.393464 472 1163 484.5360256 1163 500 C 1163 515.4639744 1110.393464 528 1045.5 528 C 980.606536 528 928 515.4639744 928 500 Z" fill="none" stroke="#000000" stroke-miterlimit="10"/></g><g transform="translate(-254,-142) scale(1,1)"><g><path fill="none" stroke="none"/><text fill="#000000" font-family="Arial" font-size="13px" font-style="normal" font-weight="bold" stroke="none" text-decoration="none" x="966.74462890625" y="505.5">activer ou désactiver TFA</text></g></g><g transform="translate(-254,-142) scale(1,1)"><path d="M 936 307 L 777 347" fill="none" stroke="#000000" stroke-miterlimit="10"/></g><g transform="translate(-254,-142) scale(1,1)"><path d="M 794.6571755466109 333.87658002972677 L 777 347 L 798.765167818949 350.2058493122707" fill="#FFFFFF" stroke="none"/></g><g transform="translate(-254,-142) scale(1,1)"><path d="M 794.6571755466109 333.87658002972677 L 777 347 L 798.765167818949 350.2058493122707 L 794.6571755466109 333.87658002972677" fill="none" stroke="#000000" stroke-miterlimit="10"/></g><g transform="translate(-254,-142) scale(1,1)"><path d="M 887 360 L 777 362" fill="none" stroke="#000000" stroke-miterlimit="10"/></g><g transform="translate(-254,-142) scale(1,1)"><path d="M 797.1689429081983 353.2128649739613 L 777 362 L 797.4750390638652 370.04815353563754" fill="#FFFFFF" stroke="none"/></g><g transform="translate(-254,-142) scale(1,1)"><path d="M 797.1689429081983 353.2128649739613 L 777 362 L 797.4750390638652 370.04815353563754 L 797.1689429081983 353.2128649739613" fill="none" stroke="#000000" stroke-miterlimit="10"/></g><g transform="translate(-254,-142) scale(1,1)"><path d="M 935 406 L 777 377" fill="none" stroke="#000000" stroke-miterlimit="10"/></g><g transform="translate(-254,-142) scale(1,1)"><path d="M 798.5112756389268 372.3885988695284 L 777 377 L 795.471521886386 388.9500158661303" fill="#FFFFFF" stroke="none"/></g><g transform="translate(-254,-142) scale(1,1)"><path d="M 798.5112756389268 372.3885988695284 L 777 377 L 795.471521886386 388.9500158661303 L 798.5112756389268 372.3885988695284" fill="none" stroke="#000000" stroke-miterlimit="10"/></g><g transform="translate(-254,-142) scale(1,1)"><path d="M 973 471 L 777 392" fill="none" stroke="#000000" stroke-miterlimit="10"/></g><g transform="translate(-254,-142) scale(1,1)"><path d="M 798.9989954125955 391.7897600499372 L 777 392 L 792.7043009299038 407.4069767411723" fill="#FFFFFF" stroke="none"/></g><g transform="translate(-254,-142) scale(1,1)"><path d="M 798.9989954125955 391.7897600499372 L 777 392 L 792.7043009299038 407.4069767411723 L 798.9989954125955 391.7897600499372" fill="none" stroke="#000000" stroke-miterlimit="10"/></g></g></svg>