<?xml version="1.0" encoding="UTF-8" standalone="no"?><svg xmlns="http://www.w3.org/2000/svg" xmlns:xlink="http://www.w3.org/1999/xlink" height="604" version="1.1" width="724"><defs/><g><g transform="translate(-182,-206) scale(1,1)"><path d="M 230.55070774147728 225.68 C 230.55070774147728 220.886167936 234.43655006642274 217 239.22998046875 217 C 244.02341087107726 217 247.90925319602272 220.886167936 247.90925319602272 225.68 C 247.90925319602272 230.47383206400002 244.02341087107726 234.36 239.22998046875 234.36 C 234.43655006642274 234.36 230.55070774147728 230.47383206400002 230.55070774147728 225.68 Z" fill="#ffffff" stroke="none"/></g><g transform="translate(-182,-206) scale(1,1)"><path d="M 230.55070774147728 225.68 C 230.55070774147728 220.886167936 234.43655006642274 217 239.22998046875 217 C 244.02341087107726 217 247.90925319602272 220.886167936 247.90925319602272 225.68 C 247.90925319602272 230.47383206400002 244.02341087107726 234.36 239.22998046875 234.36 C 234.43655006642274 234.36 230.55070774147728 230.47383206400002 230.55070774147728 225.68 Z" fill="none" stroke="#000000" stroke-miterlimit="10"/></g><g transform="translate(-182,-206) scale(1,1)"><path d="M 239.22998046875 234.36 L 239.22998046875 251.64" fill="none" stroke="#000000" stroke-miterlimit="10"/></g><g transform="translate(-182,-206) scale(1,1)"><path d="M 230.04016228693183 240.84 L 248.41979865056817 240.84" fill="none" stroke="#000000" stroke-miterlimit="10"/></g><g transform="translate(-182,-206) scale(1,1)"><path d="M 239.22998046875 251.64 L 226.46634410511365 269" fill="none" stroke="#000000" stroke-miterlimit="10"/></g><g transform="translate(-182,-206) scale(1,1)"><path d="M 239.22998046875 251.64 L 251.99361683238635 269" fill="none" stroke="#000000" stroke-miterlimit="10"/></g><g transform="translate(-182,-206) scale(1,1)"><g><path fill="none" stroke="none"/><text fill="#000000" font-family="Arial" font-size="13px" font-style="normal" font-weight="bold" stroke="none" text-decoration="none" x="212.5" y="288">Manager</text></g></g><g transform="translate(-182,-206) scale(1,1)"><path d="M 439 267 C 439 247.1177472 478.3989376 231 527 231 C 575.6010624 231 615 247.1177472 615 267 C 615 286.8822528 575.6010624 303 527 303 C 478.3989376 303 439 286.8822528 439 267 Z" fill="#C0C0C0" opacity="0.2" stroke="none"/></g><g transform="translate(-182,-206) scale(1,1)"><path d="M 432 260 C 432 240.1177472 471.3989376 224 520 224 C 568.6010624 224 608 240.1177472 608 260 C 608 279.8822528 568.6010624 296 520 296 C 471.3989376 296 432 279.8822528 432 260 Z" fill="#ffffff" stroke="none"/></g><g transform="translate(-182,-206) scale(1,1)"><path d="M 432 260 C 432 240.1177472 471.3989376 224 520 224 C 568.6010624 224 608 240.1177472 608 260 C 608 279.8822528 568.6010624 296 520 296 C 471.3989376 296 432 279.8822528 432 260 Z" fill="none" stroke="#000000" stroke-miterlimit="10"/></g><g transform="translate(-182,-206) scale(1,1)"><g><path fill="none" stroke="none"/><text fill="#000000" font-family="Arial" font-size="13px" font-style="normal" font-weight="bold" stroke="none" text-decoration="none" x="491.35302734375" y="265.5">s'inscrire</text></g></g><g transform="translate(-182,-206) scale(1,1)"><path d="M 719 267 C 719 247.1177472 760.1897984 231 811 231 C 861.8102016 231 903 247.1177472 903 267 C 903 286.8822528 861.8102016 303 811 303 C 760.1897984 303 719 286.8822528 719 267 Z" fill="#C0C0C0" opacity="0.2" stroke="none"/></g><g transform="translate(-182,-206) scale(1,1)"><path d="M 712 260 C 712 240.1177472 753.1897984 224 804 224 C 854.8102016 224 896 240.1177472 896 260 C 896 279.8822528 854.8102016 296 804 296 C 753.1897984 296 712 279.8822528 712 260 Z" fill="#ffffff" stroke="none"/></g><g transform="translate(-182,-206) scale(1,1)"><path d="M 712 260 C 712 240.1177472 753.1897984 224 804 224 C 854.8102016 224 896 240.1177472 896 260 C 896 279.8822528 854.8102016 296 804 296 C 753.1897984 296 712 279.8822528 712 260 Z" fill="none" stroke="#000000" stroke-miterlimit="10"/></g><g transform="translate(-182,-206) scale(1,1)"><g><path fill="none" stroke="none"/><text fill="#000000" font-family="Arial" font-size="13px" font-style="normal" font-weight="bold" stroke="none" text-decoration="none" x="764.615966796875" y="265.5">valider email</text></g></g><g transform="translate(-182,-206) scale(1,1)"><path d="M 609 260 L 711 260" fill="none" stroke="#000000" stroke-dasharray="3" stroke-miterlimit="10"/></g><g transform="translate(-182,-206) scale(1,1)"><path d="M 700.8373251423759 264.209517756016 L 711 260 L 700.8373251423758 255.790482243984" fill="none" stroke="#000000" stroke-miterlimit="10"/></g><g transform="translate(-182,-206) scale(1,1)"><g><path fill="none" stroke="none"/><text fill="#000000" font-family="Arial" font-size="13px" font-style="normal" font-weight="normal" stroke="none" text-decoration="none" x="632.5" y="255">«include»</text></g></g><g transform="translate(-182,-206) scale(1,1)"><path d="M 431 258 L 271 256" fill="none" stroke="#000000" stroke-miterlimit="10"/></g><g transform="translate(-182,-206) scale(1,1)"><path d="M 415 403 C 415 383.1177472 465.1441024 367 527 367 C 588.8558976 367 639 383.1177472 639 403 C 639 422.8822528 588.8558976 439 527 439 C 465.1441024 439 415 422.8822528 415 403 Z" fill="#C0C0C0" opacity="0.2" stroke="none"/></g><g transform="translate(-182,-206) scale(1,1)"><path d="M 408 396 C 408 376.1177472 458.1441024 360 520 360 C 581.8558976 360 632 376.1177472 632 396 C 632 415.8822528 581.8558976 432 520 432 C 458.1441024 432 408 415.8822528 408 396 Z" fill="#ffffff" stroke="none"/></g><g transform="translate(-182,-206) scale(1,1)"><path d="M 408 396 C 408 376.1177472 458.1441024 360 520 360 C 581.8558976 360 632 376.1177472 632 396 C 632 415.8822528 581.8558976 432 520 432 C 458.1441024 432 408 415.8822528 408 396 Z" fill="none" stroke="#000000" stroke-miterlimit="10"/></g><g transform="translate(-182,-206) scale(1,1)"><g><path fill="none" stroke="none"/><text fill="#000000" font-family="Arial" font-size="13px" font-style="normal" font-weight="bold" stroke="none" text-decoration="none" x="479.447998046875" y="401.5">s'authentifier</text></g></g><g transform="translate(-182,-206) scale(1,1)"><path d="M 230.91252414772728 449.68 C 230.91252414772728 444.886167936 234.79836647267274 441 239.591796875 441 C 244.38522727732726 441 248.27106960227272 444.886167936 248.27106960227272 449.68 C 248.27106960227272 454.473832064 244.38522727732726 458.36 239.591796875 458.36 C 234.79836647267274 458.36 230.91252414772728 454.473832064 230.91252414772728 449.68 Z" fill="#ffffff" stroke="none"/></g><g transform="translate(-182,-206) scale(1,1)"><path d="M 230.91252414772728 449.68 C 230.91252414772728 444.886167936 234.79836647267274 441 239.591796875 441 C 244.38522727732726 441 248.27106960227272 444.886167936 248.27106960227272 449.68 C 248.27106960227272 454.473832064 244.38522727732726 458.36 239.591796875 458.36 C 234.79836647267274 458.36 230.91252414772728 454.473832064 230.91252414772728 449.68 Z" fill="none" stroke="#000000" stroke-miterlimit="10"/></g><g transform="translate(-182,-206) scale(1,1)"><path d="M 239.591796875 458.36 L 239.591796875 475.64" fill="none" stroke="#000000" stroke-miterlimit="10"/></g><g transform="translate(-182,-206) scale(1,1)"><path d="M 230.40197869318183 464.84 L 248.78161505681817 464.84" fill="none" stroke="#000000" stroke-miterlimit="10"/></g><g transform="translate(-182,-206) scale(1,1)"><path d="M 239.591796875 475.64 L 226.82816051136365 493" fill="none" stroke="#000000" stroke-miterlimit="10"/></g><g transform="translate(-182,-206) scale(1,1)"><path d="M 239.591796875 475.64 L 252.35543323863635 493" fill="none" stroke="#000000" stroke-miterlimit="10"/></g><g transform="translate(-182,-206) scale(1,1)"><g><path fill="none" stroke="none"/><text fill="#000000" font-family="Arial" font-size="13px" font-style="normal" font-weight="bold" stroke="none" text-decoration="none" x="212.5" y="512">Employé</text></g></g><g transform="translate(-182,-206) scale(1,1)"><path d="M 407 507 C 407 487.1177472 460.5019664 471 526.5 471 C 592.4980336 471 646 487.1177472 646 507 C 646 526.8822528 592.4980336 543 526.5 543 C 460.5019664 543 407 526.8822528 407 507 Z" fill="#C0C0C0" opacity="0.2" stroke="none"/></g><g transform="translate(-182,-206) scale(1,1)"><path d="M 400 500 C 400 480.1177472 453.5019664 464 519.5 464 C 585.4980336 464 639 480.1177472 639 500 C 639 519.8822528 585.4980336 536 519.5 536 C 453.5019664 536 400 519.8822528 400 500 Z" fill="#ffffff" stroke="none"/></g><g transform="translate(-182,-206) scale(1,1)"><path d="M 400 500 C 400 480.1177472 453.5019664 464 519.5 464 C 585.4980336 464 639 480.1177472 639 500 C 639 519.8822528 585.4980336 536 519.5 536 C 453.5019664 536 400 519.8822528 400 500 Z" fill="none" stroke="#000000" stroke-miterlimit="10"/></g><g transform="translate(-182,-206) scale(1,1)"><g><path fill="none" stroke="none"/><text fill="#000000" font-family="Arial" font-size="13px" font-style="normal" font-weight="bold" stroke="none" text-decoration="none" x="441.46826171875" y="505.5">réinitialiser mot de passe</text></g></g><g transform="translate(-182,-206) scale(1,1)"><path d="M 423 611 C 423 591.1177472 471.3532416 575 531 575 C 590.6467584 575 639 591.1177472 639 611 C 639 630.8822528 590.6467584 647 531 647 C 471.3532416 647 423 630.8822528 423 611 Z" fill="#C0C0C0" opacity="0.2" stroke="none"/></g><g transform="translate(-182,-206) scale(1,1)"><path d="M 416 604 C 416 584.1177472 464.3532416 568 524 568 C 583.6467584 568 632 584.1177472 632 604 C 632 623.8822528 583.6467584 640 524 640 C 464.3532416 640 416 623.8822528 416 604 Z" fill="#ffffff" stroke="none"/></g><g transform="translate(-182,-206) scale(1,1)"><path d="M 416 604 C 416 584.1177472 464.3532416 568 524 568 C 583.6467584 568 632 584.1177472 632 604 C 632 623.8822528 583.6467584 640 524 640 C 464.3532416 640 416 623.8822528 416 604 Z" fill="none" stroke="#000000" stroke-miterlimit="10"/></g><g transform="translate(-182,-206) scale(1,1)"><g><path fill="none" stroke="none"/><text fill="#000000" font-family="Arial" font-size="13px" font-style="normal" font-weight="bold" stroke="none" text-decoration="none" x="489.687744140625" y="609.5">gérer profil</text></g></g><g transform="translate(-182,-206) scale(1,1)"><path d="M 239 296 L 239 439" fill="none" stroke="#000000" stroke-miterlimit="10"/></g><g transform="translate(-182,-206) scale(1,1)"><path d="M 230.58096448796803 418.6746502847517 L 239 439 L 247.41903551203197 418.6746502847517" fill="#FFFFFF" stroke="none"/></g><g transform="translate(-182,-206) scale(1,1)"><path d="M 230.58096448796803 418.6746502847517 L 239 439 L 247.41903551203197 418.6746502847517 L 230.58096448796803 418.6746502847517" fill="none" stroke="#000000" stroke-miterlimit="10"/></g><g transform="translate(-182,-206) scale(1,1)"><path d="M 407 429 L 272 469" fill="none" stroke="#000000" stroke-miterlimit="10"/></g><g transform="translate(-182,-206) scale(1,1)"><path d="M 399 491 L 272 481" fill="none" stroke="#000000" stroke-miterlimit="10"/></g><g transform="translate(-182,-206) scale(1,1)"><path d="M 440 567 L 272 494" fill="none" stroke="#000000" stroke-miterlimit="10"/></g><g transform="translate(-182,-206) scale(1,1)"><path d="M 343 767 C 343 744.908608 375.6832096 727 416 727 C 456.3167904 727 489 744.908608 489 767 C 489 789.091392 456.3167904 807 416 807 C 375.6832096 807 343 789.091392 343 767 Z" fill="#C0C0C0" opacity="0.2" stroke="none"/></g><g transform="translate(-182,-206) scale(1,1)"><path d="M 336 760 C 336 737.908608 368.6832096 720 409 720 C 449.3167904 720 482 737.908608 482 760 C 482 782.091392 449.3167904 800 409 800 C 368.6832096 800 336 782.091392 336 760 Z" fill="#ffffff" stroke="none"/></g><g transform="translate(-182,-206) scale(1,1)"><path d="M 336 760 C 336 737.908608 368.6832096 720 409 720 C 449.3167904 720 482 737.908608 482 760 C 482 782.091392 449.3167904 800 409 800 C 368.6832096 800 336 782.091392 336 760 Z" fill="none" stroke="#000000" stroke-miterlimit="10"/></g><g transform="translate(-182,-206) scale(1,1)"><g><path fill="none" stroke="none"/><text fill="#000000" font-family="Arial" font-size="13px" font-style="normal" font-weight="bold" stroke="none" text-decoration="none" x="361.69091796875" y="765.5">consulter profil</text></g></g><g transform="translate(-182,-206) scale(1,1)"><path d="M 551 767 C 551 744.908608 581.4446336 727 619 727 C 656.5553664 727 687 744.908608 687 767 C 687 789.091392 656.5553664 807 619 807 C 581.4446336 807 551 789.091392 551 767 Z" fill="#C0C0C0" opacity="0.2" stroke="none"/></g><g transform="translate(-182,-206) scale(1,1)"><path d="M 544 760 C 544 737.908608 574.4446336 720 612 720 C 649.5553664 720 680 737.908608 680 760 C 680 782.091392 649.5553664 800 612 800 C 574.4446336 800 544 782.091392 544 760 Z" fill="#ffffff" stroke="none"/></g><g transform="translate(-182,-206) scale(1,1)"><path d="M 544 760 C 544 737.908608 574.4446336 720 612 720 C 649.5553664 720 680 737.908608 680 760 C 680 782.091392 649.5553664 800 612 800 C 574.4446336 800 544 782.091392 544 760 Z" fill="none" stroke="#000000" stroke-miterlimit="10"/></g><g transform="translate(-182,-206) scale(1,1)"><g><path fill="none" stroke="none"/><text fill="#000000" font-family="Arial" font-size="13px" font-style="normal" font-weight="bold" stroke="none" text-decoration="none" x="568.305908203125" y="765.5">modifier profil</text></g></g><g transform="translate(-182,-206) scale(1,1)"><path d="M 439 719 L 497 641" fill="none" stroke="#000000" stroke-miterlimit="10"/></g><g transform="translate(-182,-206) scale(1,1)"><path d="M 491.6277665434845 662.3339894930295 L 497 641 L 478.1158486524969 652.2866659330645" fill="#FFFFFF" stroke="none"/></g><g transform="translate(-182,-206) scale(1,1)"><path d="M 491.6277665434845 662.3339894930295 L 497 641 L 478.1158486524969 652.2866659330645 L 491.6277665434845 662.3339894930295" fill="none" stroke="#000000" stroke-miterlimit="10"/></g><g transform="translate(-182,-206) scale(1,1)"><path d="M 589 719 L 545 641" fill="none" stroke="#000000" stroke-miterlimit="10"/></g><g transform="translate(-182,-206) scale(1,1)"><path d="M 562.3190735970448 654.5664914307328 L 545 641 L 547.653476296759 662.8393924719196" fill="#FFFFFF" stroke="none"/></g><g transform="translate(-182,-206) scale(1,1)"><path d="M 562.3190735970448 654.5664914307328 L 545 641 L 547.653476296759 662.8393924719196 L 562.3190735970448 654.5664914307328" fill="none" stroke="#000000" stroke-miterlimit="10"/></g><g transform="translate(-182,-206) scale(1,1)"><path d="M 633 605 L 856 608 L 856 400 L 633 397" fill="none" stroke="#000000" stroke-dasharray="3" stroke-miterlimit="10"/></g><g transform="translate(-182,-206) scale(1,1)"><path d="M 643.2183805172344 392.9275683425004 L 633 397 L 643.1051301974177 401.3458421155442" fill="none" stroke="#000000" stroke-miterlimit="10"/></g><g transform="translate(-182,-206) scale(1,1)"><g><path fill="none" stroke="none"/><text fill="#000000" font-family="Arial" font-size="13px" font-style="normal" font-weight="normal" stroke="none" text-decoration="none" x="798.5" y="508">«include»</text></g></g><g transform="translate(-182,-206) scale(1,1)"><path d="M 234.05070774147728 609.6800000000001 C 234.05070774147728 604.8861679360001 237.93655006642274 601 242.72998046875 601 C 247.52341087107726 601 251.40925319602272 604.8861679360001 251.40925319602272 609.6800000000001 C 251.40925319602272 614.473832064 247.52341087107726 618.36 242.72998046875 618.36 C 237.93655006642274 618.36 234.05070774147728 614.473832064 234.05070774147728 609.6800000000001 Z" fill="#ffffff" stroke="none"/></g><g transform="translate(-182,-206) scale(1,1)"><path d="M 234.05070774147728 609.6800000000001 C 234.05070774147728 604.8861679360001 237.93655006642274 601 242.72998046875 601 C 247.52341087107726 601 251.40925319602272 604.8861679360001 251.40925319602272 609.6800000000001 C 251.40925319602272 614.473832064 247.52341087107726 618.36 242.72998046875 618.36 C 237.93655006642274 618.36 234.05070774147728 614.473832064 234.05070774147728 609.6800000000001 Z" fill="none" stroke="#000000" stroke-miterlimit="10"/></g><g transform="translate(-182,-206) scale(1,1)"><path d="M 242.72998046875 618.36 L 242.72998046875 635.64" fill="none" stroke="#000000" stroke-miterlimit="10"/></g><g transform="translate(-182,-206) scale(1,1)"><path d="M 233.54016228693183 624.84 L 251.91979865056817 624.84" fill="none" stroke="#000000" stroke-miterlimit="10"/></g><g transform="translate(-182,-206) scale(1,1)"><path d="M 242.72998046875 635.64 L 229.96634410511365 653" fill="none" stroke="#000000" stroke-miterlimit="10"/></g><g transform="translate(-182,-206) scale(1,1)"><path d="M 242.72998046875 635.64 L 255.49361683238635 653" fill="none" stroke="#000000" stroke-miterlimit="10"/></g><g transform="translate(-182,-206) scale(1,1)"><g><path fill="none" stroke="none"/><text fill="#000000" font-family="Arial" font-size="13px" font-style="normal" font-weight="bold" stroke="none" text-decoration="none" x="196.5" y="672">Administrateur</text></g></g><g transform="translate(-182,-206) scale(1,1)"><path d="M 241 599 L 240 520" fill="none" stroke="#000000" stroke-miterlimit="10"/></g><g transform="translate(-182,-206) scale(1,1)"><path d="M 248.675623396915 540.2171600051763 L 240 520 L 231.83890119898564 540.4302830709729" fill="#FFFFFF" stroke="none"/></g><g transform="translate(-182,-206) scale(1,1)"><path d="M 248.675623396915 540.2171600051763 L 240 520 L 231.83890119898564 540.4302830709729 L 248.675623396915 540.2171600051763" fill="none" stroke="#000000" stroke-miterlimit="10"/></g></g></svg>