<?xml version="1.0" encoding="UTF-8" standalone="no"?><svg xmlns="http://www.w3.org/2000/svg" xmlns:xlink="http://www.w3.org/1999/xlink" height="1068" version="1.1" width="1047"><defs/><g><g transform="translate(-30,2) scale(1,1)"><path d="M 595.6066159446023 65.68 C 595.6066159446023 60.88616793600001 599.4924582695477 57 604.285888671875 57 C 609.0793190742023 57 612.9651613991477 60.88616793600001 612.9651613991477 65.68 C 612.9651613991477 70.473832064 609.0793190742023 74.36 604.285888671875 74.36 C 599.4924582695477 74.36 595.6066159446023 70.473832064 595.6066159446023 65.68 Z" fill="#ffffff" stroke="none"/></g><g transform="translate(-30,2) scale(1,1)"><path d="M 595.6066159446023 65.68 C 595.6066159446023 60.88616793600001 599.4924582695477 57 604.285888671875 57 C 609.0793190742023 57 612.9651613991477 60.88616793600001 612.9651613991477 65.68 C 612.9651613991477 70.473832064 609.0793190742023 74.36 604.285888671875 74.36 C 599.4924582695477 74.36 595.6066159446023 70.473832064 595.6066159446023 65.68 Z" fill="none" stroke="#000000" stroke-miterlimit="10"/></g><g transform="translate(-30,2) scale(1,1)"><path d="M 604.285888671875 74.36 L 604.285888671875 91.64" fill="none" stroke="#000000" stroke-miterlimit="10"/></g><g transform="translate(-30,2) scale(1,1)"><path d="M 595.0960704900568 80.84 L 613.4757068536932 80.84" fill="none" stroke="#000000" stroke-miterlimit="10"/></g><g transform="translate(-30,2) scale(1,1)"><path d="M 604.285888671875 91.64 L 591.5222523082386 109" fill="none" stroke="#000000" stroke-miterlimit="10"/></g><g transform="translate(-30,2) scale(1,1)"><path d="M 604.285888671875 91.64 L 617.0495250355114 109" fill="none" stroke="#000000" stroke-miterlimit="10"/></g><g transform="translate(-30,2) scale(1,1)"><g><path fill="none" stroke="none"/><text fill="#000000" font-family="Arial" font-size="13px" font-style="normal" font-weight="bold" stroke="none" text-decoration="none" x="572.5" y="128">Utilisateur</text></g></g><g transform="translate(-30,2) scale(1,1)"><path d="M 839 115 C 839 99.5360256 872.1309248 87 913 87 C 953.8690752 87 987 99.5360256 987 115 C 987 130.4639744 953.8690752 143 913 143 C 872.1309248 143 839 130.4639744 839 115 Z" fill="#C0C0C0" opacity="0.2" stroke="none"/></g><g transform="translate(-30,2) scale(1,1)"><path d="M 832 108 C 832 92.5360256 865.1309248 80 906 80 C 946.8690752 80 980 92.5360256 980 108 C 980 123.4639744 946.8690752 136 906 136 C 865.1309248 136 832 123.4639744 832 108 Z" fill="#ffffff" stroke="none"/></g><g transform="translate(-30,2) scale(1,1)"><path d="M 832 108 C 832 92.5360256 865.1309248 80 906 80 C 946.8690752 80 980 92.5360256 980 108 C 980 123.4639744 946.8690752 136 906 136 C 865.1309248 136 832 123.4639744 832 108 Z" fill="none" stroke="#000000" stroke-miterlimit="10"/></g><g transform="translate(-30,2) scale(1,1)"><g><path fill="none" stroke="none"/><text fill="#000000" font-family="Arial" font-size="13px" font-style="normal" font-weight="bold" stroke="none" text-decoration="none" x="870.2373046875" y="113.5">Gérer Profil</text></g></g><g transform="translate(-30,2) scale(1,1)"><path d="M 642 97 L 831 105" fill="none" stroke="#000000" stroke-miterlimit="10"/></g><g transform="translate(-30,2) scale(1,1)"><path d="M 598.9125241477273 321.68 C 598.9125241477273 316.886167936 602.7983664726727 313 607.591796875 313 C 612.3852272773273 313 616.2710696022727 316.886167936 616.2710696022727 321.68 C 616.2710696022727 326.473832064 612.3852272773273 330.36 607.591796875 330.36 C 602.7983664726727 330.36 598.9125241477273 326.473832064 598.9125241477273 321.68 Z" fill="#ffffff" stroke="none"/></g><g transform="translate(-30,2) scale(1,1)"><path d="M 598.9125241477273 321.68 C 598.9125241477273 316.886167936 602.7983664726727 313 607.591796875 313 C 612.3852272773273 313 616.2710696022727 316.886167936 616.2710696022727 321.68 C 616.2710696022727 326.473832064 612.3852272773273 330.36 607.591796875 330.36 C 602.7983664726727 330.36 598.9125241477273 326.473832064 598.9125241477273 321.68 Z" fill="none" stroke="#000000" stroke-miterlimit="10"/></g><g transform="translate(-30,2) scale(1,1)"><path d="M 607.591796875 330.36 L 607.591796875 347.64" fill="none" stroke="#000000" stroke-miterlimit="10"/></g><g transform="translate(-30,2) scale(1,1)"><path d="M 598.4019786931818 336.84 L 616.7816150568182 336.84" fill="none" stroke="#000000" stroke-miterlimit="10"/></g><g transform="translate(-30,2) scale(1,1)"><path d="M 607.591796875 347.64 L 594.8281605113636 365" fill="none" stroke="#000000" stroke-miterlimit="10"/></g><g transform="translate(-30,2) scale(1,1)"><path d="M 607.591796875 347.64 L 620.3554332386364 365" fill="none" stroke="#000000" stroke-miterlimit="10"/></g><g transform="translate(-30,2) scale(1,1)"><g><path fill="none" stroke="none"/><text fill="#000000" font-family="Arial" font-size="13px" font-style="normal" font-weight="bold" stroke="none" text-decoration="none" x="580.5" y="384">Employé</text></g></g><g transform="translate(-30,2) scale(1,1)"><path d="M 847 303 C 847 289.7451648 891.77152 279 947 279 C 1002.22848 279 1047 289.7451648 1047 303 C 1047 316.2548352 1002.22848 327 947 327 C 891.77152 327 847 316.2548352 847 303 Z" fill="#C0C0C0" opacity="0.2" stroke="none"/></g><g transform="translate(-30,2) scale(1,1)"><path d="M 840 296 C 840 282.7451648 884.77152 272 940 272 C 995.22848 272 1040 282.7451648 1040 296 C 1040 309.2548352 995.22848 320 940 320 C 884.77152 320 840 309.2548352 840 296 Z" fill="#ffffff" stroke="none"/></g><g transform="translate(-30,2) scale(1,1)"><path d="M 840 296 C 840 282.7451648 884.77152 272 940 272 C 995.22848 272 1040 282.7451648 1040 296 C 1040 309.2548352 995.22848 320 940 320 C 884.77152 320 840 309.2548352 840 296 Z" fill="none" stroke="#000000" stroke-miterlimit="10"/></g><g transform="translate(-30,2) scale(1,1)"><g><path fill="none" stroke="none"/><text fill="#000000" font-family="Arial" font-size="13px" font-style="normal" font-weight="bold" stroke="none" text-decoration="none" x="885.457763671875" y="301.5">Demander  congé</text></g></g><g transform="translate(-30,2) scale(1,1)"><path d="M 863 375 C 863 361.7451648 907.77152 351 963 351 C 1018.22848 351 1063 361.7451648 1063 375 C 1063 388.2548352 1018.22848 399 963 399 C 907.77152 399 863 388.2548352 863 375 Z" fill="#C0C0C0" opacity="0.2" stroke="none"/></g><g transform="translate(-30,2) scale(1,1)"><path d="M 856 368 C 856 354.7451648 900.77152 344 956 344 C 1011.22848 344 1056 354.7451648 1056 368 C 1056 381.2548352 1011.22848 392 956 392 C 900.77152 392 856 381.2548352 856 368 Z" fill="#ffffff" stroke="none"/></g><g transform="translate(-30,2) scale(1,1)"><path d="M 856 368 C 856 354.7451648 900.77152 344 956 344 C 1011.22848 344 1056 354.7451648 1056 368 C 1056 381.2548352 1011.22848 392 956 392 C 900.77152 392 856 381.2548352 856 368 Z" fill="none" stroke="#000000" stroke-miterlimit="10"/></g><g transform="translate(-30,2) scale(1,1)"><g><path fill="none" stroke="none"/><text fill="#000000" font-family="Arial" font-size="13px" font-style="normal" font-weight="bold" stroke="none" text-decoration="none" x="907.951416015625" y="373.5">Suivre le temps</text></g></g><g transform="translate(-30,2) scale(1,1)"><path d="M 863 507 C 863 491.5360256 909.7862384 479 967.5 479 C 1025.2137616 479 1072 491.5360256 1072 507 C 1072 522.4639744 1025.2137616 535 967.5 535 C 909.7862384 535 863 522.4639744 863 507 Z" fill="#C0C0C0" opacity="0.2" stroke="none"/></g><g transform="translate(-30,2) scale(1,1)"><path d="M 856 500 C 856 484.5360256 902.7862384 472 960.5 472 C 1018.2137616 472 1065 484.5360256 1065 500 C 1065 515.4639744 1018.2137616 528 960.5 528 C 902.7862384 528 856 515.4639744 856 500 Z" fill="#ffffff" stroke="none"/></g><g transform="translate(-30,2) scale(1,1)"><path d="M 856 500 C 856 484.5360256 902.7862384 472 960.5 472 C 1018.2137616 472 1065 484.5360256 1065 500 C 1065 515.4639744 1018.2137616 528 960.5 528 C 902.7862384 528 856 515.4639744 856 500 Z" fill="none" stroke="#000000" stroke-miterlimit="10"/></g><g transform="translate(-30,2) scale(1,1)"><g><path fill="none" stroke="none"/><text fill="#000000" font-family="Arial" font-size="13px" font-style="normal" font-weight="bold" stroke="none" text-decoration="none" x="891.148681640625" y="505.5">Interagir avec ChatBot</text></g></g><g transform="translate(-30,2) scale(1,1)"><path d="M 598.5507077414773 745.6800000000001 C 598.5507077414773 740.8861679360001 602.4365500664227 737 607.22998046875 737 C 612.0234108710773 737 615.9092531960227 740.8861679360001 615.9092531960227 745.6800000000001 C 615.9092531960227 750.473832064 612.0234108710773 754.36 607.22998046875 754.36 C 602.4365500664227 754.36 598.5507077414773 750.473832064 598.5507077414773 745.6800000000001 Z" fill="#ffffff" stroke="none"/></g><g transform="translate(-30,2) scale(1,1)"><path d="M 598.5507077414773 745.6800000000001 C 598.5507077414773 740.8861679360001 602.4365500664227 737 607.22998046875 737 C 612.0234108710773 737 615.9092531960227 740.8861679360001 615.9092531960227 745.6800000000001 C 615.9092531960227 750.473832064 612.0234108710773 754.36 607.22998046875 754.36 C 602.4365500664227 754.36 598.5507077414773 750.473832064 598.5507077414773 745.6800000000001 Z" fill="none" stroke="#000000" stroke-miterlimit="10"/></g><g transform="translate(-30,2) scale(1,1)"><path d="M 607.22998046875 754.36 L 607.22998046875 771.64" fill="none" stroke="#000000" stroke-miterlimit="10"/></g><g transform="translate(-30,2) scale(1,1)"><path d="M 598.0401622869318 760.84 L 616.4197986505682 760.84" fill="none" stroke="#000000" stroke-miterlimit="10"/></g><g transform="translate(-30,2) scale(1,1)"><path d="M 607.22998046875 771.64 L 594.4663441051136 789" fill="none" stroke="#000000" stroke-miterlimit="10"/></g><g transform="translate(-30,2) scale(1,1)"><path d="M 607.22998046875 771.64 L 619.9936168323864 789" fill="none" stroke="#000000" stroke-miterlimit="10"/></g><g transform="translate(-30,2) scale(1,1)"><g><path fill="none" stroke="none"/><text fill="#000000" font-family="Arial" font-size="13px" font-style="normal" font-weight="bold" stroke="none" text-decoration="none" x="580.5" y="808">Manager</text></g></g><g transform="translate(-30,2) scale(1,1)"><path d="M 863 656 C 863 642.19288 905.9806592 631 959 631 C 1012.0193408 631 1055 642.19288 1055 656 C 1055 669.80712 1012.0193408 681 959 681 C 905.9806592 681 863 669.80712 863 656 Z" fill="#C0C0C0" opacity="0.2" stroke="none"/></g><g transform="translate(-30,2) scale(1,1)"><path d="M 856 649 C 856 635.19288 898.9806592 624 952 624 C 1005.0193408 624 1048 635.19288 1048 649 C 1048 662.80712 1005.0193408 674 952 674 C 898.9806592 674 856 662.80712 856 649 Z" fill="#ffffff" stroke="none"/></g><g transform="translate(-30,2) scale(1,1)"><path d="M 856 649 C 856 635.19288 898.9806592 624 952 624 C 1005.0193408 624 1048 635.19288 1048 649 C 1048 662.80712 1005.0193408 674 952 674 C 898.9806592 674 856 662.80712 856 649 Z" fill="none" stroke="#000000" stroke-miterlimit="10"/></g><g transform="translate(-30,2) scale(1,1)"><g><path fill="none" stroke="none"/><text fill="#000000" font-family="Arial" font-size="13px" font-style="normal" font-weight="bold" stroke="none" text-decoration="none" x="922.372314453125" y="654.5">S’inscrire</text></g></g><g transform="translate(-30,2) scale(1,1)"><path d="M 855 727 C 855 713.7451648 904.0248144 703 964.5 703 C 1024.9751856 703 1074 713.7451648 1074 727 C 1074 740.2548352 1024.9751856 751 964.5 751 C 904.0248144 751 855 740.2548352 855 727 Z" fill="#C0C0C0" opacity="0.2" stroke="none"/></g><g transform="translate(-30,2) scale(1,1)"><path d="M 848 720 C 848 706.7451648 897.0248144 696 957.5 696 C 1017.9751856 696 1067 706.7451648 1067 720 C 1067 733.2548352 1017.9751856 744 957.5 744 C 897.0248144 744 848 733.2548352 848 720 Z" fill="#ffffff" stroke="none"/></g><g transform="translate(-30,2) scale(1,1)"><path d="M 848 720 C 848 706.7451648 897.0248144 696 957.5 696 C 1017.9751856 696 1067 706.7451648 1067 720 C 1067 733.2548352 1017.9751856 744 957.5 744 C 897.0248144 744 848 733.2548352 848 720 Z" fill="none" stroke="#000000" stroke-miterlimit="10"/></g><g transform="translate(-30,2) scale(1,1)"><g><path fill="none" stroke="none"/><text fill="#000000" font-family="Arial" font-size="13px" font-style="normal" font-weight="bold" stroke="none" text-decoration="none" x="884.52099609375" y="725.5">Gérer détails entreprise</text></g></g><g transform="translate(-30,2) scale(1,1)"><path d="M 863 803 C 863 787.5360256 906.2045168 775 959.5 775 C 1012.7954832 775 1056 787.5360256 1056 803 C 1056 818.4639744 1012.7954832 831 959.5 831 C 906.2045168 831 863 818.4639744 863 803 Z" fill="#C0C0C0" opacity="0.2" stroke="none"/></g><g transform="translate(-30,2) scale(1,1)"><path d="M 856 796 C 856 780.5360256 899.2045168 768 952.5 768 C 1005.7954832 768 1049 780.5360256 1049 796 C 1049 811.4639744 1005.7954832 824 952.5 824 C 899.2045168 824 856 811.4639744 856 796 Z" fill="#ffffff" stroke="none"/></g><g transform="translate(-30,2) scale(1,1)"><path d="M 856 796 C 856 780.5360256 899.2045168 768 952.5 768 C 1005.7954832 768 1049 780.5360256 1049 796 C 1049 811.4639744 1005.7954832 824 952.5 824 C 899.2045168 824 856 811.4639744 856 796 Z" fill="none" stroke="#000000" stroke-miterlimit="10"/></g><g transform="translate(-30,2) scale(1,1)"><g><path fill="none" stroke="none"/><text fill="#000000" font-family="Arial" font-size="13px" font-style="normal" font-weight="bold" stroke="none" text-decoration="none" x="892.52099609375" y="801.5">Gérer les employés</text></g></g><g transform="translate(-30,2) scale(1,1)"><path d="M 855 871 C 855 857.7451648 897.9806592 847 951 847 C 1004.0193408 847 1047 857.7451648 1047 871 C 1047 884.2548352 1004.0193408 895 951 895 C 897.9806592 895 855 884.2548352 855 871 Z" fill="#C0C0C0" opacity="0.2" stroke="none"/></g><g transform="translate(-30,2) scale(1,1)"><path d="M 848 864 C 848 850.7451648 890.9806592 840 944 840 C 997.0193408 840 1040 850.7451648 1040 864 C 1040 877.2548352 997.0193408 888 944 888 C 890.9806592 888 848 877.2548352 848 864 Z" fill="#ffffff" stroke="none"/></g><g transform="translate(-30,2) scale(1,1)"><path d="M 848 864 C 848 850.7451648 890.9806592 840 944 840 C 997.0193408 840 1040 850.7451648 1040 864 C 1040 877.2548352 997.0193408 888 944 888 C 890.9806592 888 848 877.2548352 848 864 Z" fill="none" stroke="#000000" stroke-miterlimit="10"/></g><g transform="translate(-30,2) scale(1,1)"><g><path fill="none" stroke="none"/><text fill="#000000" font-family="Arial" font-size="13px" font-style="normal" font-weight="bold" stroke="none" text-decoration="none" x="891.2509765625" y="869.5">Gérer les congés</text></g></g><g transform="translate(-30,2) scale(1,1)"><path d="M 871 944 C 871 930.19288 910.3989376 919 959 919 C 1007.6010624 919 1047 930.19288 1047 944 C 1047 957.80712 1007.6010624 969 959 969 C 910.3989376 969 871 957.80712 871 944 Z" fill="#C0C0C0" opacity="0.2" stroke="none"/></g><g transform="translate(-30,2) scale(1,1)"><path d="M 864 937 C 864 923.19288 903.3989376 912 952 912 C 1000.6010624 912 1040 923.19288 1040 937 C 1040 950.80712 1000.6010624 962 952 962 C 903.3989376 962 864 950.80712 864 937 Z" fill="#ffffff" stroke="none"/></g><g transform="translate(-30,2) scale(1,1)"><path d="M 864 937 C 864 923.19288 903.3989376 912 952 912 C 1000.6010624 912 1040 923.19288 1040 937 C 1040 950.80712 1000.6010624 962 952 962 C 903.3989376 962 864 950.80712 864 937 Z" fill="none" stroke="#000000" stroke-miterlimit="10"/></g><g transform="translate(-30,2) scale(1,1)"><g><path fill="none" stroke="none"/><text fill="#000000" font-family="Arial" font-size="13px" font-style="normal" font-weight="bold" stroke="none" text-decoration="none" x="900.33642578125" y="942.5">Gérer les projets</text></g></g><g transform="translate(-30,2) scale(1,1)"><path d="M 847 1035 C 847 1019.5360256 896.2486719999999 1007 957 1007 C 1017.7513280000001 1007 1067 1019.5360256 1067 1035 C 1067 1050.4639744 1017.7513280000001 1063 957 1063 C 896.2486719999999 1063 847 1050.4639744 847 1035 Z" fill="#C0C0C0" opacity="0.2" stroke="none"/></g><g transform="translate(-30,2) scale(1,1)"><path d="M 840 1028 C 840 1012.5360256 889.2486719999999 1000 950 1000 C 1010.7513280000001 1000 1060 1012.5360256 1060 1028 C 1060 1043.4639744 1010.7513280000001 1056 950 1056 C 889.2486719999999 1056 840 1043.4639744 840 1028 Z" fill="#ffffff" stroke="none"/></g><g transform="translate(-30,2) scale(1,1)"><path d="M 840 1028 C 840 1012.5360256 889.2486719999999 1000 950 1000 C 1010.7513280000001 1000 1060 1012.5360256 1060 1028 C 1060 1043.4639744 1010.7513280000001 1056 950 1056 C 889.2486719999999 1056 840 1043.4639744 840 1028 Z" fill="none" stroke="#000000" stroke-miterlimit="10"/></g><g transform="translate(-30,2) scale(1,1)"><g><path fill="none" stroke="none"/><text fill="#000000" font-family="Arial" font-size="13px" font-style="normal" font-weight="bold" stroke="none" text-decoration="none" x="876.554443359375" y="1033.5">Gérer les droits d'accès</text></g></g><g transform="translate(-30,2) scale(1,1)"><path d="M 855 439 C 855 425.7451648 901.1146656 415 958 415 C 1014.8853344 415 1061 425.7451648 1061 439 C 1061 452.2548352 1014.8853344 463 958 463 C 901.1146656 463 855 452.2548352 855 439 Z" fill="#C0C0C0" opacity="0.2" stroke="none"/></g><g transform="translate(-30,2) scale(1,1)"><path d="M 848 432 C 848 418.7451648 894.1146656 408 951 408 C 1007.8853344 408 1054 418.7451648 1054 432 C 1054 445.2548352 1007.8853344 456 951 456 C 894.1146656 456 848 445.2548352 848 432 Z" fill="#ffffff" stroke="none"/></g><g transform="translate(-30,2) scale(1,1)"><path d="M 848 432 C 848 418.7451648 894.1146656 408 951 408 C 1007.8853344 408 1054 418.7451648 1054 432 C 1054 445.2548352 1007.8853344 456 951 456 C 894.1146656 456 848 445.2548352 848 432 Z" fill="none" stroke="#000000" stroke-miterlimit="10"/></g><g transform="translate(-30,2) scale(1,1)"><g><path fill="none" stroke="none"/><text fill="#000000" font-family="Arial" font-size="13px" font-style="normal" font-weight="bold" stroke="none" text-decoration="none" x="886.345947265625" y="437.5">Consulter les projets</text></g></g><g transform="translate(-30,2) scale(1,1)"><path d="M 640 346 L 839 313" fill="none" stroke="#000000" stroke-miterlimit="10"/></g><g transform="translate(-30,2) scale(1,1)"><path d="M 855 363 L 640 353" fill="none" stroke="#000000" stroke-miterlimit="10"/></g><g transform="translate(-30,2) scale(1,1)"><path d="M 847 408 L 640 359" fill="none" stroke="#000000" stroke-miterlimit="10"/></g><g transform="translate(-30,2) scale(1,1)"><path d="M 891 471 L 640 365" fill="none" stroke="#000000" stroke-miterlimit="10"/></g><g transform="translate(-30,2) scale(1,1)"><path d="M 839 47 C 839 29.3268864 873.0263552 15 915 15 C 956.9736448 15 991 29.3268864 991 47 C 991 64.6731136 956.9736448 79 915 79 C 873.0263552 79 839 64.6731136 839 47 Z" fill="#C0C0C0" opacity="0.2" stroke="none"/></g><g transform="translate(-30,2) scale(1,1)"><path d="M 832 40 C 832 22.3268864 866.0263552 8 908 8 C 949.9736448 8 984 22.3268864 984 40 C 984 57.6731136 949.9736448 72 908 72 C 866.0263552 72 832 57.6731136 832 40 Z" fill="#ffffff" stroke="none"/></g><g transform="translate(-30,2) scale(1,1)"><path d="M 832 40 C 832 22.3268864 866.0263552 8 908 8 C 949.9736448 8 984 22.3268864 984 40 C 984 57.6731136 949.9736448 72 908 72 C 866.0263552 72 832 57.6731136 832 40 Z" fill="none" stroke="#000000" stroke-miterlimit="10"/></g><g transform="translate(-30,2) scale(1,1)"><g><path fill="none" stroke="none"/><text fill="#000000" font-family="Arial" font-size="13px" font-style="normal" font-weight="bold" stroke="none" text-decoration="none" x="866.46728515625" y="45.5">S’authentifier</text></g></g><g transform="translate(-30,2) scale(1,1)"><path d="M 831 54 L 642 88" fill="none" stroke="#000000" stroke-miterlimit="10"/></g><g transform="translate(-30,2) scale(1,1)"><path d="M 881 675 L 639 763" fill="none" stroke="#000000" stroke-miterlimit="10"/></g><g transform="translate(-30,2) scale(1,1)"><path d="M 847 737 L 639 770" fill="none" stroke="#000000" stroke-miterlimit="10"/></g><g transform="translate(-30,2) scale(1,1)"><path d="M 855 790 L 639 777" fill="none" stroke="#000000" stroke-miterlimit="10"/></g><g transform="translate(-30,2) scale(1,1)"><path d="M 849 839 L 639 784" fill="none" stroke="#000000" stroke-miterlimit="10"/></g><g transform="translate(-30,2) scale(1,1)"><path d="M 897 911 L 639 790" fill="none" stroke="#000000" stroke-miterlimit="10"/></g><g transform="translate(-30,2) scale(1,1)"><path d="M 911 999 L 639 799" fill="none" stroke="#000000" stroke-miterlimit="10"/></g><g transform="translate(-30,2) scale(1,1)"><path d="M 607 311 L 604 136" fill="none" stroke="#000000" stroke-miterlimit="10"/></g><g transform="translate(-30,2) scale(1,1)"><path d="M 612.7661820811396 156.1780586707519 L 604 136 L 595.9305846774212 156.46666891195852" fill="#FFFFFF" stroke="none"/></g><g transform="translate(-30,2) scale(1,1)"><path d="M 612.7661820811396 156.1780586707519 L 604 136 L 595.9305846774212 156.46666891195852 L 612.7661820811396 156.1780586707519" fill="none" stroke="#000000" stroke-miterlimit="10"/></g><g transform="translate(-30,2) scale(1,1)"><path d="M 607 735 L 607 392" fill="none" stroke="#000000" stroke-miterlimit="10"/></g><g transform="translate(-30,2) scale(1,1)"><path d="M 615.419035512032 412.3253497152483 L 607 392 L 598.580964487968 412.3253497152483" fill="#FFFFFF" stroke="none"/></g><g transform="translate(-30,2) scale(1,1)"><path d="M 615.419035512032 412.3253497152483 L 607 392 L 598.580964487968 412.3253497152483 L 615.419035512032 412.3253497152483" fill="none" stroke="#000000" stroke-miterlimit="10"/></g><g transform="translate(-30,2) scale(1,1)"><path d="M 102.27751438210227 361.68 C 102.27751438210227 356.886167936 106.16335670704773 353 110.956787109375 353 C 115.75021751170227 353 119.63605983664773 356.886167936 119.63605983664773 361.68 C 119.63605983664773 366.473832064 115.75021751170227 370.36 110.956787109375 370.36 C 106.16335670704773 370.36 102.27751438210227 366.473832064 102.27751438210227 361.68 Z" fill="#ffffff" stroke="none"/></g><g transform="translate(-30,2) scale(1,1)"><path d="M 102.27751438210227 361.68 C 102.27751438210227 356.886167936 106.16335670704773 353 110.956787109375 353 C 115.75021751170227 353 119.63605983664773 356.886167936 119.63605983664773 361.68 C 119.63605983664773 366.473832064 115.75021751170227 370.36 110.956787109375 370.36 C 106.16335670704773 370.36 102.27751438210227 366.473832064 102.27751438210227 361.68 Z" fill="none" stroke="#000000" stroke-miterlimit="10"/></g><g transform="translate(-30,2) scale(1,1)"><path d="M 110.956787109375 370.36 L 110.956787109375 387.64" fill="none" stroke="#000000" stroke-miterlimit="10"/></g><g transform="translate(-30,2) scale(1,1)"><path d="M 101.76696892755682 376.84 L 120.14660529119318 376.84" fill="none" stroke="#000000" stroke-miterlimit="10"/></g><g transform="translate(-30,2) scale(1,1)"><path d="M 110.956787109375 387.64 L 98.19315074573863 405" fill="none" stroke="#000000" stroke-miterlimit="10"/></g><g transform="translate(-30,2) scale(1,1)"><path d="M 110.956787109375 387.64 L 123.72042347301137 405" fill="none" stroke="#000000" stroke-miterlimit="10"/></g><g transform="translate(-30,2) scale(1,1)"><g><path fill="none" stroke="none"/><text fill="#000000" font-family="Arial" font-size="13px" font-style="normal" font-weight="bold" stroke="none" text-decoration="none" x="44.5" y="424">Super Administrateur</text></g></g><g transform="translate(-30,2) scale(1,1)"><path d="M 279 323 C 279 307.5360256 342.5755584 295 421 295 C 499.4244416 295 563 307.5360256 563 323 C 563 338.4639744 499.4244416 351 421 351 C 342.5755584 351 279 338.4639744 279 323 Z" fill="#C0C0C0" opacity="0.2" stroke="none"/></g><g transform="translate(-30,2) scale(1,1)"><path d="M 272 316 C 272 300.5360256 335.5755584 288 414 288 C 492.4244416 288 556 300.5360256 556 316 C 556 331.4639744 492.4244416 344 414 344 C 335.5755584 344 272 331.4639744 272 316 Z" fill="#ffffff" stroke="none"/></g><g transform="translate(-30,2) scale(1,1)"><path d="M 272 316 C 272 300.5360256 335.5755584 288 414 288 C 492.4244416 288 556 300.5360256 556 316 C 556 331.4639744 492.4244416 344 414 344 C 335.5755584 344 272 331.4639744 272 316 Z" fill="none" stroke="#000000" stroke-miterlimit="10"/></g><g transform="translate(-30,2) scale(1,1)"><g><path fill="none" stroke="none"/><text fill="#000000" font-family="Arial" font-size="13px" font-style="normal" font-weight="bold" stroke="none" text-decoration="none" x="317.899658203125" y="321.5">Gérer les employés back-office</text></g></g><g transform="translate(-30,2) scale(1,1)"><path d="M 279 467 C 279 451.5360256 339.2176944 439 413.5 439 C 487.7823056 439 548 451.5360256 548 467 C 548 482.4639744 487.7823056 495 413.5 495 C 339.2176944 495 279 482.4639744 279 467 Z" fill="#C0C0C0" opacity="0.2" stroke="none"/></g><g transform="translate(-30,2) scale(1,1)"><path d="M 272 460 C 272 444.5360256 332.2176944 432 406.5 432 C 480.7823056 432 541 444.5360256 541 460 C 541 475.4639744 480.7823056 488 406.5 488 C 332.2176944 488 272 475.4639744 272 460 Z" fill="#ffffff" stroke="none"/></g><g transform="translate(-30,2) scale(1,1)"><path d="M 272 460 C 272 444.5360256 332.2176944 432 406.5 432 C 480.7823056 432 541 444.5360256 541 460 C 541 475.4639744 480.7823056 488 406.5 488 C 332.2176944 488 272 475.4639744 272 460 Z" fill="none" stroke="#000000" stroke-miterlimit="10"/></g><g transform="translate(-30,2) scale(1,1)"><g><path fill="none" stroke="none"/><text fill="#000000" font-family="Arial" font-size="13px" font-style="normal" font-weight="bold" stroke="none" text-decoration="none" x="333.52099609375" y="465.5">Gérer entreprises client</text></g></g><g transform="translate(-30,2) scale(1,1)"><path d="M 287 395 C 287 379.5360256 343.4121152 367 413 367 C 482.5878848 367 539 379.5360256 539 395 C 539 410.4639744 482.5878848 423 413 423 C 343.4121152 423 287 410.4639744 287 395 Z" fill="#C0C0C0" opacity="0.2" stroke="none"/></g><g transform="translate(-30,2) scale(1,1)"><path d="M 280 388 C 280 372.5360256 336.4121152 360 406 360 C 475.5878848 360 532 372.5360256 532 388 C 532 403.4639744 475.5878848 416 406 416 C 336.4121152 416 280 403.4639744 280 388 Z" fill="#ffffff" stroke="none"/></g><g transform="translate(-30,2) scale(1,1)"><path d="M 280 388 C 280 372.5360256 336.4121152 360 406 360 C 475.5878848 360 532 372.5360256 532 388 C 532 403.4639744 475.5878848 416 406 416 C 336.4121152 416 280 403.4639744 280 388 Z" fill="none" stroke="#000000" stroke-miterlimit="10"/></g><g transform="translate(-30,2) scale(1,1)"><g><path fill="none" stroke="none"/><text fill="#000000" font-family="Arial" font-size="13px" font-style="normal" font-weight="bold" stroke="none" text-decoration="none" x="332.554443359375" y="393.5">Gérer les droits d'accès</text></g></g><g transform="translate(-30,2) scale(1,1)"><path d="M 303 555 C 303 539.5360256 356.725824 527 423 527 C 489.274176 527 543 539.5360256 543 555 C 543 570.4639744 489.274176 583 423 583 C 356.725824 583 303 570.4639744 303 555 Z" fill="#C0C0C0" opacity="0.2" stroke="none"/></g><g transform="translate(-30,2) scale(1,1)"><path d="M 296 548 C 296 532.5360256 349.725824 520 416 520 C 482.274176 520 536 532.5360256 536 548 C 536 563.4639744 482.274176 576 416 576 C 349.725824 576 296 563.4639744 296 548 Z" fill="#ffffff" stroke="none"/></g><g transform="translate(-30,2) scale(1,1)"><path d="M 296 548 C 296 532.5360256 349.725824 520 416 520 C 482.274176 520 536 532.5360256 536 548 C 536 563.4639744 482.274176 576 416 576 C 349.725824 576 296 563.4639744 296 548 Z" fill="none" stroke="#000000" stroke-miterlimit="10"/></g><g transform="translate(-30,2) scale(1,1)"><g><path fill="none" stroke="none"/><text fill="#000000" font-family="Arial" font-size="13px" font-style="normal" font-weight="bold" stroke="none" text-decoration="none" x="356.030517578125" y="553.5">Gérer  plan tarifaire</text></g></g><g transform="translate(-30,2) scale(1,1)"><path d="M 177 351 L 567 117" fill="none" stroke="#000000" stroke-miterlimit="10"/></g><g transform="translate(-30,2) scale(1,1)"><path d="M 553.9027144422752 134.67656954896546 L 567 117 L 545.239598370807 120.23804276318523" fill="#FFFFFF" stroke="none"/></g><g transform="translate(-30,2) scale(1,1)"><path d="M 553.9027144422752 134.67656954896546 L 567 117 L 545.239598370807 120.23804276318523 L 553.9027144422752 134.67656954896546" fill="none" stroke="#000000" stroke-miterlimit="10"/></g><g transform="translate(-30,2) scale(1,1)"><path d="M 183 373 L 296 345" fill="none" stroke="#000000" stroke-miterlimit="10"/></g><g transform="translate(-30,2) scale(1,1)"><path d="M 279 389 L 183 390" fill="none" stroke="#000000" stroke-miterlimit="10"/></g><g transform="translate(-30,2) scale(1,1)"><path d="M 282 431 L 183 408" fill="none" stroke="#000000" stroke-miterlimit="10"/></g><g transform="translate(-30,2) scale(1,1)"><path d="M 359 519 L 183 428" fill="none" stroke="#000000" stroke-miterlimit="10"/></g><g transform="translate(-30,2) scale(1,1)"><path d="M 815 179 C 815 163.5360256 861.1146656 151 918 151 C 974.8853344 151 1021 163.5360256 1021 179 C 1021 194.4639744 974.8853344 207 918 207 C 861.1146656 207 815 194.4639744 815 179 Z" fill="#C0C0C0" opacity="0.2" stroke="none"/></g><g transform="translate(-30,2) scale(1,1)"><path d="M 808 172 C 808 156.5360256 854.1146656 144 911 144 C 967.8853344 144 1014 156.5360256 1014 172 C 1014 187.4639744 967.8853344 200 911 200 C 854.1146656 200 808 187.4639744 808 172 Z" fill="#ffffff" stroke="none"/></g><g transform="translate(-30,2) scale(1,1)"><path d="M 808 172 C 808 156.5360256 854.1146656 144 911 144 C 967.8853344 144 1014 156.5360256 1014 172 C 1014 187.4639744 967.8853344 200 911 200 C 854.1146656 200 808 187.4639744 808 172 Z" fill="none" stroke="#000000" stroke-miterlimit="10"/></g><g transform="translate(-30,2) scale(1,1)"><g><path fill="none" stroke="none"/><text fill="#000000" font-family="Arial" font-size="13px" font-style="normal" font-weight="bold" stroke="none" text-decoration="none" x="842.7373046875" y="177.5">Consulter statistiques</text></g></g><g transform="translate(-30,2) scale(1,1)"><path d="M 807 146 L 642 104" fill="none" stroke="#000000" stroke-miterlimit="10"/></g></g></svg>