<?xml version="1.0" encoding="UTF-8" standalone="no"?><svg xmlns="http://www.w3.org/2000/svg" xmlns:xlink="http://www.w3.org/1999/xlink" height="780" version="1.1" width="1036"><defs/><g><g transform="translate(-14,10) scale(1,1)"><path d="M 32 0 L 1040 0 L 1040 760 L 32 760 L 32 0" fill="none" stroke="#000000" stroke-miterlimit="10"/></g><g transform="translate(-14,10) scale(1,1)"><path d="M 32 0 L 32 22 L 177.37158203125 22 L 188.37158203125 11 L 188.37158203125 0 L 32 0" fill="#ffffff" stroke="none"/></g><g transform="translate(-14,10) scale(1,1)"><path d="M 32 0 L 32 22 L 177.37158203125 22 L 188.37158203125 11 L 188.37158203125 0 L 32 0 L 32 0" fill="none" stroke="#000000" stroke-miterlimit="10"/></g><g transform="translate(-14,10) scale(1,1)"><g><path fill="none" stroke="none"/><text fill="#000000" font-family="Arial" font-size="13px" font-style="normal" font-weight="normal" stroke="none" text-decoration="none" x="56.72998046875" y="16">demander un congé</text></g></g><g transform="translate(-14,10) scale(1,1)"><g><path fill="none" stroke="none"/><text fill="#000000" font-family="Arial" font-size="13px" font-style="normal" font-weight="bold" stroke="none" text-decoration="none" x="36.279541015625" y="16">sd</text></g></g><g transform="translate(-14,10) scale(1,1)"><path d="M 72.9981551846591 47.3 C 72.9981551846591 43.82060576 75.87655690684092 41 79.42724609375 41 C 82.97793528065908 41 85.8563370028409 43.82060576 85.8563370028409 47.3 C 85.8563370028409 50.779394239999995 82.97793528065908 53.6 79.42724609375 53.6 C 75.87655690684092 53.6 72.9981551846591 50.779394239999995 72.9981551846591 47.3 Z" fill="#ffffff" stroke="none"/></g><g transform="translate(-14,10) scale(1,1)"><path d="M 72.9981551846591 47.3 C 72.9981551846591 43.82060576 75.87655690684092 41 79.42724609375 41 C 82.97793528065908 41 85.8563370028409 43.82060576 85.8563370028409 47.3 C 85.8563370028409 50.779394239999995 82.97793528065908 53.6 79.42724609375 53.6 C 75.87655690684092 53.6 72.9981551846591 50.779394239999995 72.9981551846591 47.3 Z" fill="none" stroke="#000000" stroke-miterlimit="10"/></g><g transform="translate(-14,10) scale(1,1)"><path d="M 79.42724609375 53.6 L 79.42724609375 66.4" fill="none" stroke="#000000" stroke-miterlimit="10"/></g><g transform="translate(-14,10) scale(1,1)"><path d="M 72.61997336647727 58.4 L 86.23451882102273 58.4" fill="none" stroke="#000000" stroke-miterlimit="10"/></g><g transform="translate(-14,10) scale(1,1)"><path d="M 79.42724609375 66.4 L 69.97270063920455 79" fill="none" stroke="#000000" stroke-miterlimit="10"/></g><g transform="translate(-14,10) scale(1,1)"><path d="M 79.42724609375 66.4 L 88.88179154829545 79" fill="none" stroke="#000000" stroke-miterlimit="10"/></g><g transform="translate(-14,10) scale(1,1)"><g><path fill="none" stroke="none"/><text fill="#000000" font-family="Arial" font-size="13px" font-style="normal" font-weight="bold" stroke="none" text-decoration="none" x="34.635009765625" y="98">Lifeline1: User</text></g></g><g transform="translate(-14,10) scale(1,1)"><path d="M 80.5 105 L 80.5 760" fill="none" stroke="#000000" stroke-dasharray="3" stroke-miterlimit="10"/></g><g transform="translate(-14,10) scale(1,1)"><rect fill="#C0C0C0" height="39" opacity="0.2" stroke="none" width="127.8369140625" x="255" y="47"/></g><g transform="translate(-14,10) scale(1,1)"><rect fill="#ffffff" height="39" stroke="none" width="127.8369140625" x="248" y="40"/></g><g transform="translate(-14,10) scale(1,1)"><path d="M 248 40 L 375.8369140625 40 L 375.8369140625 79 L 248 79 L 248 40 Z Z" fill="none" stroke="#000000" stroke-miterlimit="10"/></g><g transform="translate(-14,10) scale(1,1)"><g><path fill="none" stroke="none"/><text fill="#000000" font-family="Arial" font-size="13px" font-style="normal" font-weight="bold" stroke="none" text-decoration="none" x="257.5" y="58">Interface: Timeoff</text></g></g><g transform="translate(-14,10) scale(1,1)"><path d="M 312.5 80 L 312.5 760" fill="none" stroke="#000000" stroke-dasharray="3" stroke-miterlimit="10"/></g><g transform="translate(-14,10) scale(1,1)"><rect fill="#C0C0C0" height="39" opacity="0.2" stroke="none" width="135.7587890625" x="471" y="47"/></g><g transform="translate(-14,10) scale(1,1)"><rect fill="#ffffff" height="39" stroke="none" width="135.7587890625" x="464" y="40"/></g><g transform="translate(-14,10) scale(1,1)"><path d="M 464 40 L 599.7587890625 40 L 599.7587890625 79 L 464 79 L 464 40 Z Z" fill="none" stroke="#000000" stroke-miterlimit="10"/></g><g transform="translate(-14,10) scale(1,1)"><g><path fill="none" stroke="none"/><text fill="#000000" font-family="Arial" font-size="13px" font-style="normal" font-weight="bold" stroke="none" text-decoration="none" x="473.5" y="58">Controller: Timeoff</text></g></g><g transform="translate(-14,10) scale(1,1)"><path d="M 532.5 80 L 532.5 760" fill="none" stroke="#000000" stroke-dasharray="3" stroke-miterlimit="10"/></g><g transform="translate(-14,10) scale(1,1)"><rect fill="#C0C0C0" height="39" opacity="0.2" stroke="none" width="72.93603515625" x="743" y="47"/></g><g transform="translate(-14,10) scale(1,1)"><rect fill="#ffffff" height="39" stroke="none" width="72.93603515625" x="736" y="40"/></g><g transform="translate(-14,10) scale(1,1)"><path d="M 736 40 L 808.93603515625 40 L 808.93603515625 79 L 736 79 L 736 40 Z Z" fill="none" stroke="#000000" stroke-miterlimit="10"/></g><g transform="translate(-14,10) scale(1,1)"><g><path fill="none" stroke="none"/><text fill="#000000" font-family="Arial" font-size="13px" font-style="normal" font-weight="bold" stroke="none" text-decoration="none" x="745.5" y="58">Timeoffs</text></g></g><g transform="translate(-14,10) scale(1,1)"><path d="M 773.5 80 L 773.5 760" fill="none" stroke="#000000" stroke-dasharray="3" stroke-miterlimit="10"/></g><g transform="translate(-14,10) scale(1,1)"><rect fill="#C0C0C0" height="39" opacity="0.2" stroke="none" width="97.7236328125" x="863" y="47"/></g><g transform="translate(-14,10) scale(1,1)"><rect fill="#ffffff" height="39" stroke="none" width="97.7236328125" x="856" y="40"/></g><g transform="translate(-14,10) scale(1,1)"><path d="M 856 40 L 953.7236328125 40 L 953.7236328125 79 L 856 79 L 856 40 Z Z" fill="none" stroke="#000000" stroke-miterlimit="10"/></g><g transform="translate(-14,10) scale(1,1)"><g><path fill="none" stroke="none"/><text fill="#000000" font-family="Arial" font-size="13px" font-style="normal" font-weight="bold" stroke="none" text-decoration="none" x="865.5" y="58">Notifications</text></g></g><g transform="translate(-14,10) scale(1,1)"><path d="M 905.5 80 L 905.5 760" fill="none" stroke="#000000" stroke-dasharray="3" stroke-miterlimit="10"/></g><g transform="translate(-14,10) scale(1,1)"><path d="M 80 216 L 305 216" fill="none" stroke="#000000" stroke-miterlimit="10"/></g><g transform="translate(-14,10) scale(1,1)"><path d="M 294.83732514237585 220.209517756016 L 305 216 L 294.83732514237585 211.790482243984" fill="#000000" stroke="none"/></g><g transform="translate(-14,10) scale(1,1)"><path d="M 294.83732514237585 220.209517756016 L 305 216 L 294.83732514237585 211.790482243984 L 294.83732514237585 220.209517756016" fill="none" stroke="#000000" stroke-miterlimit="10"/></g><g transform="translate(-14,10) scale(1,1)"><g><path fill="none" stroke="none"/><text fill="#000000" font-family="Arial" font-size="13px" font-style="normal" font-weight="normal" stroke="none" text-decoration="none" x="108.5" y="211">1 : cliquerButtonAddATimeoff</text></g></g><g transform="translate(-14,10) scale(1,1)"><rect fill="#ffffff" height="28" stroke="none" width="13" x="305" y="216"/></g><g transform="translate(-14,10) scale(1,1)"><path d="M 305 216 L 318 216 L 318 244 L 305 244 L 305 216 Z Z" fill="none" stroke="#000000" stroke-miterlimit="10"/></g><g transform="translate(-14,10) scale(1,1)"><path d="M 312 256 L 342 256 L 342 276 L 318 276" fill="none" stroke="#000000" stroke-miterlimit="10"/></g><g transform="translate(-14,10) scale(1,1)"><path d="M 328.16267485762415 271.790482243984 L 318 276 L 328.16267485762415 280.209517756016" fill="#000000" stroke="none"/></g><g transform="translate(-14,10) scale(1,1)"><path d="M 328.16267485762415 271.790482243984 L 318 276 L 328.16267485762415 280.209517756016 L 328.16267485762415 271.790482243984" fill="none" stroke="#000000" stroke-miterlimit="10"/></g><g transform="translate(-14,10) scale(1,1)"><g><path fill="none" stroke="none"/><text fill="#000000" font-family="Arial" font-size="13px" font-style="normal" font-weight="normal" stroke="none" text-decoration="none" x="348.5" y="267">2 : chargerPopupAddTimeOff</text></g></g><g transform="translate(-14,10) scale(1,1)"><rect fill="#ffffff" height="28" stroke="none" width="13" x="305" y="276"/></g><g transform="translate(-14,10) scale(1,1)"><path d="M 305 276 L 318 276 L 318 304 L 305 304 L 305 276 Z Z" fill="none" stroke="#000000" stroke-miterlimit="10"/></g><g transform="translate(-14,10) scale(1,1)"><path d="M 80 344 L 305 344" fill="none" stroke="#000000" stroke-miterlimit="10"/></g><g transform="translate(-14,10) scale(1,1)"><path d="M 294.83732514237585 348.209517756016 L 305 344 L 294.83732514237585 339.790482243984" fill="#000000" stroke="none"/></g><g transform="translate(-14,10) scale(1,1)"><path d="M 294.83732514237585 348.209517756016 L 305 344 L 294.83732514237585 339.790482243984 L 294.83732514237585 348.209517756016" fill="none" stroke="#000000" stroke-miterlimit="10"/></g><g transform="translate(-14,10) scale(1,1)"><g><path fill="none" stroke="none"/><text fill="#000000" font-family="Arial" font-size="13px" font-style="normal" font-weight="normal" stroke="none" text-decoration="none" x="83.5" y="339">3 : saisirDonnéesAbsences(données)</text></g></g><g transform="translate(-14,10) scale(1,1)"><rect fill="#ffffff" height="28" stroke="none" width="13" x="305" y="344"/></g><g transform="translate(-14,10) scale(1,1)"><path d="M 305 344 L 318 344 L 318 372 L 305 372 L 305 344 Z Z" fill="none" stroke="#000000" stroke-miterlimit="10"/></g><g transform="translate(-14,10) scale(1,1)"><path d="M 318 360 L 525 360" fill="none" stroke="#000000" stroke-miterlimit="10"/></g><g transform="translate(-14,10) scale(1,1)"><path d="M 514.8373251423759 364.209517756016 L 525 360 L 514.8373251423758 355.790482243984" fill="#000000" stroke="none"/></g><g transform="translate(-14,10) scale(1,1)"><path d="M 514.8373251423759 364.209517756016 L 525 360 L 514.8373251423758 355.790482243984 L 514.8373251423759 364.209517756016" fill="none" stroke="#000000" stroke-miterlimit="10"/></g><g transform="translate(-14,10) scale(1,1)"><g><path fill="none" stroke="none"/><text fill="#000000" font-family="Arial" font-size="13px" font-style="normal" font-weight="normal" stroke="none" text-decoration="none" x="325.5" y="355">4 : AjouterCongé(données,token)</text></g></g><g transform="translate(-14,10) scale(1,1)"><rect fill="#ffffff" height="28" stroke="none" width="13" x="525" y="360"/></g><g transform="translate(-14,10) scale(1,1)"><path d="M 525 360 L 538 360 L 538 388 L 525 388 L 525 360 Z Z" fill="none" stroke="#000000" stroke-miterlimit="10"/></g><g transform="translate(-14,10) scale(1,1)"><rect fill="#ffffff" height="71" stroke="none" width="936" x="56" y="104"/></g><g transform="translate(-14,10) scale(1,1)"><path d="M 56 104 L 992 104 L 992 175 L 56 175 L 56 104 Z Z" fill="none" stroke="#000000" stroke-miterlimit="10"/></g><g transform="translate(-14,10) scale(1,1)"><path d="M 56 104 L 56 126 L 81.1708984375 126 L 92.1708984375 115 L 92.1708984375 104 L 56 104 L 56 104" fill="none" stroke="#000000" stroke-miterlimit="10"/></g><g transform="translate(-14,10) scale(1,1)"><g><path fill="none" stroke="none"/><text fill="#000000" font-family="Arial" font-size="13px" font-style="normal" font-weight="normal" stroke="none" text-decoration="none" x="542.08544921875" y="115"/></g></g><g transform="translate(-14,10) scale(1,1)"><g><path fill="none" stroke="none"/><text fill="#000000" font-family="Arial" font-size="13px" font-style="normal" font-weight="bold" stroke="none" text-decoration="none" x="60.2763671875" y="120">ref</text></g></g><g transform="translate(-14,10) scale(1,1)"><path d="M 532 392 L 562 392 L 562 412 L 538 412" fill="none" stroke="#000000" stroke-miterlimit="10"/></g><g transform="translate(-14,10) scale(1,1)"><path d="M 548.1626748576241 407.790482243984 L 538 412 L 548.1626748576241 416.209517756016" fill="#000000" stroke="none"/></g><g transform="translate(-14,10) scale(1,1)"><path d="M 548.1626748576241 407.790482243984 L 538 412 L 548.1626748576241 416.209517756016 L 548.1626748576241 407.790482243984" fill="none" stroke="#000000" stroke-miterlimit="10"/></g><g transform="translate(-14,10) scale(1,1)"><g><path fill="none" stroke="none"/><text fill="#000000" font-family="Arial" font-size="13px" font-style="normal" font-weight="normal" stroke="none" text-decoration="none" x="565.5" y="411">5 : verificationDonnées(données)</text></g></g><g transform="translate(-14,10) scale(1,1)"><rect fill="#ffffff" height="164" stroke="none" width="13" x="525" y="412"/></g><g transform="translate(-14,10) scale(1,1)"><path d="M 525 412 L 538 412 L 538 576 L 525 576 L 525 412 Z Z" fill="none" stroke="#000000" stroke-miterlimit="10"/></g><g transform="translate(-14,10) scale(1,1)"><path d="M 525 488 L 312 488" fill="none" stroke="#000000" stroke-dasharray="3" stroke-miterlimit="10"/></g><g transform="translate(-14,10) scale(1,1)"><path d="M 322.16267485762415 483.790482243984 L 312 488 L 322.16267485762415 492.209517756016" fill="none" stroke="#000000" stroke-miterlimit="10"/></g><g transform="translate(-14,10) scale(1,1)"><g><path fill="none" stroke="none"/><text fill="#000000" font-family="Arial" font-size="13px" font-style="normal" font-weight="normal" stroke="none" text-decoration="none" x="342.5" y="503">6 : Message(Invalid Data)</text></g></g><g transform="translate(-14,10) scale(1,1)"><path d="M 538 552 L 766 552" fill="none" stroke="#000000" stroke-miterlimit="10"/></g><g transform="translate(-14,10) scale(1,1)"><path d="M 755.8373251423759 556.209517756016 L 766 552 L 755.8373251423758 547.790482243984" fill="#000000" stroke="none"/></g><g transform="translate(-14,10) scale(1,1)"><path d="M 755.8373251423759 556.209517756016 L 766 552 L 755.8373251423758 547.790482243984 L 755.8373251423759 556.209517756016" fill="none" stroke="#000000" stroke-miterlimit="10"/></g><g transform="translate(-14,10) scale(1,1)"><g><path fill="none" stroke="none"/><text fill="#000000" font-family="Arial" font-size="13px" font-style="normal" font-weight="normal" stroke="none" text-decoration="none" x="542.5" y="547">7 : AddTimeoff(données,token.user.id)</text></g></g><g transform="translate(-14,10) scale(1,1)"><rect fill="#ffffff" height="28" stroke="none" width="13" x="766" y="552"/></g><g transform="translate(-14,10) scale(1,1)"><path d="M 766 552 L 779 552 L 779 580 L 766 580 L 766 552 Z Z" fill="none" stroke="#000000" stroke-miterlimit="10"/></g><g transform="translate(-14,10) scale(1,1)"><path d="M 766 568 L 538 568" fill="none" stroke="#000000" stroke-dasharray="3" stroke-miterlimit="10"/></g><g transform="translate(-14,10) scale(1,1)"><path d="M 548.1626748576241 563.790482243984 L 538 568 L 548.1626748576241 572.209517756016" fill="none" stroke="#000000" stroke-miterlimit="10"/></g><g transform="translate(-14,10) scale(1,1)"><g><path fill="none" stroke="none"/><text fill="#000000" font-family="Arial" font-size="13px" font-style="normal" font-weight="normal" stroke="none" text-decoration="none" x="587.5" y="583">8 : return(newTimeoff)</text></g></g><g transform="translate(-14,10) scale(1,1)"><path d="M 532 621 L 898 621" fill="none" stroke="#000000" stroke-miterlimit="10"/></g><g transform="translate(-14,10) scale(1,1)"><path d="M 887.8373251423759 625.209517756016 L 898 621 L 887.8373251423758 616.790482243984" fill="#000000" stroke="none"/></g><g transform="translate(-14,10) scale(1,1)"><path d="M 887.8373251423759 625.209517756016 L 898 621 L 887.8373251423758 616.790482243984 L 887.8373251423759 625.209517756016" fill="none" stroke="#000000" stroke-miterlimit="10"/></g><g transform="translate(-14,10) scale(1,1)"><g><path fill="none" stroke="none"/><text fill="#000000" font-family="Arial" font-size="13px" font-style="normal" font-weight="normal" stroke="none" text-decoration="none" x="550.5" y="615">9 : createNotification(newTimeoff , token.user.manager.id)</text></g></g><g transform="translate(-14,10) scale(1,1)"><rect fill="#ffffff" height="28" stroke="none" width="13" x="898" y="621"/></g><g transform="translate(-14,10) scale(1,1)"><path d="M 898 621 L 911 621 L 911 649 L 898 649 L 898 621 Z Z" fill="none" stroke="#000000" stroke-miterlimit="10"/></g><g transform="translate(-14,10) scale(1,1)"><path d="M 532 704 L 312 704" fill="none" stroke="#000000" stroke-dasharray="3" stroke-miterlimit="10"/></g><g transform="translate(-14,10) scale(1,1)"><path d="M 322.16267485762415 699.790482243984 L 312 704 L 322.16267485762415 708.209517756016" fill="none" stroke="#000000" stroke-miterlimit="10"/></g><g transform="translate(-14,10) scale(1,1)"><g><path fill="none" stroke="none"/><text fill="#000000" font-family="Arial" font-size="13px" font-style="normal" font-weight="normal" stroke="none" text-decoration="none" x="311.5" y="719">10 : Message(Time off request added)</text></g></g><g transform="translate(-14,10) scale(1,1)"><path d="M 56 440 L 992 440 L 992 736 L 56 736 L 56 440" fill="none" stroke="#000000" stroke-miterlimit="10"/></g><g transform="translate(-14,10) scale(1,1)"><path d="M 56 440 L 56 462 L 85.72998046875 462 L 96.72998046875 451 L 96.72998046875 440 L 56 440" fill="#ffffff" stroke="none"/></g><g transform="translate(-14,10) scale(1,1)"><path d="M 56 440 L 56 462 L 85.72998046875 462 L 96.72998046875 451 L 96.72998046875 440 L 56 440 L 56 440" fill="none" stroke="#000000" stroke-miterlimit="10"/></g><g transform="translate(-14,10) scale(1,1)"><g><path fill="none" stroke="none"/><text fill="#000000" font-family="Arial" font-size="13px" font-style="normal" font-weight="bold" stroke="none" text-decoration="none" x="60.279541015625" y="456">alt</text></g></g><g transform="translate(-14,10) scale(1,1)"><g><path fill="none" stroke="none"/><text fill="#000000" font-family="Arial" font-size="13px" font-style="normal" font-weight="normal" stroke="none" text-decoration="none" x="75.5" y="489">[ données erronées]</text></g></g><g transform="translate(-14,10) scale(1,1)"><path d="M 56 521 L 992 521" fill="none" stroke="#000000" stroke-dasharray="10,3" stroke-miterlimit="10"/></g></g></svg>