<?xml version="1.0" encoding="UTF-8" standalone="no"?><svg xmlns="http://www.w3.org/2000/svg" xmlns:xlink="http://www.w3.org/1999/xlink" height="1988" version="1.1" width="1212"><defs/><g><g transform="translate(-102,2) scale(1,1)"><path d="M 112 8 L 1304 8 L 1304 1976 L 112 1976 L 112 8" fill="none" stroke="#000000" stroke-miterlimit="10"/></g><g transform="translate(-102,2) scale(1,1)"><path d="M 112 8 L 112 30 L 418.11328125 30 L 429.11328125 19 L 429.11328125 8 L 112 8" fill="#ffffff" stroke="none"/></g><g transform="translate(-102,2) scale(1,1)"><path d="M 112 8 L 112 30 L 418.11328125 30 L 429.11328125 19 L 429.11328125 8 L 112 8 L 112 8" fill="none" stroke="#000000" stroke-miterlimit="10"/></g><g transform="translate(-102,2) scale(1,1)"><g><path fill="none" stroke="none"/><text fill="#000000" font-family="Arial" font-size="13px" font-style="normal" font-weight="normal" stroke="none" text-decoration="none" x="136.72998046875" y="24">consulter les employés d'une politique de congé</text></g></g><g transform="translate(-102,2) scale(1,1)"><g><path fill="none" stroke="none"/><text fill="#000000" font-family="Arial" font-size="13px" font-style="normal" font-weight="bold" stroke="none" text-decoration="none" x="116.279541015625" y="24">sd</text></g></g><g transform="translate(-102,2) scale(1,1)"><path d="M 200.8631454190341 47.3 C 200.8631454190341 43.82060576 203.7415471412159 41 207.292236328125 41 C 210.8429255150341 41 213.72132723721592 43.82060576 213.72132723721592 47.3 C 213.72132723721592 50.779394239999995 210.8429255150341 53.6 207.292236328125 53.6 C 203.7415471412159 53.6 200.8631454190341 50.779394239999995 200.8631454190341 47.3 Z" fill="#ffffff" stroke="none"/></g><g transform="translate(-102,2) scale(1,1)"><path d="M 200.8631454190341 47.3 C 200.8631454190341 43.82060576 203.7415471412159 41 207.292236328125 41 C 210.8429255150341 41 213.72132723721592 43.82060576 213.72132723721592 47.3 C 213.72132723721592 50.779394239999995 210.8429255150341 53.6 207.292236328125 53.6 C 203.7415471412159 53.6 200.8631454190341 50.779394239999995 200.8631454190341 47.3 Z" fill="none" stroke="#000000" stroke-miterlimit="10"/></g><g transform="translate(-102,2) scale(1,1)"><path d="M 207.292236328125 53.6 L 207.292236328125 66.4" fill="none" stroke="#000000" stroke-miterlimit="10"/></g><g transform="translate(-102,2) scale(1,1)"><path d="M 200.4849636008523 58.4 L 214.09950905539773 58.4" fill="none" stroke="#000000" stroke-miterlimit="10"/></g><g transform="translate(-102,2) scale(1,1)"><path d="M 207.292236328125 66.4 L 197.83769087357956 79" fill="none" stroke="#000000" stroke-miterlimit="10"/></g><g transform="translate(-102,2) scale(1,1)"><path d="M 207.292236328125 66.4 L 216.74678178267047 79" fill="none" stroke="#000000" stroke-miterlimit="10"/></g><g transform="translate(-102,2) scale(1,1)"><g><path fill="none" stroke="none"/><text fill="#000000" font-family="Arial" font-size="13px" font-style="normal" font-weight="bold" stroke="none" text-decoration="none" x="162.5" y="98">Lifeline1: User</text></g></g><g transform="translate(-102,2) scale(1,1)"><path d="M 208.5 105 L 208.5 1976" fill="none" stroke="#000000" stroke-dasharray="3" stroke-miterlimit="10"/></g><g transform="translate(-102,2) scale(1,1)"><rect fill="#C0C0C0" height="39" opacity="0.2" stroke="none" width="204.630859375" x="303" y="47"/></g><g transform="translate(-102,2) scale(1,1)"><rect fill="#ffffff" height="39" stroke="none" width="204.630859375" x="296" y="40"/></g><g transform="translate(-102,2) scale(1,1)"><path d="M 296 40 L 500.630859375 40 L 500.630859375 79 L 296 79 L 296 40 Z Z" fill="none" stroke="#000000" stroke-miterlimit="10"/></g><g transform="translate(-102,2) scale(1,1)"><g><path fill="none" stroke="none"/><text fill="#000000" font-family="Arial" font-size="13px" font-style="normal" font-weight="bold" stroke="none" text-decoration="none" x="305.5" y="58">Interface: PolicyConfiguration</text></g></g><g transform="translate(-102,2) scale(1,1)"><path d="M 399.5 80 L 399.5 1976" fill="none" stroke="#000000" stroke-dasharray="3" stroke-miterlimit="10"/></g><g transform="translate(-102,2) scale(1,1)"><rect fill="#C0C0C0" height="39" opacity="0.2" stroke="none" width="188.06982421875" x="551" y="47"/></g><g transform="translate(-102,2) scale(1,1)"><rect fill="#ffffff" height="39" stroke="none" width="188.06982421875" x="544" y="40"/></g><g transform="translate(-102,2) scale(1,1)"><path d="M 544 40 L 732.06982421875 40 L 732.06982421875 79 L 544 79 L 544 40 Z Z" fill="none" stroke="#000000" stroke-miterlimit="10"/></g><g transform="translate(-102,2) scale(1,1)"><g><path fill="none" stroke="none"/><text fill="#000000" font-family="Arial" font-size="13px" font-style="normal" font-weight="bold" stroke="none" text-decoration="none" x="553.5" y="58">Interface: PolicyEmployees</text></g></g><g transform="translate(-102,2) scale(1,1)"><path d="M 639.5 80 L 639.5 1976" fill="none" stroke="#000000" stroke-dasharray="3" stroke-miterlimit="10"/></g><g transform="translate(-102,2) scale(1,1)"><rect fill="#C0C0C0" height="39" opacity="0.2" stroke="none" width="138.18994140625" x="847" y="47"/></g><g transform="translate(-102,2) scale(1,1)"><rect fill="#ffffff" height="39" stroke="none" width="138.18994140625" x="840" y="40"/></g><g transform="translate(-102,2) scale(1,1)"><path d="M 840 40 L 978.18994140625 40 L 978.18994140625 79 L 840 79 L 840 40 Z Z" fill="none" stroke="#000000" stroke-miterlimit="10"/></g><g transform="translate(-102,2) scale(1,1)"><g><path fill="none" stroke="none"/><text fill="#000000" font-family="Arial" font-size="13px" font-style="normal" font-weight="bold" stroke="none" text-decoration="none" x="849.5" y="58">Controller: Policies</text></g></g><g transform="translate(-102,2) scale(1,1)"><path d="M 910.5 80 L 910.5 1976" fill="none" stroke="#000000" stroke-dasharray="3" stroke-miterlimit="10"/></g><g transform="translate(-102,2) scale(1,1)"><rect fill="#C0C0C0" height="39" opacity="0.2" stroke="none" width="71.736328125" x="1215" y="47"/></g><g transform="translate(-102,2) scale(1,1)"><rect fill="#ffffff" height="39" stroke="none" width="71.736328125" x="1208" y="40"/></g><g transform="translate(-102,2) scale(1,1)"><path d="M 1208 40 L 1279.736328125 40 L 1279.736328125 79 L 1208 79 L 1208 40 Z Z" fill="none" stroke="#000000" stroke-miterlimit="10"/></g><g transform="translate(-102,2) scale(1,1)"><g><path fill="none" stroke="none"/><text fill="#000000" font-family="Arial" font-size="13px" font-style="normal" font-weight="bold" stroke="none" text-decoration="none" x="1225.799560546875" y="58">Users</text></g></g><g transform="translate(-102,2) scale(1,1)"><path d="M 1244.5 80 L 1244.5 1976" fill="none" stroke="#000000" stroke-dasharray="3" stroke-miterlimit="10"/></g><g transform="translate(-102,2) scale(1,1)"><rect fill="#C0C0C0" height="39" opacity="0.2" stroke="none" width="71.736328125" x="1119" y="47"/></g><g transform="translate(-102,2) scale(1,1)"><rect fill="#ffffff" height="39" stroke="none" width="71.736328125" x="1112" y="40"/></g><g transform="translate(-102,2) scale(1,1)"><path d="M 1112 40 L 1183.736328125 40 L 1183.736328125 79 L 1112 79 L 1112 40 Z Z" fill="none" stroke="#000000" stroke-miterlimit="10"/></g><g transform="translate(-102,2) scale(1,1)"><g><path fill="none" stroke="none"/><text fill="#000000" font-family="Arial" font-size="13px" font-style="normal" font-weight="bold" stroke="none" text-decoration="none" x="1123.299560546875" y="58">Policies</text></g></g><g transform="translate(-102,2) scale(1,1)"><path d="M 1148.5 80 L 1148.5 1976" fill="none" stroke="#000000" stroke-dasharray="3" stroke-miterlimit="10"/></g><g transform="translate(-102,2) scale(1,1)"><rect fill="#ffffff" height="79" stroke="none" width="1160" x="128" y="136"/></g><g transform="translate(-102,2) scale(1,1)"><path d="M 128 136 L 1288 136 L 1288 215 L 128 215 L 128 136 Z Z" fill="none" stroke="#000000" stroke-miterlimit="10"/></g><g transform="translate(-102,2) scale(1,1)"><path d="M 128 136 L 128 158 L 153.1708984375 158 L 164.1708984375 147 L 164.1708984375 136 L 128 136 L 128 136" fill="none" stroke="#000000" stroke-miterlimit="10"/></g><g transform="translate(-102,2) scale(1,1)"><g><path fill="none" stroke="none"/><text fill="#000000" font-family="Arial" font-size="13px" font-style="normal" font-weight="normal" stroke="none" text-decoration="none" x="726.08544921875" y="147"/></g></g><g transform="translate(-102,2) scale(1,1)"><g><path fill="none" stroke="none"/><text fill="#000000" font-family="Arial" font-size="13px" font-style="normal" font-weight="bold" stroke="none" text-decoration="none" x="132.2763671875" y="152">ref</text></g></g><g transform="translate(-102,2) scale(1,1)"><path d="M 208 268 L 392 268" fill="none" stroke="#000000" stroke-miterlimit="10"/></g><g transform="translate(-102,2) scale(1,1)"><path d="M 381.83732514237585 272.209517756016 L 392 268 L 381.83732514237585 263.790482243984" fill="#000000" stroke="none"/></g><g transform="translate(-102,2) scale(1,1)"><path d="M 381.83732514237585 272.209517756016 L 392 268 L 381.83732514237585 263.790482243984 L 381.83732514237585 272.209517756016" fill="none" stroke="#000000" stroke-miterlimit="10"/></g><g transform="translate(-102,2) scale(1,1)"><g><path fill="none" stroke="none"/><text fill="#000000" font-family="Arial" font-size="13px" font-style="normal" font-weight="normal" stroke="none" text-decoration="none" x="241.456787109375" y="263">1 : cliqueEmployees</text></g></g><g transform="translate(-102,2) scale(1,1)"><rect fill="#ffffff" height="28" stroke="none" width="13" x="392" y="268"/></g><g transform="translate(-102,2) scale(1,1)"><path d="M 392 268 L 405 268 L 405 296 L 392 296 L 392 268 Z Z" fill="none" stroke="#000000" stroke-miterlimit="10"/></g><g transform="translate(-102,2) scale(1,1)"><path d="M 405 282 L 632 282" fill="none" stroke="#000000" stroke-miterlimit="10"/></g><g transform="translate(-102,2) scale(1,1)"><path d="M 621.8373251423759 286.209517756016 L 632 282 L 621.8373251423758 277.790482243984" fill="#000000" stroke="none"/></g><g transform="translate(-102,2) scale(1,1)"><path d="M 621.8373251423759 286.209517756016 L 632 282 L 621.8373251423758 277.790482243984 L 621.8373251423759 286.209517756016" fill="none" stroke="#000000" stroke-miterlimit="10"/></g><g transform="translate(-102,2) scale(1,1)"><g><path fill="none" stroke="none"/><text fill="#000000" font-family="Arial" font-size="13px" font-style="normal" font-weight="normal" stroke="none" text-decoration="none" x="408.5" y="277">2 : chargerInterfaceEmployees(policy)</text></g></g><g transform="translate(-102,2) scale(1,1)"><rect fill="#ffffff" height="28" stroke="none" width="13" x="632" y="282"/></g><g transform="translate(-102,2) scale(1,1)"><path d="M 632 282 L 645 282 L 645 310 L 632 310 L 632 282 Z Z" fill="none" stroke="#000000" stroke-miterlimit="10"/></g><g transform="translate(-102,2) scale(1,1)"><path d="M 645 296 L 903 296" fill="none" stroke="#000000" stroke-miterlimit="10"/></g><g transform="translate(-102,2) scale(1,1)"><path d="M 892.8373251423759 300.209517756016 L 903 296 L 892.8373251423758 291.790482243984" fill="#000000" stroke="none"/></g><g transform="translate(-102,2) scale(1,1)"><path d="M 892.8373251423759 300.209517756016 L 903 296 L 892.8373251423758 291.790482243984 L 892.8373251423759 300.209517756016" fill="none" stroke="#000000" stroke-miterlimit="10"/></g><g transform="translate(-102,2) scale(1,1)"><g><path fill="none" stroke="none"/><text fill="#000000" font-family="Arial" font-size="13px" font-style="normal" font-weight="normal" stroke="none" text-decoration="none" x="648.5" y="291">3 : demanderPolicyEmployees(policy,token)</text></g></g><g transform="translate(-102,2) scale(1,1)"><rect fill="#ffffff" height="63" stroke="none" width="13" x="903" y="296"/></g><g transform="translate(-102,2) scale(1,1)"><path d="M 903 296 L 916 296 L 916 359 L 903 359 L 903 296 Z Z" fill="none" stroke="#000000" stroke-miterlimit="10"/></g><g transform="translate(-102,2) scale(1,1)"><path d="M 916 310 L 1141 310" fill="none" stroke="#000000" stroke-miterlimit="10"/></g><g transform="translate(-102,2) scale(1,1)"><path d="M 1130.837325142376 314.209517756016 L 1141 310 L 1130.837325142376 305.790482243984" fill="#000000" stroke="none"/></g><g transform="translate(-102,2) scale(1,1)"><path d="M 1130.837325142376 314.209517756016 L 1141 310 L 1130.837325142376 305.790482243984 L 1130.837325142376 314.209517756016" fill="none" stroke="#000000" stroke-miterlimit="10"/></g><g transform="translate(-102,2) scale(1,1)"><g><path fill="none" stroke="none"/><text fill="#000000" font-family="Arial" font-size="13px" font-style="normal" font-weight="normal" stroke="none" text-decoration="none" x="938.5" y="305">4 : GetPolicyEmployees(policy)</text></g></g><g transform="translate(-102,2) scale(1,1)"><rect fill="#ffffff" height="42" stroke="none" width="13" x="1141" y="310"/></g><g transform="translate(-102,2) scale(1,1)"><path d="M 1141 310 L 1154 310 L 1154 352 L 1141 352 L 1141 310 Z Z" fill="none" stroke="#000000" stroke-miterlimit="10"/></g><g transform="translate(-102,2) scale(1,1)"><path d="M 1141 344 L 916 344" fill="none" stroke="#000000" stroke-dasharray="3" stroke-miterlimit="10"/></g><g transform="translate(-102,2) scale(1,1)"><path d="M 926.1626748576241 339.790482243984 L 916 344 L 926.1626748576241 348.209517756016" fill="none" stroke="#000000" stroke-miterlimit="10"/></g><g transform="translate(-102,2) scale(1,1)"><g><path fill="none" stroke="none"/><text fill="#000000" font-family="Arial" font-size="13px" font-style="normal" font-weight="normal" stroke="none" text-decoration="none" x="947.5" y="359">5 : return(PolicyEmployees)</text></g></g><g transform="translate(-102,2) scale(1,1)"><path d="M 910 414 L 1141 414" fill="none" stroke="#000000" stroke-miterlimit="10"/></g><g transform="translate(-102,2) scale(1,1)"><path d="M 1130.837325142376 418.209517756016 L 1141 414 L 1130.837325142376 409.790482243984" fill="#000000" stroke="none"/></g><g transform="translate(-102,2) scale(1,1)"><path d="M 1130.837325142376 418.209517756016 L 1141 414 L 1130.837325142376 409.790482243984 L 1130.837325142376 418.209517756016" fill="none" stroke="#000000" stroke-miterlimit="10"/></g><g transform="translate(-102,2) scale(1,1)"><g><path fill="none" stroke="none"/><text fill="#000000" font-family="Arial" font-size="13px" font-style="normal" font-weight="normal" stroke="none" text-decoration="none" x="945.75" y="409">6 : GetOtherPolicies(policy)</text></g></g><g transform="translate(-102,2) scale(1,1)"><rect fill="#ffffff" height="28" stroke="none" width="13" x="1141" y="414"/></g><g transform="translate(-102,2) scale(1,1)"><path d="M 1141 414 L 1154 414 L 1154 442 L 1141 442 L 1141 414 Z Z" fill="none" stroke="#000000" stroke-miterlimit="10"/></g><g transform="translate(-102,2) scale(1,1)"><path d="M 1141 440 L 910 440" fill="none" stroke="#000000" stroke-dasharray="3" stroke-miterlimit="10"/></g><g transform="translate(-102,2) scale(1,1)"><path d="M 920.1626748576241 435.790482243984 L 910 440 L 920.1626748576241 444.209517756016" fill="none" stroke="#000000" stroke-miterlimit="10"/></g><g transform="translate(-102,2) scale(1,1)"><g><path fill="none" stroke="none"/><text fill="#000000" font-family="Arial" font-size="13px" font-style="normal" font-weight="normal" stroke="none" text-decoration="none" x="955.5" y="455">7 : return(OtherPolicies)</text></g></g><g transform="translate(-102,2) scale(1,1)"><path d="M 910 496 L 1141 496" fill="none" stroke="#000000" stroke-miterlimit="10"/></g><g transform="translate(-102,2) scale(1,1)"><path d="M 1130.837325142376 500.209517756016 L 1141 496 L 1130.837325142376 491.790482243984" fill="#000000" stroke="none"/></g><g transform="translate(-102,2) scale(1,1)"><path d="M 1130.837325142376 500.209517756016 L 1141 496 L 1130.837325142376 491.790482243984 L 1130.837325142376 500.209517756016" fill="none" stroke="#000000" stroke-miterlimit="10"/></g><g transform="translate(-102,2) scale(1,1)"><g><path fill="none" stroke="none"/><text fill="#000000" font-family="Arial" font-size="13px" font-style="normal" font-weight="normal" stroke="none" text-decoration="none" x="891.5" y="491">8 : GetOtherPoliciesEmployees(OtherPolicies)</text></g></g><g transform="translate(-102,2) scale(1,1)"><rect fill="#ffffff" height="28" stroke="none" width="13" x="1141" y="496"/></g><g transform="translate(-102,2) scale(1,1)"><path d="M 1141 496 L 1154 496 L 1154 524 L 1141 524 L 1141 496 Z Z" fill="none" stroke="#000000" stroke-miterlimit="10"/></g><g transform="translate(-102,2) scale(1,1)"><path d="M 1141 520 L 910 520" fill="none" stroke="#000000" stroke-dasharray="3" stroke-miterlimit="10"/></g><g transform="translate(-102,2) scale(1,1)"><path d="M 920.1626748576241 515.790482243984 L 910 520 L 920.1626748576241 524.209517756016" fill="none" stroke="#000000" stroke-miterlimit="10"/></g><g transform="translate(-102,2) scale(1,1)"><g><path fill="none" stroke="none"/><text fill="#000000" font-family="Arial" font-size="13px" font-style="normal" font-weight="normal" stroke="none" text-decoration="none" x="922.5" y="535">9 : return(OtherPoliciesEmployees)</text></g></g><g transform="translate(-102,2) scale(1,1)"><path d="M 910 568 L 639 568" fill="none" stroke="#000000" stroke-dasharray="3" stroke-miterlimit="10"/></g><g transform="translate(-102,2) scale(1,1)"><path d="M 649.1626748576241 563.790482243984 L 639 568 L 649.1626748576241 572.209517756016" fill="none" stroke="#000000" stroke-miterlimit="10"/></g><g transform="translate(-102,2) scale(1,1)"><g><path fill="none" stroke="none"/><text fill="#000000" font-family="Arial" font-size="13px" font-style="normal" font-weight="normal" stroke="none" text-decoration="none" x="710.726806640625" y="583">10 : return Json(data)</text></g></g><g transform="translate(-102,2) scale(1,1)"><path d="M 208 704 L 632 704" fill="none" stroke="#000000" stroke-miterlimit="10"/></g><g transform="translate(-102,2) scale(1,1)"><path d="M 621.8373251423759 708.209517756016 L 632 704 L 621.8373251423758 699.790482243984" fill="#000000" stroke="none"/></g><g transform="translate(-102,2) scale(1,1)"><path d="M 621.8373251423759 708.209517756016 L 632 704 L 621.8373251423758 699.790482243984 L 621.8373251423759 708.209517756016" fill="none" stroke="#000000" stroke-miterlimit="10"/></g><g transform="translate(-102,2) scale(1,1)"><g><path fill="none" stroke="none"/><text fill="#000000" font-family="Arial" font-size="13px" font-style="normal" font-weight="normal" stroke="none" text-decoration="none" x="214.14697265625" y="698">11 : clique3doticon(employee)</text></g></g><g transform="translate(-102,2) scale(1,1)"><rect fill="#ffffff" height="28" stroke="none" width="13" x="632" y="704"/></g><g transform="translate(-102,2) scale(1,1)"><path d="M 632 704 L 645 704 L 645 732 L 632 732 L 632 704 Z Z" fill="none" stroke="#000000" stroke-miterlimit="10"/></g><g transform="translate(-102,2) scale(1,1)"><path d="M 639 736 L 669 736 L 669 756 L 645 756" fill="none" stroke="#000000" stroke-miterlimit="10"/></g><g transform="translate(-102,2) scale(1,1)"><path d="M 655.1626748576241 751.790482243984 L 645 756 L 655.1626748576241 760.209517756016" fill="#000000" stroke="none"/></g><g transform="translate(-102,2) scale(1,1)"><path d="M 655.1626748576241 751.790482243984 L 645 756 L 655.1626748576241 760.209517756016 L 655.1626748576241 751.790482243984" fill="none" stroke="#000000" stroke-miterlimit="10"/></g><g transform="translate(-102,2) scale(1,1)"><g><path fill="none" stroke="none"/><text fill="#000000" font-family="Arial" font-size="13px" font-style="normal" font-weight="normal" stroke="none" text-decoration="none" x="670.5" y="750">12 : chargerPopupAssigntodifferentPolicy(OtherPolicies)</text></g></g><g transform="translate(-102,2) scale(1,1)"><rect fill="#ffffff" height="28" stroke="none" width="13" x="632" y="756"/></g><g transform="translate(-102,2) scale(1,1)"><path d="M 632 756 L 645 756 L 645 784 L 632 784 L 632 756 Z Z" fill="none" stroke="#000000" stroke-miterlimit="10"/></g><g transform="translate(-102,2) scale(1,1)"><path d="M 208 824 L 632 824" fill="none" stroke="#000000" stroke-miterlimit="10"/></g><g transform="translate(-102,2) scale(1,1)"><path d="M 621.8373251423759 828.209517756016 L 632 824 L 621.8373251423758 819.790482243984" fill="#000000" stroke="none"/></g><g transform="translate(-102,2) scale(1,1)"><path d="M 621.8373251423759 828.209517756016 L 632 824 L 621.8373251423758 819.790482243984 L 621.8373251423759 828.209517756016" fill="none" stroke="#000000" stroke-miterlimit="10"/></g><g transform="translate(-102,2) scale(1,1)"><g><path fill="none" stroke="none"/><text fill="#000000" font-family="Arial" font-size="13px" font-style="normal" font-weight="normal" stroke="none" text-decoration="none" x="223.5" y="814">13 : selectNewPolicy(newPolicy)</text></g></g><g transform="translate(-102,2) scale(1,1)"><rect fill="#ffffff" height="28" stroke="none" width="13" x="632" y="824"/></g><g transform="translate(-102,2) scale(1,1)"><path d="M 632 824 L 645 824 L 645 852 L 632 852 L 632 824 Z Z" fill="none" stroke="#000000" stroke-miterlimit="10"/></g><g transform="translate(-102,2) scale(1,1)"><path d="M 208 888 L 632 888" fill="none" stroke="#000000" stroke-miterlimit="10"/></g><g transform="translate(-102,2) scale(1,1)"><path d="M 621.8373251423759 892.209517756016 L 632 888 L 621.8373251423758 883.790482243984" fill="#000000" stroke="none"/></g><g transform="translate(-102,2) scale(1,1)"><path d="M 621.8373251423759 892.209517756016 L 632 888 L 621.8373251423758 883.790482243984 L 621.8373251423759 892.209517756016" fill="none" stroke="#000000" stroke-miterlimit="10"/></g><g transform="translate(-102,2) scale(1,1)"><g><path fill="none" stroke="none"/><text fill="#000000" font-family="Arial" font-size="13px" font-style="normal" font-weight="normal" stroke="none" text-decoration="none" x="356.5" y="883">14 : cliqueButtonSave</text></g></g><g transform="translate(-102,2) scale(1,1)"><rect fill="#ffffff" height="93" stroke="none" width="13" x="632" y="888"/></g><g transform="translate(-102,2) scale(1,1)"><path d="M 632 888 L 645 888 L 645 981 L 632 981 L 632 888 Z Z" fill="none" stroke="#000000" stroke-miterlimit="10"/></g><g transform="translate(-102,2) scale(1,1)"><path d="M 645 936 L 903 936" fill="none" stroke="#000000" stroke-miterlimit="10"/></g><g transform="translate(-102,2) scale(1,1)"><path d="M 892.8373251423759 940.209517756016 L 903 936 L 892.8373251423758 931.790482243984" fill="#000000" stroke="none"/></g><g transform="translate(-102,2) scale(1,1)"><path d="M 892.8373251423759 940.209517756016 L 903 936 L 892.8373251423758 931.790482243984 L 892.8373251423759 940.209517756016" fill="none" stroke="#000000" stroke-miterlimit="10"/></g><g transform="translate(-102,2) scale(1,1)"><g><path fill="none" stroke="none"/><text fill="#000000" font-family="Arial" font-size="13px" font-style="normal" font-weight="normal" stroke="none" text-decoration="none" x="645.5" y="924">15 : changerPolitiqueEmployé(employee,newPolicy,token)</text></g></g><g transform="translate(-102,2) scale(1,1)"><rect fill="#ffffff" height="32" stroke="none" width="13" x="903" y="936"/></g><g transform="translate(-102,2) scale(1,1)"><path d="M 903 936 L 916 936 L 916 968 L 903 968 L 903 936 Z Z" fill="none" stroke="#000000" stroke-miterlimit="10"/></g><g transform="translate(-102,2) scale(1,1)"><path d="M 916 960 L 1237 960" fill="none" stroke="#000000" stroke-miterlimit="10"/></g><g transform="translate(-102,2) scale(1,1)"><path d="M 1226.837325142376 964.209517756016 L 1237 960 L 1226.837325142376 955.790482243984" fill="#000000" stroke="none"/></g><g transform="translate(-102,2) scale(1,1)"><path d="M 1226.837325142376 964.209517756016 L 1237 960 L 1226.837325142376 955.790482243984 L 1226.837325142376 964.209517756016" fill="none" stroke="#000000" stroke-miterlimit="10"/></g><g transform="translate(-102,2) scale(1,1)"><g><path fill="none" stroke="none"/><text fill="#000000" font-family="Arial" font-size="13px" font-style="normal" font-weight="normal" stroke="none" text-decoration="none" x="919.5" y="955">16 : UpdateEmployeePolicy(employee.id,newPolicy.id)</text></g></g><g transform="translate(-102,2) scale(1,1)"><rect fill="#ffffff" height="28" stroke="none" width="13" x="1237" y="960"/></g><g transform="translate(-102,2) scale(1,1)"><path d="M 1237 960 L 1250 960 L 1250 988 L 1237 988 L 1237 960 Z Z" fill="none" stroke="#000000" stroke-miterlimit="10"/></g><g transform="translate(-102,2) scale(1,1)"><path d="M 910 1016 L 639 1016" fill="none" stroke="#000000" stroke-dasharray="3" stroke-miterlimit="10"/></g><g transform="translate(-102,2) scale(1,1)"><path d="M 649.1626748576241 1011.790482243984 L 639 1016 L 649.1626748576241 1020.209517756016" fill="none" stroke="#000000" stroke-miterlimit="10"/></g><g transform="translate(-102,2) scale(1,1)"><g><path fill="none" stroke="none"/><text fill="#000000" font-family="Arial" font-size="13px" font-style="normal" font-weight="normal" stroke="none" text-decoration="none" x="653.5" y="1031">17 : Message(Employee Policy Changed)</text></g></g><g transform="translate(-102,2) scale(1,1)"><path d="M 208 1192 L 632 1192" fill="none" stroke="#000000" stroke-miterlimit="10"/></g><g transform="translate(-102,2) scale(1,1)"><path d="M 621.8373251423759 1196.2095177560159 L 632 1192 L 621.8373251423758 1187.7904822439841" fill="#000000" stroke="none"/></g><g transform="translate(-102,2) scale(1,1)"><path d="M 621.8373251423759 1196.2095177560159 L 632 1192 L 621.8373251423758 1187.7904822439841 L 621.8373251423759 1196.2095177560159" fill="none" stroke="#000000" stroke-miterlimit="10"/></g><g transform="translate(-102,2) scale(1,1)"><g><path fill="none" stroke="none"/><text fill="#000000" font-family="Arial" font-size="13px" font-style="normal" font-weight="normal" stroke="none" text-decoration="none" x="330.91455078125" y="1187">18 : cliqueButtonAddEmployee</text></g></g><g transform="translate(-102,2) scale(1,1)"><rect fill="#ffffff" height="28" stroke="none" width="13" x="632" y="1192"/></g><g transform="translate(-102,2) scale(1,1)"><path d="M 632 1192 L 645 1192 L 645 1220 L 632 1220 L 632 1192 Z Z" fill="none" stroke="#000000" stroke-miterlimit="10"/></g><g transform="translate(-102,2) scale(1,1)"><path d="M 639 1224 L 669 1224 L 669 1244 L 645 1244" fill="none" stroke="#000000" stroke-miterlimit="10"/></g><g transform="translate(-102,2) scale(1,1)"><path d="M 655.1626748576241 1239.7904822439841 L 645 1244 L 655.1626748576241 1248.2095177560159" fill="#000000" stroke="none"/></g><g transform="translate(-102,2) scale(1,1)"><path d="M 655.1626748576241 1239.7904822439841 L 645 1244 L 655.1626748576241 1248.2095177560159 L 655.1626748576241 1239.7904822439841" fill="none" stroke="#000000" stroke-miterlimit="10"/></g><g transform="translate(-102,2) scale(1,1)"><g><path fill="none" stroke="none"/><text fill="#000000" font-family="Arial" font-size="13px" font-style="normal" font-weight="normal" stroke="none" text-decoration="none" x="678.5" y="1235">19 : chargerPopupAssignOtherEmployeesToThisPolicy(OtherPoliciesEmployees)</text></g></g><g transform="translate(-102,2) scale(1,1)"><rect fill="#ffffff" height="28" stroke="none" width="13" x="632" y="1244"/></g><g transform="translate(-102,2) scale(1,1)"><path d="M 632 1244 L 645 1244 L 645 1272 L 632 1272 L 632 1244 Z Z" fill="none" stroke="#000000" stroke-miterlimit="10"/></g><g transform="translate(-102,2) scale(1,1)"><path d="M 208 1301 L 632 1301" fill="none" stroke="#000000" stroke-miterlimit="10"/></g><g transform="translate(-102,2) scale(1,1)"><path d="M 621.8373251423759 1305.2095177560159 L 632 1301 L 621.8373251423758 1296.7904822439841" fill="#000000" stroke="none"/></g><g transform="translate(-102,2) scale(1,1)"><path d="M 621.8373251423759 1305.2095177560159 L 632 1301 L 621.8373251423758 1296.7904822439841 L 621.8373251423759 1305.2095177560159" fill="none" stroke="#000000" stroke-miterlimit="10"/></g><g transform="translate(-102,2) scale(1,1)"><g><path fill="none" stroke="none"/><text fill="#000000" font-family="Arial" font-size="13px" font-style="normal" font-weight="normal" stroke="none" text-decoration="none" x="296.5" y="1296">20 : selectNewEmployees(newEmployees)</text></g></g><g transform="translate(-102,2) scale(1,1)"><rect fill="#ffffff" height="28" stroke="none" width="13" x="632" y="1301"/></g><g transform="translate(-102,2) scale(1,1)"><path d="M 632 1301 L 645 1301 L 645 1329 L 632 1329 L 632 1301 Z Z" fill="none" stroke="#000000" stroke-miterlimit="10"/></g><g transform="translate(-102,2) scale(1,1)"><path d="M 208 1357 L 632 1357" fill="none" stroke="#000000" stroke-miterlimit="10"/></g><g transform="translate(-102,2) scale(1,1)"><path d="M 621.8373251423759 1361.2095177560159 L 632 1357 L 621.8373251423758 1352.7904822439841" fill="#000000" stroke="none"/></g><g transform="translate(-102,2) scale(1,1)"><path d="M 621.8373251423759 1361.2095177560159 L 632 1357 L 621.8373251423758 1352.7904822439841 L 621.8373251423759 1361.2095177560159" fill="none" stroke="#000000" stroke-miterlimit="10"/></g><g transform="translate(-102,2) scale(1,1)"><g><path fill="none" stroke="none"/><text fill="#000000" font-family="Arial" font-size="13px" font-style="normal" font-weight="normal" stroke="none" text-decoration="none" x="356.5" y="1352">21 : cliqueButtonSave</text></g></g><g transform="translate(-102,2) scale(1,1)"><rect fill="#ffffff" height="28" stroke="none" width="13" x="632" y="1357"/></g><g transform="translate(-102,2) scale(1,1)"><path d="M 632 1357 L 645 1357 L 645 1385 L 632 1385 L 632 1357 Z Z" fill="none" stroke="#000000" stroke-miterlimit="10"/></g><g transform="translate(-102,2) scale(1,1)"><path d="M 645 1368 L 903 1368" fill="none" stroke="#000000" stroke-miterlimit="10"/></g><g transform="translate(-102,2) scale(1,1)"><path d="M 892.8373251423759 1372.2095177560159 L 903 1368 L 892.8373251423758 1363.7904822439841" fill="#000000" stroke="none"/></g><g transform="translate(-102,2) scale(1,1)"><path d="M 892.8373251423759 1372.2095177560159 L 903 1368 L 892.8373251423758 1363.7904822439841 L 892.8373251423759 1372.2095177560159" fill="none" stroke="#000000" stroke-miterlimit="10"/></g><g transform="translate(-102,2) scale(1,1)"><g><path fill="none" stroke="none"/><text fill="#000000" font-family="Arial" font-size="13px" font-style="normal" font-weight="normal" stroke="none" text-decoration="none" x="654.5" y="1363">22 : AjouterDesEmployés(policy,newEmployees,token)</text></g></g><g transform="translate(-102,2) scale(1,1)"><rect fill="#ffffff" height="28" stroke="none" width="13" x="903" y="1368"/></g><g transform="translate(-102,2) scale(1,1)"><path d="M 903 1368 L 916 1368 L 916 1396 L 903 1396 L 903 1368 Z Z" fill="none" stroke="#000000" stroke-miterlimit="10"/></g><g transform="translate(-102,2) scale(1,1)"><path d="M 910 1504 L 1237 1504" fill="none" stroke="#000000" stroke-miterlimit="10"/></g><g transform="translate(-102,2) scale(1,1)"><path d="M 1226.837325142376 1508.2095177560159 L 1237 1504 L 1226.837325142376 1499.7904822439841" fill="#000000" stroke="none"/></g><g transform="translate(-102,2) scale(1,1)"><path d="M 1226.837325142376 1508.2095177560159 L 1237 1504 L 1226.837325142376 1499.7904822439841 L 1226.837325142376 1508.2095177560159" fill="none" stroke="#000000" stroke-miterlimit="10"/></g><g transform="translate(-102,2) scale(1,1)"><g><path fill="none" stroke="none"/><text fill="#000000" font-family="Arial" font-size="13px" font-style="normal" font-weight="normal" stroke="none" text-decoration="none" x="909.5" y="1499">23 : updateEmployeePolicy(newEmployees[i].id,policy.id)</text></g></g><g transform="translate(-102,2) scale(1,1)"><rect fill="#ffffff" height="28" stroke="none" width="13" x="1237" y="1504"/></g><g transform="translate(-102,2) scale(1,1)"><path d="M 1237 1504 L 1250 1504 L 1250 1532 L 1237 1532 L 1237 1504 Z Z" fill="none" stroke="#000000" stroke-miterlimit="10"/></g><g transform="translate(-102,2) scale(1,1)"><path d="M 910 1544 L 940 1544 L 940 1564 L 916 1564" fill="none" stroke="#000000" stroke-miterlimit="10"/></g><g transform="translate(-102,2) scale(1,1)"><path d="M 926.1626748576241 1559.7904822439841 L 916 1564 L 926.1626748576241 1568.2095177560159" fill="#000000" stroke="none"/></g><g transform="translate(-102,2) scale(1,1)"><path d="M 926.1626748576241 1559.7904822439841 L 916 1564 L 926.1626748576241 1568.2095177560159 L 926.1626748576241 1559.7904822439841" fill="none" stroke="#000000" stroke-miterlimit="10"/></g><g transform="translate(-102,2) scale(1,1)"><g><path fill="none" stroke="none"/><text fill="#000000" font-family="Arial" font-size="13px" font-style="normal" font-weight="normal" stroke="none" text-decoration="none" x="949.5" y="1563">24 : incrémenter i</text></g></g><g transform="translate(-102,2) scale(1,1)"><rect fill="#ffffff" height="28" stroke="none" width="13" x="903" y="1564"/></g><g transform="translate(-102,2) scale(1,1)"><path d="M 903 1564 L 916 1564 L 916 1592 L 903 1592 L 903 1564 Z Z" fill="none" stroke="#000000" stroke-miterlimit="10"/></g><g transform="translate(-102,2) scale(1,1)"><path d="M 910 1672 L 639 1672" fill="none" stroke="#000000" stroke-dasharray="3" stroke-miterlimit="10"/></g><g transform="translate(-102,2) scale(1,1)"><path d="M 649.1626748576241 1667.7904822439841 L 639 1672 L 649.1626748576241 1676.2095177560159" fill="none" stroke="#000000" stroke-miterlimit="10"/></g><g transform="translate(-102,2) scale(1,1)"><g><path fill="none" stroke="none"/><text fill="#000000" font-family="Arial" font-size="13px" font-style="normal" font-weight="normal" stroke="none" text-decoration="none" x="626.0654296875" y="1687">25 : Message(new Employees added to this policy)</text></g></g><g transform="translate(-102,2) scale(1,1)"><rect fill="#ffffff" height="95" stroke="none" width="704" x="368" y="1792"/></g><g transform="translate(-102,2) scale(1,1)"><path d="M 368 1792 L 1072 1792 L 1072 1887 L 368 1887 L 368 1792 Z Z" fill="none" stroke="#000000" stroke-miterlimit="10"/></g><g transform="translate(-102,2) scale(1,1)"><path d="M 368 1792 L 368 1814 L 393.1708984375 1814 L 404.1708984375 1803 L 404.1708984375 1792 L 368 1792 L 368 1792" fill="none" stroke="#000000" stroke-miterlimit="10"/></g><g transform="translate(-102,2) scale(1,1)"><g><path fill="none" stroke="none"/><text fill="#000000" font-family="Arial" font-size="13px" font-style="normal" font-weight="normal" stroke="none" text-decoration="none" x="738.08544921875" y="1803"/></g></g><g transform="translate(-102,2) scale(1,1)"><g><path fill="none" stroke="none"/><text fill="#000000" font-family="Arial" font-size="13px" font-style="normal" font-weight="bold" stroke="none" text-decoration="none" x="372.2763671875" y="1808">ref</text></g></g><g transform="translate(-102,2) scale(1,1)"><path d="M 136 648 L 1287 648 L 1287 1064 L 136 1064 L 136 648" fill="none" stroke="#000000" stroke-miterlimit="10"/></g><g transform="translate(-102,2) scale(1,1)"><path d="M 136 648 L 136 670 L 492.38037109375 670 L 503.38037109375 659 L 503.38037109375 648 L 136 648" fill="#ffffff" stroke="none"/></g><g transform="translate(-102,2) scale(1,1)"><path d="M 136 648 L 136 670 L 492.38037109375 670 L 503.38037109375 659 L 503.38037109375 648 L 136 648 L 136 648" fill="none" stroke="#000000" stroke-miterlimit="10"/></g><g transform="translate(-102,2) scale(1,1)"><g><path fill="none" stroke="none"/><text fill="#000000" font-family="Arial" font-size="13px" font-style="normal" font-weight="normal" stroke="none" text-decoration="none" x="165.07177734375" y="664">transférer un employé vers une autre politique de congé</text></g></g><g transform="translate(-102,2) scale(1,1)"><g><path fill="none" stroke="none"/><text fill="#000000" font-family="Arial" font-size="13px" font-style="normal" font-weight="bold" stroke="none" text-decoration="none" x="139.930419921875" y="663.5">opt</text></g></g><g transform="translate(-102,2) scale(1,1)"><path d="M 136 1120 L 1287 1120 L 1287 1704 L 136 1704 L 136 1120" fill="none" stroke="#000000" stroke-miterlimit="10"/></g><g transform="translate(-102,2) scale(1,1)"><path d="M 136 1120 L 136 1142 L 438.9267578125 1142 L 449.9267578125 1131 L 449.9267578125 1120 L 136 1120" fill="#ffffff" stroke="none"/></g><g transform="translate(-102,2) scale(1,1)"><path d="M 136 1120 L 136 1142 L 438.9267578125 1142 L 449.9267578125 1131 L 449.9267578125 1120 L 136 1120 L 136 1120" fill="none" stroke="#000000" stroke-miterlimit="10"/></g><g transform="translate(-102,2) scale(1,1)"><g><path fill="none" stroke="none"/><text fill="#000000" font-family="Arial" font-size="13px" font-style="normal" font-weight="normal" stroke="none" text-decoration="none" x="165.07177734375" y="1136">ajouter des employés à une politique de congé</text></g></g><g transform="translate(-102,2) scale(1,1)"><g><path fill="none" stroke="none"/><text fill="#000000" font-family="Arial" font-size="13px" font-style="normal" font-weight="bold" stroke="none" text-decoration="none" x="139.930419921875" y="1135.5">opt</text></g></g><g transform="translate(-102,2) scale(1,1)"><path d="M 800 1408 L 1271 1408 L 1271 1656 L 800 1656 L 800 1408" fill="none" stroke="#000000" stroke-miterlimit="10"/></g><g transform="translate(-102,2) scale(1,1)"><path d="M 800 1408 L 800 1430 L 840.578125 1430 L 851.578125 1419 L 851.578125 1408 L 800 1408" fill="#ffffff" stroke="none"/></g><g transform="translate(-102,2) scale(1,1)"><path d="M 800 1408 L 800 1430 L 840.578125 1430 L 851.578125 1419 L 851.578125 1408 L 800 1408 L 800 1408" fill="none" stroke="#000000" stroke-miterlimit="10"/></g><g transform="translate(-102,2) scale(1,1)"><g><path fill="none" stroke="none"/><text fill="#000000" font-family="Arial" font-size="13px" font-style="normal" font-weight="bold" stroke="none" text-decoration="none" x="803.57177734375" y="1424">loop</text></g></g><g transform="translate(-102,2) scale(1,1)"><g><path fill="none" stroke="none"/><text fill="#000000" font-family="Arial" font-size="13px" font-style="normal" font-weight="normal" stroke="none" text-decoration="none" x="819.5" y="1457">[ len(newEmployees)  &gt; i  ]</text></g></g><g transform="translate(-102,2) scale(1,1)"><path d="M 136 1760 L 1287 1760 L 1287 1919 L 136 1919 L 136 1760" fill="none" stroke="#000000" stroke-miterlimit="10"/></g><g transform="translate(-102,2) scale(1,1)"><path d="M 136 1760 L 136 1782 L 170.07177734375 1782 L 181.07177734375 1771 L 181.07177734375 1760 L 136 1760" fill="#ffffff" stroke="none"/></g><g transform="translate(-102,2) scale(1,1)"><path d="M 136 1760 L 136 1782 L 170.07177734375 1782 L 181.07177734375 1771 L 181.07177734375 1760 L 136 1760 L 136 1760" fill="none" stroke="#000000" stroke-miterlimit="10"/></g><g transform="translate(-102,2) scale(1,1)"><g><path fill="none" stroke="none"/><text fill="#000000" font-family="Arial" font-size="13px" font-style="normal" font-weight="bold" stroke="none" text-decoration="none" x="139.930419921875" y="1775.5">opt</text></g></g></g></svg>