<?xml version="1.0" encoding="UTF-8" standalone="no"?><svg xmlns="http://www.w3.org/2000/svg" xmlns:xlink="http://www.w3.org/1999/xlink" height="836" version="1.1" width="980"><defs/><g><g transform="translate(-14,2) scale(1,1)"><path d="M 24 8 L 984 8 L 984 824 L 24 824 L 24 8" fill="none" stroke="#000000" stroke-miterlimit="10"/></g><g transform="translate(-14,2) scale(1,1)"><path d="M 24 8 L 24 30 L 345.30322265625 30 L 356.30322265625 19 L 356.30322265625 8 L 24 8" fill="#ffffff" stroke="none"/></g><g transform="translate(-14,2) scale(1,1)"><path d="M 24 8 L 24 30 L 345.30322265625 30 L 356.30322265625 19 L 356.30322265625 8 L 24 8 L 24 8" fill="none" stroke="#000000" stroke-miterlimit="10"/></g><g transform="translate(-14,2) scale(1,1)"><g><path fill="none" stroke="none"/><text fill="#000000" font-family="Arial" font-size="13px" font-style="normal" font-weight="normal" stroke="none" text-decoration="none" x="48.72998046875" y="24">Consulter la configuration d'une politique de congé</text></g></g><g transform="translate(-14,2) scale(1,1)"><g><path fill="none" stroke="none"/><text fill="#000000" font-family="Arial" font-size="13px" font-style="normal" font-weight="bold" stroke="none" text-decoration="none" x="28.279541015625" y="24">sd</text></g></g><g transform="translate(-14,2) scale(1,1)"><path d="M 74.8631454190341 47.3 C 74.8631454190341 43.82060576 77.74154714121592 41 81.292236328125 41 C 84.84292551503408 41 87.7213272372159 43.82060576 87.7213272372159 47.3 C 87.7213272372159 50.779394239999995 84.84292551503408 53.6 81.292236328125 53.6 C 77.74154714121592 53.6 74.8631454190341 50.779394239999995 74.8631454190341 47.3 Z" fill="#ffffff" stroke="none"/></g><g transform="translate(-14,2) scale(1,1)"><path d="M 74.8631454190341 47.3 C 74.8631454190341 43.82060576 77.74154714121592 41 81.292236328125 41 C 84.84292551503408 41 87.7213272372159 43.82060576 87.7213272372159 47.3 C 87.7213272372159 50.779394239999995 84.84292551503408 53.6 81.292236328125 53.6 C 77.74154714121592 53.6 74.8631454190341 50.779394239999995 74.8631454190341 47.3 Z" fill="none" stroke="#000000" stroke-miterlimit="10"/></g><g transform="translate(-14,2) scale(1,1)"><path d="M 81.292236328125 53.6 L 81.292236328125 66.4" fill="none" stroke="#000000" stroke-miterlimit="10"/></g><g transform="translate(-14,2) scale(1,1)"><path d="M 74.48496360085227 58.4 L 88.09950905539773 58.4" fill="none" stroke="#000000" stroke-miterlimit="10"/></g><g transform="translate(-14,2) scale(1,1)"><path d="M 81.292236328125 66.4 L 71.83769087357955 79" fill="none" stroke="#000000" stroke-miterlimit="10"/></g><g transform="translate(-14,2) scale(1,1)"><path d="M 81.292236328125 66.4 L 90.74678178267045 79" fill="none" stroke="#000000" stroke-miterlimit="10"/></g><g transform="translate(-14,2) scale(1,1)"><g><path fill="none" stroke="none"/><text fill="#000000" font-family="Arial" font-size="13px" font-style="normal" font-weight="bold" stroke="none" text-decoration="none" x="36.5" y="98">Lifeline1: User</text></g></g><g transform="translate(-14,2) scale(1,1)"><path d="M 82.5 105 L 82.5 824" fill="none" stroke="#000000" stroke-dasharray="3" stroke-miterlimit="10"/></g><g transform="translate(-14,2) scale(1,1)"><rect fill="#C0C0C0" height="39" opacity="0.2" stroke="none" width="130.26806640625" x="199" y="47"/></g><g transform="translate(-14,2) scale(1,1)"><rect fill="#ffffff" height="39" stroke="none" width="130.26806640625" x="192" y="40"/></g><g transform="translate(-14,2) scale(1,1)"><path d="M 192 40 L 322.26806640625 40 L 322.26806640625 79 L 192 79 L 192 40 Z Z" fill="none" stroke="#000000" stroke-miterlimit="10"/></g><g transform="translate(-14,2) scale(1,1)"><g><path fill="none" stroke="none"/><text fill="#000000" font-family="Arial" font-size="13px" font-style="normal" font-weight="bold" stroke="none" text-decoration="none" x="201.5" y="58">Interface: Policies</text></g></g><g transform="translate(-14,2) scale(1,1)"><path d="M 258.5 80 L 258.5 824" fill="none" stroke="#000000" stroke-dasharray="3" stroke-miterlimit="10"/></g><g transform="translate(-14,2) scale(1,1)"><rect fill="#C0C0C0" height="39" opacity="0.2" stroke="none" width="204.630859375" x="351" y="47"/></g><g transform="translate(-14,2) scale(1,1)"><rect fill="#ffffff" height="39" stroke="none" width="204.630859375" x="344" y="40"/></g><g transform="translate(-14,2) scale(1,1)"><path d="M 344 40 L 548.630859375 40 L 548.630859375 79 L 344 79 L 344 40 Z Z" fill="none" stroke="#000000" stroke-miterlimit="10"/></g><g transform="translate(-14,2) scale(1,1)"><g><path fill="none" stroke="none"/><text fill="#000000" font-family="Arial" font-size="13px" font-style="normal" font-weight="bold" stroke="none" text-decoration="none" x="353.5" y="58">Interface: PolicyConfiguration</text></g></g><g transform="translate(-14,2) scale(1,1)"><path d="M 447.5 80 L 447.5 824" fill="none" stroke="#000000" stroke-dasharray="3" stroke-miterlimit="10"/></g><g transform="translate(-14,2) scale(1,1)"><rect fill="#C0C0C0" height="39" opacity="0.2" stroke="none" width="138.18994140625" x="647" y="47"/></g><g transform="translate(-14,2) scale(1,1)"><rect fill="#ffffff" height="39" stroke="none" width="138.18994140625" x="640" y="40"/></g><g transform="translate(-14,2) scale(1,1)"><path d="M 640 40 L 778.18994140625 40 L 778.18994140625 79 L 640 79 L 640 40 Z Z" fill="none" stroke="#000000" stroke-miterlimit="10"/></g><g transform="translate(-14,2) scale(1,1)"><g><path fill="none" stroke="none"/><text fill="#000000" font-family="Arial" font-size="13px" font-style="normal" font-weight="bold" stroke="none" text-decoration="none" x="649.5" y="58">Controller: Policies</text></g></g><g transform="translate(-14,2) scale(1,1)"><path d="M 710.5 80 L 710.5 824" fill="none" stroke="#000000" stroke-dasharray="3" stroke-miterlimit="10"/></g><g transform="translate(-14,2) scale(1,1)"><rect fill="#C0C0C0" height="39" opacity="0.2" stroke="none" width="71.736328125" x="863" y="47"/></g><g transform="translate(-14,2) scale(1,1)"><rect fill="#ffffff" height="39" stroke="none" width="71.736328125" x="856" y="40"/></g><g transform="translate(-14,2) scale(1,1)"><path d="M 856 40 L 927.736328125 40 L 927.736328125 79 L 856 79 L 856 40 Z Z" fill="none" stroke="#000000" stroke-miterlimit="10"/></g><g transform="translate(-14,2) scale(1,1)"><g><path fill="none" stroke="none"/><text fill="#000000" font-family="Arial" font-size="13px" font-style="normal" font-weight="bold" stroke="none" text-decoration="none" x="867.299560546875" y="58">Policies</text></g></g><g transform="translate(-14,2) scale(1,1)"><path d="M 892.5 80 L 892.5 824" fill="none" stroke="#000000" stroke-dasharray="3" stroke-miterlimit="10"/></g><g transform="translate(-14,2) scale(1,1)"><rect fill="#ffffff" height="95" stroke="none" width="912" x="48" y="128"/></g><g transform="translate(-14,2) scale(1,1)"><path d="M 48 128 L 960 128 L 960 223 L 48 223 L 48 128 Z Z" fill="none" stroke="#000000" stroke-miterlimit="10"/></g><g transform="translate(-14,2) scale(1,1)"><path d="M 48 128 L 48 150 L 73.1708984375 150 L 84.1708984375 139 L 84.1708984375 128 L 48 128 L 48 128" fill="none" stroke="#000000" stroke-miterlimit="10"/></g><g transform="translate(-14,2) scale(1,1)"><g><path fill="none" stroke="none"/><text fill="#000000" font-family="Arial" font-size="13px" font-style="normal" font-weight="normal" stroke="none" text-decoration="none" x="522.08544921875" y="139"/></g></g><g transform="translate(-14,2) scale(1,1)"><g><path fill="none" stroke="none"/><text fill="#000000" font-family="Arial" font-size="13px" font-style="normal" font-weight="bold" stroke="none" text-decoration="none" x="52.2763671875" y="144">ref</text></g></g><g transform="translate(-14,2) scale(1,1)"><path d="M 82 273 L 251 273" fill="none" stroke="#000000" stroke-miterlimit="10"/></g><g transform="translate(-14,2) scale(1,1)"><path d="M 240.83732514237585 277.209517756016 L 251 273 L 240.83732514237585 268.790482243984" fill="#000000" stroke="none"/></g><g transform="translate(-14,2) scale(1,1)"><path d="M 240.83732514237585 277.209517756016 L 251 273 L 240.83732514237585 268.790482243984 L 240.83732514237585 277.209517756016" fill="none" stroke="#000000" stroke-miterlimit="10"/></g><g transform="translate(-14,2) scale(1,1)"><g><path fill="none" stroke="none"/><text fill="#000000" font-family="Arial" font-size="13px" font-style="normal" font-weight="normal" stroke="none" text-decoration="none" x="62.5" y="267">1 : cliquerButtonViewPolicy(policy)</text></g></g><g transform="translate(-14,2) scale(1,1)"><rect fill="#ffffff" height="28" stroke="none" width="13" x="251" y="273"/></g><g transform="translate(-14,2) scale(1,1)"><path d="M 251 273 L 264 273 L 264 301 L 251 301 L 251 273 Z Z" fill="none" stroke="#000000" stroke-miterlimit="10"/></g><g transform="translate(-14,2) scale(1,1)"><path d="M 264 290 L 440 290" fill="none" stroke="#000000" stroke-miterlimit="10"/></g><g transform="translate(-14,2) scale(1,1)"><path d="M 429.83732514237585 294.209517756016 L 440 290 L 429.83732514237585 285.790482243984" fill="#000000" stroke="none"/></g><g transform="translate(-14,2) scale(1,1)"><path d="M 429.83732514237585 294.209517756016 L 440 290 L 429.83732514237585 285.790482243984 L 429.83732514237585 294.209517756016" fill="none" stroke="#000000" stroke-miterlimit="10"/></g><g transform="translate(-14,2) scale(1,1)"><g><path fill="none" stroke="none"/><text fill="#000000" font-family="Arial" font-size="13px" font-style="normal" font-weight="normal" stroke="none" text-decoration="none" x="274.5" y="285">2 : chargerInterface(policy)</text></g></g><g transform="translate(-14,2) scale(1,1)"><rect fill="#ffffff" height="28" stroke="none" width="13" x="440" y="290"/></g><g transform="translate(-14,2) scale(1,1)"><path d="M 440 290 L 453 290 L 453 318 L 440 318 L 440 290 Z Z" fill="none" stroke="#000000" stroke-miterlimit="10"/></g><g transform="translate(-14,2) scale(1,1)"><path d="M 453 304 L 703 304" fill="none" stroke="#000000" stroke-miterlimit="10"/></g><g transform="translate(-14,2) scale(1,1)"><path d="M 692.8373251423759 308.209517756016 L 703 304 L 692.8373251423758 299.790482243984" fill="#000000" stroke="none"/></g><g transform="translate(-14,2) scale(1,1)"><path d="M 692.8373251423759 308.209517756016 L 703 304 L 692.8373251423758 299.790482243984 L 692.8373251423759 308.209517756016" fill="none" stroke="#000000" stroke-miterlimit="10"/></g><g transform="translate(-14,2) scale(1,1)"><g><path fill="none" stroke="none"/><text fill="#000000" font-family="Arial" font-size="13px" font-style="normal" font-weight="normal" stroke="none" text-decoration="none" x="457.818603515625" y="299">3 : demanderConfigPolitique(policy,token)</text></g></g><g transform="translate(-14,2) scale(1,1)"><rect fill="#ffffff" height="48" stroke="none" width="13" x="703" y="304"/></g><g transform="translate(-14,2) scale(1,1)"><path d="M 703 304 L 716 304 L 716 352 L 703 352 L 703 304 Z Z" fill="none" stroke="#000000" stroke-miterlimit="10"/></g><g transform="translate(-14,2) scale(1,1)"><path d="M 716 320 L 885 320" fill="none" stroke="#000000" stroke-miterlimit="10"/></g><g transform="translate(-14,2) scale(1,1)"><path d="M 874.8373251423759 324.209517756016 L 885 320 L 874.8373251423758 315.790482243984" fill="#000000" stroke="none"/></g><g transform="translate(-14,2) scale(1,1)"><path d="M 874.8373251423759 324.209517756016 L 885 320 L 874.8373251423758 315.790482243984 L 874.8373251423759 324.209517756016" fill="none" stroke="#000000" stroke-miterlimit="10"/></g><g transform="translate(-14,2) scale(1,1)"><g><path fill="none" stroke="none"/><text fill="#000000" font-family="Arial" font-size="13px" font-style="normal" font-weight="normal" stroke="none" text-decoration="none" x="725.114990234375" y="315">4 : getPolicyConfig(policy)</text></g></g><g transform="translate(-14,2) scale(1,1)"><rect fill="#ffffff" height="32" stroke="none" width="13" x="885" y="320"/></g><g transform="translate(-14,2) scale(1,1)"><path d="M 885 320 L 898 320 L 898 352 L 885 352 L 885 320 Z Z" fill="none" stroke="#000000" stroke-miterlimit="10"/></g><g transform="translate(-14,2) scale(1,1)"><path d="M 885 341 L 716 341" fill="none" stroke="#000000" stroke-dasharray="3" stroke-miterlimit="10"/></g><g transform="translate(-14,2) scale(1,1)"><path d="M 726.1626748576241 336.790482243984 L 716 341 L 726.1626748576241 345.209517756016" fill="none" stroke="#000000" stroke-miterlimit="10"/></g><g transform="translate(-14,2) scale(1,1)"><g><path fill="none" stroke="none"/><text fill="#000000" font-family="Arial" font-size="13px" font-style="normal" font-weight="normal" stroke="none" text-decoration="none" x="732.5" y="356">5 : return(PolicyConfig)</text></g></g><g transform="translate(-14,2) scale(1,1)"><path d="M 710 401 L 447 401" fill="none" stroke="#000000" stroke-dasharray="3" stroke-miterlimit="10"/></g><g transform="translate(-14,2) scale(1,1)"><path d="M 457.16267485762415 396.790482243984 L 447 401 L 457.16267485762415 405.209517756016" fill="none" stroke="#000000" stroke-miterlimit="10"/></g><g transform="translate(-14,2) scale(1,1)"><g><path fill="none" stroke="none"/><text fill="#000000" font-family="Arial" font-size="13px" font-style="normal" font-weight="normal" stroke="none" text-decoration="none" x="494.5" y="416">6 : return Json(PolicyConfig)</text></g></g><g transform="translate(-14,2) scale(1,1)"><path d="M 82 594 L 440 594" fill="none" stroke="#000000" stroke-miterlimit="10"/></g><g transform="translate(-14,2) scale(1,1)"><path d="M 429.83732514237585 598.209517756016 L 440 594 L 429.83732514237585 589.790482243984" fill="#000000" stroke="none"/></g><g transform="translate(-14,2) scale(1,1)"><path d="M 429.83732514237585 598.209517756016 L 440 594 L 429.83732514237585 589.790482243984 L 429.83732514237585 598.209517756016" fill="none" stroke="#000000" stroke-miterlimit="10"/></g><g transform="translate(-14,2) scale(1,1)"><g><path fill="none" stroke="none"/><text fill="#000000" font-family="Arial" font-size="13px" font-style="normal" font-weight="normal" stroke="none" text-decoration="none" x="193.7890625" y="589">7 : saisirDonnées(data)</text></g></g><g transform="translate(-14,2) scale(1,1)"><rect fill="#ffffff" height="28" stroke="none" width="13" x="440" y="594"/></g><g transform="translate(-14,2) scale(1,1)"><path d="M 440 594 L 453 594 L 453 622 L 440 622 L 440 594 Z Z" fill="none" stroke="#000000" stroke-miterlimit="10"/></g><g transform="translate(-14,2) scale(1,1)"><path d="M 82 643 L 440 643" fill="none" stroke="#000000" stroke-miterlimit="10"/></g><g transform="translate(-14,2) scale(1,1)"><path d="M 429.83732514237585 647.209517756016 L 440 643 L 429.83732514237585 638.790482243984" fill="#000000" stroke="none"/></g><g transform="translate(-14,2) scale(1,1)"><path d="M 429.83732514237585 647.209517756016 L 440 643 L 429.83732514237585 638.790482243984 L 429.83732514237585 647.209517756016" fill="none" stroke="#000000" stroke-miterlimit="10"/></g><g transform="translate(-14,2) scale(1,1)"><g><path fill="none" stroke="none"/><text fill="#000000" font-family="Arial" font-size="13px" font-style="normal" font-weight="normal" stroke="none" text-decoration="none" x="187.5" y="638">8 : cliqueButtonEditPolicy</text></g></g><g transform="translate(-14,2) scale(1,1)"><rect fill="#ffffff" height="28" stroke="none" width="13" x="440" y="643"/></g><g transform="translate(-14,2) scale(1,1)"><path d="M 440 643 L 453 643 L 453 671 L 440 671 L 440 643 Z Z" fill="none" stroke="#000000" stroke-miterlimit="10"/></g><g transform="translate(-14,2) scale(1,1)"><path d="M 453 664 L 703 664" fill="none" stroke="#000000" stroke-miterlimit="10"/></g><g transform="translate(-14,2) scale(1,1)"><path d="M 692.8373251423759 668.209517756016 L 703 664 L 692.8373251423758 659.790482243984" fill="#000000" stroke="none"/></g><g transform="translate(-14,2) scale(1,1)"><path d="M 692.8373251423759 668.209517756016 L 703 664 L 692.8373251423758 659.790482243984 L 692.8373251423759 668.209517756016" fill="none" stroke="#000000" stroke-miterlimit="10"/></g><g transform="translate(-14,2) scale(1,1)"><g><path fill="none" stroke="none"/><text fill="#000000" font-family="Arial" font-size="13px" font-style="normal" font-weight="normal" stroke="none" text-decoration="none" x="455.5" y="659">9 : ModifierPolitiqueConfig(policy,data,token)</text></g></g><g transform="translate(-14,2) scale(1,1)"><rect fill="#ffffff" height="28" stroke="none" width="13" x="703" y="664"/></g><g transform="translate(-14,2) scale(1,1)"><path d="M 703 664 L 716 664 L 716 692 L 703 692 L 703 664 Z Z" fill="none" stroke="#000000" stroke-miterlimit="10"/></g><g transform="translate(-14,2) scale(1,1)"><path d="M 716 680 L 885 680" fill="none" stroke="#000000" stroke-miterlimit="10"/></g><g transform="translate(-14,2) scale(1,1)"><path d="M 874.8373251423759 684.209517756016 L 885 680 L 874.8373251423758 675.790482243984" fill="#000000" stroke="none"/></g><g transform="translate(-14,2) scale(1,1)"><path d="M 874.8373251423759 684.209517756016 L 885 680 L 874.8373251423758 675.790482243984 L 874.8373251423759 684.209517756016" fill="none" stroke="#000000" stroke-miterlimit="10"/></g><g transform="translate(-14,2) scale(1,1)"><g><path fill="none" stroke="none"/><text fill="#000000" font-family="Arial" font-size="13px" font-style="normal" font-weight="normal" stroke="none" text-decoration="none" x="714.5" y="675">10 : UpdatePolicy(policy,data)</text></g></g><g transform="translate(-14,2) scale(1,1)"><rect fill="#ffffff" height="28" stroke="none" width="13" x="885" y="680"/></g><g transform="translate(-14,2) scale(1,1)"><path d="M 885 680 L 898 680 L 898 708 L 885 708 L 885 680 Z Z" fill="none" stroke="#000000" stroke-miterlimit="10"/></g><g transform="translate(-14,2) scale(1,1)"><path d="M 710 728 L 447 728" fill="none" stroke="#000000" stroke-dasharray="3" stroke-miterlimit="10"/></g><g transform="translate(-14,2) scale(1,1)"><path d="M 457.16267485762415 723.790482243984 L 447 728 L 457.16267485762415 732.209517756016" fill="none" stroke="#000000" stroke-miterlimit="10"/></g><g transform="translate(-14,2) scale(1,1)"><g><path fill="none" stroke="none"/><text fill="#000000" font-family="Arial" font-size="13px" font-style="normal" font-weight="normal" stroke="none" text-decoration="none" x="490.5" y="743">11 : Message(Policy Updated)</text></g></g><g transform="translate(-14,2) scale(1,1)"><path d="M 48 520 L 960 520 L 960 784 L 48 784 L 48 520" fill="none" stroke="#000000" stroke-miterlimit="10"/></g><g transform="translate(-14,2) scale(1,1)"><path d="M 48 520 L 48 542 L 361.35595703125 542 L 372.35595703125 531 L 372.35595703125 520 L 48 520" fill="#ffffff" stroke="none"/></g><g transform="translate(-14,2) scale(1,1)"><path d="M 48 520 L 48 542 L 361.35595703125 542 L 372.35595703125 531 L 372.35595703125 520 L 48 520 L 48 520" fill="none" stroke="#000000" stroke-miterlimit="10"/></g><g transform="translate(-14,2) scale(1,1)"><g><path fill="none" stroke="none"/><text fill="#000000" font-family="Arial" font-size="13px" font-style="normal" font-weight="normal" stroke="none" text-decoration="none" x="77.07177734375" y="536">modifer la configuration d'une politique de congé</text></g></g><g transform="translate(-14,2) scale(1,1)"><g><path fill="none" stroke="none"/><text fill="#000000" font-family="Arial" font-size="13px" font-style="normal" font-weight="bold" stroke="none" text-decoration="none" x="51.930419921875" y="535.5">opt</text></g></g></g></svg>