<?xml version="1.0" encoding="UTF-8" standalone="no"?><svg xmlns="http://www.w3.org/2000/svg" xmlns:xlink="http://www.w3.org/1999/xlink" height="1868" version="1.1" width="1060"><defs/><g><g transform="translate(-14,2) scale(1,1)"><path d="M 32 8 L 1064 8 L 1064 1856 L 32 1856 L 32 8" fill="none" stroke="#000000" stroke-miterlimit="10"/></g><g transform="translate(-14,2) scale(1,1)"><path d="M 32 8 L 32 30 L 250.3505859375 30 L 261.3505859375 19 L 261.3505859375 8 L 32 8" fill="#ffffff" stroke="none"/></g><g transform="translate(-14,2) scale(1,1)"><path d="M 32 8 L 32 30 L 250.3505859375 30 L 261.3505859375 19 L 261.3505859375 8 L 32 8 L 32 8" fill="none" stroke="#000000" stroke-miterlimit="10"/></g><g transform="translate(-14,2) scale(1,1)"><g><path fill="none" stroke="none"/><text fill="#000000" font-family="Arial" font-size="13px" font-style="normal" font-weight="normal" stroke="none" text-decoration="none" x="56.72998046875" y="24">consulter les politiques de congé</text></g></g><g transform="translate(-14,2) scale(1,1)"><g><path fill="none" stroke="none"/><text fill="#000000" font-family="Arial" font-size="13px" font-style="normal" font-weight="bold" stroke="none" text-decoration="none" x="36.279541015625" y="24">sd</text></g></g><g transform="translate(-14,2) scale(1,1)"><path d="M 103.1395126065341 47.3 C 103.1395126065341 43.82060576 106.01791432871592 41 109.568603515625 41 C 113.11929270253408 41 115.9976944247159 43.82060576 115.9976944247159 47.3 C 115.9976944247159 50.779394239999995 113.11929270253408 53.6 109.568603515625 53.6 C 106.01791432871592 53.6 103.1395126065341 50.779394239999995 103.1395126065341 47.3 Z" fill="#ffffff" stroke="none"/></g><g transform="translate(-14,2) scale(1,1)"><path d="M 103.1395126065341 47.3 C 103.1395126065341 43.82060576 106.01791432871592 41 109.568603515625 41 C 113.11929270253408 41 115.9976944247159 43.82060576 115.9976944247159 47.3 C 115.9976944247159 50.779394239999995 113.11929270253408 53.6 109.568603515625 53.6 C 106.01791432871592 53.6 103.1395126065341 50.779394239999995 103.1395126065341 47.3 Z" fill="none" stroke="#000000" stroke-miterlimit="10"/></g><g transform="translate(-14,2) scale(1,1)"><path d="M 109.568603515625 53.6 L 109.568603515625 66.4" fill="none" stroke="#000000" stroke-miterlimit="10"/></g><g transform="translate(-14,2) scale(1,1)"><path d="M 102.76133078835227 58.4 L 116.37587624289773 58.4" fill="none" stroke="#000000" stroke-miterlimit="10"/></g><g transform="translate(-14,2) scale(1,1)"><path d="M 109.568603515625 66.4 L 100.11405806107955 79" fill="none" stroke="#000000" stroke-miterlimit="10"/></g><g transform="translate(-14,2) scale(1,1)"><path d="M 109.568603515625 66.4 L 119.02314897017045 79" fill="none" stroke="#000000" stroke-miterlimit="10"/></g><g transform="translate(-14,2) scale(1,1)"><g><path fill="none" stroke="none"/><text fill="#000000" font-family="Arial" font-size="13px" font-style="normal" font-weight="bold" stroke="none" text-decoration="none" x="52.5" y="98">Lifeline1: Manager</text></g></g><g transform="translate(-14,2) scale(1,1)"><path d="M 110.5 105 L 110.5 1856" fill="none" stroke="#000000" stroke-dasharray="3" stroke-miterlimit="10"/></g><g transform="translate(-14,2) scale(1,1)"><rect fill="#C0C0C0" height="39" opacity="0.2" stroke="none" width="143.2490234375" x="239" y="47"/></g><g transform="translate(-14,2) scale(1,1)"><rect fill="#ffffff" height="39" stroke="none" width="143.2490234375" x="232" y="40"/></g><g transform="translate(-14,2) scale(1,1)"><path d="M 232 40 L 375.2490234375 40 L 375.2490234375 79 L 232 79 L 232 40 Z Z" fill="none" stroke="#000000" stroke-miterlimit="10"/></g><g transform="translate(-14,2) scale(1,1)"><g><path fill="none" stroke="none"/><text fill="#000000" font-family="Arial" font-size="13px" font-style="normal" font-weight="bold" stroke="none" text-decoration="none" x="247.990478515625" y="58">Interface: Policies</text></g></g><g transform="translate(-14,2) scale(1,1)"><path d="M 304.5 80 L 304.5 1856" fill="none" stroke="#000000" stroke-dasharray="3" stroke-miterlimit="10"/></g><g transform="translate(-14,2) scale(1,1)"><rect fill="#C0C0C0" height="39" opacity="0.2" stroke="none" width="151.1708984375" x="487" y="47"/></g><g transform="translate(-14,2) scale(1,1)"><rect fill="#ffffff" height="39" stroke="none" width="151.1708984375" x="480" y="40"/></g><g transform="translate(-14,2) scale(1,1)"><path d="M 480 40 L 631.1708984375 40 L 631.1708984375 79 L 480 79 L 480 40 Z Z" fill="none" stroke="#000000" stroke-miterlimit="10"/></g><g transform="translate(-14,2) scale(1,1)"><g><path fill="none" stroke="none"/><text fill="#000000" font-family="Arial" font-size="13px" font-style="normal" font-weight="bold" stroke="none" text-decoration="none" x="495.990478515625" y="58">Controller: Policies</text></g></g><g transform="translate(-14,2) scale(1,1)"><path d="M 556.5 80 L 556.5 1856" fill="none" stroke="#000000" stroke-dasharray="3" stroke-miterlimit="10"/></g><g transform="translate(-14,2) scale(1,1)"><rect fill="#C0C0C0" height="39" opacity="0.2" stroke="none" width="81.1181640625" x="759" y="47"/></g><g transform="translate(-14,2) scale(1,1)"><rect fill="#ffffff" height="39" stroke="none" width="81.1181640625" x="752" y="40"/></g><g transform="translate(-14,2) scale(1,1)"><path d="M 752 40 L 833.1181640625 40 L 833.1181640625 79 L 752 79 L 752 40 Z Z" fill="none" stroke="#000000" stroke-miterlimit="10"/></g><g transform="translate(-14,2) scale(1,1)"><g><path fill="none" stroke="none"/><text fill="#000000" font-family="Arial" font-size="13px" font-style="normal" font-weight="bold" stroke="none" text-decoration="none" x="767.990478515625" y="58">Policies</text></g></g><g transform="translate(-14,2) scale(1,1)"><path d="M 793.5 80 L 793.5 1856" fill="none" stroke="#000000" stroke-dasharray="3" stroke-miterlimit="10"/></g><g transform="translate(-14,2) scale(1,1)"><rect fill="#C0C0C0" height="39" opacity="0.2" stroke="none" width="101.36083984375" x="887" y="47"/></g><g transform="translate(-14,2) scale(1,1)"><rect fill="#ffffff" height="39" stroke="none" width="101.36083984375" x="880" y="40"/></g><g transform="translate(-14,2) scale(1,1)"><path d="M 880 40 L 981.36083984375 40 L 981.36083984375 79 L 880 79 L 880 40 Z Z" fill="none" stroke="#000000" stroke-miterlimit="10"/></g><g transform="translate(-14,2) scale(1,1)"><g><path fill="none" stroke="none"/><text fill="#000000" font-family="Arial" font-size="13px" font-style="normal" font-weight="bold" stroke="none" text-decoration="none" x="889.5" y="58">NationalDays</text></g></g><g transform="translate(-14,2) scale(1,1)"><path d="M 931.5 80 L 931.5 1856" fill="none" stroke="#000000" stroke-dasharray="3" stroke-miterlimit="10"/></g><g transform="translate(-14,2) scale(1,1)"><path d="M 110 131 L 297 131" fill="none" stroke="#000000" stroke-miterlimit="10"/></g><g transform="translate(-14,2) scale(1,1)"><path d="M 286.83732514237585 135.209517756016 L 297 131 L 286.83732514237585 126.79048224398402" fill="#000000" stroke="none"/></g><g transform="translate(-14,2) scale(1,1)"><path d="M 286.83732514237585 135.209517756016 L 297 131 L 286.83732514237585 126.79048224398402 L 286.83732514237585 135.209517756016" fill="none" stroke="#000000" stroke-miterlimit="10"/></g><g transform="translate(-14,2) scale(1,1)"><g><path fill="none" stroke="none"/><text fill="#000000" font-family="Arial" font-size="13px" font-style="normal" font-weight="normal" stroke="none" text-decoration="none" x="124.5" y="126">1 : consulterPagePolitiques</text></g></g><g transform="translate(-14,2) scale(1,1)"><rect fill="#ffffff" height="28" stroke="none" width="13" x="297" y="131"/></g><g transform="translate(-14,2) scale(1,1)"><path d="M 297 131 L 310 131 L 310 159 L 297 159 L 297 131 Z Z" fill="none" stroke="#000000" stroke-miterlimit="10"/></g><g transform="translate(-14,2) scale(1,1)"><path d="M 310 143 L 549 143" fill="none" stroke="#000000" stroke-miterlimit="10"/></g><g transform="translate(-14,2) scale(1,1)"><path d="M 538.8373251423759 147.209517756016 L 549 143 L 538.8373251423758 138.790482243984" fill="#000000" stroke="none"/></g><g transform="translate(-14,2) scale(1,1)"><path d="M 538.8373251423759 147.209517756016 L 549 143 L 538.8373251423758 138.790482243984 L 538.8373251423759 147.209517756016" fill="none" stroke="#000000" stroke-miterlimit="10"/></g><g transform="translate(-14,2) scale(1,1)"><g><path fill="none" stroke="none"/><text fill="#000000" font-family="Arial" font-size="13px" font-style="normal" font-weight="normal" stroke="none" text-decoration="none" x="323.5" y="138">2 : demanderPolitiquesCongé(token)</text></g></g><g transform="translate(-14,2) scale(1,1)"><rect fill="#ffffff" height="73" stroke="none" width="13" x="549" y="143"/></g><g transform="translate(-14,2) scale(1,1)"><path d="M 549 143 L 562 143 L 562 216 L 549 216 L 549 143 Z Z" fill="none" stroke="#000000" stroke-miterlimit="10"/></g><g transform="translate(-14,2) scale(1,1)"><path d="M 562 154 L 786 154" fill="none" stroke="#000000" stroke-miterlimit="10"/></g><g transform="translate(-14,2) scale(1,1)"><path d="M 775.8373251423759 158.209517756016 L 786 154 L 775.8373251423758 149.790482243984" fill="#000000" stroke="none"/></g><g transform="translate(-14,2) scale(1,1)"><path d="M 775.8373251423759 158.209517756016 L 786 154 L 775.8373251423758 149.790482243984 L 775.8373251423759 158.209517756016" fill="none" stroke="#000000" stroke-miterlimit="10"/></g><g transform="translate(-14,2) scale(1,1)"><g><path fill="none" stroke="none"/><text fill="#000000" font-family="Arial" font-size="13px" font-style="normal" font-weight="normal" stroke="none" text-decoration="none" x="585.5" y="149">3 : GetTimeOffsPolicies(token)</text></g></g><g transform="translate(-14,2) scale(1,1)"><rect fill="#ffffff" height="54" stroke="none" width="13" x="786" y="154"/></g><g transform="translate(-14,2) scale(1,1)"><path d="M 786 154 L 799 154 L 799 208 L 786 208 L 786 154 Z Z" fill="none" stroke="#000000" stroke-miterlimit="10"/></g><g transform="translate(-14,2) scale(1,1)"><path d="M 786 192 L 562 192" fill="none" stroke="#000000" stroke-dasharray="3" stroke-miterlimit="10"/></g><g transform="translate(-14,2) scale(1,1)"><path d="M 572.1626748576241 187.790482243984 L 562 192 L 572.1626748576241 196.209517756016" fill="none" stroke="#000000" stroke-miterlimit="10"/></g><g transform="translate(-14,2) scale(1,1)"><g><path fill="none" stroke="none"/><text fill="#000000" font-family="Arial" font-size="13px" font-style="normal" font-weight="normal" stroke="none" text-decoration="none" x="594.5" y="207">4 : return(TimeOffsPolicies)</text></g></g><g transform="translate(-14,2) scale(1,1)"><path d="M 556 264 L 924 264" fill="none" stroke="#000000" stroke-miterlimit="10"/></g><g transform="translate(-14,2) scale(1,1)"><path d="M 913.8373251423759 268.209517756016 L 924 264 L 913.8373251423758 259.790482243984" fill="#000000" stroke="none"/></g><g transform="translate(-14,2) scale(1,1)"><path d="M 913.8373251423759 268.209517756016 L 924 264 L 913.8373251423758 259.790482243984 L 913.8373251423759 268.209517756016" fill="none" stroke="#000000" stroke-miterlimit="10"/></g><g transform="translate(-14,2) scale(1,1)"><g><path fill="none" stroke="none"/><text fill="#000000" font-family="Arial" font-size="13px" font-style="normal" font-weight="normal" stroke="none" text-decoration="none" x="614.5" y="258">5 : GetNationalDays(token)</text></g></g><g transform="translate(-14,2) scale(1,1)"><rect fill="#ffffff" height="28" stroke="none" width="13" x="924" y="264"/></g><g transform="translate(-14,2) scale(1,1)"><path d="M 924 264 L 937 264 L 937 292 L 924 292 L 924 264 Z Z" fill="none" stroke="#000000" stroke-miterlimit="10"/></g><g transform="translate(-14,2) scale(1,1)"><path d="M 924 288 L 556 288" fill="none" stroke="#000000" stroke-dasharray="3" stroke-miterlimit="10"/></g><g transform="translate(-14,2) scale(1,1)"><path d="M 566.1626748576241 283.790482243984 L 556 288 L 566.1626748576241 292.209517756016" fill="none" stroke="#000000" stroke-miterlimit="10"/></g><g transform="translate(-14,2) scale(1,1)"><g><path fill="none" stroke="none"/><text fill="#000000" font-family="Arial" font-size="13px" font-style="normal" font-weight="normal" stroke="none" text-decoration="none" x="623.5" y="307">6 : return(NationalDays)</text></g></g><g transform="translate(-14,2) scale(1,1)"><path d="M 556 355 L 304 355" fill="none" stroke="#000000" stroke-dasharray="3" stroke-miterlimit="10"/></g><g transform="translate(-14,2) scale(1,1)"><path d="M 314.16267485762415 350.790482243984 L 304 355 L 314.16267485762415 359.209517756016" fill="none" stroke="#000000" stroke-miterlimit="10"/></g><g transform="translate(-14,2) scale(1,1)"><g><path fill="none" stroke="none"/><text fill="#000000" font-family="Arial" font-size="13px" font-style="normal" font-weight="normal" stroke="none" text-decoration="none" x="295.5" y="370">7 : return Json(TimeoffsPolicies,NationalDays)</text></g></g><g transform="translate(-14,2) scale(1,1)"><path d="M 110 468 L 297 468" fill="none" stroke="#000000" stroke-miterlimit="10"/></g><g transform="translate(-14,2) scale(1,1)"><path d="M 286.83732514237585 472.209517756016 L 297 468 L 286.83732514237585 463.790482243984" fill="#000000" stroke="none"/></g><g transform="translate(-14,2) scale(1,1)"><path d="M 286.83732514237585 472.209517756016 L 297 468 L 286.83732514237585 463.790482243984 L 286.83732514237585 472.209517756016" fill="none" stroke="#000000" stroke-miterlimit="10"/></g><g transform="translate(-14,2) scale(1,1)"><g><path fill="none" stroke="none"/><text fill="#000000" font-family="Arial" font-size="13px" font-style="normal" font-weight="normal" stroke="none" text-decoration="none" x="125.5" y="463">8 : cliqueAddTimeOffPolicy</text></g></g><g transform="translate(-14,2) scale(1,1)"><rect fill="#ffffff" height="28" stroke="none" width="13" x="297" y="468"/></g><g transform="translate(-14,2) scale(1,1)"><path d="M 297 468 L 310 468 L 310 496 L 297 496 L 297 468 Z Z" fill="none" stroke="#000000" stroke-miterlimit="10"/></g><g transform="translate(-14,2) scale(1,1)"><path d="M 304 512 L 334 512 L 334 532 L 310 532" fill="none" stroke="#000000" stroke-miterlimit="10"/></g><g transform="translate(-14,2) scale(1,1)"><path d="M 320.16267485762415 527.790482243984 L 310 532 L 320.16267485762415 536.209517756016" fill="#000000" stroke="none"/></g><g transform="translate(-14,2) scale(1,1)"><path d="M 320.16267485762415 527.790482243984 L 310 532 L 320.16267485762415 536.209517756016 L 320.16267485762415 527.790482243984" fill="none" stroke="#000000" stroke-miterlimit="10"/></g><g transform="translate(-14,2) scale(1,1)"><g><path fill="none" stroke="none"/><text fill="#000000" font-family="Arial" font-size="13px" font-style="normal" font-weight="normal" stroke="none" text-decoration="none" x="351.5" y="523">9 : chargerPopupAddPolicy</text></g></g><g transform="translate(-14,2) scale(1,1)"><rect fill="#ffffff" height="28" stroke="none" width="13" x="297" y="532"/></g><g transform="translate(-14,2) scale(1,1)"><path d="M 297 532 L 310 532 L 310 560 L 297 560 L 297 532 Z Z" fill="none" stroke="#000000" stroke-miterlimit="10"/></g><g transform="translate(-14,2) scale(1,1)"><path d="M 110 597 L 297 597" fill="none" stroke="#000000" stroke-miterlimit="10"/></g><g transform="translate(-14,2) scale(1,1)"><path d="M 286.83732514237585 601.209517756016 L 297 597 L 286.83732514237585 592.790482243984" fill="#000000" stroke="none"/></g><g transform="translate(-14,2) scale(1,1)"><path d="M 286.83732514237585 601.209517756016 L 297 597 L 286.83732514237585 592.790482243984 L 286.83732514237585 601.209517756016" fill="none" stroke="#000000" stroke-miterlimit="10"/></g><g transform="translate(-14,2) scale(1,1)"><g><path fill="none" stroke="none"/><text fill="#000000" font-family="Arial" font-size="13px" font-style="normal" font-weight="normal" stroke="none" text-decoration="none" x="119.5" y="592">10 : saisirPolicyName(name)</text></g></g><g transform="translate(-14,2) scale(1,1)"><rect fill="#ffffff" height="28" stroke="none" width="13" x="297" y="597"/></g><g transform="translate(-14,2) scale(1,1)"><path d="M 297 597 L 310 597 L 310 625 L 297 625 L 297 597 Z Z" fill="none" stroke="#000000" stroke-miterlimit="10"/></g><g transform="translate(-14,2) scale(1,1)"><path d="M 310 608 L 549 608" fill="none" stroke="#000000" stroke-miterlimit="10"/></g><g transform="translate(-14,2) scale(1,1)"><path d="M 538.8373251423759 612.209517756016 L 549 608 L 538.8373251423758 603.790482243984" fill="#000000" stroke="none"/></g><g transform="translate(-14,2) scale(1,1)"><path d="M 538.8373251423759 612.209517756016 L 549 608 L 538.8373251423758 603.790482243984 L 538.8373251423759 612.209517756016" fill="none" stroke="#000000" stroke-miterlimit="10"/></g><g transform="translate(-14,2) scale(1,1)"><g><path fill="none" stroke="none"/><text fill="#000000" font-family="Arial" font-size="13px" font-style="normal" font-weight="normal" stroke="none" text-decoration="none" x="333.5" y="603">11 : AjouterPolitique(name,token)</text></g></g><g transform="translate(-14,2) scale(1,1)"><rect fill="#ffffff" height="240" stroke="none" width="13" x="549" y="608"/></g><g transform="translate(-14,2) scale(1,1)"><path d="M 549 608 L 562 608 L 562 848 L 549 848 L 549 608 Z Z" fill="none" stroke="#000000" stroke-miterlimit="10"/></g><g transform="translate(-14,2) scale(1,1)"><path d="M 562 620 L 786 620" fill="none" stroke="#000000" stroke-miterlimit="10"/></g><g transform="translate(-14,2) scale(1,1)"><path d="M 775.8373251423759 624.209517756016 L 786 620 L 775.8373251423758 615.790482243984" fill="#000000" stroke="none"/></g><g transform="translate(-14,2) scale(1,1)"><path d="M 775.8373251423759 624.209517756016 L 786 620 L 775.8373251423758 615.790482243984 L 775.8373251423759 624.209517756016" fill="none" stroke="#000000" stroke-miterlimit="10"/></g><g transform="translate(-14,2) scale(1,1)"><g><path fill="none" stroke="none"/><text fill="#000000" font-family="Arial" font-size="13px" font-style="normal" font-weight="normal" stroke="none" text-decoration="none" x="589.5" y="615">12 : AddTimeOffPolicy(name)</text></g></g><g transform="translate(-14,2) scale(1,1)"><rect fill="#ffffff" height="100" stroke="none" width="13" x="786" y="620"/></g><g transform="translate(-14,2) scale(1,1)"><path d="M 786 620 L 799 620 L 799 720 L 786 720 L 786 620 Z Z" fill="none" stroke="#000000" stroke-miterlimit="10"/></g><g transform="translate(-14,2) scale(1,1)"><path d="M 786 696 L 562 696" fill="none" stroke="#000000" stroke-dasharray="3" stroke-miterlimit="10"/></g><g transform="translate(-14,2) scale(1,1)"><path d="M 572.1626748576241 691.790482243984 L 562 696 L 572.1626748576241 700.209517756016" fill="none" stroke="#000000" stroke-miterlimit="10"/></g><g transform="translate(-14,2) scale(1,1)"><g><path fill="none" stroke="none"/><text fill="#000000" font-family="Arial" font-size="13px" font-style="normal" font-weight="normal" stroke="none" text-decoration="none" x="561.5" y="711">13 : return(E11000 duplicate key error)</text></g></g><g transform="translate(-14,2) scale(1,1)"><path d="M 549 720 L 304 720" fill="none" stroke="#000000" stroke-dasharray="3" stroke-miterlimit="10"/></g><g transform="translate(-14,2) scale(1,1)"><path d="M 314.16267485762415 715.790482243984 L 304 720 L 314.16267485762415 724.209517756016" fill="none" stroke="#000000" stroke-miterlimit="10"/></g><g transform="translate(-14,2) scale(1,1)"><g><path fill="none" stroke="none"/><text fill="#000000" font-family="Arial" font-size="13px" font-style="normal" font-weight="normal" stroke="none" text-decoration="none" x="306.5" y="735">14 : Message(PolicyName already taken)</text></g></g><g transform="translate(-14,2) scale(1,1)"><path d="M 549 834 L 304 834" fill="none" stroke="#000000" stroke-dasharray="3" stroke-miterlimit="10"/></g><g transform="translate(-14,2) scale(1,1)"><path d="M 314.16267485762415 829.790482243984 L 304 834 L 314.16267485762415 838.209517756016" fill="none" stroke="#000000" stroke-miterlimit="10"/></g><g transform="translate(-14,2) scale(1,1)"><g><path fill="none" stroke="none"/><text fill="#000000" font-family="Arial" font-size="13px" font-style="normal" font-weight="normal" stroke="none" text-decoration="none" x="343.5" y="849">15 : Message(Policy Added)</text></g></g><g transform="translate(-14,2) scale(1,1)"><path d="M 110 1038 L 297 1038" fill="none" stroke="#000000" stroke-miterlimit="10"/></g><g transform="translate(-14,2) scale(1,1)"><path d="M 286.83732514237585 1042.2095177560159 L 297 1038 L 286.83732514237585 1033.7904822439841" fill="#000000" stroke="none"/></g><g transform="translate(-14,2) scale(1,1)"><path d="M 286.83732514237585 1042.2095177560159 L 297 1038 L 286.83732514237585 1033.7904822439841 L 286.83732514237585 1042.2095177560159" fill="none" stroke="#000000" stroke-miterlimit="10"/></g><g transform="translate(-14,2) scale(1,1)"><g><path fill="none" stroke="none"/><text fill="#000000" font-family="Arial" font-size="13px" font-style="normal" font-weight="normal" stroke="none" text-decoration="none" x="110.5" y="1033">16 : cliqueSettingsButton(policy)</text></g></g><g transform="translate(-14,2) scale(1,1)"><rect fill="#ffffff" height="28" stroke="none" width="13" x="297" y="1038"/></g><g transform="translate(-14,2) scale(1,1)"><path d="M 297 1038 L 310 1038 L 310 1066 L 297 1066 L 297 1038 Z Z" fill="none" stroke="#000000" stroke-miterlimit="10"/></g><g transform="translate(-14,2) scale(1,1)"><path d="M 304 1088 L 334 1088 L 334 1108 L 310 1108" fill="none" stroke="#000000" stroke-miterlimit="10"/></g><g transform="translate(-14,2) scale(1,1)"><path d="M 320.16267485762415 1103.7904822439841 L 310 1108 L 320.16267485762415 1112.2095177560159" fill="#000000" stroke="none"/></g><g transform="translate(-14,2) scale(1,1)"><path d="M 320.16267485762415 1103.7904822439841 L 310 1108 L 320.16267485762415 1112.2095177560159 L 320.16267485762415 1103.7904822439841" fill="none" stroke="#000000" stroke-miterlimit="10"/></g><g transform="translate(-14,2) scale(1,1)"><g><path fill="none" stroke="none"/><text fill="#000000" font-family="Arial" font-size="13px" font-style="normal" font-weight="normal" stroke="none" text-decoration="none" x="341.5" y="1107">17 : chargerSettingsInterface(policy)</text></g></g><g transform="translate(-14,2) scale(1,1)"><rect fill="#ffffff" height="28" stroke="none" width="13" x="297" y="1108"/></g><g transform="translate(-14,2) scale(1,1)"><path d="M 297 1108 L 310 1108 L 310 1136 L 297 1136 L 297 1108 Z Z" fill="none" stroke="#000000" stroke-miterlimit="10"/></g><g transform="translate(-14,2) scale(1,1)"><path d="M 110 1242 L 297 1242" fill="none" stroke="#000000" stroke-miterlimit="10"/></g><g transform="translate(-14,2) scale(1,1)"><path d="M 286.83732514237585 1246.2095177560159 L 297 1242 L 286.83732514237585 1237.7904822439841" fill="#000000" stroke="none"/></g><g transform="translate(-14,2) scale(1,1)"><path d="M 286.83732514237585 1246.2095177560159 L 297 1242 L 286.83732514237585 1237.7904822439841 L 286.83732514237585 1246.2095177560159" fill="none" stroke="#000000" stroke-miterlimit="10"/></g><g transform="translate(-14,2) scale(1,1)"><g><path fill="none" stroke="none"/><text fill="#000000" font-family="Arial" font-size="13px" font-style="normal" font-weight="normal" stroke="none" text-decoration="none" x="135.5" y="1237">18 : cliqueDeleteButton</text></g></g><g transform="translate(-14,2) scale(1,1)"><rect fill="#ffffff" height="28" stroke="none" width="13" x="297" y="1242"/></g><g transform="translate(-14,2) scale(1,1)"><path d="M 297 1242 L 310 1242 L 310 1270 L 297 1270 L 297 1242 Z Z" fill="none" stroke="#000000" stroke-miterlimit="10"/></g><g transform="translate(-14,2) scale(1,1)"><path d="M 310 1257 L 549 1257" fill="none" stroke="#000000" stroke-miterlimit="10"/></g><g transform="translate(-14,2) scale(1,1)"><path d="M 538.8373251423759 1261.2095177560159 L 549 1257 L 538.8373251423758 1252.7904822439841" fill="#000000" stroke="none"/></g><g transform="translate(-14,2) scale(1,1)"><path d="M 538.8373251423759 1261.2095177560159 L 549 1257 L 538.8373251423758 1252.7904822439841 L 538.8373251423759 1261.2095177560159" fill="none" stroke="#000000" stroke-miterlimit="10"/></g><g transform="translate(-14,2) scale(1,1)"><g><path fill="none" stroke="none"/><text fill="#000000" font-family="Arial" font-size="13px" font-style="normal" font-weight="normal" stroke="none" text-decoration="none" x="324.5" y="1252">19 : supprimerPolitique(policy,token)</text></g></g><g transform="translate(-14,2) scale(1,1)"><rect fill="#ffffff" height="28" stroke="none" width="13" x="549" y="1257"/></g><g transform="translate(-14,2) scale(1,1)"><path d="M 549 1257 L 562 1257 L 562 1285 L 549 1285 L 549 1257 Z Z" fill="none" stroke="#000000" stroke-miterlimit="10"/></g><g transform="translate(-14,2) scale(1,1)"><path d="M 562 1272 L 786 1272" fill="none" stroke="#000000" stroke-miterlimit="10"/></g><g transform="translate(-14,2) scale(1,1)"><path d="M 775.8373251423759 1276.2095177560159 L 786 1272 L 775.8373251423758 1267.7904822439841" fill="#000000" stroke="none"/></g><g transform="translate(-14,2) scale(1,1)"><path d="M 775.8373251423759 1276.2095177560159 L 786 1272 L 775.8373251423758 1267.7904822439841 L 775.8373251423759 1276.2095177560159" fill="none" stroke="#000000" stroke-miterlimit="10"/></g><g transform="translate(-14,2) scale(1,1)"><g><path fill="none" stroke="none"/><text fill="#000000" font-family="Arial" font-size="13px" font-style="normal" font-weight="normal" stroke="none" text-decoration="none" x="604.724365234375" y="1267">20 : DeletePolicy(policy)</text></g></g><g transform="translate(-14,2) scale(1,1)"><rect fill="#ffffff" height="28" stroke="none" width="13" x="786" y="1272"/></g><g transform="translate(-14,2) scale(1,1)"><path d="M 786 1272 L 799 1272 L 799 1300 L 786 1300 L 786 1272 Z Z" fill="none" stroke="#000000" stroke-miterlimit="10"/></g><g transform="translate(-14,2) scale(1,1)"><path d="M 556 1328 L 304 1328" fill="none" stroke="#000000" stroke-dasharray="3" stroke-miterlimit="10"/></g><g transform="translate(-14,2) scale(1,1)"><path d="M 314.16267485762415 1323.7904822439841 L 304 1328 L 314.16267485762415 1332.2095177560159" fill="none" stroke="#000000" stroke-miterlimit="10"/></g><g transform="translate(-14,2) scale(1,1)"><g><path fill="none" stroke="none"/><text fill="#000000" font-family="Arial" font-size="13px" font-style="normal" font-weight="normal" stroke="none" text-decoration="none" x="345.5" y="1343">21 : Message(Policy deleted)</text></g></g><g transform="translate(-14,2) scale(1,1)"><path d="M 304 1408 L 334 1408 L 334 1428 L 310 1428" fill="none" stroke="#000000" stroke-miterlimit="10"/></g><g transform="translate(-14,2) scale(1,1)"><path d="M 320.16267485762415 1423.7904822439841 L 310 1428 L 320.16267485762415 1432.2095177560159" fill="#000000" stroke="none"/></g><g transform="translate(-14,2) scale(1,1)"><path d="M 320.16267485762415 1423.7904822439841 L 310 1428 L 320.16267485762415 1432.2095177560159 L 320.16267485762415 1423.7904822439841" fill="none" stroke="#000000" stroke-miterlimit="10"/></g><g transform="translate(-14,2) scale(1,1)"><g><path fill="none" stroke="none"/><text fill="#000000" font-family="Arial" font-size="13px" font-style="normal" font-weight="normal" stroke="none" text-decoration="none" x="349.765869140625" y="1427">22 : ErrorMessage(default policy can not be deleted)</text></g></g><g transform="translate(-14,2) scale(1,1)"><rect fill="#ffffff" height="28" stroke="none" width="13" x="297" y="1428"/></g><g transform="translate(-14,2) scale(1,1)"><path d="M 297 1428 L 310 1428 L 310 1456 L 297 1456 L 297 1428 Z Z" fill="none" stroke="#000000" stroke-miterlimit="10"/></g><g transform="translate(-14,2) scale(1,1)"><rect fill="#ffffff" height="64" stroke="none" width="543" x="280" y="1576"/></g><g transform="translate(-14,2) scale(1,1)"><path d="M 280 1576 L 823 1576 L 823 1640 L 280 1640 L 280 1576 Z Z" fill="none" stroke="#000000" stroke-miterlimit="10"/></g><g transform="translate(-14,2) scale(1,1)"><path d="M 280 1576 L 280 1598 L 305.1708984375 1598 L 316.1708984375 1587 L 316.1708984375 1576 L 280 1576 L 280 1576" fill="none" stroke="#000000" stroke-miterlimit="10"/></g><g transform="translate(-14,2) scale(1,1)"><g><path fill="none" stroke="none"/><text fill="#000000" font-family="Arial" font-size="13px" font-style="normal" font-weight="normal" stroke="none" text-decoration="none" x="569.58544921875" y="1587"/></g></g><g transform="translate(-14,2) scale(1,1)"><g><path fill="none" stroke="none"/><text fill="#000000" font-family="Arial" font-size="13px" font-style="normal" font-weight="bold" stroke="none" text-decoration="none" x="284.2763671875" y="1592">ref</text></g></g><g transform="translate(-14,2) scale(1,1)"><rect fill="#ffffff" height="64" stroke="none" width="544" x="280" y="1728"/></g><g transform="translate(-14,2) scale(1,1)"><path d="M 280 1728 L 824 1728 L 824 1792 L 280 1792 L 280 1728 Z Z" fill="none" stroke="#000000" stroke-miterlimit="10"/></g><g transform="translate(-14,2) scale(1,1)"><path d="M 280 1728 L 280 1750 L 305.1708984375 1750 L 316.1708984375 1739 L 316.1708984375 1728 L 280 1728 L 280 1728" fill="none" stroke="#000000" stroke-miterlimit="10"/></g><g transform="translate(-14,2) scale(1,1)"><g><path fill="none" stroke="none"/><text fill="#000000" font-family="Arial" font-size="13px" font-style="normal" font-weight="normal" stroke="none" text-decoration="none" x="570.08544921875" y="1739"/></g></g><g transform="translate(-14,2) scale(1,1)"><g><path fill="none" stroke="none"/><text fill="#000000" font-family="Arial" font-size="13px" font-style="normal" font-weight="bold" stroke="none" text-decoration="none" x="284.2763671875" y="1744">ref</text></g></g><g transform="translate(-14,2) scale(1,1)"><path d="M 72 408 L 1024 408 L 1024 912 L 72 912 L 72 408" fill="none" stroke="#000000" stroke-miterlimit="10"/></g><g transform="translate(-14,2) scale(1,1)"><path d="M 72 408 L 72 430 L 280.26416015625 430 L 291.26416015625 419 L 291.26416015625 408 L 72 408" fill="#ffffff" stroke="none"/></g><g transform="translate(-14,2) scale(1,1)"><path d="M 72 408 L 72 430 L 280.26416015625 430 L 291.26416015625 419 L 291.26416015625 408 L 72 408 L 72 408" fill="none" stroke="#000000" stroke-miterlimit="10"/></g><g transform="translate(-14,2) scale(1,1)"><g><path fill="none" stroke="none"/><text fill="#000000" font-family="Arial" font-size="13px" font-style="normal" font-weight="normal" stroke="none" text-decoration="none" x="101.07177734375" y="424">ajouter une politique de congé</text></g></g><g transform="translate(-14,2) scale(1,1)"><g><path fill="none" stroke="none"/><text fill="#000000" font-family="Arial" font-size="13px" font-style="normal" font-weight="bold" stroke="none" text-decoration="none" x="75.930419921875" y="423.5">opt</text></g></g><g transform="translate(-14,2) scale(1,1)"><path d="M 96 664 L 976 664 L 976 888 L 96 888 L 96 664" fill="none" stroke="#000000" stroke-miterlimit="10"/></g><g transform="translate(-14,2) scale(1,1)"><path d="M 96 664 L 96 686 L 125.72998046875 686 L 136.72998046875 675 L 136.72998046875 664 L 96 664" fill="#ffffff" stroke="none"/></g><g transform="translate(-14,2) scale(1,1)"><path d="M 96 664 L 96 686 L 125.72998046875 686 L 136.72998046875 675 L 136.72998046875 664 L 96 664 L 96 664" fill="none" stroke="#000000" stroke-miterlimit="10"/></g><g transform="translate(-14,2) scale(1,1)"><g><path fill="none" stroke="none"/><text fill="#000000" font-family="Arial" font-size="13px" font-style="normal" font-weight="bold" stroke="none" text-decoration="none" x="100.279541015625" y="680">alt</text></g></g><g transform="translate(-14,2) scale(1,1)"><g><path fill="none" stroke="none"/><text fill="#000000" font-family="Arial" font-size="13px" font-style="normal" font-weight="normal" stroke="none" text-decoration="none" x="115.5" y="713">[nom de politique existe]</text></g></g><g transform="translate(-14,2) scale(1,1)"><path d="M 96 785 L 976 785" fill="none" stroke="#000000" stroke-dasharray="10,3" stroke-miterlimit="10"/></g><g transform="translate(-14,2) scale(1,1)"><path d="M 72 960 L 1024 960 L 1024 1520 L 72 1520 L 72 960" fill="none" stroke="#000000" stroke-miterlimit="10"/></g><g transform="translate(-14,2) scale(1,1)"><path d="M 72 960 L 72 982 L 298.310546875 982 L 309.310546875 971 L 309.310546875 960 L 72 960" fill="#ffffff" stroke="none"/></g><g transform="translate(-14,2) scale(1,1)"><path d="M 72 960 L 72 982 L 298.310546875 982 L 309.310546875 971 L 309.310546875 960 L 72 960 L 72 960" fill="none" stroke="#000000" stroke-miterlimit="10"/></g><g transform="translate(-14,2) scale(1,1)"><g><path fill="none" stroke="none"/><text fill="#000000" font-family="Arial" font-size="13px" font-style="normal" font-weight="normal" stroke="none" text-decoration="none" x="101.07177734375" y="976">supprimer une politique de congé</text></g></g><g transform="translate(-14,2) scale(1,1)"><g><path fill="none" stroke="none"/><text fill="#000000" font-family="Arial" font-size="13px" font-style="normal" font-weight="bold" stroke="none" text-decoration="none" x="75.930419921875" y="975.5">opt</text></g></g><g transform="translate(-14,2) scale(1,1)"><path d="M 96 1152 L 983 1152 L 983 1496 L 96 1496 L 96 1152" fill="none" stroke="#000000" stroke-miterlimit="10"/></g><g transform="translate(-14,2) scale(1,1)"><path d="M 96 1152 L 96 1174 L 125.72998046875 1174 L 136.72998046875 1163 L 136.72998046875 1152 L 96 1152" fill="#ffffff" stroke="none"/></g><g transform="translate(-14,2) scale(1,1)"><path d="M 96 1152 L 96 1174 L 125.72998046875 1174 L 136.72998046875 1163 L 136.72998046875 1152 L 96 1152 L 96 1152" fill="none" stroke="#000000" stroke-miterlimit="10"/></g><g transform="translate(-14,2) scale(1,1)"><g><path fill="none" stroke="none"/><text fill="#000000" font-family="Arial" font-size="13px" font-style="normal" font-weight="bold" stroke="none" text-decoration="none" x="100.279541015625" y="1168">alt</text></g></g><g transform="translate(-14,2) scale(1,1)"><g><path fill="none" stroke="none"/><text fill="#000000" font-family="Arial" font-size="13px" font-style="normal" font-weight="normal" stroke="none" text-decoration="none" x="115.5" y="1201">[selected policy is not the default]</text></g></g><g transform="translate(-14,2) scale(1,1)"><path d="M 96 1353 L 983 1353" fill="none" stroke="#000000" stroke-dasharray="10,3" stroke-miterlimit="10"/></g><g transform="translate(-14,2) scale(1,1)"><path d="M 72 1552 L 1024 1552 L 1024 1664 L 72 1664 L 72 1552" fill="none" stroke="#000000" stroke-miterlimit="10"/></g><g transform="translate(-14,2) scale(1,1)"><path d="M 72 1552 L 72 1574 L 106.07177734375 1574 L 117.07177734375 1563 L 117.07177734375 1552 L 72 1552" fill="#ffffff" stroke="none"/></g><g transform="translate(-14,2) scale(1,1)"><path d="M 72 1552 L 72 1574 L 106.07177734375 1574 L 117.07177734375 1563 L 117.07177734375 1552 L 72 1552 L 72 1552" fill="none" stroke="#000000" stroke-miterlimit="10"/></g><g transform="translate(-14,2) scale(1,1)"><g><path fill="none" stroke="none"/><text fill="#000000" font-family="Arial" font-size="13px" font-style="normal" font-weight="bold" stroke="none" text-decoration="none" x="75.930419921875" y="1567.5">opt</text></g></g><g transform="translate(-14,2) scale(1,1)"><path d="M 72 1696 L 1024 1696 L 1024 1824 L 72 1824 L 72 1696" fill="none" stroke="#000000" stroke-miterlimit="10"/></g><g transform="translate(-14,2) scale(1,1)"><path d="M 72 1696 L 72 1718 L 106.07177734375 1718 L 117.07177734375 1707 L 117.07177734375 1696 L 72 1696" fill="#ffffff" stroke="none"/></g><g transform="translate(-14,2) scale(1,1)"><path d="M 72 1696 L 72 1718 L 106.07177734375 1718 L 117.07177734375 1707 L 117.07177734375 1696 L 72 1696 L 72 1696" fill="none" stroke="#000000" stroke-miterlimit="10"/></g><g transform="translate(-14,2) scale(1,1)"><g><path fill="none" stroke="none"/><text fill="#000000" font-family="Arial" font-size="13px" font-style="normal" font-weight="bold" stroke="none" text-decoration="none" x="75.930419921875" y="1711.5">opt</text></g></g></g></svg>