<?xml version="1.0" encoding="UTF-8" standalone="no"?><svg xmlns="http://www.w3.org/2000/svg" xmlns:xlink="http://www.w3.org/1999/xlink" height="614" version="1.1" width="1036"><defs/><g><g transform="translate(-70,2) scale(1,1)"><path d="M 80 8 L 1096 8 L 1096 599 L 80 599 L 80 8" fill="none" stroke="#000000" stroke-miterlimit="10"/></g><g transform="translate(-70,2) scale(1,1)"><path d="M 80 8 L 80 30 L 299.8232421875 30 L 310.8232421875 19 L 310.8232421875 8 L 80 8" fill="#ffffff" stroke="none"/></g><g transform="translate(-70,2) scale(1,1)"><path d="M 80 8 L 80 30 L 299.8232421875 30 L 310.8232421875 19 L 310.8232421875 8 L 80 8 L 80 8" fill="none" stroke="#000000" stroke-miterlimit="10"/></g><g transform="translate(-70,2) scale(1,1)"><g><path fill="none" stroke="none"/><text fill="#000000" font-family="Arial" font-size="13px" font-style="normal" font-weight="normal" stroke="none" text-decoration="none" x="104.72998046875" y="24">Répondre au demande de congé</text></g></g><g transform="translate(-70,2) scale(1,1)"><g><path fill="none" stroke="none"/><text fill="#000000" font-family="Arial" font-size="13px" font-style="normal" font-weight="bold" stroke="none" text-decoration="none" x="84.279541015625" y="24">sd</text></g></g><g transform="translate(-70,2) scale(1,1)"><path d="M 159.1395126065341 47.3 C 159.1395126065341 43.82060576 162.0179143287159 41 165.568603515625 41 C 169.1192927025341 41 171.99769442471592 43.82060576 171.99769442471592 47.3 C 171.99769442471592 50.779394239999995 169.1192927025341 53.6 165.568603515625 53.6 C 162.0179143287159 53.6 159.1395126065341 50.779394239999995 159.1395126065341 47.3 Z" fill="#ffffff" stroke="none"/></g><g transform="translate(-70,2) scale(1,1)"><path d="M 159.1395126065341 47.3 C 159.1395126065341 43.82060576 162.0179143287159 41 165.568603515625 41 C 169.1192927025341 41 171.99769442471592 43.82060576 171.99769442471592 47.3 C 171.99769442471592 50.779394239999995 169.1192927025341 53.6 165.568603515625 53.6 C 162.0179143287159 53.6 159.1395126065341 50.779394239999995 159.1395126065341 47.3 Z" fill="none" stroke="#000000" stroke-miterlimit="10"/></g><g transform="translate(-70,2) scale(1,1)"><path d="M 165.568603515625 53.6 L 165.568603515625 66.4" fill="none" stroke="#000000" stroke-miterlimit="10"/></g><g transform="translate(-70,2) scale(1,1)"><path d="M 158.7613307883523 58.4 L 172.37587624289773 58.4" fill="none" stroke="#000000" stroke-miterlimit="10"/></g><g transform="translate(-70,2) scale(1,1)"><path d="M 165.568603515625 66.4 L 156.11405806107956 79" fill="none" stroke="#000000" stroke-miterlimit="10"/></g><g transform="translate(-70,2) scale(1,1)"><path d="M 165.568603515625 66.4 L 175.02314897017047 79" fill="none" stroke="#000000" stroke-miterlimit="10"/></g><g transform="translate(-70,2) scale(1,1)"><g><path fill="none" stroke="none"/><text fill="#000000" font-family="Arial" font-size="13px" font-style="normal" font-weight="bold" stroke="none" text-decoration="none" x="108.5" y="98">Lifeline1: Manager</text></g></g><g transform="translate(-70,2) scale(1,1)"><path d="M 166.5 105 L 166.5 600" fill="none" stroke="#000000" stroke-dasharray="3" stroke-miterlimit="10"/></g><g transform="translate(-70,2) scale(1,1)"><rect fill="#C0C0C0" height="39" opacity="0.2" stroke="none" width="159.8544921875" x="279" y="47"/></g><g transform="translate(-70,2) scale(1,1)"><rect fill="#ffffff" height="39" stroke="none" width="159.8544921875" x="272" y="40"/></g><g transform="translate(-70,2) scale(1,1)"><path d="M 272 40 L 431.8544921875 40 L 431.8544921875 79 L 272 79 L 272 40 Z Z" fill="none" stroke="#000000" stroke-miterlimit="10"/></g><g transform="translate(-70,2) scale(1,1)"><g><path fill="none" stroke="none"/><text fill="#000000" font-family="Arial" font-size="13px" font-style="normal" font-weight="bold" stroke="none" text-decoration="none" x="281.5" y="58">Interface: Notifications</text></g></g><g transform="translate(-70,2) scale(1,1)"><path d="M 352.5 80 L 352.5 600" fill="none" stroke="#000000" stroke-dasharray="3" stroke-miterlimit="10"/></g><g transform="translate(-70,2) scale(1,1)"><rect fill="#C0C0C0" height="39" opacity="0.2" stroke="none" width="137.9296875" x="519" y="47"/></g><g transform="translate(-70,2) scale(1,1)"><rect fill="#ffffff" height="39" stroke="none" width="137.9296875" x="512" y="40"/></g><g transform="translate(-70,2) scale(1,1)"><path d="M 512 40 L 649.9296875 40 L 649.9296875 79 L 512 79 L 512 40 Z Z" fill="none" stroke="#000000" stroke-miterlimit="10"/></g><g transform="translate(-70,2) scale(1,1)"><g><path fill="none" stroke="none"/><text fill="#000000" font-family="Arial" font-size="13px" font-style="normal" font-weight="bold" stroke="none" text-decoration="none" x="522.58544921875" y="58">Controller: Timeoff</text></g></g><g transform="translate(-70,2) scale(1,1)"><path d="M 581.5 80 L 581.5 602" fill="none" stroke="#000000" stroke-dasharray="3" stroke-miterlimit="10"/></g><g transform="translate(-70,2) scale(1,1)"><rect fill="#C0C0C0" height="39" opacity="0.2" stroke="none" width="75.10693359375" x="863" y="47"/></g><g transform="translate(-70,2) scale(1,1)"><rect fill="#ffffff" height="39" stroke="none" width="75.10693359375" x="856" y="40"/></g><g transform="translate(-70,2) scale(1,1)"><path d="M 856 40 L 931.10693359375 40 L 931.10693359375 79 L 856 79 L 856 40 Z Z" fill="none" stroke="#000000" stroke-miterlimit="10"/></g><g transform="translate(-70,2) scale(1,1)"><g><path fill="none" stroke="none"/><text fill="#000000" font-family="Arial" font-size="13px" font-style="normal" font-weight="bold" stroke="none" text-decoration="none" x="866.58544921875" y="58">Timeoffs</text></g></g><g transform="translate(-70,2) scale(1,1)"><path d="M 894.5 80 L 894.5 600" fill="none" stroke="#000000" stroke-dasharray="3" stroke-miterlimit="10"/></g><g transform="translate(-70,2) scale(1,1)"><rect fill="#C0C0C0" height="39" opacity="0.2" stroke="none" width="97.7236328125" x="983" y="47"/></g><g transform="translate(-70,2) scale(1,1)"><rect fill="#ffffff" height="39" stroke="none" width="97.7236328125" x="976" y="40"/></g><g transform="translate(-70,2) scale(1,1)"><path d="M 976 40 L 1073.7236328125 40 L 1073.7236328125 79 L 976 79 L 976 40 Z Z" fill="none" stroke="#000000" stroke-miterlimit="10"/></g><g transform="translate(-70,2) scale(1,1)"><g><path fill="none" stroke="none"/><text fill="#000000" font-family="Arial" font-size="13px" font-style="normal" font-weight="bold" stroke="none" text-decoration="none" x="985.5" y="58">Notifications</text></g></g><g transform="translate(-70,2) scale(1,1)"><path d="M 1025.5 80 L 1025.5 602" fill="none" stroke="#000000" stroke-dasharray="3" stroke-miterlimit="10"/></g><g transform="translate(-70,2) scale(1,1)"><path d="M 166 144 L 345 144" fill="none" stroke="#000000" stroke-miterlimit="10"/></g><g transform="translate(-70,2) scale(1,1)"><path d="M 334.83732514237585 148.209517756016 L 345 144 L 334.83732514237585 139.790482243984" fill="#000000" stroke="none"/></g><g transform="translate(-70,2) scale(1,1)"><path d="M 334.83732514237585 148.209517756016 L 345 144 L 334.83732514237585 139.790482243984 L 334.83732514237585 148.209517756016" fill="none" stroke="#000000" stroke-miterlimit="10"/></g><g transform="translate(-70,2) scale(1,1)"><g><path fill="none" stroke="none"/><text fill="#000000" font-family="Arial" font-size="13px" font-style="normal" font-weight="normal" stroke="none" text-decoration="none" x="171.5" y="139">1 : consultePageNotifications</text></g></g><g transform="translate(-70,2) scale(1,1)"><rect fill="#ffffff" height="28" stroke="none" width="13" x="345" y="144"/></g><g transform="translate(-70,2) scale(1,1)"><path d="M 345 144 L 358 144 L 358 172 L 345 172 L 345 144 Z Z" fill="none" stroke="#000000" stroke-miterlimit="10"/></g><g transform="translate(-70,2) scale(1,1)"><path d="M 358 154 L 574 154" fill="none" stroke="#000000" stroke-miterlimit="10"/></g><g transform="translate(-70,2) scale(1,1)"><path d="M 563.8373251423759 158.209517756016 L 574 154 L 563.8373251423758 149.790482243984" fill="#000000" stroke="none"/></g><g transform="translate(-70,2) scale(1,1)"><path d="M 563.8373251423759 158.209517756016 L 574 154 L 563.8373251423758 149.790482243984 L 563.8373251423759 158.209517756016" fill="none" stroke="#000000" stroke-miterlimit="10"/></g><g transform="translate(-70,2) scale(1,1)"><g><path fill="none" stroke="none"/><text fill="#000000" font-family="Arial" font-size="13px" font-style="normal" font-weight="normal" stroke="none" text-decoration="none" x="357.5" y="149">2 : demandeTimeoffsRequests(token)</text></g></g><g transform="translate(-70,2) scale(1,1)"><rect fill="#ffffff" height="78" stroke="none" width="13" x="574" y="154"/></g><g transform="translate(-70,2) scale(1,1)"><path d="M 574 154 L 587 154 L 587 232 L 574 232 L 574 154 Z Z" fill="none" stroke="#000000" stroke-miterlimit="10"/></g><g transform="translate(-70,2) scale(1,1)"><path d="M 587 178 L 887 178" fill="none" stroke="#000000" stroke-miterlimit="10"/></g><g transform="translate(-70,2) scale(1,1)"><path d="M 876.8373251423759 182.209517756016 L 887 178 L 876.8373251423758 173.790482243984" fill="#000000" stroke="none"/></g><g transform="translate(-70,2) scale(1,1)"><path d="M 876.8373251423759 182.209517756016 L 887 178 L 876.8373251423758 173.790482243984 L 876.8373251423759 182.209517756016" fill="none" stroke="#000000" stroke-miterlimit="10"/></g><g transform="translate(-70,2) scale(1,1)"><g><path fill="none" stroke="none"/><text fill="#000000" font-family="Arial" font-size="13px" font-style="normal" font-weight="normal" stroke="none" text-decoration="none" x="596.5" y="173">3 : getPendingTimeoffsByManager(token.user.id)</text></g></g><g transform="translate(-70,2) scale(1,1)"><rect fill="#ffffff" height="46" stroke="none" width="13" x="887" y="178"/></g><g transform="translate(-70,2) scale(1,1)"><path d="M 887 178 L 900 178 L 900 224 L 887 224 L 887 178 Z Z" fill="none" stroke="#000000" stroke-miterlimit="10"/></g><g transform="translate(-70,2) scale(1,1)"><path d="M 887 213 L 587 213" fill="none" stroke="#000000" stroke-dasharray="3" stroke-miterlimit="10"/></g><g transform="translate(-70,2) scale(1,1)"><path d="M 597.1626748576241 208.790482243984 L 587 213 L 597.1626748576241 217.209517756016" fill="none" stroke="#000000" stroke-miterlimit="10"/></g><g transform="translate(-70,2) scale(1,1)"><g><path fill="none" stroke="none"/><text fill="#000000" font-family="Arial" font-size="13px" font-style="normal" font-weight="normal" stroke="none" text-decoration="none" x="654.5" y="228">4 : return(PendingRequests)</text></g></g><g transform="translate(-70,2) scale(1,1)"><path d="M 581 256 L 352 256" fill="none" stroke="#000000" stroke-dasharray="3" stroke-miterlimit="10"/></g><g transform="translate(-70,2) scale(1,1)"><path d="M 362.16267485762415 251.790482243984 L 352 256 L 362.16267485762415 260.209517756016" fill="none" stroke="#000000" stroke-miterlimit="10"/></g><g transform="translate(-70,2) scale(1,1)"><g><path fill="none" stroke="none"/><text fill="#000000" font-family="Arial" font-size="13px" font-style="normal" font-weight="normal" stroke="none" text-decoration="none" x="367.5" y="271">5 : return Json(PendingRequests)</text></g></g><g transform="translate(-70,2) scale(1,1)"><path d="M 166 350 L 345 350" fill="none" stroke="#000000" stroke-miterlimit="10"/></g><g transform="translate(-70,2) scale(1,1)"><path d="M 334.83732514237585 354.209517756016 L 345 350 L 334.83732514237585 345.790482243984" fill="#000000" stroke="none"/></g><g transform="translate(-70,2) scale(1,1)"><path d="M 334.83732514237585 354.209517756016 L 345 350 L 334.83732514237585 345.790482243984 L 334.83732514237585 354.209517756016" fill="none" stroke="#000000" stroke-miterlimit="10"/></g><g transform="translate(-70,2) scale(1,1)"><g><path fill="none" stroke="none"/><text fill="#000000" font-family="Arial" font-size="13px" font-style="normal" font-weight="normal" stroke="none" text-decoration="none" x="184.832275390625" y="345">6 : cliquerTargetRequest</text></g></g><g transform="translate(-70,2) scale(1,1)"><rect fill="#ffffff" height="28" stroke="none" width="13" x="345" y="350"/></g><g transform="translate(-70,2) scale(1,1)"><path d="M 345 350 L 358 350 L 358 378 L 345 378 L 345 350 Z Z" fill="none" stroke="#000000" stroke-miterlimit="10"/></g><g transform="translate(-70,2) scale(1,1)"><path d="M 352 384 L 382 384 L 382 404 L 358 404" fill="none" stroke="#000000" stroke-miterlimit="10"/></g><g transform="translate(-70,2) scale(1,1)"><path d="M 368.16267485762415 399.790482243984 L 358 404 L 368.16267485762415 408.209517756016" fill="#000000" stroke="none"/></g><g transform="translate(-70,2) scale(1,1)"><path d="M 368.16267485762415 399.790482243984 L 358 404 L 368.16267485762415 408.209517756016 L 368.16267485762415 399.790482243984" fill="none" stroke="#000000" stroke-miterlimit="10"/></g><g transform="translate(-70,2) scale(1,1)"><g><path fill="none" stroke="none"/><text fill="#000000" font-family="Arial" font-size="13px" font-style="normal" font-weight="normal" stroke="none" text-decoration="none" x="390.5" y="398">7 : chargerPopupAnswering</text></g></g><g transform="translate(-70,2) scale(1,1)"><rect fill="#ffffff" height="28" stroke="none" width="13" x="345" y="404"/></g><g transform="translate(-70,2) scale(1,1)"><path d="M 345 404 L 358 404 L 358 432 L 345 432 L 345 404 Z Z" fill="none" stroke="#000000" stroke-miterlimit="10"/></g><g transform="translate(-70,2) scale(1,1)"><path d="M 166 478 L 345 478" fill="none" stroke="#000000" stroke-miterlimit="10"/></g><g transform="translate(-70,2) scale(1,1)"><path d="M 334.83732514237585 482.209517756016 L 345 478 L 334.83732514237585 473.790482243984" fill="#000000" stroke="none"/></g><g transform="translate(-70,2) scale(1,1)"><path d="M 334.83732514237585 482.209517756016 L 345 478 L 334.83732514237585 473.790482243984 L 334.83732514237585 482.209517756016" fill="none" stroke="#000000" stroke-miterlimit="10"/></g><g transform="translate(-70,2) scale(1,1)"><g><path fill="none" stroke="none"/><text fill="#000000" font-family="Arial" font-size="13px" font-style="normal" font-weight="normal" stroke="none" text-decoration="none" x="173.5" y="473">8 : saisirRéponse(response)</text></g></g><g transform="translate(-70,2) scale(1,1)"><rect fill="#ffffff" height="28" stroke="none" width="13" x="345" y="478"/></g><g transform="translate(-70,2) scale(1,1)"><path d="M 345 478 L 358 478 L 358 506 L 345 506 L 345 478 Z Z" fill="none" stroke="#000000" stroke-miterlimit="10"/></g><g transform="translate(-70,2) scale(1,1)"><path d="M 358 496 L 574 496" fill="none" stroke="#000000" stroke-miterlimit="10"/></g><g transform="translate(-70,2) scale(1,1)"><path d="M 563.8373251423759 500.209517756016 L 574 496 L 563.8373251423758 491.790482243984" fill="#000000" stroke="none"/></g><g transform="translate(-70,2) scale(1,1)"><path d="M 563.8373251423759 500.209517756016 L 574 496 L 563.8373251423758 491.790482243984 L 563.8373251423759 500.209517756016" fill="none" stroke="#000000" stroke-miterlimit="10"/></g><g transform="translate(-70,2) scale(1,1)"><g><path fill="none" stroke="none"/><text fill="#000000" font-family="Arial" font-size="13px" font-style="normal" font-weight="normal" stroke="none" text-decoration="none" x="360.79150390625" y="491">9 : répondre(token,timeoff,response)</text></g></g><g transform="translate(-70,2) scale(1,1)"><rect fill="#ffffff" height="40" stroke="none" width="13" x="574" y="496"/></g><g transform="translate(-70,2) scale(1,1)"><path d="M 574 496 L 587 496 L 587 536 L 574 536 L 574 496 Z Z" fill="none" stroke="#000000" stroke-miterlimit="10"/></g><g transform="translate(-70,2) scale(1,1)"><path d="M 587 512 L 887 512" fill="none" stroke="#000000" stroke-miterlimit="10"/></g><g transform="translate(-70,2) scale(1,1)"><path d="M 876.8373251423759 516.209517756016 L 887 512 L 876.8373251423758 507.790482243984" fill="#000000" stroke="none"/></g><g transform="translate(-70,2) scale(1,1)"><path d="M 876.8373251423759 516.209517756016 L 887 512 L 876.8373251423758 507.790482243984 L 876.8373251423759 516.209517756016" fill="none" stroke="#000000" stroke-miterlimit="10"/></g><g transform="translate(-70,2) scale(1,1)"><g><path fill="none" stroke="none"/><text fill="#000000" font-family="Arial" font-size="13px" font-style="normal" font-weight="normal" stroke="none" text-decoration="none" x="609.5" y="507">10 : UpdateTimeoffById(timeoff.id,response)</text></g></g><g transform="translate(-70,2) scale(1,1)"><rect fill="#ffffff" height="28" stroke="none" width="13" x="887" y="512"/></g><g transform="translate(-70,2) scale(1,1)"><path d="M 887 512 L 900 512 L 900 540 L 887 540 L 887 512 Z Z" fill="none" stroke="#000000" stroke-miterlimit="10"/></g><g transform="translate(-70,2) scale(1,1)"><path d="M 581 560 L 1018 560" fill="none" stroke="#000000" stroke-miterlimit="10"/></g><g transform="translate(-70,2) scale(1,1)"><path d="M 1007.8373251423759 564.209517756016 L 1018 560 L 1007.8373251423758 555.790482243984" fill="#000000" stroke="none"/></g><g transform="translate(-70,2) scale(1,1)"><path d="M 1007.8373251423759 564.209517756016 L 1018 560 L 1007.8373251423758 555.790482243984 L 1007.8373251423759 564.209517756016" fill="none" stroke="#000000" stroke-miterlimit="10"/></g><g transform="translate(-70,2) scale(1,1)"><g><path fill="none" stroke="none"/><text fill="#000000" font-family="Arial" font-size="13px" font-style="normal" font-weight="normal" stroke="none" text-decoration="none" x="590.5" y="554">11 : createNotification(timeoff.userId , response)</text></g></g><g transform="translate(-70,2) scale(1,1)"><rect fill="#ffffff" height="28" stroke="none" width="13" x="1018" y="560"/></g><g transform="translate(-70,2) scale(1,1)"><path d="M 1018 560 L 1031 560 L 1031 588 L 1018 588 L 1018 560 Z Z" fill="none" stroke="#000000" stroke-miterlimit="10"/></g></g></svg>