<?xml version="1.0" encoding="UTF-8" standalone="no"?><svg xmlns="http://www.w3.org/2000/svg" xmlns:xlink="http://www.w3.org/1999/xlink" height="660" version="1.1" width="916"><defs/><g><g transform="translate(-206,2) scale(1,1)"><path d="M 216 8 L 1112 8 L 1112 648 L 216 648 L 216 8" fill="none" stroke="#000000" stroke-miterlimit="10"/></g><g transform="translate(-206,2) scale(1,1)"><path d="M 216 8 L 216 30 L 414.84423828125 30 L 425.84423828125 19 L 425.84423828125 8 L 216 8" fill="#ffffff" stroke="none"/></g><g transform="translate(-206,2) scale(1,1)"><path d="M 216 8 L 216 30 L 414.84423828125 30 L 425.84423828125 19 L 425.84423828125 8 L 216 8 L 216 8" fill="none" stroke="#000000" stroke-miterlimit="10"/></g><g transform="translate(-206,2) scale(1,1)"><g><path fill="none" stroke="none"/><text fill="#000000" font-family="Arial" font-size="13px" font-style="normal" font-weight="normal" stroke="none" text-decoration="none" x="240.72998046875" y="24">consulter la page des congés</text></g></g><g transform="translate(-206,2) scale(1,1)"><g><path fill="none" stroke="none"/><text fill="#000000" font-family="Arial" font-size="13px" font-style="normal" font-weight="bold" stroke="none" text-decoration="none" x="220.279541015625" y="24">sd</text></g></g><g transform="translate(-206,2) scale(1,1)"><rect fill="#C0C0C0" height="39" opacity="0.2" stroke="none" width="127.8369140625" x="423" y="47"/></g><g transform="translate(-206,2) scale(1,1)"><rect fill="#ffffff" height="39" stroke="none" width="127.8369140625" x="416" y="40"/></g><g transform="translate(-206,2) scale(1,1)"><path d="M 416 40 L 543.8369140625 40 L 543.8369140625 79 L 416 79 L 416 40 Z Z" fill="none" stroke="#000000" stroke-miterlimit="10"/></g><g transform="translate(-206,2) scale(1,1)"><g><path fill="none" stroke="none"/><text fill="#000000" font-family="Arial" font-size="13px" font-style="normal" font-weight="bold" stroke="none" text-decoration="none" x="425.5" y="58">Interface: Timeoff</text></g></g><g transform="translate(-206,2) scale(1,1)"><path d="M 480.5 80 L 480.5 648" fill="none" stroke="#000000" stroke-dasharray="3" stroke-miterlimit="10"/></g><g transform="translate(-206,2) scale(1,1)"><rect fill="#C0C0C0" height="39" opacity="0.2" stroke="none" width="71.736328125" x="863" y="47"/></g><g transform="translate(-206,2) scale(1,1)"><rect fill="#ffffff" height="39" stroke="none" width="71.736328125" x="856" y="40"/></g><g transform="translate(-206,2) scale(1,1)"><path d="M 856 40 L 927.736328125 40 L 927.736328125 79 L 856 79 L 856 40 Z Z" fill="none" stroke="#000000" stroke-miterlimit="10"/></g><g transform="translate(-206,2) scale(1,1)"><g><path fill="none" stroke="none"/><text fill="#000000" font-family="Arial" font-size="13px" font-style="normal" font-weight="bold" stroke="none" text-decoration="none" x="873.799560546875" y="58">Users</text></g></g><g transform="translate(-206,2) scale(1,1)"><path d="M 892.5 80 L 892.5 648" fill="none" stroke="#000000" stroke-dasharray="3" stroke-miterlimit="10"/></g><g transform="translate(-206,2) scale(1,1)"><rect fill="#C0C0C0" height="39" opacity="0.2" stroke="none" width="135.7587890625" x="647" y="47"/></g><g transform="translate(-206,2) scale(1,1)"><rect fill="#ffffff" height="39" stroke="none" width="135.7587890625" x="640" y="40"/></g><g transform="translate(-206,2) scale(1,1)"><path d="M 640 40 L 775.7587890625 40 L 775.7587890625 79 L 640 79 L 640 40 Z Z" fill="none" stroke="#000000" stroke-miterlimit="10"/></g><g transform="translate(-206,2) scale(1,1)"><g><path fill="none" stroke="none"/><text fill="#000000" font-family="Arial" font-size="13px" font-style="normal" font-weight="bold" stroke="none" text-decoration="none" x="649.5" y="58">Controller: Timeoff</text></g></g><g transform="translate(-206,2) scale(1,1)"><path d="M 708.5 80 L 708.5 648" fill="none" stroke="#000000" stroke-dasharray="3" stroke-miterlimit="10"/></g><g transform="translate(-206,2) scale(1,1)"><path d="M 293.9981551846591 47.3 C 293.9981551846591 43.82060576 296.8765569068409 41 300.42724609375 41 C 303.9779352806591 41 306.856337002841 43.82060576 306.856337002841 47.3 C 306.856337002841 50.779394239999995 303.9779352806591 53.6 300.42724609375 53.6 C 296.8765569068409 53.6 293.9981551846591 50.779394239999995 293.9981551846591 47.3 Z" fill="#ffffff" stroke="none"/></g><g transform="translate(-206,2) scale(1,1)"><path d="M 293.9981551846591 47.3 C 293.9981551846591 43.82060576 296.8765569068409 41 300.42724609375 41 C 303.9779352806591 41 306.856337002841 43.82060576 306.856337002841 47.3 C 306.856337002841 50.779394239999995 303.9779352806591 53.6 300.42724609375 53.6 C 296.8765569068409 53.6 293.9981551846591 50.779394239999995 293.9981551846591 47.3 Z" fill="none" stroke="#000000" stroke-miterlimit="10"/></g><g transform="translate(-206,2) scale(1,1)"><path d="M 300.42724609375 53.6 L 300.42724609375 66.4" fill="none" stroke="#000000" stroke-miterlimit="10"/></g><g transform="translate(-206,2) scale(1,1)"><path d="M 293.61997336647727 58.4 L 307.2345188210228 58.4" fill="none" stroke="#000000" stroke-miterlimit="10"/></g><g transform="translate(-206,2) scale(1,1)"><path d="M 300.42724609375 66.4 L 290.97270063920456 79" fill="none" stroke="#000000" stroke-miterlimit="10"/></g><g transform="translate(-206,2) scale(1,1)"><path d="M 300.42724609375 66.4 L 309.8817915482955 79" fill="none" stroke="#000000" stroke-miterlimit="10"/></g><g transform="translate(-206,2) scale(1,1)"><g><path fill="none" stroke="none"/><text fill="#000000" font-family="Arial" font-size="13px" font-style="normal" font-weight="bold" stroke="none" text-decoration="none" x="255.635009765625" y="98">Lifeline1: User</text></g></g><g transform="translate(-206,2) scale(1,1)"><path d="M 301.5 105 L 301.5 648" fill="none" stroke="#000000" stroke-dasharray="3" stroke-miterlimit="10"/></g><g transform="translate(-206,2) scale(1,1)"><rect fill="#C0C0C0" height="39" opacity="0.2" stroke="none" width="75.10693359375" x="983" y="47"/></g><g transform="translate(-206,2) scale(1,1)"><rect fill="#ffffff" height="39" stroke="none" width="75.10693359375" x="976" y="40"/></g><g transform="translate(-206,2) scale(1,1)"><path d="M 976 40 L 1051.10693359375 40 L 1051.10693359375 79 L 976 79 L 976 40 Z Z" fill="none" stroke="#000000" stroke-miterlimit="10"/></g><g transform="translate(-206,2) scale(1,1)"><g><path fill="none" stroke="none"/><text fill="#000000" font-family="Arial" font-size="13px" font-style="normal" font-weight="bold" stroke="none" text-decoration="none" x="985.5" y="58">TimeOffs</text></g></g><g transform="translate(-206,2) scale(1,1)"><path d="M 1014.5 80 L 1014.5 648" fill="none" stroke="#000000" stroke-dasharray="3" stroke-miterlimit="10"/></g><g transform="translate(-206,2) scale(1,1)"><path d="M 301 145 L 473 145" fill="none" stroke="#000000" stroke-miterlimit="10"/></g><g transform="translate(-206,2) scale(1,1)"><path d="M 462.83732514237585 149.209517756016 L 473 145 L 462.83732514237585 140.790482243984" fill="#000000" stroke="none"/></g><g transform="translate(-206,2) scale(1,1)"><path d="M 462.83732514237585 149.209517756016 L 473 145 L 462.83732514237585 140.790482243984 L 462.83732514237585 149.209517756016" fill="none" stroke="#000000" stroke-miterlimit="10"/></g><g transform="translate(-206,2) scale(1,1)"><g><path fill="none" stroke="none"/><text fill="#000000" font-family="Arial" font-size="13px" font-style="normal" font-weight="normal" stroke="none" text-decoration="none" x="317.5" y="140">1 : consultePgaeTimeoff</text></g></g><g transform="translate(-206,2) scale(1,1)"><rect fill="#ffffff" height="28" stroke="none" width="13" x="473" y="145"/></g><g transform="translate(-206,2) scale(1,1)"><path d="M 473 145 L 486 145 L 486 173 L 473 173 L 473 145 Z Z" fill="none" stroke="#000000" stroke-miterlimit="10"/></g><g transform="translate(-206,2) scale(1,1)"><path d="M 486 157 L 701 157" fill="none" stroke="#000000" stroke-miterlimit="10"/></g><g transform="translate(-206,2) scale(1,1)"><path d="M 690.8373251423759 161.209517756016 L 701 157 L 690.8373251423758 152.790482243984" fill="#000000" stroke="none"/></g><g transform="translate(-206,2) scale(1,1)"><path d="M 690.8373251423759 161.209517756016 L 701 157 L 690.8373251423758 152.790482243984 L 690.8373251423759 161.209517756016" fill="none" stroke="#000000" stroke-miterlimit="10"/></g><g transform="translate(-206,2) scale(1,1)"><g><path fill="none" stroke="none"/><text fill="#000000" font-family="Arial" font-size="13px" font-style="normal" font-weight="normal" stroke="none" text-decoration="none" x="499.5" y="152">2 : getUserTimeoffHistory(token)</text></g></g><g transform="translate(-206,2) scale(1,1)"><rect fill="#ffffff" height="67" stroke="none" width="13" x="701" y="157"/></g><g transform="translate(-206,2) scale(1,1)"><path d="M 701 157 L 714 157 L 714 224 L 701 224 L 701 157 Z Z" fill="none" stroke="#000000" stroke-miterlimit="10"/></g><g transform="translate(-206,2) scale(1,1)"><path d="M 714 181 L 885 181" fill="none" stroke="#000000" stroke-miterlimit="10"/></g><g transform="translate(-206,2) scale(1,1)"><path d="M 874.8373251423759 185.209517756016 L 885 181 L 874.8373251423758 176.790482243984" fill="#000000" stroke="none"/></g><g transform="translate(-206,2) scale(1,1)"><path d="M 874.8373251423759 185.209517756016 L 885 181 L 874.8373251423758 176.790482243984 L 874.8373251423759 185.209517756016" fill="none" stroke="#000000" stroke-miterlimit="10"/></g><g transform="translate(-206,2) scale(1,1)"><g><path fill="none" stroke="none"/><text fill="#000000" font-family="Arial" font-size="13px" font-style="normal" font-weight="normal" stroke="none" text-decoration="none" x="713.5" y="176">3 : getUserById(token.user.id)</text></g></g><g transform="translate(-206,2) scale(1,1)"><rect fill="#ffffff" height="28" stroke="none" width="13" x="885" y="181"/></g><g transform="translate(-206,2) scale(1,1)"><path d="M 885 181 L 898 181 L 898 209 L 885 209 L 885 181 Z Z" fill="none" stroke="#000000" stroke-miterlimit="10"/></g><g transform="translate(-206,2) scale(1,1)"><path d="M 885 203 L 714 203" fill="none" stroke="#000000" stroke-dasharray="3" stroke-miterlimit="10"/></g><g transform="translate(-206,2) scale(1,1)"><path d="M 724.1626748576241 198.790482243984 L 714 203 L 724.1626748576241 207.209517756016" fill="none" stroke="#000000" stroke-miterlimit="10"/></g><g transform="translate(-206,2) scale(1,1)"><g><path fill="none" stroke="none"/><text fill="#000000" font-family="Arial" font-size="13px" font-style="normal" font-weight="normal" stroke="none" text-decoration="none" x="755.5" y="218">4 : return(user)</text></g></g><g transform="translate(-206,2) scale(1,1)"><path d="M 708 280 L 885 280" fill="none" stroke="#000000" stroke-miterlimit="10"/></g><g transform="translate(-206,2) scale(1,1)"><path d="M 874.8373251423759 284.209517756016 L 885 280 L 874.8373251423758 275.790482243984" fill="#000000" stroke="none"/></g><g transform="translate(-206,2) scale(1,1)"><path d="M 874.8373251423759 284.209517756016 L 885 280 L 874.8373251423758 275.790482243984 L 874.8373251423759 284.209517756016" fill="none" stroke="#000000" stroke-miterlimit="10"/></g><g transform="translate(-206,2) scale(1,1)"><g><path fill="none" stroke="none"/><text fill="#000000" font-family="Arial" font-size="13px" font-style="normal" font-weight="normal" stroke="none" text-decoration="none" x="723.5" y="275">5 : getWorkedDays(user)</text></g></g><g transform="translate(-206,2) scale(1,1)"><rect fill="#ffffff" height="28" stroke="none" width="13" x="885" y="280"/></g><g transform="translate(-206,2) scale(1,1)"><path d="M 885 280 L 898 280 L 898 308 L 885 308 L 885 280 Z Z" fill="none" stroke="#000000" stroke-miterlimit="10"/></g><g transform="translate(-206,2) scale(1,1)"><path d="M 885 298 L 708 298" fill="none" stroke="#000000" stroke-dasharray="3" stroke-miterlimit="10"/></g><g transform="translate(-206,2) scale(1,1)"><path d="M 718.1626748576241 293.790482243984 L 708 298 L 718.1626748576241 302.209517756016" fill="none" stroke="#000000" stroke-miterlimit="10"/></g><g transform="translate(-206,2) scale(1,1)"><g><path fill="none" stroke="none"/><text fill="#000000" font-family="Arial" font-size="13px" font-style="normal" font-weight="normal" stroke="none" text-decoration="none" x="727.5" y="313">6 : return(WorkedDays)</text></g></g><g transform="translate(-206,2) scale(1,1)"><path d="M 708 384 L 885 384" fill="none" stroke="#000000" stroke-miterlimit="10"/></g><g transform="translate(-206,2) scale(1,1)"><path d="M 874.8373251423759 388.209517756016 L 885 384 L 874.8373251423758 379.790482243984" fill="#000000" stroke="none"/></g><g transform="translate(-206,2) scale(1,1)"><path d="M 874.8373251423759 388.209517756016 L 885 384 L 874.8373251423758 379.790482243984 L 874.8373251423759 388.209517756016" fill="none" stroke="#000000" stroke-miterlimit="10"/></g><g transform="translate(-206,2) scale(1,1)"><g><path fill="none" stroke="none"/><text fill="#000000" font-family="Arial" font-size="13px" font-style="normal" font-weight="normal" stroke="none" text-decoration="none" x="700.5" y="379">7 : getTimeoffAccuredDays(user)</text></g></g><g transform="translate(-206,2) scale(1,1)"><rect fill="#ffffff" height="28" stroke="none" width="13" x="885" y="384"/></g><g transform="translate(-206,2) scale(1,1)"><path d="M 885 384 L 898 384 L 898 412 L 885 412 L 885 384 Z Z" fill="none" stroke="#000000" stroke-miterlimit="10"/></g><g transform="translate(-206,2) scale(1,1)"><path d="M 885 400 L 708 400" fill="none" stroke="#000000" stroke-dasharray="3" stroke-miterlimit="10"/></g><g transform="translate(-206,2) scale(1,1)"><path d="M 718.1626748576241 395.790482243984 L 708 400 L 718.1626748576241 404.209517756016" fill="none" stroke="#000000" stroke-miterlimit="10"/></g><g transform="translate(-206,2) scale(1,1)"><g><path fill="none" stroke="none"/><text fill="#000000" font-family="Arial" font-size="13px" font-style="normal" font-weight="normal" stroke="none" text-decoration="none" x="726.5" y="415">8 : return(AccuredDays)</text></g></g><g transform="translate(-206,2) scale(1,1)"><path d="M 708 480 L 885 480" fill="none" stroke="#000000" stroke-miterlimit="10"/></g><g transform="translate(-206,2) scale(1,1)"><path d="M 874.8373251423759 484.209517756016 L 885 480 L 874.8373251423758 475.790482243984" fill="#000000" stroke="none"/></g><g transform="translate(-206,2) scale(1,1)"><path d="M 874.8373251423759 484.209517756016 L 885 480 L 874.8373251423758 475.790482243984 L 874.8373251423759 484.209517756016" fill="none" stroke="#000000" stroke-miterlimit="10"/></g><g transform="translate(-206,2) scale(1,1)"><g><path fill="none" stroke="none"/><text fill="#000000" font-family="Arial" font-size="13px" font-style="normal" font-weight="normal" stroke="none" text-decoration="none" x="709.5" y="475">9 : getTimeoffUsedDays(user)</text></g></g><g transform="translate(-206,2) scale(1,1)"><rect fill="#ffffff" height="28" stroke="none" width="13" x="885" y="480"/></g><g transform="translate(-206,2) scale(1,1)"><path d="M 885 480 L 898 480 L 898 508 L 885 508 L 885 480 Z Z" fill="none" stroke="#000000" stroke-miterlimit="10"/></g><g transform="translate(-206,2) scale(1,1)"><path d="M 885 504 L 708 504" fill="none" stroke="#000000" stroke-dasharray="3" stroke-miterlimit="10"/></g><g transform="translate(-206,2) scale(1,1)"><path d="M 718.1626748576241 499.790482243984 L 708 504 L 718.1626748576241 508.209517756016" fill="none" stroke="#000000" stroke-miterlimit="10"/></g><g transform="translate(-206,2) scale(1,1)"><g><path fill="none" stroke="none"/><text fill="#000000" font-family="Arial" font-size="13px" font-style="normal" font-weight="normal" stroke="none" text-decoration="none" x="731.5" y="519">10 : return(UsedDays)</text></g></g><g transform="translate(-206,2) scale(1,1)"><path d="M 708 560 L 1007 560" fill="none" stroke="#000000" stroke-miterlimit="10"/></g><g transform="translate(-206,2) scale(1,1)"><path d="M 996.8373251423759 564.209517756016 L 1007 560 L 996.8373251423758 555.790482243984" fill="#000000" stroke="none"/></g><g transform="translate(-206,2) scale(1,1)"><path d="M 996.8373251423759 564.209517756016 L 1007 560 L 996.8373251423758 555.790482243984 L 996.8373251423759 564.209517756016" fill="none" stroke="#000000" stroke-miterlimit="10"/></g><g transform="translate(-206,2) scale(1,1)"><g><path fill="none" stroke="none"/><text fill="#000000" font-family="Arial" font-size="13px" font-style="normal" font-weight="normal" stroke="none" text-decoration="none" x="751.5" y="554">11 : getTimeoffs(user)</text></g></g><g transform="translate(-206,2) scale(1,1)"><rect fill="#ffffff" height="28" stroke="none" width="13" x="1007" y="560"/></g><g transform="translate(-206,2) scale(1,1)"><path d="M 1007 560 L 1020 560 L 1020 588 L 1007 588 L 1007 560 Z Z" fill="none" stroke="#000000" stroke-miterlimit="10"/></g><g transform="translate(-206,2) scale(1,1)"><path d="M 1007 576 L 708 576" fill="none" stroke="#000000" stroke-dasharray="3" stroke-miterlimit="10"/></g><g transform="translate(-206,2) scale(1,1)"><path d="M 718.1626748576241 571.790482243984 L 708 576 L 718.1626748576241 580.209517756016" fill="none" stroke="#000000" stroke-miterlimit="10"/></g><g transform="translate(-206,2) scale(1,1)"><g><path fill="none" stroke="none"/><text fill="#000000" font-family="Arial" font-size="13px" font-style="normal" font-weight="normal" stroke="none" text-decoration="none" x="783.5" y="591">12 : return(UserTimeoffs)</text></g></g><g transform="translate(-206,2) scale(1,1)"><path d="M 708 616 L 480 616" fill="none" stroke="#000000" stroke-dasharray="3" stroke-miterlimit="10"/></g><g transform="translate(-206,2) scale(1,1)"><path d="M 490.16267485762415 611.790482243984 L 480 616 L 490.16267485762415 620.209517756016" fill="none" stroke="#000000" stroke-miterlimit="10"/></g><g transform="translate(-206,2) scale(1,1)"><g><path fill="none" stroke="none"/><text fill="#000000" font-family="Arial" font-size="13px" font-style="normal" font-weight="normal" stroke="none" text-decoration="none" x="529.5" y="631">13 : return Json(Data)</text></g></g></g></svg>