<?xml version="1.0" encoding="UTF-8" standalone="no"?><svg xmlns="http://www.w3.org/2000/svg" xmlns:xlink="http://www.w3.org/1999/xlink" height="1044" version="1.1" width="1685"><defs/><g><g transform="translate(10,-254) scale(1,1)"><path d="M 126.55070774147728 649.6800000000001 C 126.55070774147728 644.8861679360001 130.43655006642274 641 135.22998046875 641 C 140.02341087107726 641 143.90925319602272 644.8861679360001 143.90925319602272 649.6800000000001 C 143.90925319602272 654.473832064 140.02341087107726 658.36 135.22998046875 658.36 C 130.43655006642274 658.36 126.55070774147728 654.473832064 126.55070774147728 649.6800000000001 Z" fill="#ffffff" stroke="none"/></g><g transform="translate(10,-254) scale(1,1)"><path d="M 126.55070774147728 649.6800000000001 C 126.55070774147728 644.8861679360001 130.43655006642274 641 135.22998046875 641 C 140.02341087107726 641 143.90925319602272 644.8861679360001 143.90925319602272 649.6800000000001 C 143.90925319602272 654.473832064 140.02341087107726 658.36 135.22998046875 658.36 C 130.43655006642274 658.36 126.55070774147728 654.473832064 126.55070774147728 649.6800000000001 Z" fill="none" stroke="#000000" stroke-miterlimit="10"/></g><g transform="translate(10,-254) scale(1,1)"><path d="M 135.22998046875 658.36 L 135.22998046875 675.64" fill="none" stroke="#000000" stroke-miterlimit="10"/></g><g transform="translate(10,-254) scale(1,1)"><path d="M 126.04016228693183 664.84 L 144.41979865056817 664.84" fill="none" stroke="#000000" stroke-miterlimit="10"/></g><g transform="translate(10,-254) scale(1,1)"><path d="M 135.22998046875 675.64 L 122.46634410511365 693" fill="none" stroke="#000000" stroke-miterlimit="10"/></g><g transform="translate(10,-254) scale(1,1)"><path d="M 135.22998046875 675.64 L 147.99361683238635 693" fill="none" stroke="#000000" stroke-miterlimit="10"/></g><g transform="translate(10,-254) scale(1,1)"><g><path fill="none" stroke="none"/><text fill="#000000" font-family="Arial" font-size="13px" font-style="normal" font-weight="bold" stroke="none" text-decoration="none" x="108.5" y="712">Manager</text></g></g><g transform="translate(10,-254) scale(1,1)"><path d="M 447 547 C 447 527.1177472 516.6197136 511 602.5 511 C 688.3802864 511 758 527.1177472 758 547 C 758 566.8822528 688.3802864 583 602.5 583 C 516.6197136 583 447 566.8822528 447 547 Z" fill="#C0C0C0" opacity="0.2" stroke="none"/></g><g transform="translate(10,-254) scale(1,1)"><path d="M 440 540 C 440 520.1177472 509.6197136 504 595.5 504 C 681.3802864 504 751 520.1177472 751 540 C 751 559.8822528 681.3802864 576 595.5 576 C 509.6197136 576 440 559.8822528 440 540 Z" fill="#ffffff" stroke="none"/></g><g transform="translate(10,-254) scale(1,1)"><path d="M 440 540 C 440 520.1177472 509.6197136 504 595.5 504 C 681.3802864 504 751 520.1177472 751 540 C 751 559.8822528 681.3802864 576 595.5 576 C 509.6197136 576 440 559.8822528 440 540 Z" fill="none" stroke="#000000" stroke-miterlimit="10"/></g><g transform="translate(10,-254) scale(1,1)"><g><path fill="none" stroke="none"/><text fill="#000000" font-family="Arial" font-size="13px" font-style="normal" font-weight="bold" stroke="none" text-decoration="none" x="497.25732421875" y="545.5">répondre au demande de congé</text></g></g><g transform="translate(10,-254) scale(1,1)"><path d="M 447 679 C 447 661.3268864 516.1719984 647 601.5 647 C 686.8280016 647 756 661.3268864 756 679 C 756 696.6731136 686.8280016 711 601.5 711 C 516.1719984 711 447 696.6731136 447 679 Z" fill="#C0C0C0" opacity="0.2" stroke="none"/></g><g transform="translate(10,-254) scale(1,1)"><path d="M 440 672 C 440 654.3268864 509.1719984 640 594.5 640 C 679.8280016 640 749 654.3268864 749 672 C 749 689.6731136 679.8280016 704 594.5 704 C 509.1719984 704 440 689.6731136 440 672 Z" fill="#ffffff" stroke="none"/></g><g transform="translate(10,-254) scale(1,1)"><path d="M 440 672 C 440 654.3268864 509.1719984 640 594.5 640 C 679.8280016 640 749 654.3268864 749 672 C 749 689.6731136 679.8280016 704 594.5 704 C 509.1719984 704 440 689.6731136 440 672 Z" fill="none" stroke="#000000" stroke-miterlimit="10"/></g><g transform="translate(10,-254) scale(1,1)"><g><path fill="none" stroke="none"/><text fill="#000000" font-family="Arial" font-size="13px" font-style="normal" font-weight="bold" stroke="none" text-decoration="none" x="504.56005859375" y="677.5">gérer les politiques de congé</text></g></g><g transform="translate(10,-254) scale(1,1)"><path d="M 879 771 C 879 755.5360256 949.2912864 743 1036 743 C 1122.7087136 743 1193 755.5360256 1193 771 C 1193 786.4639744 1122.7087136 799 1036 799 C 949.2912864 799 879 786.4639744 879 771 Z" fill="#C0C0C0" opacity="0.2" stroke="none"/></g><g transform="translate(10,-254) scale(1,1)"><path d="M 872 764 C 872 748.5360256 942.2912864 736 1029 736 C 1115.7087136 736 1186 748.5360256 1186 764 C 1186 779.4639744 1115.7087136 792 1029 792 C 942.2912864 792 872 779.4639744 872 764 Z" fill="#ffffff" stroke="none"/></g><g transform="translate(10,-254) scale(1,1)"><path d="M 872 764 C 872 748.5360256 942.2912864 736 1029 736 C 1115.7087136 736 1186 748.5360256 1186 764 C 1186 779.4639744 1115.7087136 792 1029 792 C 942.2912864 792 872 779.4639744 872 764 Z" fill="none" stroke="#000000" stroke-miterlimit="10"/></g><g transform="translate(10,-254) scale(1,1)"><g><path fill="none" stroke="none"/><text fill="#000000" font-family="Arial" font-size="13px" font-style="normal" font-weight="bold" stroke="none" text-decoration="none" x="926.063232421875" y="769.5">consulter les politiques de congé</text></g></g><g transform="translate(10,-254) scale(1,1)"><path d="M 1375 699 C 1375 679.1177472 1438.5755584 663 1517 663 C 1595.4244416 663 1659 679.1177472 1659 699 C 1659 718.8822528 1595.4244416 735 1517 735 C 1438.5755584 735 1375 718.8822528 1375 699 Z" fill="#C0C0C0" opacity="0.2" stroke="none"/></g><g transform="translate(10,-254) scale(1,1)"><path d="M 1368 692 C 1368 672.1177472 1431.5755584 656 1510 656 C 1588.4244416 656 1652 672.1177472 1652 692 C 1652 711.8822528 1588.4244416 728 1510 728 C 1431.5755584 728 1368 711.8822528 1368 692 Z" fill="#ffffff" stroke="none"/></g><g transform="translate(10,-254) scale(1,1)"><path d="M 1368 692 C 1368 672.1177472 1431.5755584 656 1510 656 C 1588.4244416 656 1652 672.1177472 1652 692 C 1652 711.8822528 1588.4244416 728 1510 728 C 1431.5755584 728 1368 711.8822528 1368 692 Z" fill="none" stroke="#000000" stroke-miterlimit="10"/></g><g transform="translate(10,-254) scale(1,1)"><g><path fill="none" stroke="none"/><text fill="#000000" font-family="Arial" font-size="13px" font-style="normal" font-weight="bold" stroke="none" text-decoration="none" x="1413.937744140625" y="697.5">ajouter une  politique de congé</text></g></g><g transform="translate(10,-254) scale(1,1)"><path d="M 1359 799 C 1359 781.3268864 1429.0674288 767 1515.5 767 C 1601.9325712 767 1672 781.3268864 1672 799 C 1672 816.6731136 1601.9325712 831 1515.5 831 C 1429.0674288 831 1359 816.6731136 1359 799 Z" fill="#C0C0C0" opacity="0.2" stroke="none"/></g><g transform="translate(10,-254) scale(1,1)"><path d="M 1352 792 C 1352 774.3268864 1422.0674288 760 1508.5 760 C 1594.9325712 760 1665 774.3268864 1665 792 C 1665 809.6731136 1594.9325712 824 1508.5 824 C 1422.0674288 824 1352 809.6731136 1352 792 Z" fill="#ffffff" stroke="none"/></g><g transform="translate(10,-254) scale(1,1)"><path d="M 1352 792 C 1352 774.3268864 1422.0674288 760 1508.5 760 C 1594.9325712 760 1665 774.3268864 1665 792 C 1665 809.6731136 1594.9325712 824 1508.5 824 C 1422.0674288 824 1352 809.6731136 1352 792 Z" fill="none" stroke="#000000" stroke-miterlimit="10"/></g><g transform="translate(10,-254) scale(1,1)"><g><path fill="none" stroke="none"/><text fill="#000000" font-family="Arial" font-size="13px" font-style="normal" font-weight="bold" stroke="none" text-decoration="none" x="1402.32275390625" y="797.5">supprimer une  politique de congé</text></g></g><g transform="translate(10,-254) scale(1,1)"><path d="M 631 947 C 631 931.5360256 733.7506384 919 860.5 919 C 987.2493616 919 1090 931.5360256 1090 947 C 1090 962.4639744 987.2493616 975 860.5 975 C 733.7506384 975 631 962.4639744 631 947 Z" fill="#C0C0C0" opacity="0.2" stroke="none"/></g><g transform="translate(10,-254) scale(1,1)"><path d="M 624 940 C 624 924.5360256 726.7506384 912 853.5 912 C 980.2493616 912 1083 924.5360256 1083 940 C 1083 955.4639744 980.2493616 968 853.5 968 C 726.7506384 968 624 955.4639744 624 940 Z" fill="#ffffff" stroke="none"/></g><g transform="translate(10,-254) scale(1,1)"><path d="M 624 940 C 624 924.5360256 726.7506384 912 853.5 912 C 980.2493616 912 1083 924.5360256 1083 940 C 1083 955.4639744 980.2493616 968 853.5 968 C 726.7506384 968 624 955.4639744 624 940 Z" fill="none" stroke="#000000" stroke-miterlimit="10"/></g><g transform="translate(10,-254) scale(1,1)"><g><path fill="none" stroke="none"/><text fill="#000000" font-family="Arial" font-size="13px" font-style="normal" font-weight="bold" stroke="none" text-decoration="none" x="695.586181640625" y="945.5">consulter la configuration d'une politique de congé</text></g></g><g transform="translate(10,-254) scale(1,1)"><path d="M 639 1091 C 639 1075.5360256 738.3927744 1063 861 1063 C 983.6072256 1063 1083 1075.5360256 1083 1091 C 1083 1106.4639744 983.6072256 1119 861 1119 C 738.3927744 1119 639 1106.4639744 639 1091 Z" fill="#C0C0C0" opacity="0.2" stroke="none"/></g><g transform="translate(10,-254) scale(1,1)"><path d="M 632 1084 C 632 1068.5360256 731.3927744 1056 854 1056 C 976.6072256 1056 1076 1068.5360256 1076 1084 C 1076 1099.4639744 976.6072256 1112 854 1112 C 731.3927744 1112 632 1099.4639744 632 1084 Z" fill="#ffffff" stroke="none"/></g><g transform="translate(10,-254) scale(1,1)"><path d="M 632 1084 C 632 1068.5360256 731.3927744 1056 854 1056 C 976.6072256 1056 1076 1068.5360256 1076 1084 C 1076 1099.4639744 976.6072256 1112 854 1112 C 731.3927744 1112 632 1099.4639744 632 1084 Z" fill="none" stroke="#000000" stroke-miterlimit="10"/></g><g transform="translate(10,-254) scale(1,1)"><g><path fill="none" stroke="none"/><text fill="#000000" font-family="Arial" font-size="13px" font-style="normal" font-weight="bold" stroke="none" text-decoration="none" x="701.507080078125" y="1089.5">modifer la configuration d'une politique de congé</text></g></g><g transform="translate(10,-254) scale(1,1)"><path d="M 87 959 C 87 941.3268864 184.8257712 927 305.5 927 C 426.17422880000004 927 524 941.3268864 524 959 C 524 976.6731136 426.17422880000004 991 305.5 991 C 184.8257712 991 87 976.6731136 87 959 Z" fill="#C0C0C0" opacity="0.2" stroke="none"/></g><g transform="translate(10,-254) scale(1,1)"><path d="M 80 952 C 80 934.3268864 177.8257712 920 298.5 920 C 419.17422880000004 920 517 934.3268864 517 952 C 517 969.6731136 419.17422880000004 984 298.5 984 C 177.8257712 984 80 969.6731136 80 952 Z" fill="#ffffff" stroke="none"/></g><g transform="translate(10,-254) scale(1,1)"><path d="M 80 952 C 80 934.3268864 177.8257712 920 298.5 920 C 419.17422880000004 920 517 934.3268864 517 952 C 517 969.6731136 419.17422880000004 984 298.5 984 C 177.8257712 984 80 969.6731136 80 952 Z" fill="none" stroke="#000000" stroke-miterlimit="10"/></g><g transform="translate(10,-254) scale(1,1)"><g><path fill="none" stroke="none"/><text fill="#000000" font-family="Arial" font-size="13px" font-style="normal" font-weight="bold" stroke="none" text-decoration="none" x="148.508056640625" y="957.5">consulter les employés d'une politique de congé</text></g></g><g transform="translate(10,-254) scale(1,1)"><path d="M 7 1175 C 7 1161.7451648 101.2440496 1151 217.5 1151 C 333.7559504 1151 428 1161.7451648 428 1175 C 428 1188.2548352 333.7559504 1199 217.5 1199 C 101.2440496 1199 7 1188.2548352 7 1175 Z" fill="#C0C0C0" opacity="0.2" stroke="none"/></g><g transform="translate(10,-254) scale(1,1)"><path d="M 0 1168 C 0 1154.7451648 94.2440496 1144 210.5 1144 C 326.7559504 1144 421 1154.7451648 421 1168 C 421 1181.2548352 326.7559504 1192 210.5 1192 C 94.2440496 1192 0 1181.2548352 0 1168 Z" fill="#ffffff" stroke="none"/></g><g transform="translate(10,-254) scale(1,1)"><path d="M 0 1168 C 0 1154.7451648 94.2440496 1144 210.5 1144 C 326.7559504 1144 421 1154.7451648 421 1168 C 421 1181.2548352 326.7559504 1192 210.5 1192 C 94.2440496 1192 0 1181.2548352 0 1168 Z" fill="none" stroke="#000000" stroke-miterlimit="10"/></g><g transform="translate(10,-254) scale(1,1)"><g><path fill="none" stroke="none"/><text fill="#000000" font-family="Arial" font-size="13px" font-style="normal" font-weight="bold" stroke="none" text-decoration="none" x="66.024169921875" y="1173.5">ajouter des employés à une politique de congé</text></g></g><g transform="translate(10,-254) scale(1,1)"><path d="M 295 1267 C 295 1251.5360256 407.82423040000003 1239 547 1239 C 686.1757696 1239 799 1251.5360256 799 1267 C 799 1282.4639744 686.1757696 1295 547 1295 C 407.82423040000003 1295 295 1282.4639744 295 1267 Z" fill="#C0C0C0" opacity="0.2" stroke="none"/></g><g transform="translate(10,-254) scale(1,1)"><path d="M 288 1260 C 288 1244.5360256 400.82423040000003 1232 540 1232 C 679.1757696 1232 792 1244.5360256 792 1260 C 792 1275.4639744 679.1757696 1288 540 1288 C 400.82423040000003 1288 288 1275.4639744 288 1260 Z" fill="#ffffff" stroke="none"/></g><g transform="translate(10,-254) scale(1,1)"><path d="M 288 1260 C 288 1244.5360256 400.82423040000003 1232 540 1232 C 679.1757696 1232 792 1244.5360256 792 1260 C 792 1275.4639744 679.1757696 1288 540 1288 C 400.82423040000003 1288 288 1275.4639744 288 1260 Z" fill="none" stroke="#000000" stroke-miterlimit="10"/></g><g transform="translate(10,-254) scale(1,1)"><g><path fill="none" stroke="none"/><text fill="#000000" font-family="Arial" font-size="13px" font-style="normal" font-weight="bold" stroke="none" text-decoration="none" x="366.261474609375" y="1265.5">transférer un employé vers une autre politique de congé</text></g></g><g transform="translate(10,-254) scale(1,1)"><path d="M 220 1143 L 285 985" fill="none" stroke="#000000" stroke-dasharray="3" stroke-miterlimit="10"/></g><g transform="translate(10,-254) scale(1,1)"><path d="M 285.0265144616226 995.9999680446501 L 285 985 L 277.2405965584054 992.7969005528203" fill="none" stroke="#000000" stroke-miterlimit="10"/></g><g transform="translate(10,-254) scale(1,1)"><g><path fill="none" stroke="none"/><text fill="#000000" font-family="Arial" font-size="13px" font-style="normal" font-weight="normal" stroke="none" text-decoration="none" x="181.5" y="1067">«extend»</text></g></g><g transform="translate(10,-254) scale(1,1)"><path d="M 517 1231 L 324 985" fill="none" stroke="#000000" stroke-dasharray="3" stroke-miterlimit="10"/></g><g transform="translate(10,-254) scale(1,1)"><path d="M 333.5848650017246 990.3972551263317 L 324 985 L 326.96108733985403 995.5939587391001" fill="none" stroke="#000000" stroke-miterlimit="10"/></g><g transform="translate(10,-254) scale(1,1)"><g><path fill="none" stroke="none"/><text fill="#000000" font-family="Arial" font-size="13px" font-style="normal" font-weight="normal" stroke="none" text-decoration="none" x="369.5" y="1131">«extend»</text></g></g><g transform="translate(10,-254) scale(1,1)"><path d="M 854 1055 L 853 969" fill="none" stroke="#000000" stroke-dasharray="3" stroke-miterlimit="10"/></g><g transform="translate(10,-254) scale(1,1)"><path d="M 857.3273958540367 979.1130433165524 L 853 969 L 848.9089294457003 979.2109324608355" fill="none" stroke="#000000" stroke-miterlimit="10"/></g><g transform="translate(10,-254) scale(1,1)"><g><path fill="none" stroke="none"/><text fill="#000000" font-family="Arial" font-size="13px" font-style="normal" font-weight="normal" stroke="none" text-decoration="none" x="792.5" y="995">«extend»</text></g></g><g transform="translate(10,-254) scale(1,1)"><path d="M 892 735 L 750 705" fill="none" stroke="#000000" stroke-miterlimit="10"/></g><g transform="translate(10,-254) scale(1,1)"><path d="M 771.6266459406828 700.9641375944726 L 750 705 L 768.1461336738615 717.438562324093" fill="#FFFFFF" stroke="none"/></g><g transform="translate(10,-254) scale(1,1)"><path d="M 771.6266459406828 700.9641375944726 L 750 705 L 768.1461336738615 717.438562324093 L 771.6266459406828 700.9641375944726" fill="none" stroke="#000000" stroke-miterlimit="10"/></g><g transform="translate(10,-254) scale(1,1)"><path d="M 825 911 L 626 705" fill="none" stroke="#000000" stroke-miterlimit="10"/></g><g transform="translate(10,-254) scale(1,1)"><path d="M 646.1768219853158 713.7690281430088 L 626 705 L 634.0665283842734 725.4678069129477" fill="#FFFFFF" stroke="none"/></g><g transform="translate(10,-254) scale(1,1)"><path d="M 646.1768219853158 713.7690281430088 L 626 705 L 634.0665283842734 725.4678069129477 L 646.1768219853158 713.7690281430088" fill="none" stroke="#000000" stroke-miterlimit="10"/></g><g transform="translate(10,-254) scale(1,1)"><path d="M 439 674 L 167 679" fill="none" stroke="#000000" stroke-miterlimit="10"/></g><g transform="translate(10,-254) scale(1,1)"><path d="M 473 577 L 167 669" fill="none" stroke="#000000" stroke-miterlimit="10"/></g><g transform="translate(10,-254) scale(1,1)"><path d="M 495 1175 C 495 1161.7451648 580.065888 1151 685 1151 C 789.934112 1151 875 1161.7451648 875 1175 C 875 1188.2548352 789.934112 1199 685 1199 C 580.065888 1199 495 1188.2548352 495 1175 Z" fill="#C0C0C0" opacity="0.2" stroke="none"/></g><g transform="translate(10,-254) scale(1,1)"><path d="M 488 1168 C 488 1154.7451648 573.065888 1144 678 1144 C 782.934112 1144 868 1154.7451648 868 1168 C 868 1181.2548352 782.934112 1192 678 1192 C 573.065888 1192 488 1181.2548352 488 1168 Z" fill="#ffffff" stroke="none"/></g><g transform="translate(10,-254) scale(1,1)"><path d="M 488 1168 C 488 1154.7451648 573.065888 1144 678 1144 C 782.934112 1144 868 1154.7451648 868 1168 C 868 1181.2548352 782.934112 1192 678 1192 C 573.065888 1192 488 1181.2548352 488 1168 Z" fill="none" stroke="#000000" stroke-miterlimit="10"/></g><g transform="translate(10,-254) scale(1,1)"><g><path fill="none" stroke="none"/><text fill="#000000" font-family="Arial" font-size="13px" font-style="normal" font-weight="bold" stroke="none" text-decoration="none" x="563.764404296875" y="1173.5">consulter page congés d'un employé</text></g></g><g transform="translate(10,-254) scale(1,1)"><path d="M 634 1143 L 356 985" fill="none" stroke="#000000" stroke-dasharray="3" stroke-miterlimit="10"/></g><g transform="translate(10,-254) scale(1,1)"><path d="M 366.91537743984657 986.3618132565401 L 356 985 L 362.7553900185169 993.6812847953355" fill="none" stroke="#000000" stroke-miterlimit="10"/></g><g transform="translate(10,-254) scale(1,1)"><g><path fill="none" stroke="none"/><text fill="#000000" font-family="Arial" font-size="13px" font-style="normal" font-weight="normal" stroke="none" text-decoration="none" x="472.5" y="1094">«extend»</text></g></g><g transform="translate(10,-254) scale(1,1)"><path d="M 333 919 L 559 705" fill="none" stroke="#000000" stroke-miterlimit="10"/></g><g transform="translate(10,-254) scale(1,1)"><path d="M 550.0299721091544 725.0882702002301 L 559 705 L 538.4526803700603 712.861784531841" fill="#FFFFFF" stroke="none"/></g><g transform="translate(10,-254) scale(1,1)"><path d="M 550.0299721091544 725.0882702002301 L 559 705 L 538.4526803700603 712.861784531841 L 550.0299721091544 725.0882702002301" fill="none" stroke="#000000" stroke-miterlimit="10"/></g><g transform="translate(10,-254) scale(1,1)"><path d="M 130.16252414772728 289.68 C 130.16252414772728 284.886167936 134.04836647267274 281 138.841796875 281 C 143.63522727732726 281 147.52106960227272 284.886167936 147.52106960227272 289.68 C 147.52106960227272 294.473832064 143.63522727732726 298.36 138.841796875 298.36 C 134.04836647267274 298.36 130.16252414772728 294.473832064 130.16252414772728 289.68 Z" fill="#ffffff" stroke="none"/></g><g transform="translate(10,-254) scale(1,1)"><path d="M 130.16252414772728 289.68 C 130.16252414772728 284.886167936 134.04836647267274 281 138.841796875 281 C 143.63522727732726 281 147.52106960227272 284.886167936 147.52106960227272 289.68 C 147.52106960227272 294.473832064 143.63522727732726 298.36 138.841796875 298.36 C 134.04836647267274 298.36 130.16252414772728 294.473832064 130.16252414772728 289.68 Z" fill="none" stroke="#000000" stroke-miterlimit="10"/></g><g transform="translate(10,-254) scale(1,1)"><path d="M 138.841796875 298.36 L 138.841796875 315.64" fill="none" stroke="#000000" stroke-miterlimit="10"/></g><g transform="translate(10,-254) scale(1,1)"><path d="M 129.65197869318183 304.84 L 148.03161505681817 304.84" fill="none" stroke="#000000" stroke-miterlimit="10"/></g><g transform="translate(10,-254) scale(1,1)"><path d="M 138.841796875 315.64 L 126.07816051136365 333" fill="none" stroke="#000000" stroke-miterlimit="10"/></g><g transform="translate(10,-254) scale(1,1)"><path d="M 138.841796875 315.64 L 151.60543323863635 333" fill="none" stroke="#000000" stroke-miterlimit="10"/></g><g transform="translate(10,-254) scale(1,1)"><g><path fill="none" stroke="none"/><text fill="#000000" font-family="Arial" font-size="13px" font-style="normal" font-weight="bold" stroke="none" text-decoration="none" x="111.75" y="352">Employé</text></g></g><g transform="translate(10,-254) scale(1,1)"><path d="M 479 307 C 479 287.1177472 526.2339536 271 584.5 271 C 642.7660464 271 690 287.1177472 690 307 C 690 326.8822528 642.7660464 343 584.5 343 C 526.2339536 343 479 326.8822528 479 307 Z" fill="#C0C0C0" opacity="0.2" stroke="none"/></g><g transform="translate(10,-254) scale(1,1)"><path d="M 472 300 C 472 280.1177472 519.2339536 264 577.5 264 C 635.7660464 264 683 280.1177472 683 300 C 683 319.8822528 635.7660464 336 577.5 336 C 519.2339536 336 472 319.8822528 472 300 Z" fill="#ffffff" stroke="none"/></g><g transform="translate(10,-254) scale(1,1)"><path d="M 472 300 C 472 280.1177472 519.2339536 264 577.5 264 C 635.7660464 264 683 280.1177472 683 300 C 683 319.8822528 635.7660464 336 577.5 336 C 519.2339536 336 472 319.8822528 472 300 Z" fill="none" stroke="#000000" stroke-miterlimit="10"/></g><g transform="translate(10,-254) scale(1,1)"><g><path fill="none" stroke="none"/><text fill="#000000" font-family="Arial" font-size="13px" font-style="normal" font-weight="bold" stroke="none" text-decoration="none" x="515.740478515625" y="305.5">demander un congé</text></g></g><g transform="translate(10,-254) scale(1,1)"><path d="M 479 395 C 479 375.1177472 526.6816688 359 585.5 359 C 644.3183312 359 692 375.1177472 692 395 C 692 414.8822528 644.3183312 431 585.5 431 C 526.6816688 431 479 414.8822528 479 395 Z" fill="#C0C0C0" opacity="0.2" stroke="none"/></g><g transform="translate(10,-254) scale(1,1)"><path d="M 472 388 C 472 368.1177472 519.6816688 352 578.5 352 C 637.3183312 352 685 368.1177472 685 388 C 685 407.8822528 637.3183312 424 578.5 424 C 519.6816688 424 472 407.8822528 472 388 Z" fill="#ffffff" stroke="none"/></g><g transform="translate(10,-254) scale(1,1)"><path d="M 472 388 C 472 368.1177472 519.6816688 352 578.5 352 C 637.3183312 352 685 368.1177472 685 388 C 685 407.8822528 637.3183312 424 578.5 424 C 519.6816688 424 472 407.8822528 472 388 Z" fill="none" stroke="#000000" stroke-miterlimit="10"/></g><g transform="translate(10,-254) scale(1,1)"><g><path fill="none" stroke="none"/><text fill="#000000" font-family="Arial" font-size="13px" font-style="normal" font-weight="bold" stroke="none" text-decoration="none" x="507.70458984375" y="393.5">consulter page congés</text></g></g><g transform="translate(10,-254) scale(1,1)"><path d="M 471 305 L 175 317" fill="none" stroke="#000000" stroke-miterlimit="10"/></g><g transform="translate(10,-254) scale(1,1)"><path d="M 471 371 L 175 325" fill="none" stroke="#000000" stroke-miterlimit="10"/></g><g transform="translate(10,-254) scale(1,1)"><path d="M 135 639 L 138 360" fill="none" stroke="#000000" stroke-miterlimit="10"/></g><g transform="translate(10,-254) scale(1,1)"><path d="M 146.20000933447605 380.4146968362135 L 138 360 L 129.36291163744687 380.23365277495515" fill="#FFFFFF" stroke="none"/></g><g transform="translate(10,-254) scale(1,1)"><path d="M 146.20000933447605 380.4146968362135 L 138 360 L 129.36291163744687 380.23365277495515 L 146.20000933447605 380.4146968362135" fill="none" stroke="#000000" stroke-miterlimit="10"/></g><g transform="translate(10,-254) scale(1,1)"><path d="M 1063 531 C 1063 515.5360256 1091.4299152 503 1126.5 503 C 1161.5700848 503 1190 515.5360256 1190 531 C 1190 546.4639744 1161.5700848 559 1126.5 559 C 1091.4299152 559 1063 546.4639744 1063 531 Z" fill="#C0C0C0" opacity="0.2" stroke="none"/></g><g transform="translate(10,-254) scale(1,1)"><path d="M 1056 524 C 1056 508.5360256 1084.4299152 496 1119.5 496 C 1154.5700848 496 1183 508.5360256 1183 524 C 1183 539.4639744 1154.5700848 552 1119.5 552 C 1084.4299152 552 1056 539.4639744 1056 524 Z" fill="#ffffff" stroke="none"/></g><g transform="translate(10,-254) scale(1,1)"><path d="M 1056 524 C 1056 508.5360256 1084.4299152 496 1119.5 496 C 1154.5700848 496 1183 508.5360256 1183 524 C 1183 539.4639744 1154.5700848 552 1119.5 552 C 1084.4299152 552 1056 539.4639744 1056 524 Z" fill="none" stroke="#000000" stroke-miterlimit="10"/></g><g transform="translate(10,-254) scale(1,1)"><g><path fill="none" stroke="none"/><text fill="#000000" font-family="Arial" font-size="13px" font-style="normal" font-weight="bold" stroke="none" text-decoration="none" x="1078.947998046875" y="529.5">s'authentifier</text></g></g><g transform="translate(10,-254) scale(1,1)"><path d="M 752 535 L 1055 526" fill="none" stroke="#000000" stroke-dasharray="3" stroke-miterlimit="10"/></g><g transform="translate(10,-254) scale(1,1)"><path d="M 1044.9667853317696 530.5093905820196 L 1055 526 L 1044.7168252114293 522.0940665305587" fill="none" stroke="#000000" stroke-miterlimit="10"/></g><g transform="translate(10,-254) scale(1,1)"><g><path fill="none" stroke="none"/><text fill="#000000" font-family="Arial" font-size="13px" font-style="normal" font-weight="normal" stroke="none" text-decoration="none" x="823.5" y="522">«include»</text></g></g><g transform="translate(10,-254) scale(1,1)"><path d="M 711 639 L 1055 542" fill="none" stroke="#000000" stroke-dasharray="3" stroke-miterlimit="10"/></g><g transform="translate(10,-254) scale(1,1)"><path d="M 1046.3611830604514 548.809613930684 L 1055 542 L 1044.0763097729669 540.7065581482649" fill="none" stroke="#000000" stroke-miterlimit="10"/></g><g transform="translate(10,-254) scale(1,1)"><g><path fill="none" stroke="none"/><text fill="#000000" font-family="Arial" font-size="13px" font-style="normal" font-weight="normal" stroke="none" text-decoration="none" x="767.5" y="603">«include»</text></g></g><g transform="translate(10,-254) scale(1,1)"><path d="M 686 415 L 1055 508" fill="none" stroke="#000000" stroke-dasharray="3" stroke-miterlimit="10"/></g><g transform="translate(10,-254) scale(1,1)"><path d="M 1044.1167234363998 509.5982150168824 L 1055 508 L 1046.1742526641178 501.4344700165814" fill="none" stroke="#000000" stroke-miterlimit="10"/></g><g transform="translate(10,-254) scale(1,1)"><g><path fill="none" stroke="none"/><text fill="#000000" font-family="Arial" font-size="13px" font-style="normal" font-weight="normal" stroke="none" text-decoration="none" x="743.5" y="458">«include»</text></g></g><g transform="translate(10,-254) scale(1,1)"><path d="M 667 337 L 1055 498" fill="none" stroke="#000000" stroke-dasharray="3" stroke-miterlimit="10"/></g><g transform="translate(10,-254) scale(1,1)"><path d="M 1044.0000021629398 497.9931018357002 L 1055 498 L 1047.2267046751315 490.21694919762325" fill="none" stroke="#000000" stroke-miterlimit="10"/></g><g transform="translate(10,-254) scale(1,1)"><g><path fill="none" stroke="none"/><text fill="#000000" font-family="Arial" font-size="13px" font-style="normal" font-weight="normal" stroke="none" text-decoration="none" x="800.5" y="385">«include»</text></g></g><g transform="translate(10,-254) scale(1,1)"><path d="M 1367 713 L 1187 740" fill="none" stroke="#000000" stroke-dasharray="3" stroke-miterlimit="10"/></g><g transform="translate(10,-254) scale(1,1)"><path d="M 1196.4257968385398 734.3295190716684 L 1187 740 L 1197.6746803796304 742.655409345606" fill="none" stroke="#000000" stroke-miterlimit="10"/></g><g transform="translate(10,-254) scale(1,1)"><g><path fill="none" stroke="none"/><text fill="#000000" font-family="Arial" font-size="13px" font-style="normal" font-weight="normal" stroke="none" text-decoration="none" x="1256.5" y="720">«extend»</text></g></g><g transform="translate(10,-254) scale(1,1)"><path d="M 1351 783 L 1187 773" fill="none" stroke="#000000" stroke-dasharray="3" stroke-miterlimit="10"/></g><g transform="translate(10,-254) scale(1,1)"><path d="M 1197.400036908596 769.4168125502786 L 1187 773 L 1196.8876327666192 777.820240478698" fill="none" stroke="#000000" stroke-miterlimit="10"/></g><g transform="translate(10,-254) scale(1,1)"><g><path fill="none" stroke="none"/><text fill="#000000" font-family="Arial" font-size="13px" font-style="normal" font-weight="normal" stroke="none" text-decoration="none" x="1279.5" y="771">«extend»</text></g></g><g transform="translate(10,-254) scale(1,1)"><path d="M 1391 887 C 1391 869.3268864 1448.3075456 855 1519 855 C 1589.6924544 855 1647 869.3268864 1647 887 C 1647 904.6731136 1589.6924544 919 1519 919 C 1448.3075456 919 1391 904.6731136 1391 887 Z" fill="#C0C0C0" opacity="0.2" stroke="none"/></g><g transform="translate(10,-254) scale(1,1)"><path d="M 1384 880 C 1384 862.3268864 1441.3075456 848 1512 848 C 1582.6924544 848 1640 862.3268864 1640 880 C 1640 897.6731136 1582.6924544 912 1512 912 C 1441.3075456 912 1384 897.6731136 1384 880 Z" fill="#ffffff" stroke="none"/></g><g transform="translate(10,-254) scale(1,1)"><path d="M 1384 880 C 1384 862.3268864 1441.3075456 848 1512 848 C 1582.6924544 848 1640 862.3268864 1640 880 C 1640 897.6731136 1582.6924544 912 1512 912 C 1441.3075456 912 1384 897.6731136 1384 880 Z" fill="none" stroke="#000000" stroke-miterlimit="10"/></g><g transform="translate(10,-254) scale(1,1)"><g><path fill="none" stroke="none"/><text fill="#000000" font-family="Arial" font-size="13px" font-style="normal" font-weight="bold" stroke="none" text-decoration="none" x="1450.964111328125" y="885.5">ajouter un jour férié</text></g></g><g transform="translate(10,-254) scale(1,1)"><path d="M 1391 1007 C 1391 989.3268864 1448.3075456 975 1519 975 C 1589.6924544 975 1647 989.3268864 1647 1007 C 1647 1024.6731136 1589.6924544 1039 1519 1039 C 1448.3075456 1039 1391 1024.6731136 1391 1007 Z" fill="#C0C0C0" opacity="0.2" stroke="none"/></g><g transform="translate(10,-254) scale(1,1)"><path d="M 1384 1000 C 1384 982.3268864 1441.3075456 968 1512 968 C 1582.6924544 968 1640 982.3268864 1640 1000 C 1640 1017.6731136 1582.6924544 1032 1512 1032 C 1441.3075456 1032 1384 1017.6731136 1384 1000 Z" fill="#ffffff" stroke="none"/></g><g transform="translate(10,-254) scale(1,1)"><path d="M 1384 1000 C 1384 982.3268864 1441.3075456 968 1512 968 C 1582.6924544 968 1640 982.3268864 1640 1000 C 1640 1017.6731136 1582.6924544 1032 1512 1032 C 1441.3075456 1032 1384 1017.6731136 1384 1000 Z" fill="none" stroke="#000000" stroke-miterlimit="10"/></g><g transform="translate(10,-254) scale(1,1)"><g><path fill="none" stroke="none"/><text fill="#000000" font-family="Arial" font-size="13px" font-style="normal" font-weight="bold" stroke="none" text-decoration="none" x="1440.84912109375" y="1005.5">supprimer un jour férié</text></g></g><g transform="translate(10,-254) scale(1,1)"><path d="M 1383 849 L 1150 793" fill="none" stroke="#000000" stroke-dasharray="3" stroke-miterlimit="10"/></g><g transform="translate(10,-254) scale(1,1)"><path d="M 1160.8650018669282 791.2819387578884 L 1150 793 L 1158.8975692525003 799.4678637429186" fill="none" stroke="#000000" stroke-miterlimit="10"/></g><g transform="translate(10,-254) scale(1,1)"><g><path fill="none" stroke="none"/><text fill="#000000" font-family="Arial" font-size="13px" font-style="normal" font-weight="normal" stroke="none" text-decoration="none" x="1238.5" y="844">«extend»</text></g></g><g transform="translate(10,-254) scale(1,1)"><path d="M 1444 967 L 1088 793" fill="none" stroke="#000000" stroke-dasharray="3" stroke-miterlimit="10"/></g><g transform="translate(10,-254) scale(1,1)"><path d="M 1098.9789196513639 793.6806785503413 L 1088 793 L 1095.2819561168271 801.2445809543362" fill="none" stroke="#000000" stroke-miterlimit="10"/></g><g transform="translate(10,-254) scale(1,1)"><g><path fill="none" stroke="none"/><text fill="#000000" font-family="Arial" font-size="13px" font-style="normal" font-weight="normal" stroke="none" text-decoration="none" x="1225.5" y="899">«extend»</text></g></g></g></svg>