<?xml version="1.0" encoding="UTF-8" standalone="no"?><svg xmlns="http://www.w3.org/2000/svg" xmlns:xlink="http://www.w3.org/1999/xlink" height="1260" version="1.1" width="908"><defs/><g><g transform="translate(-14,2) scale(1,1)"><path d="M 24 8 L 912 8 L 912 1248 L 24 1248 L 24 8" fill="none" stroke="#000000" stroke-miterlimit="10"/></g><g transform="translate(-14,2) scale(1,1)"><path d="M 24 8 L 24 30 L 202.576171875 30 L 213.576171875 19 L 213.576171875 8 L 24 8" fill="#ffffff" stroke="none"/></g><g transform="translate(-14,2) scale(1,1)"><path d="M 24 8 L 24 30 L 202.576171875 30 L 213.576171875 19 L 213.576171875 8 L 24 8 L 24 8" fill="none" stroke="#000000" stroke-miterlimit="10"/></g><g transform="translate(-14,2) scale(1,1)"><g><path fill="none" stroke="none"/><text fill="#000000" font-family="Arial" font-size="13px" font-style="normal" font-weight="normal" stroke="none" text-decoration="none" x="48.72998046875" y="24">Réinitialiser mot de passe</text></g></g><g transform="translate(-14,2) scale(1,1)"><g><path fill="none" stroke="none"/><text fill="#000000" font-family="Arial" font-size="13px" font-style="normal" font-weight="bold" stroke="none" text-decoration="none" x="28.279541015625" y="24">sd</text></g></g><g transform="translate(-14,2) scale(1,1)"><path d="M 98.8631454190341 47.3 C 98.8631454190341 43.82060576 101.74154714121592 41 105.292236328125 41 C 108.84292551503408 41 111.7213272372159 43.82060576 111.7213272372159 47.3 C 111.7213272372159 50.779394239999995 108.84292551503408 53.6 105.292236328125 53.6 C 101.74154714121592 53.6 98.8631454190341 50.779394239999995 98.8631454190341 47.3 Z" fill="#ffffff" stroke="none"/></g><g transform="translate(-14,2) scale(1,1)"><path d="M 98.8631454190341 47.3 C 98.8631454190341 43.82060576 101.74154714121592 41 105.292236328125 41 C 108.84292551503408 41 111.7213272372159 43.82060576 111.7213272372159 47.3 C 111.7213272372159 50.779394239999995 108.84292551503408 53.6 105.292236328125 53.6 C 101.74154714121592 53.6 98.8631454190341 50.779394239999995 98.8631454190341 47.3 Z" fill="none" stroke="#000000" stroke-miterlimit="10"/></g><g transform="translate(-14,2) scale(1,1)"><path d="M 105.292236328125 53.6 L 105.292236328125 66.4" fill="none" stroke="#000000" stroke-miterlimit="10"/></g><g transform="translate(-14,2) scale(1,1)"><path d="M 98.48496360085227 58.4 L 112.09950905539773 58.4" fill="none" stroke="#000000" stroke-miterlimit="10"/></g><g transform="translate(-14,2) scale(1,1)"><path d="M 105.292236328125 66.4 L 95.83769087357955 79" fill="none" stroke="#000000" stroke-miterlimit="10"/></g><g transform="translate(-14,2) scale(1,1)"><path d="M 105.292236328125 66.4 L 114.74678178267045 79" fill="none" stroke="#000000" stroke-miterlimit="10"/></g><g transform="translate(-14,2) scale(1,1)"><g><path fill="none" stroke="none"/><text fill="#000000" font-family="Arial" font-size="13px" font-style="normal" font-weight="bold" stroke="none" text-decoration="none" x="60.5" y="98">Lifeline1: User</text></g></g><g transform="translate(-14,2) scale(1,1)"><path d="M 106.5 105 L 106.5 1248" fill="none" stroke="#000000" stroke-dasharray="3" stroke-miterlimit="10"/></g><g transform="translate(-14,2) scale(1,1)"><rect fill="#C0C0C0" height="39" opacity="0.2" stroke="none" width="212.603515625" x="191" y="47"/></g><g transform="translate(-14,2) scale(1,1)"><rect fill="#ffffff" height="39" stroke="none" width="212.603515625" x="184" y="40"/></g><g transform="translate(-14,2) scale(1,1)"><path d="M 184 40 L 396.603515625 40 L 396.603515625 79 L 184 79 L 184 40 Z Z" fill="none" stroke="#000000" stroke-miterlimit="10"/></g><g transform="translate(-14,2) scale(1,1)"><g><path fill="none" stroke="none"/><text fill="#000000" font-family="Arial" font-size="13px" font-style="normal" font-weight="bold" stroke="none" text-decoration="none" x="197.114990234375" y="58">Interface: Mot de passe oublié</text></g></g><g transform="translate(-14,2) scale(1,1)"><path d="M 291.5 80 L 291.5 1248" fill="none" stroke="#000000" stroke-dasharray="3" stroke-miterlimit="10"/></g><g transform="translate(-14,2) scale(1,1)"><rect fill="#C0C0C0" height="39" opacity="0.2" stroke="none" width="206.0654296875" x="431" y="47"/></g><g transform="translate(-14,2) scale(1,1)"><rect fill="#ffffff" height="39" stroke="none" width="206.0654296875" x="424" y="40"/></g><g transform="translate(-14,2) scale(1,1)"><path d="M 424 40 L 630.0654296875 40 L 630.0654296875 79 L 424 79 L 424 40 Z Z" fill="none" stroke="#000000" stroke-miterlimit="10"/></g><g transform="translate(-14,2) scale(1,1)"><g><path fill="none" stroke="none"/><text fill="#000000" font-family="Arial" font-size="13px" font-style="normal" font-weight="bold" stroke="none" text-decoration="none" x="433.5" y="58">Controller: Mot de pase oublié</text></g></g><g transform="translate(-14,2) scale(1,1)"><path d="M 528.5 80 L 528.5 1248" fill="none" stroke="#000000" stroke-dasharray="3" stroke-miterlimit="10"/></g><g transform="translate(-14,2) scale(1,1)"><rect fill="#C0C0C0" height="39" opacity="0.2" stroke="none" width="71.736328125" x="719" y="47"/></g><g transform="translate(-14,2) scale(1,1)"><rect fill="#ffffff" height="39" stroke="none" width="71.736328125" x="712" y="40"/></g><g transform="translate(-14,2) scale(1,1)"><path d="M 712 40 L 783.736328125 40 L 783.736328125 79 L 712 79 L 712 40 Z Z" fill="none" stroke="#000000" stroke-miterlimit="10"/></g><g transform="translate(-14,2) scale(1,1)"><g><path fill="none" stroke="none"/><text fill="#000000" font-family="Arial" font-size="13px" font-style="normal" font-weight="bold" stroke="none" text-decoration="none" x="729.799560546875" y="58">Users</text></g></g><g transform="translate(-14,2) scale(1,1)"><path d="M 748.5 80 L 748.5 1248" fill="none" stroke="#000000" stroke-dasharray="3" stroke-miterlimit="10"/></g><g transform="translate(-14,2) scale(1,1)"><rect fill="#C0C0C0" height="39" opacity="0.2" stroke="none" width="71.736328125" x="815" y="47"/></g><g transform="translate(-14,2) scale(1,1)"><rect fill="#ffffff" height="39" stroke="none" width="71.736328125" x="808" y="40"/></g><g transform="translate(-14,2) scale(1,1)"><path d="M 808 40 L 879.736328125 40 L 879.736328125 79 L 808 79 L 808 40 Z Z" fill="none" stroke="#000000" stroke-miterlimit="10"/></g><g transform="translate(-14,2) scale(1,1)"><g><path fill="none" stroke="none"/><text fill="#000000" font-family="Arial" font-size="13px" font-style="normal" font-weight="bold" stroke="none" text-decoration="none" x="824.371337890625" y="58">FPOtp</text></g></g><g transform="translate(-14,2) scale(1,1)"><path d="M 844.5 80 L 844.5 1248" fill="none" stroke="#000000" stroke-dasharray="3" stroke-miterlimit="10"/></g><g transform="translate(-14,2) scale(1,1)"><path d="M 106 138 L 284 138" fill="none" stroke="#000000" stroke-miterlimit="10"/></g><g transform="translate(-14,2) scale(1,1)"><path d="M 273.83732514237585 142.209517756016 L 284 138 L 273.83732514237585 133.790482243984" fill="#000000" stroke="none"/></g><g transform="translate(-14,2) scale(1,1)"><path d="M 273.83732514237585 142.209517756016 L 284 138 L 273.83732514237585 133.790482243984 L 273.83732514237585 142.209517756016" fill="none" stroke="#000000" stroke-miterlimit="10"/></g><g transform="translate(-14,2) scale(1,1)"><g><path fill="none" stroke="none"/><text fill="#000000" font-family="Arial" font-size="13px" font-style="normal" font-weight="normal" stroke="none" text-decoration="none" x="111.5" y="133">1 : saisirEmailorCin(emailorcin)</text></g></g><g transform="translate(-14,2) scale(1,1)"><rect fill="#ffffff" height="28" stroke="none" width="13" x="284" y="138"/></g><g transform="translate(-14,2) scale(1,1)"><path d="M 284 138 L 297 138 L 297 166 L 284 166 L 284 138 Z Z" fill="none" stroke="#000000" stroke-miterlimit="10"/></g><g transform="translate(-14,2) scale(1,1)"><path d="M 106 184 L 284 184" fill="none" stroke="#000000" stroke-miterlimit="10"/></g><g transform="translate(-14,2) scale(1,1)"><path d="M 273.83732514237585 188.209517756016 L 284 184 L 273.83732514237585 179.790482243984" fill="#000000" stroke="none"/></g><g transform="translate(-14,2) scale(1,1)"><path d="M 273.83732514237585 188.209517756016 L 284 184 L 273.83732514237585 179.790482243984 L 273.83732514237585 188.209517756016" fill="none" stroke="#000000" stroke-miterlimit="10"/></g><g transform="translate(-14,2) scale(1,1)"><g><path fill="none" stroke="none"/><text fill="#000000" font-family="Arial" font-size="13px" font-style="normal" font-weight="normal" stroke="none" text-decoration="none" x="122.5" y="179">2 : cliqueButtonsendOTP</text></g></g><g transform="translate(-14,2) scale(1,1)"><rect fill="#ffffff" height="32" stroke="none" width="13" x="284" y="184"/></g><g transform="translate(-14,2) scale(1,1)"><path d="M 284 184 L 297 184 L 297 216 L 284 216 L 284 184 Z Z" fill="none" stroke="#000000" stroke-miterlimit="10"/></g><g transform="translate(-14,2) scale(1,1)"><path d="M 297 200 L 521 200" fill="none" stroke="#000000" stroke-miterlimit="10"/></g><g transform="translate(-14,2) scale(1,1)"><path d="M 510.83732514237585 204.209517756016 L 521 200 L 510.83732514237585 195.790482243984" fill="#000000" stroke="none"/></g><g transform="translate(-14,2) scale(1,1)"><path d="M 510.83732514237585 204.209517756016 L 521 200 L 510.83732514237585 195.790482243984 L 510.83732514237585 204.209517756016" fill="none" stroke="#000000" stroke-miterlimit="10"/></g><g transform="translate(-14,2) scale(1,1)"><g><path fill="none" stroke="none"/><text fill="#000000" font-family="Arial" font-size="13px" font-style="normal" font-weight="normal" stroke="none" text-decoration="none" x="323.5" y="195">3 : resetPassword(emailorcin)</text></g></g><g transform="translate(-14,2) scale(1,1)"><rect fill="#ffffff" height="272" stroke="none" width="13" x="521" y="200"/></g><g transform="translate(-14,2) scale(1,1)"><path d="M 521 200 L 534 200 L 534 472 L 521 472 L 521 200 Z Z" fill="none" stroke="#000000" stroke-miterlimit="10"/></g><g transform="translate(-14,2) scale(1,1)"><path d="M 534 224 L 741 224" fill="none" stroke="#000000" stroke-miterlimit="10"/></g><g transform="translate(-14,2) scale(1,1)"><path d="M 730.8373251423759 228.209517756016 L 741 224 L 730.8373251423758 219.790482243984" fill="#000000" stroke="none"/></g><g transform="translate(-14,2) scale(1,1)"><path d="M 730.8373251423759 228.209517756016 L 741 224 L 730.8373251423758 219.790482243984 L 730.8373251423759 228.209517756016" fill="none" stroke="#000000" stroke-miterlimit="10"/></g><g transform="translate(-14,2) scale(1,1)"><g><path fill="none" stroke="none"/><text fill="#000000" font-family="Arial" font-size="13px" font-style="normal" font-weight="normal" stroke="none" text-decoration="none" x="534.5" y="219">4 : getUserByEmailorCin(emailorcin)</text></g></g><g transform="translate(-14,2) scale(1,1)"><rect fill="#ffffff" height="136" stroke="none" width="13" x="741" y="224"/></g><g transform="translate(-14,2) scale(1,1)"><path d="M 741 224 L 754 224 L 754 360 L 741 360 L 741 224 Z Z" fill="none" stroke="#000000" stroke-miterlimit="10"/></g><g transform="translate(-14,2) scale(1,1)"><path d="M 741 272 L 534 272" fill="none" stroke="#000000" stroke-dasharray="3" stroke-miterlimit="10"/></g><g transform="translate(-14,2) scale(1,1)"><path d="M 544.1626748576241 267.790482243984 L 534 272 L 544.1626748576241 276.209517756016" fill="none" stroke="#000000" stroke-miterlimit="10"/></g><g transform="translate(-14,2) scale(1,1)"><g><path fill="none" stroke="none"/><text fill="#000000" font-family="Arial" font-size="13px" font-style="normal" font-weight="normal" stroke="none" text-decoration="none" x="595.5" y="287">5 : return(null)</text></g></g><g transform="translate(-14,2) scale(1,1)"><path d="M 521 288 L 291 288" fill="none" stroke="#000000" stroke-dasharray="3" stroke-miterlimit="10"/></g><g transform="translate(-14,2) scale(1,1)"><path d="M 301.16267485762415 283.790482243984 L 291 288 L 301.16267485762415 292.209517756016" fill="none" stroke="#000000" stroke-miterlimit="10"/></g><g transform="translate(-14,2) scale(1,1)"><g><path fill="none" stroke="none"/><text fill="#000000" font-family="Arial" font-size="13px" font-style="normal" font-weight="normal" stroke="none" text-decoration="none" x="310.5" y="303">6 : Message(user does not exist)</text></g></g><g transform="translate(-14,2) scale(1,1)"><path d="M 741 344 L 534 344" fill="none" stroke="#000000" stroke-dasharray="3" stroke-miterlimit="10"/></g><g transform="translate(-14,2) scale(1,1)"><path d="M 544.1626748576241 339.790482243984 L 534 344 L 544.1626748576241 348.209517756016" fill="none" stroke="#000000" stroke-miterlimit="10"/></g><g transform="translate(-14,2) scale(1,1)"><g><path fill="none" stroke="none"/><text fill="#000000" font-family="Arial" font-size="13px" font-style="normal" font-weight="normal" stroke="none" text-decoration="none" x="593.5" y="359">7 : return(user)</text></g></g><g transform="translate(-14,2) scale(1,1)"><path d="M 534 408 L 837 408" fill="none" stroke="#000000" stroke-miterlimit="10"/></g><g transform="translate(-14,2) scale(1,1)"><path d="M 826.8373251423759 412.209517756016 L 837 408 L 826.8373251423758 403.790482243984" fill="#000000" stroke="none"/></g><g transform="translate(-14,2) scale(1,1)"><path d="M 826.8373251423759 412.209517756016 L 837 408 L 826.8373251423758 403.790482243984 L 826.8373251423759 412.209517756016" fill="none" stroke="#000000" stroke-miterlimit="10"/></g><g transform="translate(-14,2) scale(1,1)"><g><path fill="none" stroke="none"/><text fill="#000000" font-family="Arial" font-size="13px" font-style="normal" font-weight="normal" stroke="none" text-decoration="none" x="622.5" y="403">8 : créationOTP(user)</text></g></g><g transform="translate(-14,2) scale(1,1)"><rect fill="#ffffff" height="56" stroke="none" width="13" x="837" y="408"/></g><g transform="translate(-14,2) scale(1,1)"><path d="M 837 408 L 850 408 L 850 464 L 837 464 L 837 408 Z Z" fill="none" stroke="#000000" stroke-miterlimit="10"/></g><g transform="translate(-14,2) scale(1,1)"><path d="M 837 444 L 534 444" fill="none" stroke="#000000" stroke-dasharray="3" stroke-miterlimit="10"/></g><g transform="translate(-14,2) scale(1,1)"><path d="M 544.1626748576241 439.790482243984 L 534 444 L 544.1626748576241 448.209517756016" fill="none" stroke="#000000" stroke-miterlimit="10"/></g><g transform="translate(-14,2) scale(1,1)"><g><path fill="none" stroke="none"/><text fill="#000000" font-family="Arial" font-size="13px" font-style="normal" font-weight="normal" stroke="none" text-decoration="none" x="624.5" y="459">9 : return(OTPCode)</text></g></g><g transform="translate(-14,2) scale(1,1)"><path d="M 534 464 L 564 464 L 564 484 L 534 484" fill="none" stroke="#000000" stroke-miterlimit="10"/></g><g transform="translate(-14,2) scale(1,1)"><path d="M 544.1626748576241 479.790482243984 L 534 484 L 544.1626748576241 488.209517756016" fill="#000000" stroke="none"/></g><g transform="translate(-14,2) scale(1,1)"><path d="M 544.1626748576241 479.790482243984 L 534 484 L 544.1626748576241 488.209517756016 L 544.1626748576241 479.790482243984" fill="none" stroke="#000000" stroke-miterlimit="10"/></g><g transform="translate(-14,2) scale(1,1)"><g><path fill="none" stroke="none"/><text fill="#000000" font-family="Arial" font-size="13px" font-style="normal" font-weight="normal" stroke="none" text-decoration="none" x="565.5" y="483">10 : envoieEmail(user,OTPCode)</text></g></g><g transform="translate(-14,2) scale(1,1)"><rect fill="#ffffff" height="28" stroke="none" width="13" x="521" y="484"/></g><g transform="translate(-14,2) scale(1,1)"><path d="M 521 484 L 534 484 L 534 512 L 521 512 L 521 484 Z Z" fill="none" stroke="#000000" stroke-miterlimit="10"/></g><g transform="translate(-14,2) scale(1,1)"><path d="M 521 504 L 291 504" fill="none" stroke="#000000" stroke-dasharray="3" stroke-miterlimit="10"/></g><g transform="translate(-14,2) scale(1,1)"><path d="M 301.16267485762415 499.790482243984 L 291 504 L 301.16267485762415 508.209517756016" fill="none" stroke="#000000" stroke-miterlimit="10"/></g><g transform="translate(-14,2) scale(1,1)"><g><path fill="none" stroke="none"/><text fill="#000000" font-family="Arial" font-size="13px" font-style="normal" font-weight="normal" stroke="none" text-decoration="none" x="294.5" y="519">11 : Message(an otp sent to your mail)</text></g></g><g transform="translate(-14,2) scale(1,1)"><path d="M 291 528 L 321 528 L 321 548 L 297 548" fill="none" stroke="#000000" stroke-miterlimit="10"/></g><g transform="translate(-14,2) scale(1,1)"><path d="M 307.16267485762415 543.790482243984 L 297 548 L 307.16267485762415 552.209517756016" fill="#000000" stroke="none"/></g><g transform="translate(-14,2) scale(1,1)"><path d="M 307.16267485762415 543.790482243984 L 297 548 L 307.16267485762415 552.209517756016 L 307.16267485762415 543.790482243984" fill="none" stroke="#000000" stroke-miterlimit="10"/></g><g transform="translate(-14,2) scale(1,1)"><g><path fill="none" stroke="none"/><text fill="#000000" font-family="Arial" font-size="13px" font-style="normal" font-weight="normal" stroke="none" text-decoration="none" x="326.5" y="547">12 : chargerInterface</text></g></g><g transform="translate(-14,2) scale(1,1)"><rect fill="#ffffff" height="28" stroke="none" width="13" x="284" y="548"/></g><g transform="translate(-14,2) scale(1,1)"><path d="M 284 548 L 297 548 L 297 576 L 284 576 L 284 548 Z Z" fill="none" stroke="#000000" stroke-miterlimit="10"/></g><g transform="translate(-14,2) scale(1,1)"><path d="M 106 592 L 284 592" fill="none" stroke="#000000" stroke-miterlimit="10"/></g><g transform="translate(-14,2) scale(1,1)"><path d="M 273.83732514237585 596.209517756016 L 284 592 L 273.83732514237585 587.790482243984" fill="#000000" stroke="none"/></g><g transform="translate(-14,2) scale(1,1)"><path d="M 273.83732514237585 596.209517756016 L 284 592 L 273.83732514237585 587.790482243984 L 273.83732514237585 596.209517756016" fill="none" stroke="#000000" stroke-miterlimit="10"/></g><g transform="translate(-14,2) scale(1,1)"><g><path fill="none" stroke="none"/><text fill="#000000" font-family="Arial" font-size="13px" font-style="normal" font-weight="normal" stroke="none" text-decoration="none" x="127.5" y="577">13 : saisirOTP(code)</text></g></g><g transform="translate(-14,2) scale(1,1)"><rect fill="#ffffff" height="28" stroke="none" width="13" x="284" y="592"/></g><g transform="translate(-14,2) scale(1,1)"><path d="M 284 592 L 297 592 L 297 620 L 284 620 L 284 592 Z Z" fill="none" stroke="#000000" stroke-miterlimit="10"/></g><g transform="translate(-14,2) scale(1,1)"><path d="M 297 600 L 521 600" fill="none" stroke="#000000" stroke-miterlimit="10"/></g><g transform="translate(-14,2) scale(1,1)"><path d="M 510.83732514237585 604.209517756016 L 521 600 L 510.83732514237585 595.790482243984" fill="#000000" stroke="none"/></g><g transform="translate(-14,2) scale(1,1)"><path d="M 510.83732514237585 604.209517756016 L 521 600 L 510.83732514237585 595.790482243984 L 510.83732514237585 604.209517756016" fill="none" stroke="#000000" stroke-miterlimit="10"/></g><g transform="translate(-14,2) scale(1,1)"><g><path fill="none" stroke="none"/><text fill="#000000" font-family="Arial" font-size="13px" font-style="normal" font-weight="normal" stroke="none" text-decoration="none" x="343.5" y="594">14 : verifierOTP(code)</text></g></g><g transform="translate(-14,2) scale(1,1)"><rect fill="#ffffff" height="28" stroke="none" width="13" x="521" y="600"/></g><g transform="translate(-14,2) scale(1,1)"><path d="M 521 600 L 534 600 L 534 628 L 521 628 L 521 600 Z Z" fill="none" stroke="#000000" stroke-miterlimit="10"/></g><g transform="translate(-14,2) scale(1,1)"><path d="M 534 624 L 564 624 L 564 644 L 534 644" fill="none" stroke="#000000" stroke-miterlimit="10"/></g><g transform="translate(-14,2) scale(1,1)"><path d="M 544.1626748576241 639.790482243984 L 534 644 L 544.1626748576241 648.209517756016" fill="#000000" stroke="none"/></g><g transform="translate(-14,2) scale(1,1)"><path d="M 544.1626748576241 639.790482243984 L 534 644 L 544.1626748576241 648.209517756016 L 544.1626748576241 639.790482243984" fill="none" stroke="#000000" stroke-miterlimit="10"/></g><g transform="translate(-14,2) scale(1,1)"><g><path fill="none" stroke="none"/><text fill="#000000" font-family="Arial" font-size="13px" font-style="normal" font-weight="normal" stroke="none" text-decoration="none" x="583.5" y="638">15 : verification(code,OTPCode)</text></g></g><g transform="translate(-14,2) scale(1,1)"><rect fill="#ffffff" height="132" stroke="none" width="13" x="521" y="644"/></g><g transform="translate(-14,2) scale(1,1)"><path d="M 521 644 L 534 644 L 534 776 L 521 776 L 521 644 Z Z" fill="none" stroke="#000000" stroke-miterlimit="10"/></g><g transform="translate(-14,2) scale(1,1)"><path d="M 521 696 L 291 696" fill="none" stroke="#000000" stroke-dasharray="3" stroke-miterlimit="10"/></g><g transform="translate(-14,2) scale(1,1)"><path d="M 301.16267485762415 691.790482243984 L 291 696 L 301.16267485762415 700.209517756016" fill="none" stroke="#000000" stroke-miterlimit="10"/></g><g transform="translate(-14,2) scale(1,1)"><g><path fill="none" stroke="none"/><text fill="#000000" font-family="Arial" font-size="13px" font-style="normal" font-weight="normal" stroke="none" text-decoration="none" x="318.5" y="715">16 : Message(Invalid Code)</text></g></g><g transform="translate(-14,2) scale(1,1)"><path d="M 521 760 L 291 760" fill="none" stroke="#000000" stroke-dasharray="3" stroke-miterlimit="10"/></g><g transform="translate(-14,2) scale(1,1)"><path d="M 301.16267485762415 755.790482243984 L 291 760 L 301.16267485762415 764.209517756016" fill="none" stroke="#000000" stroke-miterlimit="10"/></g><g transform="translate(-14,2) scale(1,1)"><g><path fill="none" stroke="none"/><text fill="#000000" font-family="Arial" font-size="13px" font-style="normal" font-weight="normal" stroke="none" text-decoration="none" x="344.5" y="775">17 : Message(Valide)</text></g></g><g transform="translate(-14,2) scale(1,1)"><path d="M 291 800 L 321 800 L 321 820 L 297 820" fill="none" stroke="#000000" stroke-miterlimit="10"/></g><g transform="translate(-14,2) scale(1,1)"><path d="M 307.16267485762415 815.790482243984 L 297 820 L 307.16267485762415 824.209517756016" fill="#000000" stroke="none"/></g><g transform="translate(-14,2) scale(1,1)"><path d="M 307.16267485762415 815.790482243984 L 297 820 L 307.16267485762415 824.209517756016 L 307.16267485762415 815.790482243984" fill="none" stroke="#000000" stroke-miterlimit="10"/></g><g transform="translate(-14,2) scale(1,1)"><g><path fill="none" stroke="none"/><text fill="#000000" font-family="Arial" font-size="13px" font-style="normal" font-weight="normal" stroke="none" text-decoration="none" x="334.5" y="819">18 : chargerInterface</text></g></g><g transform="translate(-14,2) scale(1,1)"><rect fill="#ffffff" height="28" stroke="none" width="13" x="284" y="820"/></g><g transform="translate(-14,2) scale(1,1)"><path d="M 284 820 L 297 820 L 297 848 L 284 848 L 284 820 Z Z" fill="none" stroke="#000000" stroke-miterlimit="10"/></g><g transform="translate(-14,2) scale(1,1)"><path d="M 106 880 L 284 880" fill="none" stroke="#000000" stroke-miterlimit="10"/></g><g transform="translate(-14,2) scale(1,1)"><path d="M 273.83732514237585 884.209517756016 L 284 880 L 273.83732514237585 875.790482243984" fill="#000000" stroke="none"/></g><g transform="translate(-14,2) scale(1,1)"><path d="M 273.83732514237585 884.209517756016 L 284 880 L 273.83732514237585 875.790482243984 L 273.83732514237585 884.209517756016" fill="none" stroke="#000000" stroke-miterlimit="10"/></g><g transform="translate(-14,2) scale(1,1)"><g><path fill="none" stroke="none"/><text fill="#000000" font-family="Arial" font-size="13px" font-style="normal" font-weight="normal" stroke="none" text-decoration="none" x="79.5" y="866">19 : saisirNouveauPassword(password)</text></g></g><g transform="translate(-14,2) scale(1,1)"><rect fill="#ffffff" height="28" stroke="none" width="13" x="284" y="880"/></g><g transform="translate(-14,2) scale(1,1)"><path d="M 284 880 L 297 880 L 297 908 L 284 908 L 284 880 Z Z" fill="none" stroke="#000000" stroke-miterlimit="10"/></g><g transform="translate(-14,2) scale(1,1)"><path d="M 106 928 L 284 928" fill="none" stroke="#000000" stroke-miterlimit="10"/></g><g transform="translate(-14,2) scale(1,1)"><path d="M 273.83732514237585 932.209517756016 L 284 928 L 273.83732514237585 923.790482243984" fill="#000000" stroke="none"/></g><g transform="translate(-14,2) scale(1,1)"><path d="M 273.83732514237585 932.209517756016 L 284 928 L 273.83732514237585 923.790482243984 L 273.83732514237585 932.209517756016" fill="none" stroke="#000000" stroke-miterlimit="10"/></g><g transform="translate(-14,2) scale(1,1)"><g><path fill="none" stroke="none"/><text fill="#000000" font-family="Arial" font-size="13px" font-style="normal" font-weight="normal" stroke="none" text-decoration="none" x="140.5" y="923">20 : cliquerConfirm</text></g></g><g transform="translate(-14,2) scale(1,1)"><rect fill="#ffffff" height="28" stroke="none" width="13" x="284" y="928"/></g><g transform="translate(-14,2) scale(1,1)"><path d="M 284 928 L 297 928 L 297 956 L 284 956 L 284 928 Z Z" fill="none" stroke="#000000" stroke-miterlimit="10"/></g><g transform="translate(-14,2) scale(1,1)"><path d="M 291 992 L 521 992" fill="none" stroke="#000000" stroke-miterlimit="10"/></g><g transform="translate(-14,2) scale(1,1)"><path d="M 510.83732514237585 996.209517756016 L 521 992 L 510.83732514237585 987.790482243984" fill="#000000" stroke="none"/></g><g transform="translate(-14,2) scale(1,1)"><path d="M 510.83732514237585 996.209517756016 L 521 992 L 510.83732514237585 987.790482243984 L 510.83732514237585 996.209517756016" fill="none" stroke="#000000" stroke-miterlimit="10"/></g><g transform="translate(-14,2) scale(1,1)"><g><path fill="none" stroke="none"/><text fill="#000000" font-family="Arial" font-size="13px" font-style="normal" font-weight="normal" stroke="none" text-decoration="none" x="286.5" y="978">21 : ModificationPassword(password)</text></g></g><g transform="translate(-14,2) scale(1,1)"><rect fill="#ffffff" height="48" stroke="none" width="13" x="521" y="992"/></g><g transform="translate(-14,2) scale(1,1)"><path d="M 521 992 L 534 992 L 534 1040 L 521 1040 L 521 992 Z Z" fill="none" stroke="#000000" stroke-miterlimit="10"/></g><g transform="translate(-14,2) scale(1,1)"><path d="M 528 1048 L 558 1048 L 558 1068 L 534 1068" fill="none" stroke="#000000" stroke-miterlimit="10"/></g><g transform="translate(-14,2) scale(1,1)"><path d="M 544.1626748576241 1063.7904822439841 L 534 1068 L 544.1626748576241 1072.2095177560159" fill="#000000" stroke="none"/></g><g transform="translate(-14,2) scale(1,1)"><path d="M 544.1626748576241 1063.7904822439841 L 534 1068 L 544.1626748576241 1072.2095177560159 L 544.1626748576241 1063.7904822439841" fill="none" stroke="#000000" stroke-miterlimit="10"/></g><g transform="translate(-14,2) scale(1,1)"><g><path fill="none" stroke="none"/><text fill="#000000" font-family="Arial" font-size="13px" font-style="normal" font-weight="normal" stroke="none" text-decoration="none" x="567.5" y="1062">22 : HashPassword(password)</text></g></g><g transform="translate(-14,2) scale(1,1)"><rect fill="#ffffff" height="76" stroke="none" width="13" x="521" y="1068"/></g><g transform="translate(-14,2) scale(1,1)"><path d="M 521 1068 L 534 1068 L 534 1144 L 521 1144 L 521 1068 Z Z" fill="none" stroke="#000000" stroke-miterlimit="10"/></g><g transform="translate(-14,2) scale(1,1)"><path d="M 534 1128 L 741 1128" fill="none" stroke="#000000" stroke-miterlimit="10"/></g><g transform="translate(-14,2) scale(1,1)"><path d="M 730.8373251423759 1132.2095177560159 L 741 1128 L 730.8373251423758 1123.7904822439841" fill="#000000" stroke="none"/></g><g transform="translate(-14,2) scale(1,1)"><path d="M 730.8373251423759 1132.2095177560159 L 741 1128 L 730.8373251423758 1123.7904822439841 L 730.8373251423759 1132.2095177560159" fill="none" stroke="#000000" stroke-miterlimit="10"/></g><g transform="translate(-14,2) scale(1,1)"><g><path fill="none" stroke="none"/><text fill="#000000" font-family="Arial" font-size="13px" font-style="normal" font-weight="normal" stroke="none" text-decoration="none" x="543.5" y="1123">23 : updateUser(user,hashedpassword)</text></g></g><g transform="translate(-14,2) scale(1,1)"><rect fill="#ffffff" height="28" stroke="none" width="13" x="741" y="1128"/></g><g transform="translate(-14,2) scale(1,1)"><path d="M 741 1128 L 754 1128 L 754 1156 L 741 1156 L 741 1128 Z Z" fill="none" stroke="#000000" stroke-miterlimit="10"/></g><g transform="translate(-14,2) scale(1,1)"><path d="M 528 1160 L 291 1160" fill="none" stroke="#000000" stroke-dasharray="3" stroke-miterlimit="10"/></g><g transform="translate(-14,2) scale(1,1)"><path d="M 301.16267485762415 1155.7904822439841 L 291 1160 L 301.16267485762415 1164.2095177560159" fill="none" stroke="#000000" stroke-miterlimit="10"/></g><g transform="translate(-14,2) scale(1,1)"><g><path fill="none" stroke="none"/><text fill="#000000" font-family="Arial" font-size="13px" font-style="normal" font-weight="normal" stroke="none" text-decoration="none" x="311.5" y="1175">24 : Message(password updated)</text></g></g><g transform="translate(-14,2) scale(1,1)"><path d="M 56 240 L 879 240 L 879 1224 L 56 1224 L 56 240" fill="none" stroke="#000000" stroke-miterlimit="10"/></g><g transform="translate(-14,2) scale(1,1)"><path d="M 56 240 L 56 262 L 85.72998046875 262 L 96.72998046875 251 L 96.72998046875 240 L 56 240" fill="#ffffff" stroke="none"/></g><g transform="translate(-14,2) scale(1,1)"><path d="M 56 240 L 56 262 L 85.72998046875 262 L 96.72998046875 251 L 96.72998046875 240 L 56 240 L 56 240" fill="none" stroke="#000000" stroke-miterlimit="10"/></g><g transform="translate(-14,2) scale(1,1)"><g><path fill="none" stroke="none"/><text fill="#000000" font-family="Arial" font-size="13px" font-style="normal" font-weight="bold" stroke="none" text-decoration="none" x="60.279541015625" y="256">alt</text></g></g><g transform="translate(-14,2) scale(1,1)"><g><path fill="none" stroke="none"/><text fill="#000000" font-family="Arial" font-size="13px" font-style="normal" font-weight="normal" stroke="none" text-decoration="none" x="75.5" y="289">[user n'existe pas]</text></g></g><g transform="translate(-14,2) scale(1,1)"><path d="M 56 321 L 879 321" fill="none" stroke="#000000" stroke-dasharray="10,3" stroke-miterlimit="10"/></g><g transform="translate(-14,2) scale(1,1)"><g><path fill="none" stroke="none"/><text fill="#000000" font-family="Arial" font-size="13px" font-style="normal" font-weight="normal" stroke="none" text-decoration="none" x="75.5" y="347">[user existe]</text></g></g><g transform="translate(-14,2) scale(1,1)"><path d="M 80 672 L 863 672 L 863 1200 L 80 1200 L 80 672" fill="none" stroke="#000000" stroke-miterlimit="10"/></g><g transform="translate(-14,2) scale(1,1)"><path d="M 80 672 L 80 694 L 109.72998046875 694 L 120.72998046875 683 L 120.72998046875 672 L 80 672" fill="#ffffff" stroke="none"/></g><g transform="translate(-14,2) scale(1,1)"><path d="M 80 672 L 80 694 L 109.72998046875 694 L 120.72998046875 683 L 120.72998046875 672 L 80 672 L 80 672" fill="none" stroke="#000000" stroke-miterlimit="10"/></g><g transform="translate(-14,2) scale(1,1)"><g><path fill="none" stroke="none"/><text fill="#000000" font-family="Arial" font-size="13px" font-style="normal" font-weight="bold" stroke="none" text-decoration="none" x="84.279541015625" y="688">alt</text></g></g><g transform="translate(-14,2) scale(1,1)"><g><path fill="none" stroke="none"/><text fill="#000000" font-family="Arial" font-size="13px" font-style="normal" font-weight="normal" stroke="none" text-decoration="none" x="99.5" y="721">[otp invalide]</text></g></g><g transform="translate(-14,2) scale(1,1)"><path d="M 80 745 L 863 745" fill="none" stroke="#000000" stroke-dasharray="10,3" stroke-miterlimit="10"/></g><g transform="translate(-14,2) scale(1,1)"><g><path fill="none" stroke="none"/><text fill="#000000" font-family="Arial" font-size="13px" font-style="normal" font-weight="normal" stroke="none" text-decoration="none" x="99.5" y="771">[otp valide]</text></g></g></g></svg>