<?xml version="1.0" encoding="UTF-8" standalone="no"?><svg xmlns="http://www.w3.org/2000/svg" xmlns:xlink="http://www.w3.org/1999/xlink" height="1716" version="1.1" width="1516"><defs/><g><g transform="translate(-22,-6) scale(1,1)"><path d="M 32 16 L 1528 16 L 1528 1712 L 32 1712 L 32 16" fill="none" stroke="#000000" stroke-miterlimit="10"/></g><g transform="translate(-22,-6) scale(1,1)"><path d="M 32 16 L 32 38 L 150.62255859375 38 L 161.62255859375 27 L 161.62255859375 16 L 32 16" fill="#ffffff" stroke="none"/></g><g transform="translate(-22,-6) scale(1,1)"><path d="M 32 16 L 32 38 L 150.62255859375 38 L 161.62255859375 27 L 161.62255859375 16 L 32 16 L 32 16" fill="none" stroke="#000000" stroke-miterlimit="10"/></g><g transform="translate(-22,-6) scale(1,1)"><g><path fill="none" stroke="none"/><text fill="#000000" font-family="Arial" font-size="13px" font-style="normal" font-weight="normal" stroke="none" text-decoration="none" x="56.72998046875" y="32">Authentification</text></g></g><g transform="translate(-22,-6) scale(1,1)"><g><path fill="none" stroke="none"/><text fill="#000000" font-family="Arial" font-size="13px" font-style="normal" font-weight="bold" stroke="none" text-decoration="none" x="36.279541015625" y="32">sd</text></g></g><g transform="translate(-22,-6) scale(1,1)"><path d="M 168.9981551846591 47.3 C 168.9981551846591 43.82060576 171.8765569068409 41 175.42724609375 41 C 178.9779352806591 41 181.85633700284092 43.82060576 181.85633700284092 47.3 C 181.85633700284092 50.779394239999995 178.9779352806591 53.6 175.42724609375 53.6 C 171.8765569068409 53.6 168.9981551846591 50.779394239999995 168.9981551846591 47.3 Z" fill="#ffffff" stroke="none"/></g><g transform="translate(-22,-6) scale(1,1)"><path d="M 168.9981551846591 47.3 C 168.9981551846591 43.82060576 171.8765569068409 41 175.42724609375 41 C 178.9779352806591 41 181.85633700284092 43.82060576 181.85633700284092 47.3 C 181.85633700284092 50.779394239999995 178.9779352806591 53.6 175.42724609375 53.6 C 171.8765569068409 53.6 168.9981551846591 50.779394239999995 168.9981551846591 47.3 Z" fill="none" stroke="#000000" stroke-miterlimit="10"/></g><g transform="translate(-22,-6) scale(1,1)"><path d="M 175.42724609375 53.6 L 175.42724609375 66.4" fill="none" stroke="#000000" stroke-miterlimit="10"/></g><g transform="translate(-22,-6) scale(1,1)"><path d="M 168.6199733664773 58.4 L 182.23451882102273 58.4" fill="none" stroke="#000000" stroke-miterlimit="10"/></g><g transform="translate(-22,-6) scale(1,1)"><path d="M 175.42724609375 66.4 L 165.97270063920456 79" fill="none" stroke="#000000" stroke-miterlimit="10"/></g><g transform="translate(-22,-6) scale(1,1)"><path d="M 175.42724609375 66.4 L 184.88179154829547 79" fill="none" stroke="#000000" stroke-miterlimit="10"/></g><g transform="translate(-22,-6) scale(1,1)"><g><path fill="none" stroke="none"/><text fill="#000000" font-family="Arial" font-size="13px" font-style="normal" font-weight="bold" stroke="none" text-decoration="none" x="130.635009765625" y="98">Lifeline1: User</text></g></g><g transform="translate(-22,-6) scale(1,1)"><path d="M 176.5 105 L 176.5 1712" fill="none" stroke="#000000" stroke-dasharray="3" stroke-miterlimit="10"/></g><g transform="translate(-22,-6) scale(1,1)"><rect fill="#C0C0C0" height="39" opacity="0.2" stroke="none" width="180.0654296875" x="303" y="47"/></g><g transform="translate(-22,-6) scale(1,1)"><rect fill="#ffffff" height="39" stroke="none" width="180.0654296875" x="296" y="40"/></g><g transform="translate(-22,-6) scale(1,1)"><path d="M 296 40 L 476.0654296875 40 L 476.0654296875 79 L 296 79 L 296 40 Z Z" fill="none" stroke="#000000" stroke-miterlimit="10"/></g><g transform="translate(-22,-6) scale(1,1)"><g><path fill="none" stroke="none"/><text fill="#000000" font-family="Arial" font-size="13px" font-style="normal" font-weight="bold" stroke="none" text-decoration="none" x="305.5" y="58">Interface: Authentification</text></g></g><g transform="translate(-22,-6) scale(1,1)"><path d="M 387.5 80 L 387.5 1712" fill="none" stroke="#000000" stroke-dasharray="3" stroke-miterlimit="10"/></g><g transform="translate(-22,-6) scale(1,1)"><rect fill="#C0C0C0" height="39" opacity="0.2" stroke="none" width="187.9873046875" x="767" y="47"/></g><g transform="translate(-22,-6) scale(1,1)"><rect fill="#ffffff" height="39" stroke="none" width="187.9873046875" x="760" y="40"/></g><g transform="translate(-22,-6) scale(1,1)"><path d="M 760 40 L 947.9873046875 40 L 947.9873046875 79 L 760 79 L 760 40 Z Z" fill="none" stroke="#000000" stroke-miterlimit="10"/></g><g transform="translate(-22,-6) scale(1,1)"><g><path fill="none" stroke="none"/><text fill="#000000" font-family="Arial" font-size="13px" font-style="normal" font-weight="bold" stroke="none" text-decoration="none" x="769.5" y="58">Controller: Authentification</text></g></g><g transform="translate(-22,-6) scale(1,1)"><path d="M 854.5 80 L 854.5 1712" fill="none" stroke="#000000" stroke-dasharray="3" stroke-miterlimit="10"/></g><g transform="translate(-22,-6) scale(1,1)"><rect fill="#C0C0C0" height="39" opacity="0.2" stroke="none" width="71.736328125" x="1127" y="47"/></g><g transform="translate(-22,-6) scale(1,1)"><rect fill="#ffffff" height="39" stroke="none" width="71.736328125" x="1120" y="40"/></g><g transform="translate(-22,-6) scale(1,1)"><path d="M 1120 40 L 1191.736328125 40 L 1191.736328125 79 L 1120 79 L 1120 40 Z Z" fill="none" stroke="#000000" stroke-miterlimit="10"/></g><g transform="translate(-22,-6) scale(1,1)"><g><path fill="none" stroke="none"/><text fill="#000000" font-family="Arial" font-size="13px" font-style="normal" font-weight="bold" stroke="none" text-decoration="none" x="1137.799560546875" y="58">Users</text></g></g><g transform="translate(-22,-6) scale(1,1)"><path d="M 1156.5 80 L 1156.5 1712" fill="none" stroke="#000000" stroke-dasharray="3" stroke-miterlimit="10"/></g><g transform="translate(-22,-6) scale(1,1)"><rect fill="#C0C0C0" height="39" opacity="0.2" stroke="none" width="83.0478515625" x="1255" y="47"/></g><g transform="translate(-22,-6) scale(1,1)"><rect fill="#ffffff" height="39" stroke="none" width="83.0478515625" x="1248" y="40"/></g><g transform="translate(-22,-6) scale(1,1)"><path d="M 1248 40 L 1331.0478515625 40 L 1331.0478515625 79 L 1248 79 L 1248 40 Z Z" fill="none" stroke="#000000" stroke-miterlimit="10"/></g><g transform="translate(-22,-6) scale(1,1)"><g><path fill="none" stroke="none"/><text fill="#000000" font-family="Arial" font-size="13px" font-style="normal" font-weight="bold" stroke="none" text-decoration="none" x="1268.5830078125" y="58">TfaOtp</text></g></g><g transform="translate(-22,-6) scale(1,1)"><path d="M 1290.5 80 L 1290.5 1712" fill="none" stroke="#000000" stroke-dasharray="3" stroke-miterlimit="10"/></g><g transform="translate(-22,-6) scale(1,1)"><rect fill="#C0C0C0" height="39" opacity="0.2" stroke="none" width="168" x="519" y="47"/></g><g transform="translate(-22,-6) scale(1,1)"><rect fill="#ffffff" height="39" stroke="none" width="168" x="512" y="40"/></g><g transform="translate(-22,-6) scale(1,1)"><path d="M 512 40 L 680 40 L 680 79 L 512 79 L 512 40 Z Z" fill="none" stroke="#000000" stroke-miterlimit="10"/></g><g transform="translate(-22,-6) scale(1,1)"><g><path fill="none" stroke="none"/><text fill="#000000" font-family="Arial" font-size="13px" font-style="normal" font-weight="bold" stroke="none" text-decoration="none" x="552.658203125" y="58">Interface: TFA</text></g></g><g transform="translate(-22,-6) scale(1,1)"><path d="M 597.5 80 L 597.5 1712" fill="none" stroke="#000000" stroke-dasharray="3" stroke-miterlimit="10"/></g><g transform="translate(-22,-6) scale(1,1)"><path d="M 176 128 L 380 128" fill="none" stroke="#000000" stroke-miterlimit="10"/></g><g transform="translate(-22,-6) scale(1,1)"><path d="M 369.83732514237585 132.209517756016 L 380 128 L 369.83732514237585 123.79048224398402" fill="#000000" stroke="none"/></g><g transform="translate(-22,-6) scale(1,1)"><path d="M 369.83732514237585 132.209517756016 L 380 128 L 369.83732514237585 123.79048224398402 L 369.83732514237585 132.209517756016" fill="none" stroke="#000000" stroke-miterlimit="10"/></g><g transform="translate(-22,-6) scale(1,1)"><g><path fill="none" stroke="none"/><text fill="#000000" font-family="Arial" font-size="13px" font-style="normal" font-weight="normal" stroke="none" text-decoration="none" x="198.5" y="123">1 : saisirDonnées(données)</text></g></g><g transform="translate(-22,-6) scale(1,1)"><rect fill="#ffffff" height="28" stroke="none" width="13" x="380" y="128"/></g><g transform="translate(-22,-6) scale(1,1)"><path d="M 380 128 L 393 128 L 393 156 L 380 156 L 380 128 Z Z" fill="none" stroke="#000000" stroke-miterlimit="10"/></g><g transform="translate(-22,-6) scale(1,1)"><path d="M 176 178 L 380 178" fill="none" stroke="#000000" stroke-miterlimit="10"/></g><g transform="translate(-22,-6) scale(1,1)"><path d="M 369.83732514237585 182.209517756016 L 380 178 L 369.83732514237585 173.790482243984" fill="#000000" stroke="none"/></g><g transform="translate(-22,-6) scale(1,1)"><path d="M 369.83732514237585 182.209517756016 L 380 178 L 369.83732514237585 173.790482243984 L 369.83732514237585 182.209517756016" fill="none" stroke="#000000" stroke-miterlimit="10"/></g><g transform="translate(-22,-6) scale(1,1)"><g><path fill="none" stroke="none"/><text fill="#000000" font-family="Arial" font-size="13px" font-style="normal" font-weight="normal" stroke="none" text-decoration="none" x="217.5" y="173">2 : cliqueButtonLogin</text></g></g><g transform="translate(-22,-6) scale(1,1)"><rect fill="#ffffff" height="28" stroke="none" width="13" x="380" y="178"/></g><g transform="translate(-22,-6) scale(1,1)"><path d="M 380 178 L 393 178 L 393 206 L 380 206 L 380 178 Z Z" fill="none" stroke="#000000" stroke-miterlimit="10"/></g><g transform="translate(-22,-6) scale(1,1)"><path d="M 393 194 L 847 194" fill="none" stroke="#000000" stroke-miterlimit="10"/></g><g transform="translate(-22,-6) scale(1,1)"><path d="M 836.8373251423759 198.209517756016 L 847 194 L 836.8373251423758 189.790482243984" fill="#000000" stroke="none"/></g><g transform="translate(-22,-6) scale(1,1)"><path d="M 836.8373251423759 198.209517756016 L 847 194 L 836.8373251423758 189.790482243984 L 836.8373251423759 198.209517756016" fill="none" stroke="#000000" stroke-miterlimit="10"/></g><g transform="translate(-22,-6) scale(1,1)"><g><path fill="none" stroke="none"/><text fill="#000000" font-family="Arial" font-size="13px" font-style="normal" font-weight="normal" stroke="none" text-decoration="none" x="645.5" y="187">3 : authentification(données)</text></g></g><g transform="translate(-22,-6) scale(1,1)"><rect fill="#ffffff" height="166" stroke="none" width="13" x="847" y="194"/></g><g transform="translate(-22,-6) scale(1,1)"><path d="M 847 194 L 860 194 L 860 360 L 847 360 L 847 194 Z Z" fill="none" stroke="#000000" stroke-miterlimit="10"/></g><g transform="translate(-22,-6) scale(1,1)"><path d="M 860 208 L 1149 208" fill="none" stroke="#000000" stroke-miterlimit="10"/></g><g transform="translate(-22,-6) scale(1,1)"><path d="M 1138.837325142376 212.209517756016 L 1149 208 L 1138.837325142376 203.790482243984" fill="#000000" stroke="none"/></g><g transform="translate(-22,-6) scale(1,1)"><path d="M 1138.837325142376 212.209517756016 L 1149 208 L 1138.837325142376 203.790482243984 L 1138.837325142376 212.209517756016" fill="none" stroke="#000000" stroke-miterlimit="10"/></g><g transform="translate(-22,-6) scale(1,1)"><g><path fill="none" stroke="none"/><text fill="#000000" font-family="Arial" font-size="13px" font-style="normal" font-weight="normal" stroke="none" text-decoration="none" x="901.75" y="203">4 : getUserByEmailOrCin(données)</text></g></g><g transform="translate(-22,-6) scale(1,1)"><rect fill="#ffffff" height="144" stroke="none" width="13" x="1149" y="208"/></g><g transform="translate(-22,-6) scale(1,1)"><path d="M 1149 208 L 1162 208 L 1162 352 L 1149 352 L 1149 208 Z Z" fill="none" stroke="#000000" stroke-miterlimit="10"/></g><g transform="translate(-22,-6) scale(1,1)"><path d="M 1149 264 L 860 264" fill="none" stroke="#000000" stroke-dasharray="3" stroke-miterlimit="10"/></g><g transform="translate(-22,-6) scale(1,1)"><path d="M 870.1626748576241 259.790482243984 L 860 264 L 870.1626748576241 268.209517756016" fill="none" stroke="#000000" stroke-miterlimit="10"/></g><g transform="translate(-22,-6) scale(1,1)"><g><path fill="none" stroke="none"/><text fill="#000000" font-family="Arial" font-size="13px" font-style="normal" font-weight="normal" stroke="none" text-decoration="none" x="962.5" y="279">5 : return(null)</text></g></g><g transform="translate(-22,-6) scale(1,1)"><path d="M 847 272 L 387 272" fill="none" stroke="#000000" stroke-dasharray="3" stroke-miterlimit="10"/></g><g transform="translate(-22,-6) scale(1,1)"><path d="M 397.16267485762415 267.790482243984 L 387 272 L 397.16267485762415 276.209517756016" fill="none" stroke="#000000" stroke-miterlimit="10"/></g><g transform="translate(-22,-6) scale(1,1)"><g><path fill="none" stroke="none"/><text fill="#000000" font-family="Arial" font-size="13px" font-style="normal" font-weight="normal" stroke="none" text-decoration="none" x="403.5" y="291">6 : Message(Invalid Credentials)</text></g></g><g transform="translate(-22,-6) scale(1,1)"><path d="M 1149 344 L 860 344" fill="none" stroke="#000000" stroke-dasharray="3" stroke-miterlimit="10"/></g><g transform="translate(-22,-6) scale(1,1)"><path d="M 870.1626748576241 339.790482243984 L 860 344 L 870.1626748576241 348.209517756016" fill="none" stroke="#000000" stroke-miterlimit="10"/></g><g transform="translate(-22,-6) scale(1,1)"><g><path fill="none" stroke="none"/><text fill="#000000" font-family="Arial" font-size="13px" font-style="normal" font-weight="normal" stroke="none" text-decoration="none" x="942.5" y="359">7 : return(foundUser)</text></g></g><g transform="translate(-22,-6) scale(1,1)"><path d="M 854 368 L 884 368 L 884 388 L 860 388" fill="none" stroke="#000000" stroke-miterlimit="10"/></g><g transform="translate(-22,-6) scale(1,1)"><path d="M 870.1626748576241 383.790482243984 L 860 388 L 870.1626748576241 392.209517756016" fill="#000000" stroke="none"/></g><g transform="translate(-22,-6) scale(1,1)"><path d="M 870.1626748576241 383.790482243984 L 860 388 L 870.1626748576241 392.209517756016 L 870.1626748576241 383.790482243984" fill="none" stroke="#000000" stroke-miterlimit="10"/></g><g transform="translate(-22,-6) scale(1,1)"><g><path fill="none" stroke="none"/><text fill="#000000" font-family="Arial" font-size="13px" font-style="normal" font-weight="normal" stroke="none" text-decoration="none" x="887.5" y="382">8 : Compare(password,foundUser.password)</text></g></g><g transform="translate(-22,-6) scale(1,1)"><rect fill="#ffffff" height="108" stroke="none" width="13" x="847" y="388"/></g><g transform="translate(-22,-6) scale(1,1)"><path d="M 847 388 L 860 388 L 860 496 L 847 496 L 847 388 Z Z" fill="none" stroke="#000000" stroke-miterlimit="10"/></g><g transform="translate(-22,-6) scale(1,1)"><path d="M 847 472 L 387 472" fill="none" stroke="#000000" stroke-dasharray="3" stroke-miterlimit="10"/></g><g transform="translate(-22,-6) scale(1,1)"><path d="M 397.16267485762415 467.790482243984 L 387 472 L 397.16267485762415 476.209517756016" fill="none" stroke="#000000" stroke-miterlimit="10"/></g><g transform="translate(-22,-6) scale(1,1)"><g><path fill="none" stroke="none"/><text fill="#000000" font-family="Arial" font-size="13px" font-style="normal" font-weight="normal" stroke="none" text-decoration="none" x="403.5" y="491">9 : Message(Invalid Credentials)</text></g></g><g transform="translate(-22,-6) scale(1,1)"><path d="M 854 520 L 884 520 L 884 540 L 860 540" fill="none" stroke="#000000" stroke-miterlimit="10"/></g><g transform="translate(-22,-6) scale(1,1)"><path d="M 870.1626748576241 535.790482243984 L 860 540 L 870.1626748576241 544.209517756016" fill="#000000" stroke="none"/></g><g transform="translate(-22,-6) scale(1,1)"><path d="M 870.1626748576241 535.790482243984 L 860 540 L 870.1626748576241 544.209517756016 L 870.1626748576241 535.790482243984" fill="none" stroke="#000000" stroke-miterlimit="10"/></g><g transform="translate(-22,-6) scale(1,1)"><g><path fill="none" stroke="none"/><text fill="#000000" font-family="Arial" font-size="13px" font-style="normal" font-weight="normal" stroke="none" text-decoration="none" x="893.5" y="539">10 : CheckEmailVerification(foundUser)</text></g></g><g transform="translate(-22,-6) scale(1,1)"><rect fill="#ffffff" height="116" stroke="none" width="13" x="847" y="540"/></g><g transform="translate(-22,-6) scale(1,1)"><path d="M 847 540 L 860 540 L 860 656 L 847 656 L 847 540 Z Z" fill="none" stroke="#000000" stroke-miterlimit="10"/></g><g transform="translate(-22,-6) scale(1,1)"><path d="M 847 628 L 387 628" fill="none" stroke="#000000" stroke-dasharray="3" stroke-miterlimit="10"/></g><g transform="translate(-22,-6) scale(1,1)"><path d="M 397.16267485762415 623.790482243984 L 387 628 L 397.16267485762415 632.209517756016" fill="none" stroke="#000000" stroke-miterlimit="10"/></g><g transform="translate(-22,-6) scale(1,1)"><g><path fill="none" stroke="none"/><text fill="#000000" font-family="Arial" font-size="13px" font-style="normal" font-weight="normal" stroke="none" text-decoration="none" x="395.982421875" y="643">11 : Message(Verify your email)</text></g></g><g transform="translate(-22,-6) scale(1,1)"><path d="M 854 776 L 884 776 L 884 796 L 860 796" fill="none" stroke="#000000" stroke-miterlimit="10"/></g><g transform="translate(-22,-6) scale(1,1)"><path d="M 870.1626748576241 791.790482243984 L 860 796 L 870.1626748576241 800.209517756016" fill="#000000" stroke="none"/></g><g transform="translate(-22,-6) scale(1,1)"><path d="M 870.1626748576241 791.790482243984 L 860 796 L 870.1626748576241 800.209517756016 L 870.1626748576241 791.790482243984" fill="none" stroke="#000000" stroke-miterlimit="10"/></g><g transform="translate(-22,-6) scale(1,1)"><g><path fill="none" stroke="none"/><text fill="#000000" font-family="Arial" font-size="13px" font-style="normal" font-weight="normal" stroke="none" text-decoration="none" x="894.5" y="787">12 : créationToken(foundUser)</text></g></g><g transform="translate(-22,-6) scale(1,1)"><rect fill="#ffffff" height="52" stroke="none" width="13" x="847" y="796"/></g><g transform="translate(-22,-6) scale(1,1)"><path d="M 847 796 L 860 796 L 860 848 L 847 848 L 847 796 Z Z" fill="none" stroke="#000000" stroke-miterlimit="10"/></g><g transform="translate(-22,-6) scale(1,1)"><path d="M 847 840 L 387 840" fill="none" stroke="#000000" stroke-dasharray="3" stroke-miterlimit="10"/></g><g transform="translate(-22,-6) scale(1,1)"><path d="M 397.16267485762415 835.790482243984 L 387 840 L 397.16267485762415 844.209517756016" fill="none" stroke="#000000" stroke-miterlimit="10"/></g><g transform="translate(-22,-6) scale(1,1)"><g><path fill="none" stroke="none"/><text fill="#000000" font-family="Arial" font-size="13px" font-style="normal" font-weight="normal" stroke="none" text-decoration="none" x="409.588623046875" y="859">13 : chargerDonnées(token)</text></g></g><g transform="translate(-22,-6) scale(1,1)"><path d="M 854 928 L 1283 928" fill="none" stroke="#000000" stroke-miterlimit="10"/></g><g transform="translate(-22,-6) scale(1,1)"><path d="M 1272.837325142376 932.209517756016 L 1283 928 L 1272.837325142376 923.790482243984" fill="#000000" stroke="none"/></g><g transform="translate(-22,-6) scale(1,1)"><path d="M 1272.837325142376 932.209517756016 L 1283 928 L 1272.837325142376 923.790482243984 L 1272.837325142376 932.209517756016" fill="none" stroke="#000000" stroke-miterlimit="10"/></g><g transform="translate(-22,-6) scale(1,1)"><g><path fill="none" stroke="none"/><text fill="#000000" font-family="Arial" font-size="13px" font-style="normal" font-weight="normal" stroke="none" text-decoration="none" x="938.5" y="922">14 : créationOTP(foundUser)</text></g></g><g transform="translate(-22,-6) scale(1,1)"><rect fill="#ffffff" height="28" stroke="none" width="13" x="1283" y="928"/></g><g transform="translate(-22,-6) scale(1,1)"><path d="M 1283 928 L 1296 928 L 1296 956 L 1283 956 L 1283 928 Z Z" fill="none" stroke="#000000" stroke-miterlimit="10"/></g><g transform="translate(-22,-6) scale(1,1)"><path d="M 1283 949 L 854 949" fill="none" stroke="#000000" stroke-dasharray="3" stroke-miterlimit="10"/></g><g transform="translate(-22,-6) scale(1,1)"><path d="M 864.1626748576241 944.790482243984 L 854 949 L 864.1626748576241 953.209517756016" fill="none" stroke="#000000" stroke-miterlimit="10"/></g><g transform="translate(-22,-6) scale(1,1)"><g><path fill="none" stroke="none"/><text fill="#000000" font-family="Arial" font-size="13px" font-style="normal" font-weight="normal" stroke="none" text-decoration="none" x="970.5" y="963">15 : return OTPCode</text></g></g><g transform="translate(-22,-6) scale(1,1)"><path d="M 854 976 L 884 976 L 884 996 L 860 996" fill="none" stroke="#000000" stroke-miterlimit="10"/></g><g transform="translate(-22,-6) scale(1,1)"><path d="M 870.1626748576241 991.790482243984 L 860 996 L 870.1626748576241 1000.209517756016" fill="#000000" stroke="none"/></g><g transform="translate(-22,-6) scale(1,1)"><path d="M 870.1626748576241 991.790482243984 L 860 996 L 870.1626748576241 1000.209517756016 L 870.1626748576241 991.790482243984" fill="none" stroke="#000000" stroke-miterlimit="10"/></g><g transform="translate(-22,-6) scale(1,1)"><g><path fill="none" stroke="none"/><text fill="#000000" font-family="Arial" font-size="13px" font-style="normal" font-weight="normal" stroke="none" text-decoration="none" x="893.5" y="995">16 : envoieMail(foundUser,OTPCode)</text></g></g><g transform="translate(-22,-6) scale(1,1)"><rect fill="#ffffff" height="60" stroke="none" width="13" x="847" y="996"/></g><g transform="translate(-22,-6) scale(1,1)"><path d="M 847 996 L 860 996 L 860 1056 L 847 1056 L 847 996 Z Z" fill="none" stroke="#000000" stroke-miterlimit="10"/></g><g transform="translate(-22,-6) scale(1,1)"><path d="M 847 1040 L 597 1040" fill="none" stroke="#000000" stroke-dasharray="3" stroke-miterlimit="10"/></g><g transform="translate(-22,-6) scale(1,1)"><path d="M 607.1626748576241 1035.7904822439841 L 597 1040 L 607.1626748576241 1044.2095177560159" fill="none" stroke="#000000" stroke-miterlimit="10"/></g><g transform="translate(-22,-6) scale(1,1)"><g><path fill="none" stroke="none"/><text fill="#000000" font-family="Arial" font-size="13px" font-style="normal" font-weight="normal" stroke="none" text-decoration="none" x="640.5" y="1055">17 : chargerPageTwoFactor</text></g></g><g transform="translate(-22,-6) scale(1,1)"><path d="M 176 1096 L 590 1096" fill="none" stroke="#000000" stroke-miterlimit="10"/></g><g transform="translate(-22,-6) scale(1,1)"><path d="M 579.8373251423759 1100.2095177560159 L 590 1096 L 579.8373251423758 1091.7904822439841" fill="#000000" stroke="none"/></g><g transform="translate(-22,-6) scale(1,1)"><path d="M 579.8373251423759 1100.2095177560159 L 590 1096 L 579.8373251423758 1091.7904822439841 L 579.8373251423759 1100.2095177560159" fill="none" stroke="#000000" stroke-miterlimit="10"/></g><g transform="translate(-22,-6) scale(1,1)"><g><path fill="none" stroke="none"/><text fill="#000000" font-family="Arial" font-size="13px" font-style="normal" font-weight="normal" stroke="none" text-decoration="none" x="422.5" y="1091">18 : saisirOTP(donnée)</text></g></g><g transform="translate(-22,-6) scale(1,1)"><rect fill="#ffffff" height="28" stroke="none" width="13" x="590" y="1096"/></g><g transform="translate(-22,-6) scale(1,1)"><path d="M 590 1096 L 603 1096 L 603 1124 L 590 1124 L 590 1096 Z Z" fill="none" stroke="#000000" stroke-miterlimit="10"/></g><g transform="translate(-22,-6) scale(1,1)"><path d="M 854 1120 L 884 1120 L 884 1140 L 860 1140" fill="none" stroke="#000000" stroke-miterlimit="10"/></g><g transform="translate(-22,-6) scale(1,1)"><path d="M 870.1626748576241 1135.7904822439841 L 860 1140 L 870.1626748576241 1144.2095177560159" fill="#000000" stroke="none"/></g><g transform="translate(-22,-6) scale(1,1)"><path d="M 870.1626748576241 1135.7904822439841 L 860 1140 L 870.1626748576241 1144.2095177560159 L 870.1626748576241 1135.7904822439841" fill="none" stroke="#000000" stroke-miterlimit="10"/></g><g transform="translate(-22,-6) scale(1,1)"><g><path fill="none" stroke="none"/><text fill="#000000" font-family="Arial" font-size="13px" font-style="normal" font-weight="normal" stroke="none" text-decoration="none" x="894.5" y="1134">19 : verification(OTPCode,donnée)</text></g></g><g transform="translate(-22,-6) scale(1,1)"><rect fill="#ffffff" height="172" stroke="none" width="13" x="847" y="1140"/></g><g transform="translate(-22,-6) scale(1,1)"><path d="M 847 1140 L 860 1140 L 860 1312 L 847 1312 L 847 1140 Z Z" fill="none" stroke="#000000" stroke-miterlimit="10"/></g><g transform="translate(-22,-6) scale(1,1)"><path d="M 847 1256 L 597 1256" fill="none" stroke="#000000" stroke-dasharray="3" stroke-miterlimit="10"/></g><g transform="translate(-22,-6) scale(1,1)"><path d="M 607.1626748576241 1251.7904822439841 L 597 1256 L 607.1626748576241 1260.2095177560159" fill="none" stroke="#000000" stroke-miterlimit="10"/></g><g transform="translate(-22,-6) scale(1,1)"><g><path fill="none" stroke="none"/><text fill="#000000" font-family="Arial" font-size="13px" font-style="normal" font-weight="normal" stroke="none" text-decoration="none" x="643.5" y="1271">20 : Message(Invalid OTP)</text></g></g><g transform="translate(-22,-6) scale(1,1)"><path d="M 854 1336 L 884 1336 L 884 1356 L 860 1356" fill="none" stroke="#000000" stroke-miterlimit="10"/></g><g transform="translate(-22,-6) scale(1,1)"><path d="M 870.1626748576241 1351.7904822439841 L 860 1356 L 870.1626748576241 1360.2095177560159" fill="#000000" stroke="none"/></g><g transform="translate(-22,-6) scale(1,1)"><path d="M 870.1626748576241 1351.7904822439841 L 860 1356 L 870.1626748576241 1360.2095177560159 L 870.1626748576241 1351.7904822439841" fill="none" stroke="#000000" stroke-miterlimit="10"/></g><g transform="translate(-22,-6) scale(1,1)"><g><path fill="none" stroke="none"/><text fill="#000000" font-family="Arial" font-size="13px" font-style="normal" font-weight="normal" stroke="none" text-decoration="none" x="894.5" y="1350">21 : créationToken(foundUser)</text></g></g><g transform="translate(-22,-6) scale(1,1)"><rect fill="#ffffff" height="100" stroke="none" width="13" x="847" y="1356"/></g><g transform="translate(-22,-6) scale(1,1)"><path d="M 847 1356 L 860 1356 L 860 1456 L 847 1456 L 847 1356 Z Z" fill="none" stroke="#000000" stroke-miterlimit="10"/></g><g transform="translate(-22,-6) scale(1,1)"><path d="M 847 1432 L 597 1432" fill="none" stroke="#000000" stroke-dasharray="3" stroke-miterlimit="10"/></g><g transform="translate(-22,-6) scale(1,1)"><path d="M 607.1626748576241 1427.7904822439841 L 597 1432 L 607.1626748576241 1436.2095177560159" fill="none" stroke="#000000" stroke-miterlimit="10"/></g><g transform="translate(-22,-6) scale(1,1)"><g><path fill="none" stroke="none"/><text fill="#000000" font-family="Arial" font-size="13px" font-style="normal" font-weight="normal" stroke="none" text-decoration="none" x="640.5" y="1447">22 : chargerDonnées(token)</text></g></g><g transform="translate(-22,-6) scale(1,1)"><path d="M 56 248 L 1496 248 L 1496 1664 L 56 1664 L 56 248" fill="none" stroke="#000000" stroke-miterlimit="10"/></g><g transform="translate(-22,-6) scale(1,1)"><path d="M 56 248 L 56 270 L 85.72998046875 270 L 96.72998046875 259 L 96.72998046875 248 L 56 248" fill="#ffffff" stroke="none"/></g><g transform="translate(-22,-6) scale(1,1)"><path d="M 56 248 L 56 270 L 85.72998046875 270 L 96.72998046875 259 L 96.72998046875 248 L 56 248 L 56 248" fill="none" stroke="#000000" stroke-miterlimit="10"/></g><g transform="translate(-22,-6) scale(1,1)"><g><path fill="none" stroke="none"/><text fill="#000000" font-family="Arial" font-size="13px" font-style="normal" font-weight="bold" stroke="none" text-decoration="none" x="60.279541015625" y="264">alt</text></g></g><g transform="translate(-22,-6) scale(1,1)"><g><path fill="none" stroke="none"/><text fill="#000000" font-family="Arial" font-size="13px" font-style="normal" font-weight="normal" stroke="none" text-decoration="none" x="75.5" y="297">[User n'existe pas]</text></g></g><g transform="translate(-22,-6) scale(1,1)"><path d="M 56 314 L 1496 314" fill="none" stroke="#000000" stroke-dasharray="10,3" stroke-miterlimit="10"/></g><g transform="translate(-22,-6) scale(1,1)"><g><path fill="none" stroke="none"/><text fill="#000000" font-family="Arial" font-size="13px" font-style="normal" font-weight="normal" stroke="none" text-decoration="none" x="75.5" y="340">[User existe]</text></g></g><g transform="translate(-22,-6) scale(1,1)"><path d="M 88 432 L 1472 432 L 1472 1624 L 88 1624 L 88 432" fill="none" stroke="#000000" stroke-miterlimit="10"/></g><g transform="translate(-22,-6) scale(1,1)"><path d="M 88 432 L 88 454 L 117.72998046875 454 L 128.72998046875 443 L 128.72998046875 432 L 88 432" fill="#ffffff" stroke="none"/></g><g transform="translate(-22,-6) scale(1,1)"><path d="M 88 432 L 88 454 L 117.72998046875 454 L 128.72998046875 443 L 128.72998046875 432 L 88 432 L 88 432" fill="none" stroke="#000000" stroke-miterlimit="10"/></g><g transform="translate(-22,-6) scale(1,1)"><g><path fill="none" stroke="none"/><text fill="#000000" font-family="Arial" font-size="13px" font-style="normal" font-weight="bold" stroke="none" text-decoration="none" x="92.279541015625" y="448">alt</text></g></g><g transform="translate(-22,-6) scale(1,1)"><g><path fill="none" stroke="none"/><text fill="#000000" font-family="Arial" font-size="13px" font-style="normal" font-weight="normal" stroke="none" text-decoration="none" x="107.5" y="481">[mot de passe incorrecte]</text></g></g><g transform="translate(-22,-6) scale(1,1)"><path d="M 88 513 L 1472 513" fill="none" stroke="#000000" stroke-dasharray="10,3" stroke-miterlimit="10"/></g><g transform="translate(-22,-6) scale(1,1)"><g><path fill="none" stroke="none"/><text fill="#000000" font-family="Arial" font-size="13px" font-style="normal" font-weight="normal" stroke="none" text-decoration="none" x="107.5" y="539">[mot de passe correcte]</text></g></g><g transform="translate(-22,-6) scale(1,1)"><path d="M 112 584 L 1432 584 L 1432 1584 L 112 1584 L 112 584" fill="none" stroke="#000000" stroke-miterlimit="10"/></g><g transform="translate(-22,-6) scale(1,1)"><path d="M 112 584 L 112 606 L 141.72998046875 606 L 152.72998046875 595 L 152.72998046875 584 L 112 584" fill="#ffffff" stroke="none"/></g><g transform="translate(-22,-6) scale(1,1)"><path d="M 112 584 L 112 606 L 141.72998046875 606 L 152.72998046875 595 L 152.72998046875 584 L 112 584 L 112 584" fill="none" stroke="#000000" stroke-miterlimit="10"/></g><g transform="translate(-22,-6) scale(1,1)"><g><path fill="none" stroke="none"/><text fill="#000000" font-family="Arial" font-size="13px" font-style="normal" font-weight="bold" stroke="none" text-decoration="none" x="116.279541015625" y="600">alt</text></g></g><g transform="translate(-22,-6) scale(1,1)"><g><path fill="none" stroke="none"/><text fill="#000000" font-family="Arial" font-size="13px" font-style="normal" font-weight="normal" stroke="none" text-decoration="none" x="131.5" y="633">[email non verifié]</text></g></g><g transform="translate(-22,-6) scale(1,1)"><path d="M 112 681 L 1432 681" fill="none" stroke="#000000" stroke-dasharray="10,3" stroke-miterlimit="10"/></g><g transform="translate(-22,-6) scale(1,1)"><g><path fill="none" stroke="none"/><text fill="#000000" font-family="Arial" font-size="13px" font-style="normal" font-weight="normal" stroke="none" text-decoration="none" x="131.5" y="707">[email verifié]</text></g></g><g transform="translate(-22,-6) scale(1,1)"><path d="M 136 744 L 1400 744 L 1400 1520 L 136 1520 L 136 744" fill="none" stroke="#000000" stroke-miterlimit="10"/></g><g transform="translate(-22,-6) scale(1,1)"><path d="M 136 744 L 136 766 L 165.72998046875 766 L 176.72998046875 755 L 176.72998046875 744 L 136 744" fill="#ffffff" stroke="none"/></g><g transform="translate(-22,-6) scale(1,1)"><path d="M 136 744 L 136 766 L 165.72998046875 766 L 176.72998046875 755 L 176.72998046875 744 L 136 744 L 136 744" fill="none" stroke="#000000" stroke-miterlimit="10"/></g><g transform="translate(-22,-6) scale(1,1)"><g><path fill="none" stroke="none"/><text fill="#000000" font-family="Arial" font-size="13px" font-style="normal" font-weight="bold" stroke="none" text-decoration="none" x="140.279541015625" y="760">alt</text></g></g><g transform="translate(-22,-6) scale(1,1)"><g><path fill="none" stroke="none"/><text fill="#000000" font-family="Arial" font-size="13px" font-style="normal" font-weight="normal" stroke="none" text-decoration="none" x="155.5" y="793">[TFA  descativé]</text></g></g><g transform="translate(-22,-6) scale(1,1)"><path d="M 136 865 L 1400 865" fill="none" stroke="#000000" stroke-dasharray="10,3" stroke-miterlimit="10"/></g><g transform="translate(-22,-6) scale(1,1)"><g><path fill="none" stroke="none"/><text fill="#000000" font-family="Arial" font-size="13px" font-style="normal" font-weight="normal" stroke="none" text-decoration="none" x="155.5" y="891">[TFA  activé]</text></g></g><g transform="translate(-22,-6) scale(1,1)"><path d="M 152 1184 L 1376 1184 L 1376 1480 L 152 1480 L 152 1184" fill="none" stroke="#000000" stroke-miterlimit="10"/></g><g transform="translate(-22,-6) scale(1,1)"><path d="M 152 1184 L 152 1206 L 181.72998046875 1206 L 192.72998046875 1195 L 192.72998046875 1184 L 152 1184" fill="#ffffff" stroke="none"/></g><g transform="translate(-22,-6) scale(1,1)"><path d="M 152 1184 L 152 1206 L 181.72998046875 1206 L 192.72998046875 1195 L 192.72998046875 1184 L 152 1184 L 152 1184" fill="none" stroke="#000000" stroke-miterlimit="10"/></g><g transform="translate(-22,-6) scale(1,1)"><g><path fill="none" stroke="none"/><text fill="#000000" font-family="Arial" font-size="13px" font-style="normal" font-weight="bold" stroke="none" text-decoration="none" x="156.279541015625" y="1200">alt</text></g></g><g transform="translate(-22,-6) scale(1,1)"><g><path fill="none" stroke="none"/><text fill="#000000" font-family="Arial" font-size="13px" font-style="normal" font-weight="normal" stroke="none" text-decoration="none" x="171.5" y="1233">[OTP invalide]</text></g></g><g transform="translate(-22,-6) scale(1,1)"><path d="M 152 1289 L 1376 1289" fill="none" stroke="#000000" stroke-dasharray="10,3" stroke-miterlimit="10"/></g><g transform="translate(-22,-6) scale(1,1)"><g><path fill="none" stroke="none"/><text fill="#000000" font-family="Arial" font-size="13px" font-style="normal" font-weight="normal" stroke="none" text-decoration="none" x="171.5" y="1315">[OTP valide]</text></g></g></g></svg>