<?xml version="1.0" encoding="UTF-8" standalone="no"?><svg xmlns="http://www.w3.org/2000/svg" xmlns:xlink="http://www.w3.org/1999/xlink" height="724" version="1.1" width="892"><defs/><g><g transform="translate(-134,10) scale(1,1)"><path d="M 144 0 L 1016 0 L 1016 704 L 144 704 L 144 0" fill="none" stroke="#000000" stroke-miterlimit="10"/></g><g transform="translate(-134,10) scale(1,1)"><path d="M 144 0 L 144 22 L 292.22802734375 22 L 303.22802734375 11 L 303.22802734375 0 L 144 0" fill="#ffffff" stroke="none"/></g><g transform="translate(-134,10) scale(1,1)"><path d="M 144 0 L 144 22 L 292.22802734375 22 L 303.22802734375 11 L 303.22802734375 0 L 144 0 L 144 0" fill="none" stroke="#000000" stroke-miterlimit="10"/></g><g transform="translate(-134,10) scale(1,1)"><g><path fill="none" stroke="none"/><text fill="#000000" font-family="Arial" font-size="13px" font-style="normal" font-weight="normal" stroke="none" text-decoration="none" x="168.72998046875" y="16">Consulter les projets</text></g></g><g transform="translate(-134,10) scale(1,1)"><g><path fill="none" stroke="none"/><text fill="#000000" font-family="Arial" font-size="13px" font-style="normal" font-weight="bold" stroke="none" text-decoration="none" x="148.279541015625" y="16">sd</text></g></g><g transform="translate(-134,10) scale(1,1)"><path d="M 232.9981551846591 47.3 C 232.9981551846591 43.82060576 235.8765569068409 41 239.42724609375 41 C 242.9779352806591 41 245.85633700284092 43.82060576 245.85633700284092 47.3 C 245.85633700284092 50.779394239999995 242.9779352806591 53.6 239.42724609375 53.6 C 235.8765569068409 53.6 232.9981551846591 50.779394239999995 232.9981551846591 47.3 Z" fill="#ffffff" stroke="none"/></g><g transform="translate(-134,10) scale(1,1)"><path d="M 232.9981551846591 47.3 C 232.9981551846591 43.82060576 235.8765569068409 41 239.42724609375 41 C 242.9779352806591 41 245.85633700284092 43.82060576 245.85633700284092 47.3 C 245.85633700284092 50.779394239999995 242.9779352806591 53.6 239.42724609375 53.6 C 235.8765569068409 53.6 232.9981551846591 50.779394239999995 232.9981551846591 47.3 Z" fill="none" stroke="#000000" stroke-miterlimit="10"/></g><g transform="translate(-134,10) scale(1,1)"><path d="M 239.42724609375 53.6 L 239.42724609375 66.4" fill="none" stroke="#000000" stroke-miterlimit="10"/></g><g transform="translate(-134,10) scale(1,1)"><path d="M 232.6199733664773 58.4 L 246.23451882102273 58.4" fill="none" stroke="#000000" stroke-miterlimit="10"/></g><g transform="translate(-134,10) scale(1,1)"><path d="M 239.42724609375 66.4 L 229.97270063920456 79" fill="none" stroke="#000000" stroke-miterlimit="10"/></g><g transform="translate(-134,10) scale(1,1)"><path d="M 239.42724609375 66.4 L 248.88179154829547 79" fill="none" stroke="#000000" stroke-miterlimit="10"/></g><g transform="translate(-134,10) scale(1,1)"><g><path fill="none" stroke="none"/><text fill="#000000" font-family="Arial" font-size="13px" font-style="normal" font-weight="bold" stroke="none" text-decoration="none" x="194.635009765625" y="98">Lifeline1: User</text></g></g><g transform="translate(-134,10) scale(1,1)"><path d="M 240.5 105 L 240.5 704" fill="none" stroke="#000000" stroke-dasharray="3" stroke-miterlimit="10"/></g><g transform="translate(-134,10) scale(1,1)"><rect fill="#C0C0C0" height="39" opacity="0.2" stroke="none" width="132.4326171875" x="351" y="47"/></g><g transform="translate(-134,10) scale(1,1)"><rect fill="#ffffff" height="39" stroke="none" width="132.4326171875" x="344" y="40"/></g><g transform="translate(-134,10) scale(1,1)"><path d="M 344 40 L 476.4326171875 40 L 476.4326171875 79 L 344 79 L 344 40 Z Z" fill="none" stroke="#000000" stroke-miterlimit="10"/></g><g transform="translate(-134,10) scale(1,1)"><g><path fill="none" stroke="none"/><text fill="#000000" font-family="Arial" font-size="13px" font-style="normal" font-weight="bold" stroke="none" text-decoration="none" x="353.5" y="58">Interface: Projects</text></g></g><g transform="translate(-134,10) scale(1,1)"><path d="M 411.5 80 L 411.5 704" fill="none" stroke="#000000" stroke-dasharray="3" stroke-miterlimit="10"/></g><g transform="translate(-134,10) scale(1,1)"><rect fill="#C0C0C0" height="39" opacity="0.2" stroke="none" width="140.3544921875" x="543" y="47"/></g><g transform="translate(-134,10) scale(1,1)"><rect fill="#ffffff" height="39" stroke="none" width="140.3544921875" x="536" y="40"/></g><g transform="translate(-134,10) scale(1,1)"><path d="M 536 40 L 676.3544921875 40 L 676.3544921875 79 L 536 79 L 536 40 Z Z" fill="none" stroke="#000000" stroke-miterlimit="10"/></g><g transform="translate(-134,10) scale(1,1)"><g><path fill="none" stroke="none"/><text fill="#000000" font-family="Arial" font-size="13px" font-style="normal" font-weight="bold" stroke="none" text-decoration="none" x="545.5" y="58">Controller: Projects</text></g></g><g transform="translate(-134,10) scale(1,1)"><path d="M 607.5 80 L 607.5 704" fill="none" stroke="#000000" stroke-dasharray="3" stroke-miterlimit="10"/></g><g transform="translate(-134,10) scale(1,1)"><rect fill="#C0C0C0" height="39" opacity="0.2" stroke="none" width="71.736328125" x="791" y="47"/></g><g transform="translate(-134,10) scale(1,1)"><rect fill="#ffffff" height="39" stroke="none" width="71.736328125" x="784" y="40"/></g><g transform="translate(-134,10) scale(1,1)"><path d="M 784 40 L 855.736328125 40 L 855.736328125 79 L 784 79 L 784 40 Z Z" fill="none" stroke="#000000" stroke-miterlimit="10"/></g><g transform="translate(-134,10) scale(1,1)"><g><path fill="none" stroke="none"/><text fill="#000000" font-family="Arial" font-size="13px" font-style="normal" font-weight="bold" stroke="none" text-decoration="none" x="801.799560546875" y="58">Users</text></g></g><g transform="translate(-134,10) scale(1,1)"><path d="M 820.5 80 L 820.5 704" fill="none" stroke="#000000" stroke-dasharray="3" stroke-miterlimit="10"/></g><g transform="translate(-134,10) scale(1,1)"><rect fill="#C0C0C0" height="39" opacity="0.2" stroke="none" width="71.736328125" x="895" y="47"/></g><g transform="translate(-134,10) scale(1,1)"><rect fill="#ffffff" height="39" stroke="none" width="71.736328125" x="888" y="40"/></g><g transform="translate(-134,10) scale(1,1)"><path d="M 888 40 L 959.736328125 40 L 959.736328125 79 L 888 79 L 888 40 Z Z" fill="none" stroke="#000000" stroke-miterlimit="10"/></g><g transform="translate(-134,10) scale(1,1)"><g><path fill="none" stroke="none"/><text fill="#000000" font-family="Arial" font-size="13px" font-style="normal" font-weight="bold" stroke="none" text-decoration="none" x="898.21728515625" y="58">Projects</text></g></g><g transform="translate(-134,10) scale(1,1)"><path d="M 924.5 80 L 924.5 704" fill="none" stroke="#000000" stroke-dasharray="3" stroke-miterlimit="10"/></g><g transform="translate(-134,10) scale(1,1)"><path d="M 240 140 L 404 140" fill="none" stroke="#000000" stroke-miterlimit="10"/></g><g transform="translate(-134,10) scale(1,1)"><path d="M 393.83732514237585 144.209517756016 L 404 140 L 393.83732514237585 135.790482243984" fill="#000000" stroke="none"/></g><g transform="translate(-134,10) scale(1,1)"><path d="M 393.83732514237585 144.209517756016 L 404 140 L 393.83732514237585 135.790482243984 L 393.83732514237585 144.209517756016" fill="none" stroke="#000000" stroke-miterlimit="10"/></g><g transform="translate(-134,10) scale(1,1)"><g><path fill="none" stroke="none"/><text fill="#000000" font-family="Arial" font-size="13px" font-style="normal" font-weight="normal" stroke="none" text-decoration="none" x="249.5" y="135">1 : ConsulterPageProjets</text></g></g><g transform="translate(-134,10) scale(1,1)"><rect fill="#ffffff" height="28" stroke="none" width="13" x="404" y="140"/></g><g transform="translate(-134,10) scale(1,1)"><path d="M 404 140 L 417 140 L 417 168 L 404 168 L 404 140 Z Z" fill="none" stroke="#000000" stroke-miterlimit="10"/></g><g transform="translate(-134,10) scale(1,1)"><path d="M 417 146 L 600 146" fill="none" stroke="#000000" stroke-miterlimit="10"/></g><g transform="translate(-134,10) scale(1,1)"><path d="M 589.8373251423759 150.209517756016 L 600 146 L 589.8373251423758 141.790482243984" fill="#000000" stroke="none"/></g><g transform="translate(-134,10) scale(1,1)"><path d="M 589.8373251423759 150.209517756016 L 600 146 L 589.8373251423758 141.790482243984 L 589.8373251423759 150.209517756016" fill="none" stroke="#000000" stroke-miterlimit="10"/></g><g transform="translate(-134,10) scale(1,1)"><g><path fill="none" stroke="none"/><text fill="#000000" font-family="Arial" font-size="13px" font-style="normal" font-weight="normal" stroke="none" text-decoration="none" x="444.5" y="141">2 : GetProjects(token)</text></g></g><g transform="translate(-134,10) scale(1,1)"><rect fill="#ffffff" height="150" stroke="none" width="13" x="600" y="146"/></g><g transform="translate(-134,10) scale(1,1)"><path d="M 600 146 L 613 146 L 613 296 L 600 296 L 600 146 Z Z" fill="none" stroke="#000000" stroke-miterlimit="10"/></g><g transform="translate(-134,10) scale(1,1)"><path d="M 613 160 L 813 160" fill="none" stroke="#000000" stroke-miterlimit="10"/></g><g transform="translate(-134,10) scale(1,1)"><path d="M 802.8373251423759 164.209517756016 L 813 160 L 802.8373251423758 155.790482243984" fill="#000000" stroke="none"/></g><g transform="translate(-134,10) scale(1,1)"><path d="M 802.8373251423759 164.209517756016 L 813 160 L 802.8373251423758 155.790482243984 L 802.8373251423759 164.209517756016" fill="none" stroke="#000000" stroke-miterlimit="10"/></g><g transform="translate(-134,10) scale(1,1)"><g><path fill="none" stroke="none"/><text fill="#000000" font-family="Arial" font-size="13px" font-style="normal" font-weight="normal" stroke="none" text-decoration="none" x="639.5" y="155">3 : GetUserById(token.id)</text></g></g><g transform="translate(-134,10) scale(1,1)"><rect fill="#ffffff" height="136" stroke="none" width="13" x="813" y="160"/></g><g transform="translate(-134,10) scale(1,1)"><path d="M 813 160 L 826 160 L 826 296 L 813 296 L 813 160 Z Z" fill="none" stroke="#000000" stroke-miterlimit="10"/></g><g transform="translate(-134,10) scale(1,1)"><path d="M 813 249 L 613 249" fill="none" stroke="#000000" stroke-dasharray="3" stroke-miterlimit="10"/></g><g transform="translate(-134,10) scale(1,1)"><path d="M 623.1626748576241 244.790482243984 L 613 249 L 623.1626748576241 253.209517756016" fill="none" stroke="#000000" stroke-miterlimit="10"/></g><g transform="translate(-134,10) scale(1,1)"><g><path fill="none" stroke="none"/><text fill="#000000" font-family="Arial" font-size="13px" font-style="normal" font-weight="normal" stroke="none" text-decoration="none" x="667.5" y="264">4 : return(User)</text></g></g><g transform="translate(-134,10) scale(1,1)"><path d="M 607 320 L 637 320 L 637 340 L 613 340" fill="none" stroke="#000000" stroke-miterlimit="10"/></g><g transform="translate(-134,10) scale(1,1)"><path d="M 623.1626748576241 335.790482243984 L 613 340 L 623.1626748576241 344.209517756016" fill="#000000" stroke="none"/></g><g transform="translate(-134,10) scale(1,1)"><path d="M 623.1626748576241 335.790482243984 L 613 340 L 623.1626748576241 344.209517756016 L 623.1626748576241 335.790482243984" fill="none" stroke="#000000" stroke-miterlimit="10"/></g><g transform="translate(-134,10) scale(1,1)"><g><path fill="none" stroke="none"/><text fill="#000000" font-family="Arial" font-size="13px" font-style="normal" font-weight="normal" stroke="none" text-decoration="none" x="641.5" y="339">5 : CheckUserType(User)</text></g></g><g transform="translate(-134,10) scale(1,1)"><rect fill="#ffffff" height="284" stroke="none" width="13" x="600" y="340"/></g><g transform="translate(-134,10) scale(1,1)"><path d="M 600 340 L 613 340 L 613 624 L 600 624 L 600 340 Z Z" fill="none" stroke="#000000" stroke-miterlimit="10"/></g><g transform="translate(-134,10) scale(1,1)"><path d="M 613 409 L 917 409" fill="none" stroke="#000000" stroke-miterlimit="10"/></g><g transform="translate(-134,10) scale(1,1)"><path d="M 906.8373251423759 413.209517756016 L 917 409 L 906.8373251423758 404.790482243984" fill="#000000" stroke="none"/></g><g transform="translate(-134,10) scale(1,1)"><path d="M 906.8373251423759 413.209517756016 L 917 409 L 906.8373251423758 404.790482243984 L 906.8373251423759 413.209517756016" fill="none" stroke="#000000" stroke-miterlimit="10"/></g><g transform="translate(-134,10) scale(1,1)"><g><path fill="none" stroke="none"/><text fill="#000000" font-family="Arial" font-size="13px" font-style="normal" font-weight="normal" stroke="none" text-decoration="none" x="656.0791015625" y="402">6 : GetCompanyProjects</text></g></g><g transform="translate(-134,10) scale(1,1)"><rect fill="#ffffff" height="28" stroke="none" width="13" x="917" y="409"/></g><g transform="translate(-134,10) scale(1,1)"><path d="M 917 409 L 930 409 L 930 437 L 917 437 L 917 409 Z Z" fill="none" stroke="#000000" stroke-miterlimit="10"/></g><g transform="translate(-134,10) scale(1,1)"><path d="M 917 430 L 613 430" fill="none" stroke="#000000" stroke-dasharray="3" stroke-miterlimit="10"/></g><g transform="translate(-134,10) scale(1,1)"><path d="M 623.1626748576241 425.790482243984 L 613 430 L 623.1626748576241 434.209517756016" fill="none" stroke="#000000" stroke-miterlimit="10"/></g><g transform="translate(-134,10) scale(1,1)"><g><path fill="none" stroke="none"/><text fill="#000000" font-family="Arial" font-size="13px" font-style="normal" font-weight="normal" stroke="none" text-decoration="none" x="702.5" y="445">7 : return(AllProjects)</text></g></g><g transform="translate(-134,10) scale(1,1)"><path d="M 600 464 L 411 464" fill="none" stroke="#000000" stroke-dasharray="3" stroke-miterlimit="10"/></g><g transform="translate(-134,10) scale(1,1)"><path d="M 421.16267485762415 459.790482243984 L 411 464 L 421.16267485762415 468.209517756016" fill="none" stroke="#000000" stroke-miterlimit="10"/></g><g transform="translate(-134,10) scale(1,1)"><g><path fill="none" stroke="none"/><text fill="#000000" font-family="Arial" font-size="13px" font-style="normal" font-weight="normal" stroke="none" text-decoration="none" x="427.5" y="479">8 : return Json(AllProjects)</text></g></g><g transform="translate(-134,10) scale(1,1)"><path d="M 613 560 L 917 560" fill="none" stroke="#000000" stroke-miterlimit="10"/></g><g transform="translate(-134,10) scale(1,1)"><path d="M 906.8373251423759 564.209517756016 L 917 560 L 906.8373251423758 555.790482243984" fill="#000000" stroke="none"/></g><g transform="translate(-134,10) scale(1,1)"><path d="M 906.8373251423759 564.209517756016 L 917 560 L 906.8373251423758 555.790482243984 L 906.8373251423759 564.209517756016" fill="none" stroke="#000000" stroke-miterlimit="10"/></g><g transform="translate(-134,10) scale(1,1)"><g><path fill="none" stroke="none"/><text fill="#000000" font-family="Arial" font-size="13px" font-style="normal" font-weight="normal" stroke="none" text-decoration="none" x="690.5" y="555">9 : GetUserProjects(User)</text></g></g><g transform="translate(-134,10) scale(1,1)"><rect fill="#ffffff" height="28" stroke="none" width="13" x="917" y="560"/></g><g transform="translate(-134,10) scale(1,1)"><path d="M 917 560 L 930 560 L 930 588 L 917 588 L 917 560 Z Z" fill="none" stroke="#000000" stroke-miterlimit="10"/></g><g transform="translate(-134,10) scale(1,1)"><path d="M 917 576 L 613 576" fill="none" stroke="#000000" stroke-dasharray="3" stroke-miterlimit="10"/></g><g transform="translate(-134,10) scale(1,1)"><path d="M 623.1626748576241 571.790482243984 L 613 576 L 623.1626748576241 580.209517756016" fill="none" stroke="#000000" stroke-miterlimit="10"/></g><g transform="translate(-134,10) scale(1,1)"><g><path fill="none" stroke="none"/><text fill="#000000" font-family="Arial" font-size="13px" font-style="normal" font-weight="normal" stroke="none" text-decoration="none" x="692.5" y="591">10 : return(UserProjects)</text></g></g><g transform="translate(-134,10) scale(1,1)"><path d="M 600 616 L 411 616" fill="none" stroke="#000000" stroke-dasharray="3" stroke-miterlimit="10"/></g><g transform="translate(-134,10) scale(1,1)"><path d="M 421.16267485762415 611.790482243984 L 411 616 L 421.16267485762415 620.209517756016" fill="none" stroke="#000000" stroke-miterlimit="10"/></g><g transform="translate(-134,10) scale(1,1)"><g><path fill="none" stroke="none"/><text fill="#000000" font-family="Arial" font-size="13px" font-style="normal" font-weight="normal" stroke="none" text-decoration="none" x="409.5" y="631">11 : return Json(UserProjects)</text></g></g><g transform="translate(-134,10) scale(1,1)"><path d="M 168 384 L 991 384 L 991 656 L 168 656 L 168 384" fill="none" stroke="#000000" stroke-miterlimit="10"/></g><g transform="translate(-134,10) scale(1,1)"><path d="M 168 384 L 168 406 L 197.72998046875 406 L 208.72998046875 395 L 208.72998046875 384 L 168 384" fill="#ffffff" stroke="none"/></g><g transform="translate(-134,10) scale(1,1)"><path d="M 168 384 L 168 406 L 197.72998046875 406 L 208.72998046875 395 L 208.72998046875 384 L 168 384 L 168 384" fill="none" stroke="#000000" stroke-miterlimit="10"/></g><g transform="translate(-134,10) scale(1,1)"><g><path fill="none" stroke="none"/><text fill="#000000" font-family="Arial" font-size="13px" font-style="normal" font-weight="bold" stroke="none" text-decoration="none" x="172.279541015625" y="400">alt</text></g></g><g transform="translate(-134,10) scale(1,1)"><g><path fill="none" stroke="none"/><text fill="#000000" font-family="Arial" font-size="13px" font-style="normal" font-weight="normal" stroke="none" text-decoration="none" x="187.5" y="433">[User est un manager]</text></g></g><g transform="translate(-134,10) scale(1,1)"><path d="M 168 505 L 991 505" fill="none" stroke="#000000" stroke-dasharray="10,3" stroke-miterlimit="10"/></g><g transform="translate(-134,10) scale(1,1)"><g><path fill="none" stroke="none"/><text fill="#000000" font-family="Arial" font-size="13px" font-style="normal" font-weight="normal" stroke="none" text-decoration="none" x="187.5" y="531">[User est un employé]</text></g></g></g></svg>