<?xml version="1.0" encoding="UTF-8" standalone="no"?><svg xmlns="http://www.w3.org/2000/svg" xmlns:xlink="http://www.w3.org/1999/xlink" height="460" version="1.1" width="860"><defs/><g><g transform="translate(-14,2) scale(1,1)"><path d="M 24 8 L 864 8 L 864 448 L 24 448 L 24 8" fill="none" stroke="#000000" stroke-miterlimit="10"/></g><g transform="translate(-14,2) scale(1,1)"><path d="M 24 8 L 24 30 L 175.12255859375 30 L 186.12255859375 19 L 186.12255859375 8 L 24 8" fill="#ffffff" stroke="none"/></g><g transform="translate(-14,2) scale(1,1)"><path d="M 24 8 L 24 30 L 175.12255859375 30 L 186.12255859375 19 L 186.12255859375 8 L 24 8 L 24 8" fill="none" stroke="#000000" stroke-miterlimit="10"/></g><g transform="translate(-14,2) scale(1,1)"><g><path fill="none" stroke="none"/><text fill="#000000" font-family="Arial" font-size="13px" font-style="normal" font-weight="normal" stroke="none" text-decoration="none" x="48.72998046875" y="24">Consulter les  tâches</text></g></g><g transform="translate(-14,2) scale(1,1)"><g><path fill="none" stroke="none"/><text fill="#000000" font-family="Arial" font-size="13px" font-style="normal" font-weight="bold" stroke="none" text-decoration="none" x="28.279541015625" y="24">sd</text></g></g><g transform="translate(-14,2) scale(1,1)"><path d="M 70.8631454190341 47.3 C 70.8631454190341 43.82060576 73.74154714121592 41 77.292236328125 41 C 80.84292551503408 41 83.7213272372159 43.82060576 83.7213272372159 47.3 C 83.7213272372159 50.779394239999995 80.84292551503408 53.6 77.292236328125 53.6 C 73.74154714121592 53.6 70.8631454190341 50.779394239999995 70.8631454190341 47.3 Z" fill="#ffffff" stroke="none"/></g><g transform="translate(-14,2) scale(1,1)"><path d="M 70.8631454190341 47.3 C 70.8631454190341 43.82060576 73.74154714121592 41 77.292236328125 41 C 80.84292551503408 41 83.7213272372159 43.82060576 83.7213272372159 47.3 C 83.7213272372159 50.779394239999995 80.84292551503408 53.6 77.292236328125 53.6 C 73.74154714121592 53.6 70.8631454190341 50.779394239999995 70.8631454190341 47.3 Z" fill="none" stroke="#000000" stroke-miterlimit="10"/></g><g transform="translate(-14,2) scale(1,1)"><path d="M 77.292236328125 53.6 L 77.292236328125 66.4" fill="none" stroke="#000000" stroke-miterlimit="10"/></g><g transform="translate(-14,2) scale(1,1)"><path d="M 70.48496360085227 58.4 L 84.09950905539773 58.4" fill="none" stroke="#000000" stroke-miterlimit="10"/></g><g transform="translate(-14,2) scale(1,1)"><path d="M 77.292236328125 66.4 L 67.83769087357955 79" fill="none" stroke="#000000" stroke-miterlimit="10"/></g><g transform="translate(-14,2) scale(1,1)"><path d="M 77.292236328125 66.4 L 86.74678178267045 79" fill="none" stroke="#000000" stroke-miterlimit="10"/></g><g transform="translate(-14,2) scale(1,1)"><g><path fill="none" stroke="none"/><text fill="#000000" font-family="Arial" font-size="13px" font-style="normal" font-weight="bold" stroke="none" text-decoration="none" x="32.5" y="98">Lifeline1: User</text></g></g><g transform="translate(-14,2) scale(1,1)"><path d="M 78.5 105 L 78.5 448" fill="none" stroke="#000000" stroke-dasharray="3" stroke-miterlimit="10"/></g><g transform="translate(-14,2) scale(1,1)"><rect fill="#C0C0C0" height="39" opacity="0.2" stroke="none" width="140.3544921875" x="527" y="47"/></g><g transform="translate(-14,2) scale(1,1)"><rect fill="#ffffff" height="39" stroke="none" width="140.3544921875" x="520" y="40"/></g><g transform="translate(-14,2) scale(1,1)"><path d="M 520 40 L 660.3544921875 40 L 660.3544921875 79 L 520 79 L 520 40 Z Z" fill="none" stroke="#000000" stroke-miterlimit="10"/></g><g transform="translate(-14,2) scale(1,1)"><g><path fill="none" stroke="none"/><text fill="#000000" font-family="Arial" font-size="13px" font-style="normal" font-weight="bold" stroke="none" text-decoration="none" x="529.5" y="58">Controller: Projects</text></g></g><g transform="translate(-14,2) scale(1,1)"><path d="M 591.5 80 L 591.5 448" fill="none" stroke="#000000" stroke-dasharray="3" stroke-miterlimit="10"/></g><g transform="translate(-14,2) scale(1,1)"><rect fill="#C0C0C0" height="39" opacity="0.2" stroke="none" width="112.69775390625" x="343" y="47"/></g><g transform="translate(-14,2) scale(1,1)"><rect fill="#ffffff" height="39" stroke="none" width="112.69775390625" x="336" y="40"/></g><g transform="translate(-14,2) scale(1,1)"><path d="M 336 40 L 448.69775390625 40 L 448.69775390625 79 L 336 79 L 336 40 Z Z" fill="none" stroke="#000000" stroke-miterlimit="10"/></g><g transform="translate(-14,2) scale(1,1)"><g><path fill="none" stroke="none"/><text fill="#000000" font-family="Arial" font-size="13px" font-style="normal" font-weight="bold" stroke="none" text-decoration="none" x="345.5" y="58">Interface Tasks</text></g></g><g transform="translate(-14,2) scale(1,1)"><path d="M 393.5 80 L 393.5 448" fill="none" stroke="#000000" stroke-dasharray="3" stroke-miterlimit="10"/></g><g transform="translate(-14,2) scale(1,1)"><rect fill="#C0C0C0" height="39" opacity="0.2" stroke="none" width="71.736328125" x="743" y="47"/></g><g transform="translate(-14,2) scale(1,1)"><rect fill="#ffffff" height="39" stroke="none" width="71.736328125" x="736" y="40"/></g><g transform="translate(-14,2) scale(1,1)"><path d="M 736 40 L 807.736328125 40 L 807.736328125 79 L 736 79 L 736 40 Z Z" fill="none" stroke="#000000" stroke-miterlimit="10"/></g><g transform="translate(-14,2) scale(1,1)"><g><path fill="none" stroke="none"/><text fill="#000000" font-family="Arial" font-size="13px" font-style="normal" font-weight="bold" stroke="none" text-decoration="none" x="746.21728515625" y="58">Projects</text></g></g><g transform="translate(-14,2) scale(1,1)"><path d="M 772.5 80 L 772.5 448" fill="none" stroke="#000000" stroke-dasharray="3" stroke-miterlimit="10"/></g><g transform="translate(-14,2) scale(1,1)"><rect fill="#C0C0C0" height="39" opacity="0.2" stroke="none" width="132.4326171875" x="175" y="47"/></g><g transform="translate(-14,2) scale(1,1)"><rect fill="#ffffff" height="39" stroke="none" width="132.4326171875" x="168" y="40"/></g><g transform="translate(-14,2) scale(1,1)"><path d="M 168 40 L 300.4326171875 40 L 300.4326171875 79 L 168 79 L 168 40 Z Z" fill="none" stroke="#000000" stroke-miterlimit="10"/></g><g transform="translate(-14,2) scale(1,1)"><g><path fill="none" stroke="none"/><text fill="#000000" font-family="Arial" font-size="13px" font-style="normal" font-weight="bold" stroke="none" text-decoration="none" x="177.5" y="58">Interface: Projects</text></g></g><g transform="translate(-14,2) scale(1,1)"><path d="M 235.5 80 L 235.5 448" fill="none" stroke="#000000" stroke-dasharray="3" stroke-miterlimit="10"/></g><g transform="translate(-14,2) scale(1,1)"><rect fill="#ffffff" height="111" stroke="none" width="760" x="56" y="120"/></g><g transform="translate(-14,2) scale(1,1)"><path d="M 56 120 L 816 120 L 816 231 L 56 231 L 56 120 Z Z" fill="none" stroke="#000000" stroke-miterlimit="10"/></g><g transform="translate(-14,2) scale(1,1)"><path d="M 56 120 L 56 142 L 81.1708984375 142 L 92.1708984375 131 L 92.1708984375 120 L 56 120 L 56 120" fill="none" stroke="#000000" stroke-miterlimit="10"/></g><g transform="translate(-14,2) scale(1,1)"><g><path fill="none" stroke="none"/><text fill="#000000" font-family="Arial" font-size="13px" font-style="normal" font-weight="normal" stroke="none" text-decoration="none" x="454.08544921875" y="131"/></g></g><g transform="translate(-14,2) scale(1,1)"><g><path fill="none" stroke="none"/><text fill="#000000" font-family="Arial" font-size="13px" font-style="normal" font-weight="bold" stroke="none" text-decoration="none" x="60.2763671875" y="136">ref</text></g></g><g transform="translate(-14,2) scale(1,1)"><path d="M 78 264 L 228 264" fill="none" stroke="#000000" stroke-miterlimit="10"/></g><g transform="translate(-14,2) scale(1,1)"><path d="M 217.83732514237585 268.209517756016 L 228 264 L 217.83732514237585 259.790482243984" fill="#000000" stroke="none"/></g><g transform="translate(-14,2) scale(1,1)"><path d="M 217.83732514237585 268.209517756016 L 228 264 L 217.83732514237585 259.790482243984 L 217.83732514237585 268.209517756016" fill="none" stroke="#000000" stroke-miterlimit="10"/></g><g transform="translate(-14,2) scale(1,1)"><g><path fill="none" stroke="none"/><text fill="#000000" font-family="Arial" font-size="13px" font-style="normal" font-weight="normal" stroke="none" text-decoration="none" x="70.5" y="259">1 : cliquerViewTasks(project)</text></g></g><g transform="translate(-14,2) scale(1,1)"><rect fill="#ffffff" height="40" stroke="none" width="13" x="228" y="264"/></g><g transform="translate(-14,2) scale(1,1)"><path d="M 228 264 L 241 264 L 241 304 L 228 304 L 228 264 Z Z" fill="none" stroke="#000000" stroke-miterlimit="10"/></g><g transform="translate(-14,2) scale(1,1)"><path d="M 241 291 L 386 291" fill="none" stroke="#000000" stroke-miterlimit="10"/></g><g transform="translate(-14,2) scale(1,1)"><path d="M 375.83732514237585 295.209517756016 L 386 291 L 375.83732514237585 286.790482243984" fill="#000000" stroke="none"/></g><g transform="translate(-14,2) scale(1,1)"><path d="M 375.83732514237585 295.209517756016 L 386 291 L 375.83732514237585 286.790482243984 L 375.83732514237585 295.209517756016" fill="none" stroke="#000000" stroke-miterlimit="10"/></g><g transform="translate(-14,2) scale(1,1)"><g><path fill="none" stroke="none"/><text fill="#000000" font-family="Arial" font-size="13px" font-style="normal" font-weight="normal" stroke="none" text-decoration="none" x="239.5" y="286">2 : chargerInterfce(project)</text></g></g><g transform="translate(-14,2) scale(1,1)"><rect fill="#ffffff" height="28" stroke="none" width="13" x="386" y="291"/></g><g transform="translate(-14,2) scale(1,1)"><path d="M 386 291 L 399 291 L 399 319 L 386 319 L 386 291 Z Z" fill="none" stroke="#000000" stroke-miterlimit="10"/></g><g transform="translate(-14,2) scale(1,1)"><path d="M 399 296 L 584 296" fill="none" stroke="#000000" stroke-miterlimit="10"/></g><g transform="translate(-14,2) scale(1,1)"><path d="M 573.8373251423759 300.209517756016 L 584 296 L 573.8373251423758 291.790482243984" fill="#000000" stroke="none"/></g><g transform="translate(-14,2) scale(1,1)"><path d="M 573.8373251423759 300.209517756016 L 584 296 L 573.8373251423758 291.790482243984 L 573.8373251423759 300.209517756016" fill="none" stroke="#000000" stroke-miterlimit="10"/></g><g transform="translate(-14,2) scale(1,1)"><g><path fill="none" stroke="none"/><text fill="#000000" font-family="Arial" font-size="13px" font-style="normal" font-weight="normal" stroke="none" text-decoration="none" x="399.5" y="291">3 : AfficherProjectTasks(project)</text></g></g><g transform="translate(-14,2) scale(1,1)"><rect fill="#ffffff" height="128" stroke="none" width="13" x="584" y="296"/></g><g transform="translate(-14,2) scale(1,1)"><path d="M 584 296 L 597 296 L 597 424 L 584 424 L 584 296 Z Z" fill="none" stroke="#000000" stroke-miterlimit="10"/></g><g transform="translate(-14,2) scale(1,1)"><path d="M 597 298 L 765 298" fill="none" stroke="#000000" stroke-miterlimit="10"/></g><g transform="translate(-14,2) scale(1,1)"><path d="M 754.8373251423759 302.209517756016 L 765 298 L 754.8373251423758 293.790482243984" fill="#000000" stroke="none"/></g><g transform="translate(-14,2) scale(1,1)"><path d="M 754.8373251423759 302.209517756016 L 765 298 L 754.8373251423758 293.790482243984 L 754.8373251423759 302.209517756016" fill="none" stroke="#000000" stroke-miterlimit="10"/></g><g transform="translate(-14,2) scale(1,1)"><g><path fill="none" stroke="none"/><text fill="#000000" font-family="Arial" font-size="13px" font-style="normal" font-weight="normal" stroke="none" text-decoration="none" x="593.5" y="293">4 : GetProjectTasks(project.id)</text></g></g><g transform="translate(-14,2) scale(1,1)"><rect fill="#ffffff" height="86" stroke="none" width="13" x="765" y="298"/></g><g transform="translate(-14,2) scale(1,1)"><path d="M 765 298 L 778 298 L 778 384 L 765 384 L 765 298 Z Z" fill="none" stroke="#000000" stroke-miterlimit="10"/></g><g transform="translate(-14,2) scale(1,1)"><path d="M 765 368 L 597 368" fill="none" stroke="#000000" stroke-dasharray="3" stroke-miterlimit="10"/></g><g transform="translate(-14,2) scale(1,1)"><path d="M 607.1626748576241 363.790482243984 L 597 368 L 607.1626748576241 372.209517756016" fill="none" stroke="#000000" stroke-miterlimit="10"/></g><g transform="translate(-14,2) scale(1,1)"><g><path fill="none" stroke="none"/><text fill="#000000" font-family="Arial" font-size="13px" font-style="normal" font-weight="normal" stroke="none" text-decoration="none" x="612.5" y="383">5 : return(ProjectTasks)</text></g></g><g transform="translate(-14,2) scale(1,1)"><path d="M 584 408 L 393 408" fill="none" stroke="#000000" stroke-dasharray="3" stroke-miterlimit="10"/></g><g transform="translate(-14,2) scale(1,1)"><path d="M 403.16267485762415 403.790482243984 L 393 408 L 403.16267485762415 412.209517756016" fill="none" stroke="#000000" stroke-miterlimit="10"/></g><g transform="translate(-14,2) scale(1,1)"><g><path fill="none" stroke="none"/><text fill="#000000" font-family="Arial" font-size="13px" font-style="normal" font-weight="normal" stroke="none" text-decoration="none" x="404.5" y="423">6 : return Json(ProjectTasks)</text></g></g></g></svg>