<?xml version="1.0" encoding="UTF-8" standalone="no"?><svg xmlns="http://www.w3.org/2000/svg" xmlns:xlink="http://www.w3.org/1999/xlink" height="612" version="1.1" width="756"><defs/><g><g transform="translate(-94,2) scale(1,1)"><path d="M 104 8 L 840 8 L 840 600 L 104 600 L 104 8" fill="none" stroke="#000000" stroke-miterlimit="10"/></g><g transform="translate(-94,2) scale(1,1)"><path d="M 104 8 L 104 30 L 234.1689453125 30 L 245.1689453125 19 L 245.1689453125 8 L 104 8" fill="#ffffff" stroke="none"/></g><g transform="translate(-94,2) scale(1,1)"><path d="M 104 8 L 104 30 L 234.1689453125 30 L 245.1689453125 19 L 245.1689453125 8 L 104 8 L 104 8" fill="none" stroke="#000000" stroke-miterlimit="10"/></g><g transform="translate(-94,2) scale(1,1)"><g><path fill="none" stroke="none"/><text fill="#000000" font-family="Arial" font-size="13px" font-style="normal" font-weight="normal" stroke="none" text-decoration="none" x="128.72998046875" y="24">Modifier un projet</text></g></g><g transform="translate(-94,2) scale(1,1)"><g><path fill="none" stroke="none"/><text fill="#000000" font-family="Arial" font-size="13px" font-style="normal" font-weight="bold" stroke="none" text-decoration="none" x="108.279541015625" y="24">sd</text></g></g><g transform="translate(-94,2) scale(1,1)"><path d="M 154.8631454190341 47.3 C 154.8631454190341 43.82060576 157.7415471412159 41 161.292236328125 41 C 164.8429255150341 41 167.72132723721592 43.82060576 167.72132723721592 47.3 C 167.72132723721592 50.779394239999995 164.8429255150341 53.6 161.292236328125 53.6 C 157.7415471412159 53.6 154.8631454190341 50.779394239999995 154.8631454190341 47.3 Z" fill="#ffffff" stroke="none"/></g><g transform="translate(-94,2) scale(1,1)"><path d="M 154.8631454190341 47.3 C 154.8631454190341 43.82060576 157.7415471412159 41 161.292236328125 41 C 164.8429255150341 41 167.72132723721592 43.82060576 167.72132723721592 47.3 C 167.72132723721592 50.779394239999995 164.8429255150341 53.6 161.292236328125 53.6 C 157.7415471412159 53.6 154.8631454190341 50.779394239999995 154.8631454190341 47.3 Z" fill="none" stroke="#000000" stroke-miterlimit="10"/></g><g transform="translate(-94,2) scale(1,1)"><path d="M 161.292236328125 53.6 L 161.292236328125 66.4" fill="none" stroke="#000000" stroke-miterlimit="10"/></g><g transform="translate(-94,2) scale(1,1)"><path d="M 154.4849636008523 58.4 L 168.09950905539773 58.4" fill="none" stroke="#000000" stroke-miterlimit="10"/></g><g transform="translate(-94,2) scale(1,1)"><path d="M 161.292236328125 66.4 L 151.83769087357956 79" fill="none" stroke="#000000" stroke-miterlimit="10"/></g><g transform="translate(-94,2) scale(1,1)"><path d="M 161.292236328125 66.4 L 170.74678178267047 79" fill="none" stroke="#000000" stroke-miterlimit="10"/></g><g transform="translate(-94,2) scale(1,1)"><g><path fill="none" stroke="none"/><text fill="#000000" font-family="Arial" font-size="13px" font-style="normal" font-weight="bold" stroke="none" text-decoration="none" x="116.5" y="98">Lifeline1: User</text></g></g><g transform="translate(-94,2) scale(1,1)"><path d="M 162.5 105 L 162.5 600" fill="none" stroke="#000000" stroke-dasharray="3" stroke-miterlimit="10"/></g><g transform="translate(-94,2) scale(1,1)"><rect fill="#C0C0C0" height="39" opacity="0.2" stroke="none" width="132.4326171875" x="295" y="47"/></g><g transform="translate(-94,2) scale(1,1)"><rect fill="#ffffff" height="39" stroke="none" width="132.4326171875" x="288" y="40"/></g><g transform="translate(-94,2) scale(1,1)"><path d="M 288 40 L 420.4326171875 40 L 420.4326171875 79 L 288 79 L 288 40 Z Z" fill="none" stroke="#000000" stroke-miterlimit="10"/></g><g transform="translate(-94,2) scale(1,1)"><g><path fill="none" stroke="none"/><text fill="#000000" font-family="Arial" font-size="13px" font-style="normal" font-weight="bold" stroke="none" text-decoration="none" x="297.5" y="58">Interface: Projects</text></g></g><g transform="translate(-94,2) scale(1,1)"><path d="M 355.5 80 L 355.5 600" fill="none" stroke="#000000" stroke-dasharray="3" stroke-miterlimit="10"/></g><g transform="translate(-94,2) scale(1,1)"><rect fill="#C0C0C0" height="39" opacity="0.2" stroke="none" width="140.3544921875" x="469" y="47"/></g><g transform="translate(-94,2) scale(1,1)"><rect fill="#ffffff" height="39" stroke="none" width="140.3544921875" x="462" y="40"/></g><g transform="translate(-94,2) scale(1,1)"><path d="M 462 40 L 602.3544921875 40 L 602.3544921875 79 L 462 79 L 462 40 Z Z" fill="none" stroke="#000000" stroke-miterlimit="10"/></g><g transform="translate(-94,2) scale(1,1)"><g><path fill="none" stroke="none"/><text fill="#000000" font-family="Arial" font-size="13px" font-style="normal" font-weight="bold" stroke="none" text-decoration="none" x="471.5" y="58">Controller: Projects</text></g></g><g transform="translate(-94,2) scale(1,1)"><path d="M 533.5 80 L 533.5 600" fill="none" stroke="#000000" stroke-dasharray="3" stroke-miterlimit="10"/></g><g transform="translate(-94,2) scale(1,1)"><rect fill="#C0C0C0" height="39" opacity="0.2" stroke="none" width="70.3017578125" x="743" y="47"/></g><g transform="translate(-94,2) scale(1,1)"><rect fill="#ffffff" height="39" stroke="none" width="70.3017578125" x="736" y="40"/></g><g transform="translate(-94,2) scale(1,1)"><path d="M 736 40 L 806.3017578125 40 L 806.3017578125 79 L 736 79 L 736 40 Z Z" fill="none" stroke="#000000" stroke-miterlimit="10"/></g><g transform="translate(-94,2) scale(1,1)"><g><path fill="none" stroke="none"/><text fill="#000000" font-family="Arial" font-size="13px" font-style="normal" font-weight="bold" stroke="none" text-decoration="none" x="745.5" y="58">Projects</text></g></g><g transform="translate(-94,2) scale(1,1)"><path d="M 772.5 80 L 772.5 600" fill="none" stroke="#000000" stroke-dasharray="3" stroke-miterlimit="10"/></g><g transform="translate(-94,2) scale(1,1)"><rect fill="#ffffff" height="96" stroke="none" width="696" x="120" y="128"/></g><g transform="translate(-94,2) scale(1,1)"><path d="M 120 128 L 816 128 L 816 224 L 120 224 L 120 128 Z Z" fill="none" stroke="#000000" stroke-miterlimit="10"/></g><g transform="translate(-94,2) scale(1,1)"><path d="M 120 128 L 120 150 L 145.1708984375 150 L 156.1708984375 139 L 156.1708984375 128 L 120 128 L 120 128" fill="none" stroke="#000000" stroke-miterlimit="10"/></g><g transform="translate(-94,2) scale(1,1)"><g><path fill="none" stroke="none"/><text fill="#000000" font-family="Arial" font-size="13px" font-style="normal" font-weight="normal" stroke="none" text-decoration="none" x="486.08544921875" y="139"/></g></g><g transform="translate(-94,2) scale(1,1)"><g><path fill="none" stroke="none"/><text fill="#000000" font-family="Arial" font-size="13px" font-style="normal" font-weight="bold" stroke="none" text-decoration="none" x="124.2763671875" y="144">ref</text></g></g><g transform="translate(-94,2) scale(1,1)"><path d="M 162 280 L 348 280" fill="none" stroke="#000000" stroke-miterlimit="10"/></g><g transform="translate(-94,2) scale(1,1)"><path d="M 337.83732514237585 284.209517756016 L 348 280 L 337.83732514237585 275.790482243984" fill="#000000" stroke="none"/></g><g transform="translate(-94,2) scale(1,1)"><path d="M 337.83732514237585 284.209517756016 L 348 280 L 337.83732514237585 275.790482243984 L 337.83732514237585 284.209517756016" fill="none" stroke="#000000" stroke-miterlimit="10"/></g><g transform="translate(-94,2) scale(1,1)"><g><path fill="none" stroke="none"/><text fill="#000000" font-family="Arial" font-size="13px" font-style="normal" font-weight="normal" stroke="none" text-decoration="none" x="190.0390625" y="275">1 : cliquerButtonAction</text></g></g><g transform="translate(-94,2) scale(1,1)"><rect fill="#ffffff" height="32" stroke="none" width="13" x="348" y="280"/></g><g transform="translate(-94,2) scale(1,1)"><path d="M 348 280 L 361 280 L 361 312 L 348 312 L 348 280 Z Z" fill="none" stroke="#000000" stroke-miterlimit="10"/></g><g transform="translate(-94,2) scale(1,1)"><path d="M 355 360 L 526 360" fill="none" stroke="#000000" stroke-miterlimit="10"/></g><g transform="translate(-94,2) scale(1,1)"><path d="M 515.8373251423759 364.209517756016 L 526 360 L 515.8373251423758 355.790482243984" fill="#000000" stroke="none"/></g><g transform="translate(-94,2) scale(1,1)"><path d="M 515.8373251423759 364.209517756016 L 526 360 L 515.8373251423758 355.790482243984 L 515.8373251423759 364.209517756016" fill="none" stroke="#000000" stroke-miterlimit="10"/></g><g transform="translate(-94,2) scale(1,1)"><g><path fill="none" stroke="none"/><text fill="#000000" font-family="Arial" font-size="13px" font-style="normal" font-weight="normal" stroke="none" text-decoration="none" x="368.5" y="355">2 : DeleteProject(project)</text></g></g><g transform="translate(-94,2) scale(1,1)"><rect fill="#ffffff" height="28" stroke="none" width="13" x="526" y="360"/></g><g transform="translate(-94,2) scale(1,1)"><path d="M 526 360 L 539 360 L 539 388 L 526 388 L 526 360 Z Z" fill="none" stroke="#000000" stroke-miterlimit="10"/></g><g transform="translate(-94,2) scale(1,1)"><path d="M 539 369 L 765 369" fill="none" stroke="#000000" stroke-miterlimit="10"/></g><g transform="translate(-94,2) scale(1,1)"><path d="M 754.8373251423759 373.209517756016 L 765 369 L 754.8373251423758 364.790482243984" fill="#000000" stroke="none"/></g><g transform="translate(-94,2) scale(1,1)"><path d="M 754.8373251423759 373.209517756016 L 765 369 L 754.8373251423758 364.790482243984 L 754.8373251423759 373.209517756016" fill="none" stroke="#000000" stroke-miterlimit="10"/></g><g transform="translate(-94,2) scale(1,1)"><g><path fill="none" stroke="none"/><text fill="#000000" font-family="Arial" font-size="13px" font-style="normal" font-weight="normal" stroke="none" text-decoration="none" x="560.5" y="364">3 : DeleteProjectById(project.id)</text></g></g><g transform="translate(-94,2) scale(1,1)"><rect fill="#ffffff" height="28" stroke="none" width="13" x="765" y="369"/></g><g transform="translate(-94,2) scale(1,1)"><path d="M 765 369 L 778 369 L 778 397 L 765 397 L 765 369 Z Z" fill="none" stroke="#000000" stroke-miterlimit="10"/></g><g transform="translate(-94,2) scale(1,1)"><path d="M 533 408 L 355 408" fill="none" stroke="#000000" stroke-dasharray="3" stroke-miterlimit="10"/></g><g transform="translate(-94,2) scale(1,1)"><path d="M 365.16267485762415 403.790482243984 L 355 408 L 365.16267485762415 412.209517756016" fill="none" stroke="#000000" stroke-miterlimit="10"/></g><g transform="translate(-94,2) scale(1,1)"><g><path fill="none" stroke="none"/><text fill="#000000" font-family="Arial" font-size="13px" font-style="normal" font-weight="normal" stroke="none" text-decoration="none" x="360.5" y="423">4 : Message(project deleted)</text></g></g><g transform="translate(-94,2) scale(1,1)"><path d="M 355 464 L 526 464" fill="none" stroke="#000000" stroke-miterlimit="10"/></g><g transform="translate(-94,2) scale(1,1)"><path d="M 515.8373251423759 468.209517756016 L 526 464 L 515.8373251423758 459.790482243984" fill="#000000" stroke="none"/></g><g transform="translate(-94,2) scale(1,1)"><path d="M 515.8373251423759 468.209517756016 L 526 464 L 515.8373251423758 459.790482243984 L 515.8373251423759 468.209517756016" fill="none" stroke="#000000" stroke-miterlimit="10"/></g><g transform="translate(-94,2) scale(1,1)"><g><path fill="none" stroke="none"/><text fill="#000000" font-family="Arial" font-size="13px" font-style="normal" font-weight="normal" stroke="none" text-decoration="none" x="370.5" y="459">5 : CloseProject(project)</text></g></g><g transform="translate(-94,2) scale(1,1)"><rect fill="#ffffff" height="28" stroke="none" width="13" x="526" y="464"/></g><g transform="translate(-94,2) scale(1,1)"><path d="M 526 464 L 539 464 L 539 492 L 526 492 L 526 464 Z Z" fill="none" stroke="#000000" stroke-miterlimit="10"/></g><g transform="translate(-94,2) scale(1,1)"><path d="M 539 472 L 765 472" fill="none" stroke="#000000" stroke-miterlimit="10"/></g><g transform="translate(-94,2) scale(1,1)"><path d="M 754.8373251423759 476.209517756016 L 765 472 L 754.8373251423758 467.790482243984" fill="#000000" stroke="none"/></g><g transform="translate(-94,2) scale(1,1)"><path d="M 754.8373251423759 476.209517756016 L 765 472 L 754.8373251423758 467.790482243984 L 754.8373251423759 476.209517756016" fill="none" stroke="#000000" stroke-miterlimit="10"/></g><g transform="translate(-94,2) scale(1,1)"><g><path fill="none" stroke="none"/><text fill="#000000" font-family="Arial" font-size="13px" font-style="normal" font-weight="normal" stroke="none" text-decoration="none" x="543.5" y="467">6 : UpdateProjectById(project.id,closed)</text></g></g><g transform="translate(-94,2) scale(1,1)"><rect fill="#ffffff" height="28" stroke="none" width="13" x="765" y="472"/></g><g transform="translate(-94,2) scale(1,1)"><path d="M 765 472 L 778 472 L 778 500 L 765 500 L 765 472 Z Z" fill="none" stroke="#000000" stroke-miterlimit="10"/></g><g transform="translate(-94,2) scale(1,1)"><path d="M 533 507 L 355 507" fill="none" stroke="#000000" stroke-dasharray="3" stroke-miterlimit="10"/></g><g transform="translate(-94,2) scale(1,1)"><path d="M 365.16267485762415 502.790482243984 L 355 507 L 365.16267485762415 511.209517756016" fill="none" stroke="#000000" stroke-miterlimit="10"/></g><g transform="translate(-94,2) scale(1,1)"><g><path fill="none" stroke="none"/><text fill="#000000" font-family="Arial" font-size="13px" font-style="normal" font-weight="normal" stroke="none" text-decoration="none" x="360.5" y="522">7 : Message(Project Closed)</text></g></g><g transform="translate(-94,2) scale(1,1)"><path d="M 120 336 L 816 336 L 816 535 L 120 535 L 120 336" fill="none" stroke="#000000" stroke-miterlimit="10"/></g><g transform="translate(-94,2) scale(1,1)"><path d="M 120 336 L 120 358 L 149.72998046875 358 L 160.72998046875 347 L 160.72998046875 336 L 120 336" fill="#ffffff" stroke="none"/></g><g transform="translate(-94,2) scale(1,1)"><path d="M 120 336 L 120 358 L 149.72998046875 358 L 160.72998046875 347 L 160.72998046875 336 L 120 336 L 120 336" fill="none" stroke="#000000" stroke-miterlimit="10"/></g><g transform="translate(-94,2) scale(1,1)"><g><path fill="none" stroke="none"/><text fill="#000000" font-family="Arial" font-size="13px" font-style="normal" font-weight="bold" stroke="none" text-decoration="none" x="124.279541015625" y="352">alt</text></g></g><g transform="translate(-94,2) scale(1,1)"><g><path fill="none" stroke="none"/><text fill="#000000" font-family="Arial" font-size="13px" font-style="normal" font-weight="normal" stroke="none" text-decoration="none" x="139.5" y="385">[Button delete]</text></g></g><g transform="translate(-94,2) scale(1,1)"><path d="M 120 433 L 816 433" fill="none" stroke="#000000" stroke-dasharray="10,3" stroke-miterlimit="10"/></g><g transform="translate(-94,2) scale(1,1)"><g><path fill="none" stroke="none"/><text fill="#000000" font-family="Arial" font-size="13px" font-style="normal" font-weight="normal" stroke="none" text-decoration="none" x="139.5" y="459">[Button Close]</text></g></g></g></svg>