<?xml version="1.0" encoding="UTF-8" standalone="no"?><svg xmlns="http://www.w3.org/2000/svg" xmlns:xlink="http://www.w3.org/1999/xlink" height="428" version="1.1" width="916"><defs/><g><g transform="translate(-38,2) scale(1,1)"><path d="M 48 8 L 944 8 L 944 416 L 48 416 L 48 8" fill="none" stroke="#000000" stroke-miterlimit="10"/></g><g transform="translate(-38,2) scale(1,1)"><path d="M 48 8 L 48 30 L 202.0234375 30 L 213.0234375 19 L 213.0234375 8 L 48 8" fill="#ffffff" stroke="none"/></g><g transform="translate(-38,2) scale(1,1)"><path d="M 48 8 L 48 30 L 202.0234375 30 L 213.0234375 19 L 213.0234375 8 L 48 8 L 48 8" fill="none" stroke="#000000" stroke-miterlimit="10"/></g><g transform="translate(-38,2) scale(1,1)"><g><path fill="none" stroke="none"/><text fill="#000000" font-family="Arial" font-size="13px" font-style="normal" font-weight="normal" stroke="none" text-decoration="none" x="72.72998046875" y="24">Supprimer une  tâche</text></g></g><g transform="translate(-38,2) scale(1,1)"><g><path fill="none" stroke="none"/><text fill="#000000" font-family="Arial" font-size="13px" font-style="normal" font-weight="bold" stroke="none" text-decoration="none" x="52.279541015625" y="24">sd</text></g></g><g transform="translate(-38,2) scale(1,1)"><path d="M 106.8631454190341 47.3 C 106.8631454190341 43.82060576 109.74154714121592 41 113.292236328125 41 C 116.84292551503408 41 119.7213272372159 43.82060576 119.7213272372159 47.3 C 119.7213272372159 50.779394239999995 116.84292551503408 53.6 113.292236328125 53.6 C 109.74154714121592 53.6 106.8631454190341 50.779394239999995 106.8631454190341 47.3 Z" fill="#ffffff" stroke="none"/></g><g transform="translate(-38,2) scale(1,1)"><path d="M 106.8631454190341 47.3 C 106.8631454190341 43.82060576 109.74154714121592 41 113.292236328125 41 C 116.84292551503408 41 119.7213272372159 43.82060576 119.7213272372159 47.3 C 119.7213272372159 50.779394239999995 116.84292551503408 53.6 113.292236328125 53.6 C 109.74154714121592 53.6 106.8631454190341 50.779394239999995 106.8631454190341 47.3 Z" fill="none" stroke="#000000" stroke-miterlimit="10"/></g><g transform="translate(-38,2) scale(1,1)"><path d="M 113.292236328125 53.6 L 113.292236328125 66.4" fill="none" stroke="#000000" stroke-miterlimit="10"/></g><g transform="translate(-38,2) scale(1,1)"><path d="M 106.48496360085227 58.4 L 120.09950905539773 58.4" fill="none" stroke="#000000" stroke-miterlimit="10"/></g><g transform="translate(-38,2) scale(1,1)"><path d="M 113.292236328125 66.4 L 103.83769087357955 79" fill="none" stroke="#000000" stroke-miterlimit="10"/></g><g transform="translate(-38,2) scale(1,1)"><path d="M 113.292236328125 66.4 L 122.74678178267045 79" fill="none" stroke="#000000" stroke-miterlimit="10"/></g><g transform="translate(-38,2) scale(1,1)"><g><path fill="none" stroke="none"/><text fill="#000000" font-family="Arial" font-size="13px" font-style="normal" font-weight="bold" stroke="none" text-decoration="none" x="68.5" y="98">Lifeline1: User</text></g></g><g transform="translate(-38,2) scale(1,1)"><path d="M 114.5 105 L 114.5 416" fill="none" stroke="#000000" stroke-dasharray="3" stroke-miterlimit="10"/></g><g transform="translate(-38,2) scale(1,1)"><rect fill="#C0C0C0" height="39" opacity="0.2" stroke="none" width="132.4326171875" x="167" y="47"/></g><g transform="translate(-38,2) scale(1,1)"><rect fill="#ffffff" height="39" stroke="none" width="132.4326171875" x="160" y="40"/></g><g transform="translate(-38,2) scale(1,1)"><path d="M 160 40 L 292.4326171875 40 L 292.4326171875 79 L 160 79 L 160 40 Z Z" fill="none" stroke="#000000" stroke-miterlimit="10"/></g><g transform="translate(-38,2) scale(1,1)"><g><path fill="none" stroke="none"/><text fill="#000000" font-family="Arial" font-size="13px" font-style="normal" font-weight="bold" stroke="none" text-decoration="none" x="169.5" y="58">Interface: Projects</text></g></g><g transform="translate(-38,2) scale(1,1)"><path d="M 227.5 80 L 227.5 416" fill="none" stroke="#000000" stroke-dasharray="3" stroke-miterlimit="10"/></g><g transform="translate(-38,2) scale(1,1)"><rect fill="#C0C0C0" height="39" opacity="0.2" stroke="none" width="117.02685546875" x="335" y="47"/></g><g transform="translate(-38,2) scale(1,1)"><rect fill="#ffffff" height="39" stroke="none" width="117.02685546875" x="328" y="40"/></g><g transform="translate(-38,2) scale(1,1)"><path d="M 328 40 L 445.02685546875 40 L 445.02685546875 79 L 328 79 L 328 40 Z Z" fill="none" stroke="#000000" stroke-miterlimit="10"/></g><g transform="translate(-38,2) scale(1,1)"><g><path fill="none" stroke="none"/><text fill="#000000" font-family="Arial" font-size="13px" font-style="normal" font-weight="bold" stroke="none" text-decoration="none" x="337.5" y="58">Interface: Tasks</text></g></g><g transform="translate(-38,2) scale(1,1)"><path d="M 387.5 80 L 387.5 416" fill="none" stroke="#000000" stroke-dasharray="3" stroke-miterlimit="10"/></g><g transform="translate(-38,2) scale(1,1)"><rect fill="#C0C0C0" height="39" opacity="0.2" stroke="none" width="140.3544921875" x="559" y="47"/></g><g transform="translate(-38,2) scale(1,1)"><rect fill="#ffffff" height="39" stroke="none" width="140.3544921875" x="552" y="40"/></g><g transform="translate(-38,2) scale(1,1)"><path d="M 552 40 L 692.3544921875 40 L 692.3544921875 79 L 552 79 L 552 40 Z Z" fill="none" stroke="#000000" stroke-miterlimit="10"/></g><g transform="translate(-38,2) scale(1,1)"><g><path fill="none" stroke="none"/><text fill="#000000" font-family="Arial" font-size="13px" font-style="normal" font-weight="bold" stroke="none" text-decoration="none" x="561.5" y="58">Controller: Projects</text></g></g><g transform="translate(-38,2) scale(1,1)"><path d="M 623.5 80 L 623.5 416" fill="none" stroke="#000000" stroke-dasharray="3" stroke-miterlimit="10"/></g><g transform="translate(-38,2) scale(1,1)"><rect fill="#C0C0C0" height="39" opacity="0.2" stroke="none" width="71.736328125" x="839" y="47"/></g><g transform="translate(-38,2) scale(1,1)"><rect fill="#ffffff" height="39" stroke="none" width="71.736328125" x="832" y="40"/></g><g transform="translate(-38,2) scale(1,1)"><path d="M 832 40 L 903.736328125 40 L 903.736328125 79 L 832 79 L 832 40 Z Z" fill="none" stroke="#000000" stroke-miterlimit="10"/></g><g transform="translate(-38,2) scale(1,1)"><g><path fill="none" stroke="none"/><text fill="#000000" font-family="Arial" font-size="13px" font-style="normal" font-weight="bold" stroke="none" text-decoration="none" x="842.21728515625" y="58">Projects</text></g></g><g transform="translate(-38,2) scale(1,1)"><path d="M 868.5 80 L 868.5 416" fill="none" stroke="#000000" stroke-dasharray="3" stroke-miterlimit="10"/></g><g transform="translate(-38,2) scale(1,1)"><rect fill="#ffffff" height="88" stroke="none" width="808" x="80" y="144"/></g><g transform="translate(-38,2) scale(1,1)"><path d="M 80 144 L 888 144 L 888 232 L 80 232 L 80 144 Z Z" fill="none" stroke="#000000" stroke-miterlimit="10"/></g><g transform="translate(-38,2) scale(1,1)"><path d="M 80 144 L 80 166 L 105.1708984375 166 L 116.1708984375 155 L 116.1708984375 144 L 80 144 L 80 144" fill="none" stroke="#000000" stroke-miterlimit="10"/></g><g transform="translate(-38,2) scale(1,1)"><g><path fill="none" stroke="none"/><text fill="#000000" font-family="Arial" font-size="13px" font-style="normal" font-weight="normal" stroke="none" text-decoration="none" x="502.08544921875" y="155"/></g></g><g transform="translate(-38,2) scale(1,1)"><g><path fill="none" stroke="none"/><text fill="#000000" font-family="Arial" font-size="13px" font-style="normal" font-weight="bold" stroke="none" text-decoration="none" x="84.2763671875" y="160">ref</text></g></g><g transform="translate(-38,2) scale(1,1)"><path d="M 114 264 L 380 264" fill="none" stroke="#000000" stroke-miterlimit="10"/></g><g transform="translate(-38,2) scale(1,1)"><path d="M 369.83732514237585 268.209517756016 L 380 264 L 369.83732514237585 259.790482243984" fill="#000000" stroke="none"/></g><g transform="translate(-38,2) scale(1,1)"><path d="M 369.83732514237585 268.209517756016 L 380 264 L 369.83732514237585 259.790482243984 L 369.83732514237585 268.209517756016" fill="none" stroke="#000000" stroke-miterlimit="10"/></g><g transform="translate(-38,2) scale(1,1)"><g><path fill="none" stroke="none"/><text fill="#000000" font-family="Arial" font-size="13px" font-style="normal" font-weight="normal" stroke="none" text-decoration="none" x="164.5" y="259">1 : cliquerButtonDelete(task)</text></g></g><g transform="translate(-38,2) scale(1,1)"><rect fill="#ffffff" height="45" stroke="none" width="13" x="380" y="264"/></g><g transform="translate(-38,2) scale(1,1)"><path d="M 380 264 L 393 264 L 393 309 L 380 309 L 380 264 Z Z" fill="none" stroke="#000000" stroke-miterlimit="10"/></g><g transform="translate(-38,2) scale(1,1)"><path d="M 393 288 L 616 288" fill="none" stroke="#000000" stroke-miterlimit="10"/></g><g transform="translate(-38,2) scale(1,1)"><path d="M 605.8373251423759 292.209517756016 L 616 288 L 605.8373251423758 283.790482243984" fill="#000000" stroke="none"/></g><g transform="translate(-38,2) scale(1,1)"><path d="M 605.8373251423759 292.209517756016 L 616 288 L 605.8373251423758 283.790482243984 L 605.8373251423759 292.209517756016" fill="none" stroke="#000000" stroke-miterlimit="10"/></g><g transform="translate(-38,2) scale(1,1)"><g><path fill="none" stroke="none"/><text fill="#000000" font-family="Arial" font-size="13px" font-style="normal" font-weight="normal" stroke="none" text-decoration="none" x="409.5" y="283">2 : SupprimerTâche(project,task)</text></g></g><g transform="translate(-38,2) scale(1,1)"><rect fill="#ffffff" height="54" stroke="none" width="13" x="616" y="288"/></g><g transform="translate(-38,2) scale(1,1)"><path d="M 616 288 L 629 288 L 629 342 L 616 342 L 616 288 Z Z" fill="none" stroke="#000000" stroke-miterlimit="10"/></g><g transform="translate(-38,2) scale(1,1)"><path d="M 629 312 L 861 312" fill="none" stroke="#000000" stroke-miterlimit="10"/></g><g transform="translate(-38,2) scale(1,1)"><path d="M 850.8373251423759 316.209517756016 L 861 312 L 850.8373251423758 307.790482243984" fill="#000000" stroke="none"/></g><g transform="translate(-38,2) scale(1,1)"><path d="M 850.8373251423759 316.209517756016 L 861 312 L 850.8373251423758 307.790482243984 L 850.8373251423759 316.209517756016" fill="none" stroke="#000000" stroke-miterlimit="10"/></g><g transform="translate(-38,2) scale(1,1)"><g><path fill="none" stroke="none"/><text fill="#000000" font-family="Arial" font-size="13px" font-style="normal" font-weight="normal" stroke="none" text-decoration="none" x="618.5" y="307">3 : RemoveTaskFromProject(project.id,task)</text></g></g><g transform="translate(-38,2) scale(1,1)"><rect fill="#ffffff" height="28" stroke="none" width="13" x="861" y="312"/></g><g transform="translate(-38,2) scale(1,1)"><path d="M 861 312 L 874 312 L 874 340 L 861 340 L 861 312 Z Z" fill="none" stroke="#000000" stroke-miterlimit="10"/></g><g transform="translate(-38,2) scale(1,1)"><path d="M 623 368 L 387 368" fill="none" stroke="#000000" stroke-dasharray="3" stroke-miterlimit="10"/></g><g transform="translate(-38,2) scale(1,1)"><path d="M 397.16267485762415 363.790482243984 L 387 368 L 397.16267485762415 372.209517756016" fill="none" stroke="#000000" stroke-miterlimit="10"/></g><g transform="translate(-38,2) scale(1,1)"><g><path fill="none" stroke="none"/><text fill="#000000" font-family="Arial" font-size="13px" font-style="normal" font-weight="normal" stroke="none" text-decoration="none" x="390.5" y="383">4 : Message(Task deleted successfully)</text></g></g></g></svg>