<?xml version="1.0" encoding="UTF-8" standalone="no"?><svg xmlns="http://www.w3.org/2000/svg" xmlns:xlink="http://www.w3.org/1999/xlink" height="612" version="1.1" width="924"><defs/><g><g transform="translate(-30,10) scale(1,1)"><path d="M 40 0 L 944 0 L 944 591 L 40 591 L 40 0" fill="none" stroke="#000000" stroke-miterlimit="10"/></g><g transform="translate(-30,10) scale(1,1)"><path d="M 40 0 L 40 22 L 175.2470703125 22 L 186.2470703125 11 L 186.2470703125 0 L 40 0" fill="#ffffff" stroke="none"/></g><g transform="translate(-30,10) scale(1,1)"><path d="M 40 0 L 40 22 L 175.2470703125 22 L 186.2470703125 11 L 186.2470703125 0 L 40 0 L 40 0" fill="none" stroke="#000000" stroke-miterlimit="10"/></g><g transform="translate(-30,10) scale(1,1)"><g><path fill="none" stroke="none"/><text fill="#000000" font-family="Arial" font-size="13px" font-style="normal" font-weight="normal" stroke="none" text-decoration="none" x="64.72998046875" y="16">Ajouter une  tâche</text></g></g><g transform="translate(-30,10) scale(1,1)"><g><path fill="none" stroke="none"/><text fill="#000000" font-family="Arial" font-size="13px" font-style="normal" font-weight="bold" stroke="none" text-decoration="none" x="44.279541015625" y="16">sd</text></g></g><g transform="translate(-30,10) scale(1,1)"><path d="M 106.8631454190341 47.3 C 106.8631454190341 43.82060576 109.74154714121592 41 113.292236328125 41 C 116.84292551503408 41 119.7213272372159 43.82060576 119.7213272372159 47.3 C 119.7213272372159 50.779394239999995 116.84292551503408 53.6 113.292236328125 53.6 C 109.74154714121592 53.6 106.8631454190341 50.779394239999995 106.8631454190341 47.3 Z" fill="#ffffff" stroke="none"/></g><g transform="translate(-30,10) scale(1,1)"><path d="M 106.8631454190341 47.3 C 106.8631454190341 43.82060576 109.74154714121592 41 113.292236328125 41 C 116.84292551503408 41 119.7213272372159 43.82060576 119.7213272372159 47.3 C 119.7213272372159 50.779394239999995 116.84292551503408 53.6 113.292236328125 53.6 C 109.74154714121592 53.6 106.8631454190341 50.779394239999995 106.8631454190341 47.3 Z" fill="none" stroke="#000000" stroke-miterlimit="10"/></g><g transform="translate(-30,10) scale(1,1)"><path d="M 113.292236328125 53.6 L 113.292236328125 66.4" fill="none" stroke="#000000" stroke-miterlimit="10"/></g><g transform="translate(-30,10) scale(1,1)"><path d="M 106.48496360085227 58.4 L 120.09950905539773 58.4" fill="none" stroke="#000000" stroke-miterlimit="10"/></g><g transform="translate(-30,10) scale(1,1)"><path d="M 113.292236328125 66.4 L 103.83769087357955 79" fill="none" stroke="#000000" stroke-miterlimit="10"/></g><g transform="translate(-30,10) scale(1,1)"><path d="M 113.292236328125 66.4 L 122.74678178267045 79" fill="none" stroke="#000000" stroke-miterlimit="10"/></g><g transform="translate(-30,10) scale(1,1)"><g><path fill="none" stroke="none"/><text fill="#000000" font-family="Arial" font-size="13px" font-style="normal" font-weight="bold" stroke="none" text-decoration="none" x="68.5" y="98">Lifeline1: User</text></g></g><g transform="translate(-30,10) scale(1,1)"><path d="M 114.5 105 L 114.5 592" fill="none" stroke="#000000" stroke-dasharray="3" stroke-miterlimit="10"/></g><g transform="translate(-30,10) scale(1,1)"><rect fill="#C0C0C0" height="39" opacity="0.2" stroke="none" width="117.02685546875" x="351" y="47"/></g><g transform="translate(-30,10) scale(1,1)"><rect fill="#ffffff" height="39" stroke="none" width="117.02685546875" x="344" y="40"/></g><g transform="translate(-30,10) scale(1,1)"><path d="M 344 40 L 461.02685546875 40 L 461.02685546875 79 L 344 79 L 344 40 Z Z" fill="none" stroke="#000000" stroke-miterlimit="10"/></g><g transform="translate(-30,10) scale(1,1)"><g><path fill="none" stroke="none"/><text fill="#000000" font-family="Arial" font-size="13px" font-style="normal" font-weight="bold" stroke="none" text-decoration="none" x="353.5" y="58">Interface: Tasks</text></g></g><g transform="translate(-30,10) scale(1,1)"><path d="M 403.5 80 L 403.5 592" fill="none" stroke="#000000" stroke-dasharray="3" stroke-miterlimit="10"/></g><g transform="translate(-30,10) scale(1,1)"><rect fill="#C0C0C0" height="39" opacity="0.2" stroke="none" width="140.3544921875" x="575" y="47"/></g><g transform="translate(-30,10) scale(1,1)"><rect fill="#ffffff" height="39" stroke="none" width="140.3544921875" x="568" y="40"/></g><g transform="translate(-30,10) scale(1,1)"><path d="M 568 40 L 708.3544921875 40 L 708.3544921875 79 L 568 79 L 568 40 Z Z" fill="none" stroke="#000000" stroke-miterlimit="10"/></g><g transform="translate(-30,10) scale(1,1)"><g><path fill="none" stroke="none"/><text fill="#000000" font-family="Arial" font-size="13px" font-style="normal" font-weight="bold" stroke="none" text-decoration="none" x="577.5" y="58">Controller: Projects</text></g></g><g transform="translate(-30,10) scale(1,1)"><path d="M 639.5 80 L 639.5 592" fill="none" stroke="#000000" stroke-dasharray="3" stroke-miterlimit="10"/></g><g transform="translate(-30,10) scale(1,1)"><rect fill="#C0C0C0" height="39" opacity="0.2" stroke="none" width="71.736328125" x="847" y="47"/></g><g transform="translate(-30,10) scale(1,1)"><rect fill="#ffffff" height="39" stroke="none" width="71.736328125" x="840" y="40"/></g><g transform="translate(-30,10) scale(1,1)"><path d="M 840 40 L 911.736328125 40 L 911.736328125 79 L 840 79 L 840 40 Z Z" fill="none" stroke="#000000" stroke-miterlimit="10"/></g><g transform="translate(-30,10) scale(1,1)"><g><path fill="none" stroke="none"/><text fill="#000000" font-family="Arial" font-size="13px" font-style="normal" font-weight="bold" stroke="none" text-decoration="none" x="850.21728515625" y="58">Projects</text></g></g><g transform="translate(-30,10) scale(1,1)"><path d="M 876.5 80 L 876.5 592" fill="none" stroke="#000000" stroke-dasharray="3" stroke-miterlimit="10"/></g><g transform="translate(-30,10) scale(1,1)"><rect fill="#C0C0C0" height="39" opacity="0.2" stroke="none" width="132.4326171875" x="175" y="47"/></g><g transform="translate(-30,10) scale(1,1)"><rect fill="#ffffff" height="39" stroke="none" width="132.4326171875" x="168" y="40"/></g><g transform="translate(-30,10) scale(1,1)"><path d="M 168 40 L 300.4326171875 40 L 300.4326171875 79 L 168 79 L 168 40 Z Z" fill="none" stroke="#000000" stroke-miterlimit="10"/></g><g transform="translate(-30,10) scale(1,1)"><g><path fill="none" stroke="none"/><text fill="#000000" font-family="Arial" font-size="13px" font-style="normal" font-weight="bold" stroke="none" text-decoration="none" x="177.5" y="58">Interface: Projects</text></g></g><g transform="translate(-30,10) scale(1,1)"><path d="M 235.5 80 L 235.5 592" fill="none" stroke="#000000" stroke-dasharray="3" stroke-miterlimit="10"/></g><g transform="translate(-30,10) scale(1,1)"><rect fill="#ffffff" height="135" stroke="none" width="832" x="72" y="128"/></g><g transform="translate(-30,10) scale(1,1)"><path d="M 72 128 L 904 128 L 904 263 L 72 263 L 72 128 Z Z" fill="none" stroke="#000000" stroke-miterlimit="10"/></g><g transform="translate(-30,10) scale(1,1)"><path d="M 72 128 L 72 150 L 97.1708984375 150 L 108.1708984375 139 L 108.1708984375 128 L 72 128 L 72 128" fill="none" stroke="#000000" stroke-miterlimit="10"/></g><g transform="translate(-30,10) scale(1,1)"><g><path fill="none" stroke="none"/><text fill="#000000" font-family="Arial" font-size="13px" font-style="normal" font-weight="normal" stroke="none" text-decoration="none" x="506.08544921875" y="139"/></g></g><g transform="translate(-30,10) scale(1,1)"><g><path fill="none" stroke="none"/><text fill="#000000" font-family="Arial" font-size="13px" font-style="normal" font-weight="bold" stroke="none" text-decoration="none" x="76.2763671875" y="144">ref</text></g></g><g transform="translate(-30,10) scale(1,1)"><path d="M 114 306 L 396 306" fill="none" stroke="#000000" stroke-miterlimit="10"/></g><g transform="translate(-30,10) scale(1,1)"><path d="M 385.83732514237585 310.209517756016 L 396 306 L 385.83732514237585 301.790482243984" fill="#000000" stroke="none"/></g><g transform="translate(-30,10) scale(1,1)"><path d="M 385.83732514237585 310.209517756016 L 396 306 L 385.83732514237585 301.790482243984 L 385.83732514237585 310.209517756016" fill="none" stroke="#000000" stroke-miterlimit="10"/></g><g transform="translate(-30,10) scale(1,1)"><g><path fill="none" stroke="none"/><text fill="#000000" font-family="Arial" font-size="13px" font-style="normal" font-weight="normal" stroke="none" text-decoration="none" x="175.364990234375" y="301">1 : cliquerButtonCreateTask</text></g></g><g transform="translate(-30,10) scale(1,1)"><rect fill="#ffffff" height="28" stroke="none" width="13" x="396" y="306"/></g><g transform="translate(-30,10) scale(1,1)"><path d="M 396 306 L 409 306 L 409 334 L 396 334 L 396 306 Z Z" fill="none" stroke="#000000" stroke-miterlimit="10"/></g><g transform="translate(-30,10) scale(1,1)"><path d="M 403 344 L 433 344 L 433 364 L 409 364" fill="none" stroke="#000000" stroke-miterlimit="10"/></g><g transform="translate(-30,10) scale(1,1)"><path d="M 419.16267485762415 359.790482243984 L 409 364 L 419.16267485762415 368.209517756016" fill="#000000" stroke="none"/></g><g transform="translate(-30,10) scale(1,1)"><path d="M 419.16267485762415 359.790482243984 L 409 364 L 419.16267485762415 368.209517756016 L 419.16267485762415 359.790482243984" fill="none" stroke="#000000" stroke-miterlimit="10"/></g><g transform="translate(-30,10) scale(1,1)"><g><path fill="none" stroke="none"/><text fill="#000000" font-family="Arial" font-size="13px" font-style="normal" font-weight="normal" stroke="none" text-decoration="none" x="456.1708984375" y="358">2 : ChargerPopupAddTask</text></g></g><g transform="translate(-30,10) scale(1,1)"><rect fill="#ffffff" height="28" stroke="none" width="13" x="396" y="364"/></g><g transform="translate(-30,10) scale(1,1)"><path d="M 396 364 L 409 364 L 409 392 L 396 392 L 396 364 Z Z" fill="none" stroke="#000000" stroke-miterlimit="10"/></g><g transform="translate(-30,10) scale(1,1)"><path d="M 114 410 L 396 410" fill="none" stroke="#000000" stroke-miterlimit="10"/></g><g transform="translate(-30,10) scale(1,1)"><path d="M 385.83732514237585 414.209517756016 L 396 410 L 385.83732514237585 405.790482243984" fill="#000000" stroke="none"/></g><g transform="translate(-30,10) scale(1,1)"><path d="M 385.83732514237585 414.209517756016 L 396 410 L 385.83732514237585 405.790482243984 L 385.83732514237585 414.209517756016" fill="none" stroke="#000000" stroke-miterlimit="10"/></g><g transform="translate(-30,10) scale(1,1)"><g><path fill="none" stroke="none"/><text fill="#000000" font-family="Arial" font-size="13px" font-style="normal" font-weight="normal" stroke="none" text-decoration="none" x="175.5" y="405">3 : saisirDonnées(données)</text></g></g><g transform="translate(-30,10) scale(1,1)"><rect fill="#ffffff" height="28" stroke="none" width="13" x="396" y="410"/></g><g transform="translate(-30,10) scale(1,1)"><path d="M 396 410 L 409 410 L 409 438 L 396 438 L 396 410 Z Z" fill="none" stroke="#000000" stroke-miterlimit="10"/></g><g transform="translate(-30,10) scale(1,1)"><path d="M 114 464 L 396 464" fill="none" stroke="#000000" stroke-miterlimit="10"/></g><g transform="translate(-30,10) scale(1,1)"><path d="M 385.83732514237585 468.209517756016 L 396 464 L 385.83732514237585 459.790482243984" fill="#000000" stroke="none"/></g><g transform="translate(-30,10) scale(1,1)"><path d="M 385.83732514237585 468.209517756016 L 396 464 L 385.83732514237585 459.790482243984 L 385.83732514237585 468.209517756016" fill="none" stroke="#000000" stroke-miterlimit="10"/></g><g transform="translate(-30,10) scale(1,1)"><g><path fill="none" stroke="none"/><text fill="#000000" font-family="Arial" font-size="13px" font-style="normal" font-weight="normal" stroke="none" text-decoration="none" x="215.5" y="459">4 : cliquerAdd</text></g></g><g transform="translate(-30,10) scale(1,1)"><rect fill="#ffffff" height="28" stroke="none" width="13" x="396" y="464"/></g><g transform="translate(-30,10) scale(1,1)"><path d="M 396 464 L 409 464 L 409 492 L 396 492 L 396 464 Z Z" fill="none" stroke="#000000" stroke-miterlimit="10"/></g><g transform="translate(-30,10) scale(1,1)"><path d="M 409 472 L 632 472" fill="none" stroke="#000000" stroke-miterlimit="10"/></g><g transform="translate(-30,10) scale(1,1)"><path d="M 621.8373251423759 476.209517756016 L 632 472 L 621.8373251423758 467.790482243984" fill="#000000" stroke="none"/></g><g transform="translate(-30,10) scale(1,1)"><path d="M 621.8373251423759 476.209517756016 L 632 472 L 621.8373251423758 467.790482243984 L 621.8373251423759 476.209517756016" fill="none" stroke="#000000" stroke-miterlimit="10"/></g><g transform="translate(-30,10) scale(1,1)"><g><path fill="none" stroke="none"/><text fill="#000000" font-family="Arial" font-size="13px" font-style="normal" font-weight="normal" stroke="none" text-decoration="none" x="411.5" y="467">5 : AjouterUnetâche(données,project)</text></g></g><g transform="translate(-30,10) scale(1,1)"><rect fill="#ffffff" height="28" stroke="none" width="13" x="632" y="472"/></g><g transform="translate(-30,10) scale(1,1)"><path d="M 632 472 L 645 472 L 645 500 L 632 500 L 632 472 Z Z" fill="none" stroke="#000000" stroke-miterlimit="10"/></g><g transform="translate(-30,10) scale(1,1)"><path d="M 645 480 L 869 480" fill="none" stroke="#000000" stroke-miterlimit="10"/></g><g transform="translate(-30,10) scale(1,1)"><path d="M 858.8373251423759 484.209517756016 L 869 480 L 858.8373251423758 475.790482243984" fill="#000000" stroke="none"/></g><g transform="translate(-30,10) scale(1,1)"><path d="M 858.8373251423759 484.209517756016 L 869 480 L 858.8373251423758 475.790482243984 L 858.8373251423759 484.209517756016" fill="none" stroke="#000000" stroke-miterlimit="10"/></g><g transform="translate(-30,10) scale(1,1)"><g><path fill="none" stroke="none"/><text fill="#000000" font-family="Arial" font-size="13px" font-style="normal" font-weight="normal" stroke="none" text-decoration="none" x="641.864990234375" y="475">6 : AddTaskToProject(project.id,données)</text></g></g><g transform="translate(-30,10) scale(1,1)"><rect fill="#ffffff" height="28" stroke="none" width="13" x="869" y="480"/></g><g transform="translate(-30,10) scale(1,1)"><path d="M 869 480 L 882 480 L 882 508 L 869 508 L 869 480 Z Z" fill="none" stroke="#000000" stroke-miterlimit="10"/></g><g transform="translate(-30,10) scale(1,1)"><path d="M 639 544 L 403 544" fill="none" stroke="#000000" stroke-dasharray="3" stroke-miterlimit="10"/></g><g transform="translate(-30,10) scale(1,1)"><path d="M 413.16267485762415 539.790482243984 L 403 544 L 413.16267485762415 548.209517756016" fill="none" stroke="#000000" stroke-miterlimit="10"/></g><g transform="translate(-30,10) scale(1,1)"><g><path fill="none" stroke="none"/><text fill="#000000" font-family="Arial" font-size="13px" font-style="normal" font-weight="normal" stroke="none" text-decoration="none" x="410.5" y="559">7 : Message(Task added successfully)</text></g></g></g></svg>