<?xml version="1.0" encoding="UTF-8" standalone="no"?><svg xmlns="http://www.w3.org/2000/svg" xmlns:xlink="http://www.w3.org/1999/xlink" height="724" version="1.1" width="740"><defs/><g><g transform="translate(-62,10) scale(1,1)"><path d="M 72 0 L 792 0 L 792 704 L 72 704 L 72 0" fill="none" stroke="#000000" stroke-miterlimit="10"/></g><g transform="translate(-62,10) scale(1,1)"><path d="M 72 0 L 72 22 L 197.12255859375 22 L 208.12255859375 11 L 208.12255859375 0 L 72 0" fill="#ffffff" stroke="none"/></g><g transform="translate(-62,10) scale(1,1)"><path d="M 72 0 L 72 22 L 197.12255859375 22 L 208.12255859375 11 L 208.12255859375 0 L 72 0 L 72 0" fill="none" stroke="#000000" stroke-miterlimit="10"/></g><g transform="translate(-62,10) scale(1,1)"><g><path fill="none" stroke="none"/><text fill="#000000" font-family="Arial" font-size="13px" font-style="normal" font-weight="normal" stroke="none" text-decoration="none" x="96.72998046875" y="16">Ajouter un projet</text></g></g><g transform="translate(-62,10) scale(1,1)"><g><path fill="none" stroke="none"/><text fill="#000000" font-family="Arial" font-size="13px" font-style="normal" font-weight="bold" stroke="none" text-decoration="none" x="76.279541015625" y="16">sd</text></g></g><g transform="translate(-62,10) scale(1,1)"><path d="M 114.8631454190341 47.3 C 114.8631454190341 43.82060576 117.7415471412159 41 121.292236328125 41 C 124.8429255150341 41 127.72132723721592 43.82060576 127.72132723721592 47.3 C 127.72132723721592 50.779394239999995 124.8429255150341 53.6 121.292236328125 53.6 C 117.7415471412159 53.6 114.8631454190341 50.779394239999995 114.8631454190341 47.3 Z" fill="#ffffff" stroke="none"/></g><g transform="translate(-62,10) scale(1,1)"><path d="M 114.8631454190341 47.3 C 114.8631454190341 43.82060576 117.7415471412159 41 121.292236328125 41 C 124.8429255150341 41 127.72132723721592 43.82060576 127.72132723721592 47.3 C 127.72132723721592 50.779394239999995 124.8429255150341 53.6 121.292236328125 53.6 C 117.7415471412159 53.6 114.8631454190341 50.779394239999995 114.8631454190341 47.3 Z" fill="none" stroke="#000000" stroke-miterlimit="10"/></g><g transform="translate(-62,10) scale(1,1)"><path d="M 121.292236328125 53.6 L 121.292236328125 66.4" fill="none" stroke="#000000" stroke-miterlimit="10"/></g><g transform="translate(-62,10) scale(1,1)"><path d="M 114.48496360085228 58.4 L 128.09950905539773 58.4" fill="none" stroke="#000000" stroke-miterlimit="10"/></g><g transform="translate(-62,10) scale(1,1)"><path d="M 121.292236328125 66.4 L 111.83769087357955 79" fill="none" stroke="#000000" stroke-miterlimit="10"/></g><g transform="translate(-62,10) scale(1,1)"><path d="M 121.292236328125 66.4 L 130.74678178267047 79" fill="none" stroke="#000000" stroke-miterlimit="10"/></g><g transform="translate(-62,10) scale(1,1)"><g><path fill="none" stroke="none"/><text fill="#000000" font-family="Arial" font-size="13px" font-style="normal" font-weight="bold" stroke="none" text-decoration="none" x="76.5" y="98">Lifeline1: User</text></g></g><g transform="translate(-62,10) scale(1,1)"><path d="M 122.5 105 L 122.5 704" fill="none" stroke="#000000" stroke-dasharray="3" stroke-miterlimit="10"/></g><g transform="translate(-62,10) scale(1,1)"><rect fill="#C0C0C0" height="39" opacity="0.2" stroke="none" width="132.4326171875" x="287" y="47"/></g><g transform="translate(-62,10) scale(1,1)"><rect fill="#ffffff" height="39" stroke="none" width="132.4326171875" x="280" y="40"/></g><g transform="translate(-62,10) scale(1,1)"><path d="M 280 40 L 412.4326171875 40 L 412.4326171875 79 L 280 79 L 280 40 Z Z" fill="none" stroke="#000000" stroke-miterlimit="10"/></g><g transform="translate(-62,10) scale(1,1)"><g><path fill="none" stroke="none"/><text fill="#000000" font-family="Arial" font-size="13px" font-style="normal" font-weight="bold" stroke="none" text-decoration="none" x="289.5" y="58">Interface: Projects</text></g></g><g transform="translate(-62,10) scale(1,1)"><path d="M 347.5 80 L 347.5 704" fill="none" stroke="#000000" stroke-dasharray="3" stroke-miterlimit="10"/></g><g transform="translate(-62,10) scale(1,1)"><rect fill="#C0C0C0" height="39" opacity="0.2" stroke="none" width="140.3544921875" x="495" y="47"/></g><g transform="translate(-62,10) scale(1,1)"><rect fill="#ffffff" height="39" stroke="none" width="140.3544921875" x="488" y="40"/></g><g transform="translate(-62,10) scale(1,1)"><path d="M 488 40 L 628.3544921875 40 L 628.3544921875 79 L 488 79 L 488 40 Z Z" fill="none" stroke="#000000" stroke-miterlimit="10"/></g><g transform="translate(-62,10) scale(1,1)"><g><path fill="none" stroke="none"/><text fill="#000000" font-family="Arial" font-size="13px" font-style="normal" font-weight="bold" stroke="none" text-decoration="none" x="497.5" y="58">Controller: Projects</text></g></g><g transform="translate(-62,10) scale(1,1)"><path d="M 559.5 80 L 559.5 704" fill="none" stroke="#000000" stroke-dasharray="3" stroke-miterlimit="10"/></g><g transform="translate(-62,10) scale(1,1)"><rect fill="#C0C0C0" height="39" opacity="0.2" stroke="none" width="70.3017578125" x="703" y="47"/></g><g transform="translate(-62,10) scale(1,1)"><rect fill="#ffffff" height="39" stroke="none" width="70.3017578125" x="696" y="40"/></g><g transform="translate(-62,10) scale(1,1)"><path d="M 696 40 L 766.3017578125 40 L 766.3017578125 79 L 696 79 L 696 40 Z Z" fill="none" stroke="#000000" stroke-miterlimit="10"/></g><g transform="translate(-62,10) scale(1,1)"><g><path fill="none" stroke="none"/><text fill="#000000" font-family="Arial" font-size="13px" font-style="normal" font-weight="bold" stroke="none" text-decoration="none" x="705.5" y="58">Projects</text></g></g><g transform="translate(-62,10) scale(1,1)"><path d="M 732.5 80 L 732.5 704" fill="none" stroke="#000000" stroke-dasharray="3" stroke-miterlimit="10"/></g><g transform="translate(-62,10) scale(1,1)"><rect fill="#ffffff" height="79" stroke="none" width="672" x="96" y="104"/></g><g transform="translate(-62,10) scale(1,1)"><path d="M 96 104 L 768 104 L 768 183 L 96 183 L 96 104 Z Z" fill="none" stroke="#000000" stroke-miterlimit="10"/></g><g transform="translate(-62,10) scale(1,1)"><path d="M 96 104 L 96 126 L 121.1708984375 126 L 132.1708984375 115 L 132.1708984375 104 L 96 104 L 96 104" fill="none" stroke="#000000" stroke-miterlimit="10"/></g><g transform="translate(-62,10) scale(1,1)"><g><path fill="none" stroke="none"/><text fill="#000000" font-family="Arial" font-size="13px" font-style="normal" font-weight="normal" stroke="none" text-decoration="none" x="450.08544921875" y="115"/></g></g><g transform="translate(-62,10) scale(1,1)"><g><path fill="none" stroke="none"/><text fill="#000000" font-family="Arial" font-size="13px" font-style="normal" font-weight="bold" stroke="none" text-decoration="none" x="100.2763671875" y="120">ref</text></g></g><g transform="translate(-62,10) scale(1,1)"><path d="M 122 209 L 340 209" fill="none" stroke="#000000" stroke-miterlimit="10"/></g><g transform="translate(-62,10) scale(1,1)"><path d="M 329.83732514237585 213.209517756016 L 340 209 L 329.83732514237585 204.790482243984" fill="#000000" stroke="none"/></g><g transform="translate(-62,10) scale(1,1)"><path d="M 329.83732514237585 213.209517756016 L 340 209 L 329.83732514237585 204.790482243984 L 329.83732514237585 213.209517756016" fill="none" stroke="#000000" stroke-miterlimit="10"/></g><g transform="translate(-62,10) scale(1,1)"><g><path fill="none" stroke="none"/><text fill="#000000" font-family="Arial" font-size="13px" font-style="normal" font-weight="normal" stroke="none" text-decoration="none" x="171.5" y="204">1 : cliquerAddProject</text></g></g><g transform="translate(-62,10) scale(1,1)"><rect fill="#ffffff" height="28" stroke="none" width="13" x="340" y="209"/></g><g transform="translate(-62,10) scale(1,1)"><path d="M 340 209 L 353 209 L 353 237 L 340 237 L 340 209 Z Z" fill="none" stroke="#000000" stroke-miterlimit="10"/></g><g transform="translate(-62,10) scale(1,1)"><path d="M 347 240 L 377 240 L 377 260 L 353 260" fill="none" stroke="#000000" stroke-miterlimit="10"/></g><g transform="translate(-62,10) scale(1,1)"><path d="M 363.16267485762415 255.790482243984 L 353 260 L 363.16267485762415 264.209517756016" fill="#000000" stroke="none"/></g><g transform="translate(-62,10) scale(1,1)"><path d="M 363.16267485762415 255.790482243984 L 353 260 L 363.16267485762415 264.209517756016 L 363.16267485762415 255.790482243984" fill="none" stroke="#000000" stroke-miterlimit="10"/></g><g transform="translate(-62,10) scale(1,1)"><g><path fill="none" stroke="none"/><text fill="#000000" font-family="Arial" font-size="13px" font-style="normal" font-weight="normal" stroke="none" text-decoration="none" x="383.5" y="251">2 : chargerPupup(AddProject)</text></g></g><g transform="translate(-62,10) scale(1,1)"><rect fill="#ffffff" height="28" stroke="none" width="13" x="340" y="260"/></g><g transform="translate(-62,10) scale(1,1)"><path d="M 340 260 L 353 260 L 353 288 L 340 288 L 340 260 Z Z" fill="none" stroke="#000000" stroke-miterlimit="10"/></g><g transform="translate(-62,10) scale(1,1)"><path d="M 122 304 L 340 304" fill="none" stroke="#000000" stroke-miterlimit="10"/></g><g transform="translate(-62,10) scale(1,1)"><path d="M 329.83732514237585 308.209517756016 L 340 304 L 329.83732514237585 299.790482243984" fill="#000000" stroke="none"/></g><g transform="translate(-62,10) scale(1,1)"><path d="M 329.83732514237585 308.209517756016 L 340 304 L 329.83732514237585 299.790482243984 L 329.83732514237585 308.209517756016" fill="none" stroke="#000000" stroke-miterlimit="10"/></g><g transform="translate(-62,10) scale(1,1)"><g><path fill="none" stroke="none"/><text fill="#000000" font-family="Arial" font-size="13px" font-style="normal" font-weight="normal" stroke="none" text-decoration="none" x="127.5" y="299">3 : saisirDonnées(ProjectInfo,Team)</text></g></g><g transform="translate(-62,10) scale(1,1)"><rect fill="#ffffff" height="28" stroke="none" width="13" x="340" y="304"/></g><g transform="translate(-62,10) scale(1,1)"><path d="M 340 304 L 353 304 L 353 332 L 340 332 L 340 304 Z Z" fill="none" stroke="#000000" stroke-miterlimit="10"/></g><g transform="translate(-62,10) scale(1,1)"><path d="M 122 352 L 340 352" fill="none" stroke="#000000" stroke-miterlimit="10"/></g><g transform="translate(-62,10) scale(1,1)"><path d="M 329.83732514237585 356.209517756016 L 340 352 L 329.83732514237585 347.790482243984" fill="#000000" stroke="none"/></g><g transform="translate(-62,10) scale(1,1)"><path d="M 329.83732514237585 356.209517756016 L 340 352 L 329.83732514237585 347.790482243984 L 329.83732514237585 356.209517756016" fill="none" stroke="#000000" stroke-miterlimit="10"/></g><g transform="translate(-62,10) scale(1,1)"><g><path fill="none" stroke="none"/><text fill="#000000" font-family="Arial" font-size="13px" font-style="normal" font-weight="normal" stroke="none" text-decoration="none" x="173.5" y="347">4 : cliquerAddbutton</text></g></g><g transform="translate(-62,10) scale(1,1)"><rect fill="#ffffff" height="48" stroke="none" width="13" x="340" y="352"/></g><g transform="translate(-62,10) scale(1,1)"><path d="M 340 352 L 353 352 L 353 400 L 340 400 L 340 352 Z Z" fill="none" stroke="#000000" stroke-miterlimit="10"/></g><g transform="translate(-62,10) scale(1,1)"><path d="M 353 368 L 552 368" fill="none" stroke="#000000" stroke-miterlimit="10"/></g><g transform="translate(-62,10) scale(1,1)"><path d="M 541.8373251423759 372.209517756016 L 552 368 L 541.8373251423758 363.790482243984" fill="#000000" stroke="none"/></g><g transform="translate(-62,10) scale(1,1)"><path d="M 541.8373251423759 372.209517756016 L 552 368 L 541.8373251423758 363.790482243984 L 541.8373251423759 372.209517756016" fill="none" stroke="#000000" stroke-miterlimit="10"/></g><g transform="translate(-62,10) scale(1,1)"><g><path fill="none" stroke="none"/><text fill="#000000" font-family="Arial" font-size="13px" font-style="normal" font-weight="normal" stroke="none" text-decoration="none" x="381.5" y="363">5 : AddProject(données)</text></g></g><g transform="translate(-62,10) scale(1,1)"><rect fill="#ffffff" height="32" stroke="none" width="13" x="552" y="368"/></g><g transform="translate(-62,10) scale(1,1)"><path d="M 552 368 L 565 368 L 565 400 L 552 400 L 552 368 Z Z" fill="none" stroke="#000000" stroke-miterlimit="10"/></g><g transform="translate(-62,10) scale(1,1)"><path d="M 559 416 L 589 416 L 589 436 L 565 436" fill="none" stroke="#000000" stroke-miterlimit="10"/></g><g transform="translate(-62,10) scale(1,1)"><path d="M 575.1626748576241 431.790482243984 L 565 436 L 575.1626748576241 440.209517756016" fill="#000000" stroke="none"/></g><g transform="translate(-62,10) scale(1,1)"><path d="M 575.1626748576241 431.790482243984 L 565 436 L 575.1626748576241 440.209517756016 L 575.1626748576241 431.790482243984" fill="none" stroke="#000000" stroke-miterlimit="10"/></g><g transform="translate(-62,10) scale(1,1)"><g><path fill="none" stroke="none"/><text fill="#000000" font-family="Arial" font-size="13px" font-style="normal" font-weight="normal" stroke="none" text-decoration="none" x="589.5" y="435">6 : VerifInfo(données)</text></g></g><g transform="translate(-62,10) scale(1,1)"><rect fill="#ffffff" height="220" stroke="none" width="13" x="552" y="436"/></g><g transform="translate(-62,10) scale(1,1)"><path d="M 552 436 L 565 436 L 565 656 L 552 656 L 552 436 Z Z" fill="none" stroke="#000000" stroke-miterlimit="10"/></g><g transform="translate(-62,10) scale(1,1)"><path d="M 552 512 L 347 512" fill="none" stroke="#000000" stroke-dasharray="3" stroke-miterlimit="10"/></g><g transform="translate(-62,10) scale(1,1)"><path d="M 357.16267485762415 507.790482243984 L 347 512 L 357.16267485762415 516.209517756016" fill="none" stroke="#000000" stroke-miterlimit="10"/></g><g transform="translate(-62,10) scale(1,1)"><g><path fill="none" stroke="none"/><text fill="#000000" font-family="Arial" font-size="13px" font-style="normal" font-weight="normal" stroke="none" text-decoration="none" x="372.824951171875" y="531">7 : Message(invalid info)</text></g></g><g transform="translate(-62,10) scale(1,1)"><path d="M 565 608 L 725 608" fill="none" stroke="#000000" stroke-miterlimit="10"/></g><g transform="translate(-62,10) scale(1,1)"><path d="M 714.8373251423759 612.209517756016 L 725 608 L 714.8373251423758 603.790482243984" fill="#000000" stroke="none"/></g><g transform="translate(-62,10) scale(1,1)"><path d="M 714.8373251423759 612.209517756016 L 725 608 L 714.8373251423758 603.790482243984 L 714.8373251423759 612.209517756016" fill="none" stroke="#000000" stroke-miterlimit="10"/></g><g transform="translate(-62,10) scale(1,1)"><g><path fill="none" stroke="none"/><text fill="#000000" font-family="Arial" font-size="13px" font-style="normal" font-weight="normal" stroke="none" text-decoration="none" x="565.5" y="603">8 : CréationProjet(données)</text></g></g><g transform="translate(-62,10) scale(1,1)"><rect fill="#ffffff" height="28" stroke="none" width="13" x="725" y="608"/></g><g transform="translate(-62,10) scale(1,1)"><path d="M 725 608 L 738 608 L 738 636 L 725 636 L 725 608 Z Z" fill="none" stroke="#000000" stroke-miterlimit="10"/></g><g transform="translate(-62,10) scale(1,1)"><path d="M 552 632 L 347 632" fill="none" stroke="#000000" stroke-dasharray="3" stroke-miterlimit="10"/></g><g transform="translate(-62,10) scale(1,1)"><path d="M 357.16267485762415 627.790482243984 L 347 632 L 357.16267485762415 636.209517756016" fill="none" stroke="#000000" stroke-miterlimit="10"/></g><g transform="translate(-62,10) scale(1,1)"><g><path fill="none" stroke="none"/><text fill="#000000" font-family="Arial" font-size="13px" font-style="normal" font-weight="normal" stroke="none" text-decoration="none" x="368.42724609375" y="647">9 : Message(Project added)</text></g></g><g transform="translate(-62,10) scale(1,1)"><path d="M 96 496 L 760 496 L 760 680 L 96 680 L 96 496" fill="none" stroke="#000000" stroke-miterlimit="10"/></g><g transform="translate(-62,10) scale(1,1)"><path d="M 96 496 L 96 518 L 125.72998046875 518 L 136.72998046875 507 L 136.72998046875 496 L 96 496" fill="#ffffff" stroke="none"/></g><g transform="translate(-62,10) scale(1,1)"><path d="M 96 496 L 96 518 L 125.72998046875 518 L 136.72998046875 507 L 136.72998046875 496 L 96 496 L 96 496" fill="none" stroke="#000000" stroke-miterlimit="10"/></g><g transform="translate(-62,10) scale(1,1)"><g><path fill="none" stroke="none"/><text fill="#000000" font-family="Arial" font-size="13px" font-style="normal" font-weight="bold" stroke="none" text-decoration="none" x="100.279541015625" y="512">alt</text></g></g><g transform="translate(-62,10) scale(1,1)"><g><path fill="none" stroke="none"/><text fill="#000000" font-family="Arial" font-size="13px" font-style="normal" font-weight="normal" stroke="none" text-decoration="none" x="115.5" y="545">[données invalides]</text></g></g><g transform="translate(-62,10) scale(1,1)"><path d="M 96 569 L 760 569" fill="none" stroke="#000000" stroke-dasharray="10,3" stroke-miterlimit="10"/></g><g transform="translate(-62,10) scale(1,1)"><g><path fill="none" stroke="none"/><text fill="#000000" font-family="Arial" font-size="13px" font-style="normal" font-weight="normal" stroke="none" text-decoration="none" x="115.5" y="595">[données valides]</text></g></g></g></svg>