<?xml version="1.0" encoding="UTF-8" standalone="no"?><svg xmlns="http://www.w3.org/2000/svg" xmlns:xlink="http://www.w3.org/1999/xlink" height="876" version="1.1" width="996"><defs/><g><g transform="translate(-102,2) scale(1,1)"><path d="M 112 8 L 1088 8 L 1088 864 L 112 864 L 112 8" fill="none" stroke="#000000" stroke-miterlimit="10"/></g><g transform="translate(-102,2) scale(1,1)"><path d="M 112 8 L 112 30 L 277.58251953125 30 L 288.58251953125 19 L 288.58251953125 8 L 112 8" fill="#ffffff" stroke="none"/></g><g transform="translate(-102,2) scale(1,1)"><path d="M 112 8 L 112 30 L 277.58251953125 30 L 288.58251953125 19 L 288.58251953125 8 L 112 8 L 112 8" fill="none" stroke="#000000" stroke-miterlimit="10"/></g><g transform="translate(-102,2) scale(1,1)"><g><path fill="none" stroke="none"/><text fill="#000000" font-family="Arial" font-size="13px" font-style="normal" font-weight="normal" stroke="none" text-decoration="none" x="136.72998046875" y="24">Consulter  détails tâche</text></g></g><g transform="translate(-102,2) scale(1,1)"><g><path fill="none" stroke="none"/><text fill="#000000" font-family="Arial" font-size="13px" font-style="normal" font-weight="bold" stroke="none" text-decoration="none" x="116.279541015625" y="24">sd</text></g></g><g transform="translate(-102,2) scale(1,1)"><path d="M 154.8631454190341 47.3 C 154.8631454190341 43.82060576 157.7415471412159 41 161.292236328125 41 C 164.8429255150341 41 167.72132723721592 43.82060576 167.72132723721592 47.3 C 167.72132723721592 50.779394239999995 164.8429255150341 53.6 161.292236328125 53.6 C 157.7415471412159 53.6 154.8631454190341 50.779394239999995 154.8631454190341 47.3 Z" fill="#ffffff" stroke="none"/></g><g transform="translate(-102,2) scale(1,1)"><path d="M 154.8631454190341 47.3 C 154.8631454190341 43.82060576 157.7415471412159 41 161.292236328125 41 C 164.8429255150341 41 167.72132723721592 43.82060576 167.72132723721592 47.3 C 167.72132723721592 50.779394239999995 164.8429255150341 53.6 161.292236328125 53.6 C 157.7415471412159 53.6 154.8631454190341 50.779394239999995 154.8631454190341 47.3 Z" fill="none" stroke="#000000" stroke-miterlimit="10"/></g><g transform="translate(-102,2) scale(1,1)"><path d="M 161.292236328125 53.6 L 161.292236328125 66.4" fill="none" stroke="#000000" stroke-miterlimit="10"/></g><g transform="translate(-102,2) scale(1,1)"><path d="M 154.4849636008523 58.4 L 168.09950905539773 58.4" fill="none" stroke="#000000" stroke-miterlimit="10"/></g><g transform="translate(-102,2) scale(1,1)"><path d="M 161.292236328125 66.4 L 151.83769087357956 79" fill="none" stroke="#000000" stroke-miterlimit="10"/></g><g transform="translate(-102,2) scale(1,1)"><path d="M 161.292236328125 66.4 L 170.74678178267047 79" fill="none" stroke="#000000" stroke-miterlimit="10"/></g><g transform="translate(-102,2) scale(1,1)"><g><path fill="none" stroke="none"/><text fill="#000000" font-family="Arial" font-size="13px" font-style="normal" font-weight="bold" stroke="none" text-decoration="none" x="116.5" y="98">Lifeline1: User</text></g></g><g transform="translate(-102,2) scale(1,1)"><path d="M 162.5 105 L 162.5 864" fill="none" stroke="#000000" stroke-dasharray="3" stroke-miterlimit="10"/></g><g transform="translate(-102,2) scale(1,1)"><rect fill="#C0C0C0" height="39" opacity="0.2" stroke="none" width="132.4326171875" x="223" y="47"/></g><g transform="translate(-102,2) scale(1,1)"><rect fill="#ffffff" height="39" stroke="none" width="132.4326171875" x="216" y="40"/></g><g transform="translate(-102,2) scale(1,1)"><path d="M 216 40 L 348.4326171875 40 L 348.4326171875 79 L 216 79 L 216 40 Z Z" fill="none" stroke="#000000" stroke-miterlimit="10"/></g><g transform="translate(-102,2) scale(1,1)"><g><path fill="none" stroke="none"/><text fill="#000000" font-family="Arial" font-size="13px" font-style="normal" font-weight="bold" stroke="none" text-decoration="none" x="225.5" y="58">Interface: Projects</text></g></g><g transform="translate(-102,2) scale(1,1)"><path d="M 283.5 80 L 283.5 864" fill="none" stroke="#000000" stroke-dasharray="3" stroke-miterlimit="10"/></g><g transform="translate(-102,2) scale(1,1)"><rect fill="#C0C0C0" height="39" opacity="0.2" stroke="none" width="117.02685546875" x="375" y="47"/></g><g transform="translate(-102,2) scale(1,1)"><rect fill="#ffffff" height="39" stroke="none" width="117.02685546875" x="368" y="40"/></g><g transform="translate(-102,2) scale(1,1)"><path d="M 368 40 L 485.02685546875 40 L 485.02685546875 79 L 368 79 L 368 40 Z Z" fill="none" stroke="#000000" stroke-miterlimit="10"/></g><g transform="translate(-102,2) scale(1,1)"><g><path fill="none" stroke="none"/><text fill="#000000" font-family="Arial" font-size="13px" font-style="normal" font-weight="bold" stroke="none" text-decoration="none" x="377.5" y="58">Interface: Tasks</text></g></g><g transform="translate(-102,2) scale(1,1)"><path d="M 427.5 80 L 427.5 864" fill="none" stroke="#000000" stroke-dasharray="3" stroke-miterlimit="10"/></g><g transform="translate(-102,2) scale(1,1)"><rect fill="#C0C0C0" height="39" opacity="0.2" stroke="none" width="153.138671875" x="551" y="47"/></g><g transform="translate(-102,2) scale(1,1)"><rect fill="#ffffff" height="39" stroke="none" width="153.138671875" x="544" y="40"/></g><g transform="translate(-102,2) scale(1,1)"><path d="M 544 40 L 697.138671875 40 L 697.138671875 79 L 544 79 L 544 40 Z Z" fill="none" stroke="#000000" stroke-miterlimit="10"/></g><g transform="translate(-102,2) scale(1,1)"><g><path fill="none" stroke="none"/><text fill="#000000" font-family="Arial" font-size="13px" font-style="normal" font-weight="bold" stroke="none" text-decoration="none" x="553.85546875" y="58">Interface: DetailsTask</text></g></g><g transform="translate(-102,2) scale(1,1)"><path d="M 621.5 80 L 621.5 864" fill="none" stroke="#000000" stroke-dasharray="3" stroke-miterlimit="10"/></g><g transform="translate(-102,2) scale(1,1)"><rect fill="#C0C0C0" height="39" opacity="0.2" stroke="none" width="140.3544921875" x="751" y="47"/></g><g transform="translate(-102,2) scale(1,1)"><rect fill="#ffffff" height="39" stroke="none" width="140.3544921875" x="744" y="40"/></g><g transform="translate(-102,2) scale(1,1)"><path d="M 744 40 L 884.3544921875 40 L 884.3544921875 79 L 744 79 L 744 40 Z Z" fill="none" stroke="#000000" stroke-miterlimit="10"/></g><g transform="translate(-102,2) scale(1,1)"><g><path fill="none" stroke="none"/><text fill="#000000" font-family="Arial" font-size="13px" font-style="normal" font-weight="bold" stroke="none" text-decoration="none" x="753.5" y="58">Controller: Projects</text></g></g><g transform="translate(-102,2) scale(1,1)"><path d="M 815.5 80 L 815.5 864" fill="none" stroke="#000000" stroke-dasharray="3" stroke-miterlimit="10"/></g><g transform="translate(-102,2) scale(1,1)"><rect fill="#C0C0C0" height="39" opacity="0.2" stroke="none" width="71.736328125" x="991" y="47"/></g><g transform="translate(-102,2) scale(1,1)"><rect fill="#ffffff" height="39" stroke="none" width="71.736328125" x="984" y="40"/></g><g transform="translate(-102,2) scale(1,1)"><path d="M 984 40 L 1055.736328125 40 L 1055.736328125 79 L 984 79 L 984 40 Z Z" fill="none" stroke="#000000" stroke-miterlimit="10"/></g><g transform="translate(-102,2) scale(1,1)"><g><path fill="none" stroke="none"/><text fill="#000000" font-family="Arial" font-size="13px" font-style="normal" font-weight="bold" stroke="none" text-decoration="none" x="994.21728515625" y="58">Projects</text></g></g><g transform="translate(-102,2) scale(1,1)"><path d="M 1020.5 80 L 1020.5 864" fill="none" stroke="#000000" stroke-dasharray="3" stroke-miterlimit="10"/></g><g transform="translate(-102,2) scale(1,1)"><rect fill="#ffffff" height="144" stroke="none" width="912" x="128" y="144"/></g><g transform="translate(-102,2) scale(1,1)"><path d="M 128 144 L 1040 144 L 1040 288 L 128 288 L 128 144 Z Z" fill="none" stroke="#000000" stroke-miterlimit="10"/></g><g transform="translate(-102,2) scale(1,1)"><path d="M 128 144 L 128 166 L 153.1708984375 166 L 164.1708984375 155 L 164.1708984375 144 L 128 144 L 128 144" fill="none" stroke="#000000" stroke-miterlimit="10"/></g><g transform="translate(-102,2) scale(1,1)"><g><path fill="none" stroke="none"/><text fill="#000000" font-family="Arial" font-size="13px" font-style="normal" font-weight="normal" stroke="none" text-decoration="none" x="602.08544921875" y="155"/></g></g><g transform="translate(-102,2) scale(1,1)"><g><path fill="none" stroke="none"/><text fill="#000000" font-family="Arial" font-size="13px" font-style="normal" font-weight="bold" stroke="none" text-decoration="none" x="132.2763671875" y="160">ref</text></g></g><g transform="translate(-102,2) scale(1,1)"><path d="M 162 345 L 420 345" fill="none" stroke="#000000" stroke-miterlimit="10"/></g><g transform="translate(-102,2) scale(1,1)"><path d="M 409.83732514237585 349.209517756016 L 420 345 L 409.83732514237585 340.790482243984" fill="#000000" stroke="none"/></g><g transform="translate(-102,2) scale(1,1)"><path d="M 409.83732514237585 349.209517756016 L 420 345 L 409.83732514237585 340.790482243984 L 409.83732514237585 349.209517756016" fill="none" stroke="#000000" stroke-miterlimit="10"/></g><g transform="translate(-102,2) scale(1,1)"><g><path fill="none" stroke="none"/><text fill="#000000" font-family="Arial" font-size="13px" font-style="normal" font-weight="normal" stroke="none" text-decoration="none" x="200.5" y="340">1 : cliquerButtonViewTask(task)</text></g></g><g transform="translate(-102,2) scale(1,1)"><rect fill="#ffffff" height="28" stroke="none" width="13" x="420" y="345"/></g><g transform="translate(-102,2) scale(1,1)"><path d="M 420 345 L 433 345 L 433 373 L 420 373 L 420 345 Z Z" fill="none" stroke="#000000" stroke-miterlimit="10"/></g><g transform="translate(-102,2) scale(1,1)"><path d="M 433 360 L 614 360" fill="none" stroke="#000000" stroke-miterlimit="10"/></g><g transform="translate(-102,2) scale(1,1)"><path d="M 603.8373251423759 364.209517756016 L 614 360 L 603.8373251423758 355.790482243984" fill="#000000" stroke="none"/></g><g transform="translate(-102,2) scale(1,1)"><path d="M 603.8373251423759 364.209517756016 L 614 360 L 603.8373251423758 355.790482243984 L 603.8373251423759 364.209517756016" fill="none" stroke="#000000" stroke-miterlimit="10"/></g><g transform="translate(-102,2) scale(1,1)"><g><path fill="none" stroke="none"/><text fill="#000000" font-family="Arial" font-size="13px" font-style="normal" font-weight="normal" stroke="none" text-decoration="none" x="439.5" y="355">2 : chargerDétailsTasks(task)</text></g></g><g transform="translate(-102,2) scale(1,1)"><rect fill="#ffffff" height="56" stroke="none" width="13" x="614" y="360"/></g><g transform="translate(-102,2) scale(1,1)"><path d="M 614 360 L 627 360 L 627 416 L 614 416 L 614 360 Z Z" fill="none" stroke="#000000" stroke-miterlimit="10"/></g><g transform="translate(-102,2) scale(1,1)"><path d="M 627 392 L 808 392" fill="none" stroke="#000000" stroke-miterlimit="10"/></g><g transform="translate(-102,2) scale(1,1)"><path d="M 797.8373251423759 396.209517756016 L 808 392 L 797.8373251423758 387.790482243984" fill="#000000" stroke="none"/></g><g transform="translate(-102,2) scale(1,1)"><path d="M 797.8373251423759 396.209517756016 L 808 392 L 797.8373251423758 387.790482243984 L 797.8373251423759 396.209517756016" fill="none" stroke="#000000" stroke-miterlimit="10"/></g><g transform="translate(-102,2) scale(1,1)"><g><path fill="none" stroke="none"/><text fill="#000000" font-family="Arial" font-size="13px" font-style="normal" font-weight="normal" stroke="none" text-decoration="none" x="615.5" y="387">3 : AfficherDétailsTask(project,task)</text></g></g><g transform="translate(-102,2) scale(1,1)"><rect fill="#ffffff" height="70" stroke="none" width="13" x="808" y="392"/></g><g transform="translate(-102,2) scale(1,1)"><path d="M 808 392 L 821 392 L 821 462 L 808 462 L 808 392 Z Z" fill="none" stroke="#000000" stroke-miterlimit="10"/></g><g transform="translate(-102,2) scale(1,1)"><path d="M 821 400 L 1013 400" fill="none" stroke="#000000" stroke-miterlimit="10"/></g><g transform="translate(-102,2) scale(1,1)"><path d="M 1002.8373251423759 404.209517756016 L 1013 400 L 1002.8373251423758 395.790482243984" fill="#000000" stroke="none"/></g><g transform="translate(-102,2) scale(1,1)"><path d="M 1002.8373251423759 404.209517756016 L 1013 400 L 1002.8373251423758 395.790482243984 L 1002.8373251423759 404.209517756016" fill="none" stroke="#000000" stroke-miterlimit="10"/></g><g transform="translate(-102,2) scale(1,1)"><g><path fill="none" stroke="none"/><text fill="#000000" font-family="Arial" font-size="13px" font-style="normal" font-weight="normal" stroke="none" text-decoration="none" x="818.5" y="425">4 : GetTaskDetails(project.id,task)</text></g></g><g transform="translate(-102,2) scale(1,1)"><rect fill="#ffffff" height="54" stroke="none" width="13" x="1013" y="400"/></g><g transform="translate(-102,2) scale(1,1)"><path d="M 1013 400 L 1026 400 L 1026 454 L 1013 454 L 1013 400 Z Z" fill="none" stroke="#000000" stroke-miterlimit="10"/></g><g transform="translate(-102,2) scale(1,1)"><path d="M 1020 456 L 821 456" fill="none" stroke="#000000" stroke-dasharray="3" stroke-miterlimit="10"/></g><g transform="translate(-102,2) scale(1,1)"><path d="M 831.1626748576241 451.790482243984 L 821 456 L 831.1626748576241 460.209517756016" fill="none" stroke="#000000" stroke-miterlimit="10"/></g><g transform="translate(-102,2) scale(1,1)"><g><path fill="none" stroke="none"/><text fill="#000000" font-family="Arial" font-size="13px" font-style="normal" font-weight="normal" stroke="none" text-decoration="none" x="855.5" y="471">5 : return(TaskDetails)</text></g></g><g transform="translate(-102,2) scale(1,1)"><path d="M 815 512 L 621 512" fill="none" stroke="#000000" stroke-dasharray="3" stroke-miterlimit="10"/></g><g transform="translate(-102,2) scale(1,1)"><path d="M 631.1626748576241 507.790482243984 L 621 512 L 631.1626748576241 516.209517756016" fill="none" stroke="#000000" stroke-miterlimit="10"/></g><g transform="translate(-102,2) scale(1,1)"><g><path fill="none" stroke="none"/><text fill="#000000" font-family="Arial" font-size="13px" font-style="normal" font-weight="normal" stroke="none" text-decoration="none" x="637.5" y="527">6 : return Json(TaskDetails)</text></g></g><g transform="translate(-102,2) scale(1,1)"><path d="M 162 672 L 614 672" fill="none" stroke="#000000" stroke-miterlimit="10"/></g><g transform="translate(-102,2) scale(1,1)"><path d="M 603.8373251423759 676.209517756016 L 614 672 L 603.8373251423758 667.790482243984" fill="#000000" stroke="none"/></g><g transform="translate(-102,2) scale(1,1)"><path d="M 603.8373251423759 676.209517756016 L 614 672 L 603.8373251423758 667.790482243984 L 603.8373251423759 676.209517756016" fill="none" stroke="#000000" stroke-miterlimit="10"/></g><g transform="translate(-102,2) scale(1,1)"><g><path fill="none" stroke="none"/><text fill="#000000" font-family="Arial" font-size="13px" font-style="normal" font-weight="normal" stroke="none" text-decoration="none" x="303.5" y="667">7 : cliquerButtonMarkAsDone</text></g></g><g transform="translate(-102,2) scale(1,1)"><rect fill="#ffffff" height="28" stroke="none" width="13" x="614" y="672"/></g><g transform="translate(-102,2) scale(1,1)"><path d="M 614 672 L 627 672 L 627 700 L 614 700 L 614 672 Z Z" fill="none" stroke="#000000" stroke-miterlimit="10"/></g><g transform="translate(-102,2) scale(1,1)"><path d="M 627 680 L 808 680" fill="none" stroke="#000000" stroke-miterlimit="10"/></g><g transform="translate(-102,2) scale(1,1)"><path d="M 797.8373251423759 684.209517756016 L 808 680 L 797.8373251423758 675.790482243984" fill="#000000" stroke="none"/></g><g transform="translate(-102,2) scale(1,1)"><path d="M 797.8373251423759 684.209517756016 L 808 680 L 797.8373251423758 675.790482243984 L 797.8373251423759 684.209517756016" fill="none" stroke="#000000" stroke-miterlimit="10"/></g><g transform="translate(-102,2) scale(1,1)"><g><path fill="none" stroke="none"/><text fill="#000000" font-family="Arial" font-size="13px" font-style="normal" font-weight="normal" stroke="none" text-decoration="none" x="633.5" y="675">8 : ClôturerTask(project,task)</text></g></g><g transform="translate(-102,2) scale(1,1)"><rect fill="#ffffff" height="28" stroke="none" width="13" x="808" y="680"/></g><g transform="translate(-102,2) scale(1,1)"><path d="M 808 680 L 821 680 L 821 708 L 808 708 L 808 680 Z Z" fill="none" stroke="#000000" stroke-miterlimit="10"/></g><g transform="translate(-102,2) scale(1,1)"><path d="M 821 688 L 1013 688" fill="none" stroke="#000000" stroke-miterlimit="10"/></g><g transform="translate(-102,2) scale(1,1)"><path d="M 1002.8373251423759 692.209517756016 L 1013 688 L 1002.8373251423758 683.790482243984" fill="#000000" stroke="none"/></g><g transform="translate(-102,2) scale(1,1)"><path d="M 1002.8373251423759 692.209517756016 L 1013 688 L 1002.8373251423758 683.790482243984 L 1002.8373251423759 692.209517756016" fill="none" stroke="#000000" stroke-miterlimit="10"/></g><g transform="translate(-102,2) scale(1,1)"><g><path fill="none" stroke="none"/><text fill="#000000" font-family="Arial" font-size="13px" font-style="normal" font-weight="normal" stroke="none" text-decoration="none" x="812.5" y="683">9 : MarkTaskAsDone(project.id,task)</text></g></g><g transform="translate(-102,2) scale(1,1)"><rect fill="#ffffff" height="28" stroke="none" width="13" x="1013" y="688"/></g><g transform="translate(-102,2) scale(1,1)"><path d="M 1013 688 L 1026 688 L 1026 716 L 1013 716 L 1013 688 Z Z" fill="none" stroke="#000000" stroke-miterlimit="10"/></g><g transform="translate(-102,2) scale(1,1)"><path d="M 815 767 L 621 767" fill="none" stroke="#000000" stroke-dasharray="3" stroke-miterlimit="10"/></g><g transform="translate(-102,2) scale(1,1)"><path d="M 631.1626748576241 762.790482243984 L 621 767 L 631.1626748576241 771.209517756016" fill="none" stroke="#000000" stroke-miterlimit="10"/></g><g transform="translate(-102,2) scale(1,1)"><g><path fill="none" stroke="none"/><text fill="#000000" font-family="Arial" font-size="13px" font-style="normal" font-weight="normal" stroke="none" text-decoration="none" x="640.5" y="782">10 : Message(TaskClosed)</text></g></g><g transform="translate(-102,2) scale(1,1)"><path d="M 128 632 L 1040 632 L 1040 800 L 128 800 L 128 632" fill="none" stroke="#000000" stroke-miterlimit="10"/></g><g transform="translate(-102,2) scale(1,1)"><path d="M 128 632 L 128 654 L 162.07177734375 654 L 173.07177734375 643 L 173.07177734375 632 L 128 632" fill="#ffffff" stroke="none"/></g><g transform="translate(-102,2) scale(1,1)"><path d="M 128 632 L 128 654 L 162.07177734375 654 L 173.07177734375 643 L 173.07177734375 632 L 128 632 L 128 632" fill="none" stroke="#000000" stroke-miterlimit="10"/></g><g transform="translate(-102,2) scale(1,1)"><g><path fill="none" stroke="none"/><text fill="#000000" font-family="Arial" font-size="13px" font-style="normal" font-weight="bold" stroke="none" text-decoration="none" x="131.930419921875" y="647.5">opt</text></g></g></g></svg>