<?xml version="1.0" encoding="UTF-8" standalone="no"?><svg xmlns="http://www.w3.org/2000/svg" xmlns:xlink="http://www.w3.org/1999/xlink" height="420" version="1.1" width="1304"><defs/><g><g transform="translate(-134,-38) scale(1,1)"><path d="M 166.55070774147728 273.68 C 166.55070774147728 268.886167936 170.43655006642274 265 175.22998046875 265 C 180.02341087107726 265 183.90925319602272 268.886167936 183.90925319602272 273.68 C 183.90925319602272 278.473832064 180.02341087107726 282.36 175.22998046875 282.36 C 170.43655006642274 282.36 166.55070774147728 278.473832064 166.55070774147728 273.68 Z" fill="#ffffff" stroke="none"/></g><g transform="translate(-134,-38) scale(1,1)"><path d="M 166.55070774147728 273.68 C 166.55070774147728 268.886167936 170.43655006642274 265 175.22998046875 265 C 180.02341087107726 265 183.90925319602272 268.886167936 183.90925319602272 273.68 C 183.90925319602272 278.473832064 180.02341087107726 282.36 175.22998046875 282.36 C 170.43655006642274 282.36 166.55070774147728 278.473832064 166.55070774147728 273.68 Z" fill="none" stroke="#000000" stroke-miterlimit="10"/></g><g transform="translate(-134,-38) scale(1,1)"><path d="M 175.22998046875 282.36 L 175.22998046875 299.64" fill="none" stroke="#000000" stroke-miterlimit="10"/></g><g transform="translate(-134,-38) scale(1,1)"><path d="M 166.04016228693183 288.84 L 184.41979865056817 288.84" fill="none" stroke="#000000" stroke-miterlimit="10"/></g><g transform="translate(-134,-38) scale(1,1)"><path d="M 175.22998046875 299.64 L 162.46634410511365 317" fill="none" stroke="#000000" stroke-miterlimit="10"/></g><g transform="translate(-134,-38) scale(1,1)"><path d="M 175.22998046875 299.64 L 187.99361683238635 317" fill="none" stroke="#000000" stroke-miterlimit="10"/></g><g transform="translate(-134,-38) scale(1,1)"><g><path fill="none" stroke="none"/><text fill="#000000" font-family="Arial" font-size="13px" font-style="normal" font-weight="bold" stroke="none" text-decoration="none" x="148.5" y="336">Manager</text></g></g><g transform="translate(-134,-38) scale(1,1)"><path d="M 303 307 C 303 287.1177472 330.9822 271 365.5 271 C 400.0178 271 428 287.1177472 428 307 C 428 326.8822528 400.0178 343 365.5 343 C 330.9822 343 303 326.8822528 303 307 Z" fill="#C0C0C0" opacity="0.2" stroke="none"/></g><g transform="translate(-134,-38) scale(1,1)"><path d="M 296 300 C 296 280.1177472 323.9822 264 358.5 264 C 393.0178 264 421 280.1177472 421 300 C 421 319.8822528 393.0178 336 358.5 336 C 323.9822 336 296 319.8822528 296 300 Z" fill="#ffffff" stroke="none"/></g><g transform="translate(-134,-38) scale(1,1)"><path d="M 296 300 C 296 280.1177472 323.9822 264 358.5 264 C 393.0178 264 421 280.1177472 421 300 C 421 319.8822528 393.0178 336 358.5 336 C 323.9822 336 296 319.8822528 296 300 Z" fill="none" stroke="#000000" stroke-miterlimit="10"/></g><g transform="translate(-134,-38) scale(1,1)"><g><path fill="none" stroke="none"/><text fill="#000000" font-family="Arial" font-size="13px" font-style="normal" font-weight="bold" stroke="none" text-decoration="none" x="318.763671875" y="305.5">gérer projets</text></g></g><g transform="translate(-134,-38) scale(1,1)"><path d="M 295 301 L 207 302" fill="none" stroke="#000000" stroke-miterlimit="10"/></g><g transform="translate(-134,-38) scale(1,1)"><path d="M 503 247 C 503 229.3268864 545.9806592 215 599 215 C 652.0193408 215 695 229.3268864 695 247 C 695 264.6731136 652.0193408 279 599 279 C 545.9806592 279 503 264.6731136 503 247 Z" fill="#C0C0C0" opacity="0.2" stroke="none"/></g><g transform="translate(-134,-38) scale(1,1)"><path d="M 496 240 C 496 222.3268864 538.9806592 208 592 208 C 645.0193408 208 688 222.3268864 688 240 C 688 257.6731136 645.0193408 272 592 272 C 538.9806592 272 496 257.6731136 496 240 Z" fill="#ffffff" stroke="none"/></g><g transform="translate(-134,-38) scale(1,1)"><path d="M 496 240 C 496 222.3268864 538.9806592 208 592 208 C 645.0193408 208 688 222.3268864 688 240 C 688 257.6731136 645.0193408 272 592 272 C 538.9806592 272 496 257.6731136 496 240 Z" fill="none" stroke="#000000" stroke-miterlimit="10"/></g><g transform="translate(-134,-38) scale(1,1)"><g><path fill="none" stroke="none"/><text fill="#000000" font-family="Arial" font-size="13px" font-style="normal" font-weight="bold" stroke="none" text-decoration="none" x="528.425048828125" y="245.5">consulter les projets</text></g></g><g transform="translate(-134,-38) scale(1,1)"><path d="M 495 265 L 422 284" fill="none" stroke="#000000" stroke-miterlimit="10"/></g><g transform="translate(-134,-38) scale(1,1)"><path d="M 439.54941269631234 270.73281815853454 L 422 284 L 443.79062297073904 287.0279944760685" fill="#FFFFFF" stroke="none"/></g><g transform="translate(-134,-38) scale(1,1)"><path d="M 439.54941269631234 270.73281815853454 L 422 284 L 443.79062297073904 287.0279944760685 L 439.54941269631234 270.73281815853454" fill="none" stroke="#000000" stroke-miterlimit="10"/></g><g transform="translate(-134,-38) scale(1,1)"><path d="M 519 335 C 519 317.3268864 554.3695008 303 598 303 C 641.6304992 303 677 317.3268864 677 335 C 677 352.6731136 641.6304992 367 598 367 C 554.3695008 367 519 352.6731136 519 335 Z" fill="#C0C0C0" opacity="0.2" stroke="none"/></g><g transform="translate(-134,-38) scale(1,1)"><path d="M 512 328 C 512 310.3268864 547.3695008 296 591 296 C 634.6304992 296 670 310.3268864 670 328 C 670 345.6731136 634.6304992 360 591 360 C 547.3695008 360 512 345.6731136 512 328 Z" fill="#ffffff" stroke="none"/></g><g transform="translate(-134,-38) scale(1,1)"><path d="M 512 328 C 512 310.3268864 547.3695008 296 591 296 C 634.6304992 296 670 310.3268864 670 328 C 670 345.6731136 634.6304992 360 591 360 C 547.3695008 360 512 345.6731136 512 328 Z" fill="none" stroke="#000000" stroke-miterlimit="10"/></g><g transform="translate(-134,-38) scale(1,1)"><g><path fill="none" stroke="none"/><text fill="#000000" font-family="Arial" font-size="13px" font-style="normal" font-weight="bold" stroke="none" text-decoration="none" x="539.720458984375" y="333.5">ajouter un projet</text></g></g><g transform="translate(-134,-38) scale(1,1)"><path d="M 519 423 C 519 405.3268864 556.8319344 391 603.5 391 C 650.1680656 391 688 405.3268864 688 423 C 688 440.6731136 650.1680656 455 603.5 455 C 556.8319344 455 519 440.6731136 519 423 Z" fill="#C0C0C0" opacity="0.2" stroke="none"/></g><g transform="translate(-134,-38) scale(1,1)"><path d="M 512 416 C 512 398.3268864 549.8319344 384 596.5 384 C 643.1680656 384 681 398.3268864 681 416 C 681 433.6731136 643.1680656 448 596.5 448 C 549.8319344 448 512 433.6731136 512 416 Z" fill="#ffffff" stroke="none"/></g><g transform="translate(-134,-38) scale(1,1)"><path d="M 512 416 C 512 398.3268864 549.8319344 384 596.5 384 C 643.1680656 384 681 398.3268864 681 416 C 681 433.6731136 643.1680656 448 596.5 448 C 549.8319344 448 512 433.6731136 512 416 Z" fill="none" stroke="#000000" stroke-miterlimit="10"/></g><g transform="translate(-134,-38) scale(1,1)"><g><path fill="none" stroke="none"/><text fill="#000000" font-family="Arial" font-size="13px" font-style="normal" font-weight="bold" stroke="none" text-decoration="none" x="541.25" y="421.5">modifier un projet</text></g></g><g transform="translate(-134,-38) scale(1,1)"><path d="M 511 318 L 422 308" fill="none" stroke="#000000" stroke-miterlimit="10"/></g><g transform="translate(-134,-38) scale(1,1)"><path d="M 443.1382952713407 301.9030767577725 L 422 308 L 441.25820769804153 318.63585616013563" fill="#FFFFFF" stroke="none"/></g><g transform="translate(-134,-38) scale(1,1)"><path d="M 443.1382952713407 301.9030767577725 L 422 308 L 441.25820769804153 318.63585616013563 L 443.1382952713407 301.9030767577725" fill="none" stroke="#000000" stroke-miterlimit="10"/></g><g transform="translate(-134,-38) scale(1,1)"><path d="M 528 383 L 422 331" fill="none" stroke="#000000" stroke-miterlimit="10"/></g><g transform="translate(-134,-38) scale(1,1)"><path d="M 443.9558373937607 332.3932710930542 L 422 331 L 436.5399300698275 347.5103129456872" fill="#FFFFFF" stroke="none"/></g><g transform="translate(-134,-38) scale(1,1)"><path d="M 443.9558373937607 332.3932710930542 L 422 331 L 436.5399300698275 347.5103129456872 L 443.9558373937607 332.3932710930542" fill="none" stroke="#000000" stroke-miterlimit="10"/></g><g transform="translate(-134,-38) scale(1,1)"><path d="M 791 351 C 791 333.3268864 866.6638688 319 960 319 C 1053.3361312 319 1129 333.3268864 1129 351 C 1129 368.6731136 1053.3361312 383 960 383 C 866.6638688 383 791 368.6731136 791 351 Z" fill="#C0C0C0" opacity="0.2" stroke="none"/></g><g transform="translate(-134,-38) scale(1,1)"><path d="M 784 344 C 784 326.3268864 859.6638688 312 953 312 C 1046.3361312 312 1122 326.3268864 1122 344 C 1122 361.6731136 1046.3361312 376 953 376 C 859.6638688 376 784 361.6731136 784 344 Z" fill="#ffffff" stroke="none"/></g><g transform="translate(-134,-38) scale(1,1)"><path d="M 784 344 C 784 326.3268864 859.6638688 312 953 312 C 1046.3361312 312 1122 326.3268864 1122 344 C 1122 361.6731136 1046.3361312 376 953 376 C 859.6638688 376 784 361.6731136 784 344 Z" fill="none" stroke="#000000" stroke-miterlimit="10"/></g><g transform="translate(-134,-38) scale(1,1)"><g><path fill="none" stroke="none"/><text fill="#000000" font-family="Arial" font-size="13px" font-style="normal" font-weight="bold" stroke="none" text-decoration="none" x="838.05029296875" y="349.5">consulter l’organigramme d'un projet</text></g></g><g transform="translate(-134,-38) scale(1,1)"><path d="M 838 311 L 689 268" fill="none" stroke="#000000" stroke-miterlimit="10"/></g><g transform="translate(-134,-38) scale(1,1)"><path d="M 710.8627933195331 265.54678409686863 L 689 268 L 706.1940150127407 281.72464381110296" fill="#FFFFFF" stroke="none"/></g><g transform="translate(-134,-38) scale(1,1)"><path d="M 710.8627933195331 265.54678409686863 L 689 268 L 706.1940150127407 281.72464381110296 L 710.8627933195331 265.54678409686863" fill="none" stroke="#000000" stroke-miterlimit="10"/></g><g transform="translate(-134,-38) scale(1,1)"><path d="M 815 239 C 815 221.3268864 880.8141344000001 207 962 207 C 1043.1858656 207 1109 221.3268864 1109 239 C 1109 256.6731136 1043.1858656 271 962 271 C 880.8141344000001 271 815 256.6731136 815 239 Z" fill="#C0C0C0" opacity="0.2" stroke="none"/></g><g transform="translate(-134,-38) scale(1,1)"><path d="M 808 232 C 808 214.3268864 873.8141344000001 200 955 200 C 1036.1858656 200 1102 214.3268864 1102 232 C 1102 249.6731136 1036.1858656 264 955 264 C 873.8141344000001 264 808 249.6731136 808 232 Z" fill="#ffffff" stroke="none"/></g><g transform="translate(-134,-38) scale(1,1)"><path d="M 808 232 C 808 214.3268864 873.8141344000001 200 955 200 C 1036.1858656 200 1102 214.3268864 1102 232 C 1102 249.6731136 1036.1858656 264 955 264 C 873.8141344000001 264 808 249.6731136 808 232 Z" fill="none" stroke="#000000" stroke-miterlimit="10"/></g><g transform="translate(-134,-38) scale(1,1)"><g><path fill="none" stroke="none"/><text fill="#000000" font-family="Arial" font-size="13px" font-style="normal" font-weight="bold" stroke="none" text-decoration="none" x="855.5703125" y="237.5">consulter les  tâches d'un projet</text></g></g><g transform="translate(-134,-38) scale(1,1)"><path d="M 807 235 L 689 238" fill="none" stroke="#000000" stroke-miterlimit="10"/></g><g transform="translate(-134,-38) scale(1,1)"><path d="M 709.1048099564622 229.06710480221903 L 689 238 L 709.5327582246609 245.89973668470157" fill="#FFFFFF" stroke="none"/></g><g transform="translate(-134,-38) scale(1,1)"><path d="M 709.1048099564622 229.06710480221903 L 689 238 L 709.5327582246609 245.89973668470157 L 709.1048099564622 229.06710480221903" fill="none" stroke="#000000" stroke-miterlimit="10"/></g><g transform="translate(-134,-38) scale(1,1)"><path d="M 791 115 C 791 99.5360256 829.055792 87 876 87 C 922.944208 87 961 99.5360256 961 115 C 961 130.4639744 922.944208 143 876 143 C 829.055792 143 791 130.4639744 791 115 Z" fill="#C0C0C0" opacity="0.2" stroke="none"/></g><g transform="translate(-134,-38) scale(1,1)"><path d="M 784 108 C 784 92.5360256 822.055792 80 869 80 C 915.944208 80 954 92.5360256 954 108 C 954 123.4639744 915.944208 136 869 136 C 822.055792 136 784 123.4639744 784 108 Z" fill="#ffffff" stroke="none"/></g><g transform="translate(-134,-38) scale(1,1)"><path d="M 784 108 C 784 92.5360256 822.055792 80 869 80 C 915.944208 80 954 92.5360256 954 108 C 954 123.4639744 915.944208 136 869 136 C 822.055792 136 784 123.4639744 784 108 Z" fill="none" stroke="#000000" stroke-miterlimit="10"/></g><g transform="translate(-134,-38) scale(1,1)"><g><path fill="none" stroke="none"/><text fill="#000000" font-family="Arial" font-size="13px" font-style="normal" font-weight="bold" stroke="none" text-decoration="none" x="813.37548828125" y="113.5">ajouter une  tâche</text></g></g><g transform="translate(-134,-38) scale(1,1)"><path d="M 991 107 C 991 91.5360256 1035.5476624 79 1090.5 79 C 1145.4523376 79 1190 91.5360256 1190 107 C 1190 122.4639744 1145.4523376 135 1090.5 135 C 1035.5476624 135 991 122.4639744 991 107 Z" fill="#C0C0C0" opacity="0.2" stroke="none"/></g><g transform="translate(-134,-38) scale(1,1)"><path d="M 984 100 C 984 84.5360256 1028.5476624 72 1083.5 72 C 1138.4523376 72 1183 84.5360256 1183 100 C 1183 115.4639744 1138.4523376 128 1083.5 128 C 1028.5476624 128 984 115.4639744 984 100 Z" fill="#ffffff" stroke="none"/></g><g transform="translate(-134,-38) scale(1,1)"><path d="M 984 100 C 984 84.5360256 1028.5476624 72 1083.5 72 C 1138.4523376 72 1183 84.5360256 1183 100 C 1183 115.4639744 1138.4523376 128 1083.5 128 C 1028.5476624 128 984 115.4639744 984 100 Z" fill="none" stroke="#000000" stroke-miterlimit="10"/></g><g transform="translate(-134,-38) scale(1,1)"><g><path fill="none" stroke="none"/><text fill="#000000" font-family="Arial" font-size="13px" font-style="normal" font-weight="bold" stroke="none" text-decoration="none" x="1017.760498046875" y="105.5">supprimer une  tâche</text></g></g><g transform="translate(-134,-38) scale(1,1)"><path d="M 1055 129 L 987 199" fill="none" stroke="#000000" stroke-miterlimit="10"/></g><g transform="translate(-134,-38) scale(1,1)"><path d="M 995.123612129727 178.55478232041165 L 987 199 L 1007.2012132887313 190.28730916058723" fill="#FFFFFF" stroke="none"/></g><g transform="translate(-134,-38) scale(1,1)"><path d="M 995.123612129727 178.55478232041165 L 987 199 L 1007.2012132887313 190.28730916058723 L 995.123612129727 178.55478232041165" fill="none" stroke="#000000" stroke-miterlimit="10"/></g><g transform="translate(-134,-38) scale(1,1)"><path d="M 889 137 L 932 199" fill="none" stroke="#000000" stroke-miterlimit="10"/></g><g transform="translate(-134,-38) scale(1,1)"><path d="M 913.4985584584956 187.09635934319692 L 932 199 L 927.334650253509 177.5003601950424" fill="#FFFFFF" stroke="none"/></g><g transform="translate(-134,-38) scale(1,1)"><path d="M 913.4985584584956 187.09635934319692 L 932 199 L 927.334650253509 177.5003601950424 L 913.4985584584956 187.09635934319692" fill="none" stroke="#000000" stroke-miterlimit="10"/></g><g transform="translate(-134,-38) scale(1,1)"><path d="M 303 167 C 303 153.7451648 331.4299152 143 366.5 143 C 401.5700848 143 430 153.7451648 430 167 C 430 180.2548352 401.5700848 191 366.5 191 C 331.4299152 191 303 180.2548352 303 167 Z" fill="#C0C0C0" opacity="0.2" stroke="none"/></g><g transform="translate(-134,-38) scale(1,1)"><path d="M 296 160 C 296 146.7451648 324.4299152 136 359.5 136 C 394.5700848 136 423 146.7451648 423 160 C 423 173.2548352 394.5700848 184 359.5 184 C 324.4299152 184 296 173.2548352 296 160 Z" fill="#ffffff" stroke="none"/></g><g transform="translate(-134,-38) scale(1,1)"><path d="M 296 160 C 296 146.7451648 324.4299152 136 359.5 136 C 394.5700848 136 423 146.7451648 423 160 C 423 173.2548352 394.5700848 184 359.5 184 C 324.4299152 184 296 173.2548352 296 160 Z" fill="none" stroke="#000000" stroke-miterlimit="10"/></g><g transform="translate(-134,-38) scale(1,1)"><g><path fill="none" stroke="none"/><text fill="#000000" font-family="Arial" font-size="13px" font-style="normal" font-weight="bold" stroke="none" text-decoration="none" x="318.947998046875" y="165.5">s'authentifier</text></g></g><g transform="translate(-134,-38) scale(1,1)"><path d="M 358 263 L 359 185" fill="none" stroke="#000000" stroke-dasharray="3" stroke-miterlimit="10"/></g><g transform="translate(-134,-38) scale(1,1)"><path d="M 363.07889185183717 195.21580350540358 L 359 185 L 354.66054815422046 195.1078760221008" fill="none" stroke="#000000" stroke-miterlimit="10"/></g><g transform="translate(-134,-38) scale(1,1)"><g><path fill="none" stroke="none"/><text fill="#000000" font-family="Arial" font-size="13px" font-style="normal" font-weight="normal" stroke="none" text-decoration="none" x="300.5" y="228">«include»</text></g></g><g transform="translate(-134,-38) scale(1,1)"><path d="M 1191 167 C 1191 149.3268864 1238.4578112 135 1297 135 C 1355.5421888 135 1403 149.3268864 1403 167 C 1403 184.6731136 1355.5421888 199 1297 199 C 1238.4578112 199 1191 184.6731136 1191 167 Z" fill="#C0C0C0" opacity="0.2" stroke="none"/></g><g transform="translate(-134,-38) scale(1,1)"><path d="M 1184 160 C 1184 142.3268864 1231.4578112 128 1290 128 C 1348.5421888 128 1396 142.3268864 1396 160 C 1396 177.6731136 1348.5421888 192 1290 192 C 1231.4578112 192 1184 177.6731136 1184 160 Z" fill="#ffffff" stroke="none"/></g><g transform="translate(-134,-38) scale(1,1)"><path d="M 1184 160 C 1184 142.3268864 1231.4578112 128 1290 128 C 1348.5421888 128 1396 142.3268864 1396 160 C 1396 177.6731136 1348.5421888 192 1290 192 C 1231.4578112 192 1184 177.6731136 1184 160 Z" fill="none" stroke="#000000" stroke-miterlimit="10"/></g><g transform="translate(-134,-38) scale(1,1)"><g><path fill="none" stroke="none"/><text fill="#000000" font-family="Arial" font-size="13px" font-style="normal" font-weight="bold" stroke="none" text-decoration="none" x="1219.56005859375" y="165.5">consulter détails tâche</text></g></g><g transform="translate(-134,-38) scale(1,1)"><path d="M 1183 175 L 1056 192 L 1038 199" fill="none" stroke="#000000" stroke-miterlimit="10"/></g><g transform="translate(-134,-38) scale(1,1)"><path d="M 1053.8918729414552 183.78657256195558 L 1038 199 L 1059.9947688291886 199.47973341612732" fill="#FFFFFF" stroke="none"/></g><g transform="translate(-134,-38) scale(1,1)"><path d="M 1053.8918729414552 183.78657256195558 L 1038 199 L 1059.9947688291886 199.47973341612732 L 1053.8918729414552 183.78657256195558" fill="none" stroke="#000000" stroke-miterlimit="10"/></g><g transform="translate(-134,-38) scale(1,1)"><path d="M 1263 303 C 1263 285.3268864 1301.5035072 271 1349 271 C 1396.4964928 271 1435 285.3268864 1435 303 C 1435 320.6731136 1396.4964928 335 1349 335 C 1301.5035072 335 1263 320.6731136 1263 303 Z" fill="#C0C0C0" opacity="0.2" stroke="none"/></g><g transform="translate(-134,-38) scale(1,1)"><path d="M 1256 296 C 1256 278.3268864 1294.5035072 264 1342 264 C 1389.4964928 264 1428 278.3268864 1428 296 C 1428 313.6731136 1389.4964928 328 1342 328 C 1294.5035072 328 1256 313.6731136 1256 296 Z" fill="#ffffff" stroke="none"/></g><g transform="translate(-134,-38) scale(1,1)"><path d="M 1256 296 C 1256 278.3268864 1294.5035072 264 1342 264 C 1389.4964928 264 1428 278.3268864 1428 296 C 1428 313.6731136 1389.4964928 328 1342 328 C 1294.5035072 328 1256 313.6731136 1256 296 Z" fill="none" stroke="#000000" stroke-miterlimit="10"/></g><g transform="translate(-134,-38) scale(1,1)"><g><path fill="none" stroke="none"/><text fill="#000000" font-family="Arial" font-size="13px" font-style="normal" font-weight="bold" stroke="none" text-decoration="none" x="1285.65185546875" y="301.5">clôturer une tâche</text></g></g><g transform="translate(-134,-38) scale(1,1)"><path d="M 1329 263 L 1303 193" fill="none" stroke="#000000" stroke-dasharray="3" stroke-miterlimit="10"/></g><g transform="translate(-134,-38) scale(1,1)"><path d="M 1310.4846148176293 201.06105086398307 L 1303 193 L 1302.592398162703 203.99244562152717" fill="none" stroke="#000000" stroke-miterlimit="10"/></g><g transform="translate(-134,-38) scale(1,1)"><g><path fill="none" stroke="none"/><text fill="#000000" font-family="Arial" font-size="13px" font-style="normal" font-weight="normal" stroke="none" text-decoration="none" x="1260.5" y="243">«extend»</text></g></g><g transform="translate(-134,-38) scale(1,1)"><path d="M 582.9125241477273 57.68 C 582.9125241477273 52.886167936 586.7983664726727 49 591.591796875 49 C 596.3852272773273 49 600.2710696022727 52.886167936 600.2710696022727 57.68 C 600.2710696022727 62.473832064 596.3852272773273 66.36 591.591796875 66.36 C 586.7983664726727 66.36 582.9125241477273 62.473832064 582.9125241477273 57.68 Z" fill="#ffffff" stroke="none"/></g><g transform="translate(-134,-38) scale(1,1)"><path d="M 582.9125241477273 57.68 C 582.9125241477273 52.886167936 586.7983664726727 49 591.591796875 49 C 596.3852272773273 49 600.2710696022727 52.886167936 600.2710696022727 57.68 C 600.2710696022727 62.473832064 596.3852272773273 66.36 591.591796875 66.36 C 586.7983664726727 66.36 582.9125241477273 62.473832064 582.9125241477273 57.68 Z" fill="none" stroke="#000000" stroke-miterlimit="10"/></g><g transform="translate(-134,-38) scale(1,1)"><path d="M 591.591796875 66.36 L 591.591796875 83.64" fill="none" stroke="#000000" stroke-miterlimit="10"/></g><g transform="translate(-134,-38) scale(1,1)"><path d="M 582.4019786931818 72.84 L 600.7816150568182 72.84" fill="none" stroke="#000000" stroke-miterlimit="10"/></g><g transform="translate(-134,-38) scale(1,1)"><path d="M 591.591796875 83.64 L 578.8281605113636 101" fill="none" stroke="#000000" stroke-miterlimit="10"/></g><g transform="translate(-134,-38) scale(1,1)"><path d="M 591.591796875 83.64 L 604.3554332386364 101" fill="none" stroke="#000000" stroke-miterlimit="10"/></g><g transform="translate(-134,-38) scale(1,1)"><g><path fill="none" stroke="none"/><text fill="#000000" font-family="Arial" font-size="13px" font-style="normal" font-weight="bold" stroke="none" text-decoration="none" x="564.5" y="120">Employé</text></g></g><g transform="translate(-134,-38) scale(1,1)"><path d="M 592 207 L 591 128" fill="none" stroke="#000000" stroke-miterlimit="10"/></g></g></svg>