<?xml version="1.0" encoding="UTF-8" standalone="no"?><svg xmlns="http://www.w3.org/2000/svg" xmlns:xlink="http://www.w3.org/1999/xlink" height="940" version="1.1" width="908"><defs/><g><g transform="translate(-118,-6) scale(1,1)"><path d="M 128 16 L 1016 16 L 1016 936 L 128 936 L 128 16" fill="none" stroke="#000000" stroke-miterlimit="10"/></g><g transform="translate(-118,-6) scale(1,1)"><path d="M 128 16 L 128 38 L 264.681640625 38 L 275.681640625 27 L 275.681640625 16 L 128 16" fill="#ffffff" stroke="none"/></g><g transform="translate(-118,-6) scale(1,1)"><path d="M 128 16 L 128 38 L 264.681640625 38 L 275.681640625 27 L 275.681640625 16 L 128 16 L 128 16" fill="none" stroke="#000000" stroke-miterlimit="10"/></g><g transform="translate(-118,-6) scale(1,1)"><g><path fill="none" stroke="none"/><text fill="#000000" font-family="Arial" font-size="13px" font-style="normal" font-weight="normal" stroke="none" text-decoration="none" x="152.72998046875" y="32">Activer le pointage</text></g></g><g transform="translate(-118,-6) scale(1,1)"><g><path fill="none" stroke="none"/><text fill="#000000" font-family="Arial" font-size="13px" font-style="normal" font-weight="bold" stroke="none" text-decoration="none" x="132.279541015625" y="32">sd</text></g></g><g transform="translate(-118,-6) scale(1,1)"><rect fill="#C0C0C0" height="39" opacity="0.2" stroke="none" width="97.01904296875" x="743" y="47"/></g><g transform="translate(-118,-6) scale(1,1)"><rect fill="#ffffff" height="39" stroke="none" width="97.01904296875" x="736" y="40"/></g><g transform="translate(-118,-6) scale(1,1)"><path d="M 736 40 L 833.01904296875 40 L 833.01904296875 79 L 736 79 L 736 40 Z Z" fill="none" stroke="#000000" stroke-miterlimit="10"/></g><g transform="translate(-118,-6) scale(1,1)"><g><path fill="none" stroke="none"/><text fill="#000000" font-family="Arial" font-size="13px" font-style="normal" font-weight="bold" stroke="none" text-decoration="none" x="766.44091796875" y="58">Users</text></g></g><g transform="translate(-118,-6) scale(1,1)"><path d="M 785.5 80 L 785.5 936" fill="none" stroke="#000000" stroke-dasharray="3" stroke-miterlimit="10"/></g><g transform="translate(-118,-6) scale(1,1)"><rect fill="#C0C0C0" height="39" opacity="0.2" stroke="none" width="159.841796875" x="487" y="47"/></g><g transform="translate(-118,-6) scale(1,1)"><rect fill="#ffffff" height="39" stroke="none" width="159.841796875" x="480" y="40"/></g><g transform="translate(-118,-6) scale(1,1)"><path d="M 480 40 L 639.841796875 40 L 639.841796875 79 L 480 79 L 480 40 Z Z" fill="none" stroke="#000000" stroke-miterlimit="10"/></g><g transform="translate(-118,-6) scale(1,1)"><g><path fill="none" stroke="none"/><text fill="#000000" font-family="Arial" font-size="13px" font-style="normal" font-weight="bold" stroke="none" text-decoration="none" x="489.5" y="58">Controller: Attendance</text></g></g><g transform="translate(-118,-6) scale(1,1)"><path d="M 560.5 80 L 560.5 936" fill="none" stroke="#000000" stroke-dasharray="3" stroke-miterlimit="10"/></g><g transform="translate(-118,-6) scale(1,1)"><rect fill="#C0C0C0" height="39" opacity="0.2" stroke="none" width="151.919921875" x="279" y="47"/></g><g transform="translate(-118,-6) scale(1,1)"><rect fill="#ffffff" height="39" stroke="none" width="151.919921875" x="272" y="40"/></g><g transform="translate(-118,-6) scale(1,1)"><path d="M 272 40 L 423.919921875 40 L 423.919921875 79 L 272 79 L 272 40 Z Z" fill="none" stroke="#000000" stroke-miterlimit="10"/></g><g transform="translate(-118,-6) scale(1,1)"><g><path fill="none" stroke="none"/><text fill="#000000" font-family="Arial" font-size="13px" font-style="normal" font-weight="bold" stroke="none" text-decoration="none" x="281.5" y="58">Interface: Attendance</text></g></g><g transform="translate(-118,-6) scale(1,1)"><path d="M 348.5 80 L 348.5 936" fill="none" stroke="#000000" stroke-dasharray="3" stroke-miterlimit="10"/></g><g transform="translate(-118,-6) scale(1,1)"><path d="M 194.8631454190341 47.3 C 194.8631454190341 43.82060576 197.7415471412159 41 201.292236328125 41 C 204.8429255150341 41 207.72132723721592 43.82060576 207.72132723721592 47.3 C 207.72132723721592 50.779394239999995 204.8429255150341 53.6 201.292236328125 53.6 C 197.7415471412159 53.6 194.8631454190341 50.779394239999995 194.8631454190341 47.3 Z" fill="#ffffff" stroke="none"/></g><g transform="translate(-118,-6) scale(1,1)"><path d="M 194.8631454190341 47.3 C 194.8631454190341 43.82060576 197.7415471412159 41 201.292236328125 41 C 204.8429255150341 41 207.72132723721592 43.82060576 207.72132723721592 47.3 C 207.72132723721592 50.779394239999995 204.8429255150341 53.6 201.292236328125 53.6 C 197.7415471412159 53.6 194.8631454190341 50.779394239999995 194.8631454190341 47.3 Z" fill="none" stroke="#000000" stroke-miterlimit="10"/></g><g transform="translate(-118,-6) scale(1,1)"><path d="M 201.292236328125 53.6 L 201.292236328125 66.4" fill="none" stroke="#000000" stroke-miterlimit="10"/></g><g transform="translate(-118,-6) scale(1,1)"><path d="M 194.4849636008523 58.4 L 208.09950905539773 58.4" fill="none" stroke="#000000" stroke-miterlimit="10"/></g><g transform="translate(-118,-6) scale(1,1)"><path d="M 201.292236328125 66.4 L 191.83769087357956 79" fill="none" stroke="#000000" stroke-miterlimit="10"/></g><g transform="translate(-118,-6) scale(1,1)"><path d="M 201.292236328125 66.4 L 210.74678178267047 79" fill="none" stroke="#000000" stroke-miterlimit="10"/></g><g transform="translate(-118,-6) scale(1,1)"><g><path fill="none" stroke="none"/><text fill="#000000" font-family="Arial" font-size="13px" font-style="normal" font-weight="bold" stroke="none" text-decoration="none" x="156.5" y="98">Lifeline1: User</text></g></g><g transform="translate(-118,-6) scale(1,1)"><path d="M 202.5 105 L 202.5 936" fill="none" stroke="#000000" stroke-dasharray="3" stroke-miterlimit="10"/></g><g transform="translate(-118,-6) scale(1,1)"><rect fill="#C0C0C0" height="39" opacity="0.2" stroke="none" width="89.07177734375" x="879" y="47"/></g><g transform="translate(-118,-6) scale(1,1)"><rect fill="#ffffff" height="39" stroke="none" width="89.07177734375" x="872" y="40"/></g><g transform="translate(-118,-6) scale(1,1)"><path d="M 872 40 L 961.07177734375 40 L 961.07177734375 79 L 872 79 L 872 40 Z Z" fill="none" stroke="#000000" stroke-miterlimit="10"/></g><g transform="translate(-118,-6) scale(1,1)"><g><path fill="none" stroke="none"/><text fill="#000000" font-family="Arial" font-size="13px" font-style="normal" font-weight="bold" stroke="none" text-decoration="none" x="881.5" y="58">Companies</text></g></g><g transform="translate(-118,-6) scale(1,1)"><path d="M 917.5 80 L 917.5 936" fill="none" stroke="#000000" stroke-dasharray="3" stroke-miterlimit="10"/></g><g transform="translate(-118,-6) scale(1,1)"><rect fill="#ffffff" height="79" stroke="none" width="816" x="160" y="120"/></g><g transform="translate(-118,-6) scale(1,1)"><path d="M 160 120 L 976 120 L 976 199 L 160 199 L 160 120 Z Z" fill="none" stroke="#000000" stroke-miterlimit="10"/></g><g transform="translate(-118,-6) scale(1,1)"><path d="M 160 120 L 160 142 L 185.1708984375 142 L 196.1708984375 131 L 196.1708984375 120 L 160 120 L 160 120" fill="none" stroke="#000000" stroke-miterlimit="10"/></g><g transform="translate(-118,-6) scale(1,1)"><g><path fill="none" stroke="none"/><text fill="#000000" font-family="Arial" font-size="13px" font-style="normal" font-weight="normal" stroke="none" text-decoration="none" x="586.08544921875" y="131"/></g></g><g transform="translate(-118,-6) scale(1,1)"><g><path fill="none" stroke="none"/><text fill="#000000" font-family="Arial" font-size="13px" font-style="normal" font-weight="bold" stroke="none" text-decoration="none" x="164.2763671875" y="136">ref</text></g></g><g transform="translate(-118,-6) scale(1,1)"><path d="M 202 240 L 341 240" fill="none" stroke="#000000" stroke-miterlimit="10"/></g><g transform="translate(-118,-6) scale(1,1)"><path d="M 330.83732514237585 244.209517756016 L 341 240 L 330.83732514237585 235.790482243984" fill="#000000" stroke="none"/></g><g transform="translate(-118,-6) scale(1,1)"><path d="M 330.83732514237585 244.209517756016 L 341 240 L 330.83732514237585 235.790482243984 L 330.83732514237585 244.209517756016" fill="none" stroke="#000000" stroke-miterlimit="10"/></g><g transform="translate(-118,-6) scale(1,1)"><g><path fill="none" stroke="none"/><text fill="#000000" font-family="Arial" font-size="13px" font-style="normal" font-weight="normal" stroke="none" text-decoration="none" x="214.5" y="235">1 : cliqueButtonClockIn</text></g></g><g transform="translate(-118,-6) scale(1,1)"><rect fill="#ffffff" height="80" stroke="none" width="13" x="341" y="240"/></g><g transform="translate(-118,-6) scale(1,1)"><path d="M 341 240 L 354 240 L 354 320 L 341 320 L 341 240 Z Z" fill="none" stroke="#000000" stroke-miterlimit="10"/></g><g transform="translate(-118,-6) scale(1,1)"><path d="M 354 248 L 384 248 L 384 268 L 361 268" fill="none" stroke="#000000" stroke-miterlimit="10"/></g><g transform="translate(-118,-6) scale(1,1)"><path d="M 371.16267485762415 263.790482243984 L 361 268 L 371.16267485762415 272.209517756016" fill="#000000" stroke="none"/></g><g transform="translate(-118,-6) scale(1,1)"><path d="M 371.16267485762415 263.790482243984 L 361 268 L 371.16267485762415 272.209517756016 L 371.16267485762415 263.790482243984" fill="none" stroke="#000000" stroke-miterlimit="10"/></g><g transform="translate(-118,-6) scale(1,1)"><g><path fill="none" stroke="none"/><text fill="#000000" font-family="Arial" font-size="13px" font-style="normal" font-weight="normal" stroke="none" text-decoration="none" x="392.305908203125" y="259">2 : GetUserLocation(GeolocationAPI)</text></g></g><g transform="translate(-118,-6) scale(1,1)"><rect fill="#ffffff" height="28" stroke="none" width="13" x="348" y="268"/></g><g transform="translate(-118,-6) scale(1,1)"><path d="M 348 268 L 361 268 L 361 296 L 348 296 L 348 268 Z Z" fill="none" stroke="#000000" stroke-miterlimit="10"/></g><g transform="translate(-118,-6) scale(1,1)"><path d="M 354 312 L 553 312" fill="none" stroke="#000000" stroke-miterlimit="10"/></g><g transform="translate(-118,-6) scale(1,1)"><path d="M 542.8373251423759 316.209517756016 L 553 312 L 542.8373251423758 307.790482243984" fill="#000000" stroke="none"/></g><g transform="translate(-118,-6) scale(1,1)"><path d="M 542.8373251423759 316.209517756016 L 553 312 L 542.8373251423758 307.790482243984 L 542.8373251423759 316.209517756016" fill="none" stroke="#000000" stroke-miterlimit="10"/></g><g transform="translate(-118,-6) scale(1,1)"><g><path fill="none" stroke="none"/><text fill="#000000" font-family="Arial" font-size="13px" font-style="normal" font-weight="normal" stroke="none" text-decoration="none" x="358.5" y="307">3 : ActiverPointage(token,Location)</text></g></g><g transform="translate(-118,-6) scale(1,1)"><rect fill="#ffffff" height="67" stroke="none" width="13" x="553" y="312"/></g><g transform="translate(-118,-6) scale(1,1)"><path d="M 553 312 L 566 312 L 566 379 L 553 379 L 553 312 Z Z" fill="none" stroke="#000000" stroke-miterlimit="10"/></g><g transform="translate(-118,-6) scale(1,1)"><path d="M 566 320 L 778 320" fill="none" stroke="#000000" stroke-miterlimit="10"/></g><g transform="translate(-118,-6) scale(1,1)"><path d="M 767.8373251423759 324.209517756016 L 778 320 L 767.8373251423758 315.790482243984" fill="#000000" stroke="none"/></g><g transform="translate(-118,-6) scale(1,1)"><path d="M 767.8373251423759 324.209517756016 L 778 320 L 767.8373251423758 315.790482243984 L 767.8373251423759 324.209517756016" fill="none" stroke="#000000" stroke-miterlimit="10"/></g><g transform="translate(-118,-6) scale(1,1)"><g><path fill="none" stroke="none"/><text fill="#000000" font-family="Arial" font-size="13px" font-style="normal" font-weight="normal" stroke="none" text-decoration="none" x="602.5" y="315">4 : getUser(token.user.id)</text></g></g><g transform="translate(-118,-6) scale(1,1)"><rect fill="#ffffff" height="56" stroke="none" width="13" x="778" y="320"/></g><g transform="translate(-118,-6) scale(1,1)"><path d="M 778 320 L 791 320 L 791 376 L 778 376 L 778 320 Z Z" fill="none" stroke="#000000" stroke-miterlimit="10"/></g><g transform="translate(-118,-6) scale(1,1)"><path d="M 778 368 L 566 368" fill="none" stroke="#000000" stroke-dasharray="3" stroke-miterlimit="10"/></g><g transform="translate(-118,-6) scale(1,1)"><path d="M 576.1626748576241 363.790482243984 L 566 368 L 576.1626748576241 372.209517756016" fill="none" stroke="#000000" stroke-miterlimit="10"/></g><g transform="translate(-118,-6) scale(1,1)"><g><path fill="none" stroke="none"/><text fill="#000000" font-family="Arial" font-size="13px" font-style="normal" font-weight="normal" stroke="none" text-decoration="none" x="626.5" y="383">5 : return(User)</text></g></g><g transform="translate(-118,-6) scale(1,1)"><path d="M 566 376 L 596 376 L 596 396 L 566 396" fill="none" stroke="#000000" stroke-miterlimit="10"/></g><g transform="translate(-118,-6) scale(1,1)"><path d="M 576.1626748576241 391.790482243984 L 566 396 L 576.1626748576241 400.209517756016" fill="#000000" stroke="none"/></g><g transform="translate(-118,-6) scale(1,1)"><path d="M 576.1626748576241 391.790482243984 L 566 396 L 576.1626748576241 400.209517756016 L 576.1626748576241 391.790482243984" fill="none" stroke="#000000" stroke-miterlimit="10"/></g><g transform="translate(-118,-6) scale(1,1)"><g><path fill="none" stroke="none"/><text fill="#000000" font-family="Arial" font-size="13px" font-style="normal" font-weight="normal" stroke="none" text-decoration="none" x="574.5" y="419">6 : CheckWorkingFromStatus(User)</text></g></g><g transform="translate(-118,-6) scale(1,1)"><rect fill="#ffffff" height="196" stroke="none" width="13" x="553" y="396"/></g><g transform="translate(-118,-6) scale(1,1)"><path d="M 553 396 L 566 396 L 566 592 L 553 592 L 553 396 Z Z" fill="none" stroke="#000000" stroke-miterlimit="10"/></g><g transform="translate(-118,-6) scale(1,1)"><path d="M 553 464 L 348 464" fill="none" stroke="#000000" stroke-dasharray="3" stroke-miterlimit="10"/></g><g transform="translate(-118,-6) scale(1,1)"><path d="M 358.16267485762415 459.790482243984 L 348 464 L 358.16267485762415 468.209517756016" fill="none" stroke="#000000" stroke-miterlimit="10"/></g><g transform="translate(-118,-6) scale(1,1)"><g><path fill="none" stroke="none"/><text fill="#000000" font-family="Arial" font-size="13px" font-style="normal" font-weight="normal" stroke="none" text-decoration="none" x="387.5" y="479">7 : return(Clocked In)</text></g></g><g transform="translate(-118,-6) scale(1,1)"><path d="M 348 488 L 378 488 L 378 508 L 354 508" fill="none" stroke="#000000" stroke-miterlimit="10"/></g><g transform="translate(-118,-6) scale(1,1)"><path d="M 364.16267485762415 503.790482243984 L 354 508 L 364.16267485762415 512.209517756016" fill="#000000" stroke="none"/></g><g transform="translate(-118,-6) scale(1,1)"><path d="M 364.16267485762415 503.790482243984 L 354 508 L 364.16267485762415 512.209517756016 L 364.16267485762415 503.790482243984" fill="none" stroke="#000000" stroke-miterlimit="10"/></g><g transform="translate(-118,-6) scale(1,1)"><g><path fill="none" stroke="none"/><text fill="#000000" font-family="Arial" font-size="13px" font-style="normal" font-weight="normal" stroke="none" text-decoration="none" x="389.5" y="507">8 : déclencherPointage</text></g></g><g transform="translate(-118,-6) scale(1,1)"><rect fill="#ffffff" height="28" stroke="none" width="13" x="341" y="508"/></g><g transform="translate(-118,-6) scale(1,1)"><path d="M 341 508 L 354 508 L 354 536 L 341 536 L 341 508 Z Z" fill="none" stroke="#000000" stroke-miterlimit="10"/></g><g transform="translate(-118,-6) scale(1,1)"><path d="M 566 584 L 910 584" fill="none" stroke="#000000" stroke-miterlimit="10"/></g><g transform="translate(-118,-6) scale(1,1)"><path d="M 899.8373251423759 588.209517756016 L 910 584 L 899.8373251423758 579.790482243984" fill="#000000" stroke="none"/></g><g transform="translate(-118,-6) scale(1,1)"><path d="M 899.8373251423759 588.209517756016 L 910 584 L 899.8373251423758 579.790482243984 L 899.8373251423759 588.209517756016" fill="none" stroke="#000000" stroke-miterlimit="10"/></g><g transform="translate(-118,-6) scale(1,1)"><g><path fill="none" stroke="none"/><text fill="#000000" font-family="Arial" font-size="13px" font-style="normal" font-weight="normal" stroke="none" text-decoration="none" x="634.5" y="579">9 : GetCompanyLocation(user.company)</text></g></g><g transform="translate(-118,-6) scale(1,1)"><rect fill="#ffffff" height="28" stroke="none" width="13" x="910" y="584"/></g><g transform="translate(-118,-6) scale(1,1)"><path d="M 910 584 L 923 584 L 923 612 L 910 612 L 910 584 Z Z" fill="none" stroke="#000000" stroke-miterlimit="10"/></g><g transform="translate(-118,-6) scale(1,1)"><path d="M 910 608 L 560 608" fill="none" stroke="#000000" stroke-dasharray="3" stroke-miterlimit="10"/></g><g transform="translate(-118,-6) scale(1,1)"><path d="M 570.1626748576241 603.790482243984 L 560 608 L 570.1626748576241 612.209517756016" fill="none" stroke="#000000" stroke-miterlimit="10"/></g><g transform="translate(-118,-6) scale(1,1)"><g><path fill="none" stroke="none"/><text fill="#000000" font-family="Arial" font-size="13px" font-style="normal" font-weight="normal" stroke="none" text-decoration="none" x="638.5" y="623">10 : return(RegionCenter,Radius)</text></g></g><g transform="translate(-118,-6) scale(1,1)"><path d="M 560 648 L 590 648 L 590 668 L 566 668" fill="none" stroke="#000000" stroke-miterlimit="10"/></g><g transform="translate(-118,-6) scale(1,1)"><path d="M 576.1626748576241 663.790482243984 L 566 668 L 576.1626748576241 672.209517756016" fill="#000000" stroke="none"/></g><g transform="translate(-118,-6) scale(1,1)"><path d="M 576.1626748576241 663.790482243984 L 566 668 L 576.1626748576241 672.209517756016 L 576.1626748576241 663.790482243984" fill="none" stroke="#000000" stroke-miterlimit="10"/></g><g transform="translate(-118,-6) scale(1,1)"><g><path fill="none" stroke="none"/><text fill="#000000" font-family="Arial" font-size="13px" font-style="normal" font-weight="normal" stroke="none" text-decoration="none" x="599.5" y="662">11 : CheckZone(Location,RegionCenter,Radius)</text></g></g><g transform="translate(-118,-6) scale(1,1)"><rect fill="#ffffff" height="132" stroke="none" width="13" x="553" y="668"/></g><g transform="translate(-118,-6) scale(1,1)"><path d="M 553 668 L 566 668 L 566 800 L 553 800 L 553 668 Z Z" fill="none" stroke="#000000" stroke-miterlimit="10"/></g><g transform="translate(-118,-6) scale(1,1)"><path d="M 553 738 L 348 738" fill="none" stroke="#000000" stroke-dasharray="3" stroke-miterlimit="10"/></g><g transform="translate(-118,-6) scale(1,1)"><path d="M 358.16267485762415 733.790482243984 L 348 738 L 358.16267485762415 742.209517756016" fill="none" stroke="#000000" stroke-miterlimit="10"/></g><g transform="translate(-118,-6) scale(1,1)"><g><path fill="none" stroke="none"/><text fill="#000000" font-family="Arial" font-size="13px" font-style="normal" font-weight="normal" stroke="none" text-decoration="none" x="350.75" y="753">12 : Message(unauthorized place)</text></g></g><g transform="translate(-118,-6) scale(1,1)"><path d="M 553 792 L 348 792" fill="none" stroke="#000000" stroke-dasharray="3" stroke-miterlimit="10"/></g><g transform="translate(-118,-6) scale(1,1)"><path d="M 358.16267485762415 787.790482243984 L 348 792 L 358.16267485762415 796.209517756016" fill="none" stroke="#000000" stroke-miterlimit="10"/></g><g transform="translate(-118,-6) scale(1,1)"><g><path fill="none" stroke="none"/><text fill="#000000" font-family="Arial" font-size="13px" font-style="normal" font-weight="normal" stroke="none" text-decoration="none" x="384.5" y="807">13 : return(Clocked In)</text></g></g><g transform="translate(-118,-6) scale(1,1)"><path d="M 348 824 L 378 824 L 378 844 L 354 844" fill="none" stroke="#000000" stroke-miterlimit="10"/></g><g transform="translate(-118,-6) scale(1,1)"><path d="M 364.16267485762415 839.790482243984 L 354 844 L 364.16267485762415 848.209517756016" fill="#000000" stroke="none"/></g><g transform="translate(-118,-6) scale(1,1)"><path d="M 364.16267485762415 839.790482243984 L 354 844 L 364.16267485762415 848.209517756016 L 364.16267485762415 839.790482243984" fill="none" stroke="#000000" stroke-miterlimit="10"/></g><g transform="translate(-118,-6) scale(1,1)"><g><path fill="none" stroke="none"/><text fill="#000000" font-family="Arial" font-size="13px" font-style="normal" font-weight="normal" stroke="none" text-decoration="none" x="381.5" y="843">14 : déclencherPointage</text></g></g><g transform="translate(-118,-6) scale(1,1)"><rect fill="#ffffff" height="28" stroke="none" width="13" x="341" y="844"/></g><g transform="translate(-118,-6) scale(1,1)"><path d="M 341 844 L 354 844 L 354 872 L 341 872 L 341 844 Z Z" fill="none" stroke="#000000" stroke-miterlimit="10"/></g><g transform="translate(-118,-6) scale(1,1)"><path d="M 160 440 L 976 440 L 976 920 L 160 920 L 160 440" fill="none" stroke="#000000" stroke-miterlimit="10"/></g><g transform="translate(-118,-6) scale(1,1)"><path d="M 160 440 L 160 462 L 189.72998046875 462 L 200.72998046875 451 L 200.72998046875 440 L 160 440" fill="#ffffff" stroke="none"/></g><g transform="translate(-118,-6) scale(1,1)"><path d="M 160 440 L 160 462 L 189.72998046875 462 L 200.72998046875 451 L 200.72998046875 440 L 160 440 L 160 440" fill="none" stroke="#000000" stroke-miterlimit="10"/></g><g transform="translate(-118,-6) scale(1,1)"><g><path fill="none" stroke="none"/><text fill="#000000" font-family="Arial" font-size="13px" font-style="normal" font-weight="bold" stroke="none" text-decoration="none" x="164.279541015625" y="456">alt</text></g></g><g transform="translate(-118,-6) scale(1,1)"><g><path fill="none" stroke="none"/><text fill="#000000" font-family="Arial" font-size="13px" font-style="normal" font-weight="normal" stroke="none" text-decoration="none" x="179.5" y="489">[working remotly]</text></g></g><g transform="translate(-118,-6) scale(1,1)"><path d="M 160 545 L 976 545" fill="none" stroke="#000000" stroke-dasharray="10,3" stroke-miterlimit="10"/></g><g transform="translate(-118,-6) scale(1,1)"><g><path fill="none" stroke="none"/><text fill="#000000" font-family="Arial" font-size="13px" font-style="normal" font-weight="normal" stroke="none" text-decoration="none" x="179.5" y="571">[working on-site]</text></g></g><g transform="translate(-118,-6) scale(1,1)"><path d="M 176 704 L 959 704 L 959 888 L 176 888 L 176 704" fill="none" stroke="#000000" stroke-miterlimit="10"/></g><g transform="translate(-118,-6) scale(1,1)"><path d="M 176 704 L 176 726 L 205.72998046875 726 L 216.72998046875 715 L 216.72998046875 704 L 176 704" fill="#ffffff" stroke="none"/></g><g transform="translate(-118,-6) scale(1,1)"><path d="M 176 704 L 176 726 L 205.72998046875 726 L 216.72998046875 715 L 216.72998046875 704 L 176 704 L 176 704" fill="none" stroke="#000000" stroke-miterlimit="10"/></g><g transform="translate(-118,-6) scale(1,1)"><g><path fill="none" stroke="none"/><text fill="#000000" font-family="Arial" font-size="13px" font-style="normal" font-weight="bold" stroke="none" text-decoration="none" x="180.279541015625" y="720">alt</text></g></g><g transform="translate(-118,-6) scale(1,1)"><g><path fill="none" stroke="none"/><text fill="#000000" font-family="Arial" font-size="13px" font-style="normal" font-weight="normal" stroke="none" text-decoration="none" x="195.5" y="753">[unauthorized place]</text></g></g><g transform="translate(-118,-6) scale(1,1)"><path d="M 176 770 L 959 770" fill="none" stroke="#000000" stroke-dasharray="10,3" stroke-miterlimit="10"/></g></g></svg>