<?xml version="1.0" encoding="UTF-8" standalone="no"?><svg xmlns="http://www.w3.org/2000/svg" xmlns:xlink="http://www.w3.org/1999/xlink" height="364" version="1.1" width="804"><defs/><g><g transform="translate(-78,10) scale(1,1)"><path d="M 88 0 L 872 0 L 872 344 L 88 344 L 88 0" fill="none" stroke="#000000" stroke-miterlimit="10"/></g><g transform="translate(-78,10) scale(1,1)"><path d="M 88 0 L 88 22 L 277.46240234375 22 L 288.46240234375 11 L 288.46240234375 0 L 88 0" fill="#ffffff" stroke="none"/></g><g transform="translate(-78,10) scale(1,1)"><path d="M 88 0 L 88 22 L 277.46240234375 22 L 288.46240234375 11 L 288.46240234375 0 L 88 0 L 88 0" fill="none" stroke="#000000" stroke-miterlimit="10"/></g><g transform="translate(-78,10) scale(1,1)"><g><path fill="none" stroke="none"/><text fill="#000000" font-family="Arial" font-size="13px" font-style="normal" font-weight="normal" stroke="none" text-decoration="none" x="112.72998046875" y="16">Consulter page de pointage</text></g></g><g transform="translate(-78,10) scale(1,1)"><g><path fill="none" stroke="none"/><text fill="#000000" font-family="Arial" font-size="13px" font-style="normal" font-weight="bold" stroke="none" text-decoration="none" x="92.279541015625" y="16">sd</text></g></g><g transform="translate(-78,10) scale(1,1)"><path d="M 138.8631454190341 47.3 C 138.8631454190341 43.82060576 141.7415471412159 41 145.292236328125 41 C 148.8429255150341 41 151.72132723721592 43.82060576 151.72132723721592 47.3 C 151.72132723721592 50.779394239999995 148.8429255150341 53.6 145.292236328125 53.6 C 141.7415471412159 53.6 138.8631454190341 50.779394239999995 138.8631454190341 47.3 Z" fill="#ffffff" stroke="none"/></g><g transform="translate(-78,10) scale(1,1)"><path d="M 138.8631454190341 47.3 C 138.8631454190341 43.82060576 141.7415471412159 41 145.292236328125 41 C 148.8429255150341 41 151.72132723721592 43.82060576 151.72132723721592 47.3 C 151.72132723721592 50.779394239999995 148.8429255150341 53.6 145.292236328125 53.6 C 141.7415471412159 53.6 138.8631454190341 50.779394239999995 138.8631454190341 47.3 Z" fill="none" stroke="#000000" stroke-miterlimit="10"/></g><g transform="translate(-78,10) scale(1,1)"><path d="M 145.292236328125 53.6 L 145.292236328125 66.4" fill="none" stroke="#000000" stroke-miterlimit="10"/></g><g transform="translate(-78,10) scale(1,1)"><path d="M 138.4849636008523 58.4 L 152.09950905539773 58.4" fill="none" stroke="#000000" stroke-miterlimit="10"/></g><g transform="translate(-78,10) scale(1,1)"><path d="M 145.292236328125 66.4 L 135.83769087357956 79" fill="none" stroke="#000000" stroke-miterlimit="10"/></g><g transform="translate(-78,10) scale(1,1)"><path d="M 145.292236328125 66.4 L 154.74678178267047 79" fill="none" stroke="#000000" stroke-miterlimit="10"/></g><g transform="translate(-78,10) scale(1,1)"><g><path fill="none" stroke="none"/><text fill="#000000" font-family="Arial" font-size="13px" font-style="normal" font-weight="bold" stroke="none" text-decoration="none" x="100.5" y="98">Lifeline1: User</text></g></g><g transform="translate(-78,10) scale(1,1)"><path d="M 146.5 105 L 146.5 344" fill="none" stroke="#000000" stroke-dasharray="3" stroke-miterlimit="10"/></g><g transform="translate(-78,10) scale(1,1)"><rect fill="#C0C0C0" height="39" opacity="0.2" stroke="none" width="151.919921875" x="255" y="47"/></g><g transform="translate(-78,10) scale(1,1)"><rect fill="#ffffff" height="39" stroke="none" width="151.919921875" x="248" y="40"/></g><g transform="translate(-78,10) scale(1,1)"><path d="M 248 40 L 399.919921875 40 L 399.919921875 79 L 248 79 L 248 40 Z Z" fill="none" stroke="#000000" stroke-miterlimit="10"/></g><g transform="translate(-78,10) scale(1,1)"><g><path fill="none" stroke="none"/><text fill="#000000" font-family="Arial" font-size="13px" font-style="normal" font-weight="bold" stroke="none" text-decoration="none" x="257.5" y="58">Interface: Attendance</text></g></g><g transform="translate(-78,10) scale(1,1)"><path d="M 324.5 80 L 324.5 344" fill="none" stroke="#000000" stroke-dasharray="3" stroke-miterlimit="10"/></g><g transform="translate(-78,10) scale(1,1)"><rect fill="#C0C0C0" height="39" opacity="0.2" stroke="none" width="159.841796875" x="503" y="47"/></g><g transform="translate(-78,10) scale(1,1)"><rect fill="#ffffff" height="39" stroke="none" width="159.841796875" x="496" y="40"/></g><g transform="translate(-78,10) scale(1,1)"><path d="M 496 40 L 655.841796875 40 L 655.841796875 79 L 496 79 L 496 40 Z Z" fill="none" stroke="#000000" stroke-miterlimit="10"/></g><g transform="translate(-78,10) scale(1,1)"><g><path fill="none" stroke="none"/><text fill="#000000" font-family="Arial" font-size="13px" font-style="normal" font-weight="bold" stroke="none" text-decoration="none" x="505.5" y="58">Controller: Attendance</text></g></g><g transform="translate(-78,10) scale(1,1)"><path d="M 576.5 80 L 576.5 344" fill="none" stroke="#000000" stroke-dasharray="3" stroke-miterlimit="10"/></g><g transform="translate(-78,10) scale(1,1)"><rect fill="#C0C0C0" height="39" opacity="0.2" stroke="none" width="97.01904296875" x="775" y="47"/></g><g transform="translate(-78,10) scale(1,1)"><rect fill="#ffffff" height="39" stroke="none" width="97.01904296875" x="768" y="40"/></g><g transform="translate(-78,10) scale(1,1)"><path d="M 768 40 L 865.01904296875 40 L 865.01904296875 79 L 768 79 L 768 40 Z Z" fill="none" stroke="#000000" stroke-miterlimit="10"/></g><g transform="translate(-78,10) scale(1,1)"><g><path fill="none" stroke="none"/><text fill="#000000" font-family="Arial" font-size="13px" font-style="normal" font-weight="bold" stroke="none" text-decoration="none" x="777.5" y="58">Attendances</text></g></g><g transform="translate(-78,10) scale(1,1)"><path d="M 817.5 80 L 817.5 344" fill="none" stroke="#000000" stroke-dasharray="3" stroke-miterlimit="10"/></g><g transform="translate(-78,10) scale(1,1)"><path d="M 146 152 L 317 152" fill="none" stroke="#000000" stroke-miterlimit="10"/></g><g transform="translate(-78,10) scale(1,1)"><path d="M 306.83732514237585 156.209517756016 L 317 152 L 306.83732514237585 147.790482243984" fill="#000000" stroke="none"/></g><g transform="translate(-78,10) scale(1,1)"><path d="M 306.83732514237585 156.209517756016 L 317 152 L 306.83732514237585 147.790482243984 L 306.83732514237585 156.209517756016" fill="none" stroke="#000000" stroke-miterlimit="10"/></g><g transform="translate(-78,10) scale(1,1)"><g><path fill="none" stroke="none"/><text fill="#000000" font-family="Arial" font-size="13px" font-style="normal" font-weight="normal" stroke="none" text-decoration="none" x="149.5" y="147">1 : consultePageAttendance</text></g></g><g transform="translate(-78,10) scale(1,1)"><rect fill="#ffffff" height="28" stroke="none" width="13" x="317" y="152"/></g><g transform="translate(-78,10) scale(1,1)"><path d="M 317 152 L 330 152 L 330 180 L 317 180 L 317 152 Z Z" fill="none" stroke="#000000" stroke-miterlimit="10"/></g><g transform="translate(-78,10) scale(1,1)"><path d="M 330 168 L 569 168" fill="none" stroke="#000000" stroke-miterlimit="10"/></g><g transform="translate(-78,10) scale(1,1)"><path d="M 558.8373251423759 172.209517756016 L 569 168 L 558.8373251423758 163.790482243984" fill="#000000" stroke="none"/></g><g transform="translate(-78,10) scale(1,1)"><path d="M 558.8373251423759 172.209517756016 L 569 168 L 558.8373251423758 163.790482243984 L 558.8373251423759 172.209517756016" fill="none" stroke="#000000" stroke-miterlimit="10"/></g><g transform="translate(-78,10) scale(1,1)"><g><path fill="none" stroke="none"/><text fill="#000000" font-family="Arial" font-size="13px" font-style="normal" font-weight="normal" stroke="none" text-decoration="none" x="330.5" y="163">2 : demanderHistoriquePrésences(token)</text></g></g><g transform="translate(-78,10) scale(1,1)"><rect fill="#ffffff" height="72" stroke="none" width="13" x="569" y="168"/></g><g transform="translate(-78,10) scale(1,1)"><path d="M 569 168 L 582 168 L 582 240 L 569 240 L 569 168 Z Z" fill="none" stroke="#000000" stroke-miterlimit="10"/></g><g transform="translate(-78,10) scale(1,1)"><path d="M 582 184 L 810 184" fill="none" stroke="#000000" stroke-miterlimit="10"/></g><g transform="translate(-78,10) scale(1,1)"><path d="M 799.8373251423759 188.209517756016 L 810 184 L 799.8373251423758 179.790482243984" fill="#000000" stroke="none"/></g><g transform="translate(-78,10) scale(1,1)"><path d="M 799.8373251423759 188.209517756016 L 810 184 L 799.8373251423758 179.790482243984 L 799.8373251423759 188.209517756016" fill="none" stroke="#000000" stroke-miterlimit="10"/></g><g transform="translate(-78,10) scale(1,1)"><g><path fill="none" stroke="none"/><text fill="#000000" font-family="Arial" font-size="13px" font-style="normal" font-weight="normal" stroke="none" text-decoration="none" x="587.5" y="179">3 : getUserWorkingDays(token.user.id)</text></g></g><g transform="translate(-78,10) scale(1,1)"><rect fill="#ffffff" height="56" stroke="none" width="13" x="810" y="184"/></g><g transform="translate(-78,10) scale(1,1)"><path d="M 810 184 L 823 184 L 823 240 L 810 240 L 810 184 Z Z" fill="none" stroke="#000000" stroke-miterlimit="10"/></g><g transform="translate(-78,10) scale(1,1)"><path d="M 810 229 L 582 229" fill="none" stroke="#000000" stroke-dasharray="3" stroke-miterlimit="10"/></g><g transform="translate(-78,10) scale(1,1)"><path d="M 592.1626748576241 224.790482243984 L 582 229 L 592.1626748576241 233.209517756016" fill="none" stroke="#000000" stroke-miterlimit="10"/></g><g transform="translate(-78,10) scale(1,1)"><g><path fill="none" stroke="none"/><text fill="#000000" font-family="Arial" font-size="13px" font-style="normal" font-weight="normal" stroke="none" text-decoration="none" x="612.5" y="244">4 : return(UserWorkingDays)</text></g></g><g transform="translate(-78,10) scale(1,1)"><path d="M 576 288 L 324 288" fill="none" stroke="#000000" stroke-dasharray="3" stroke-miterlimit="10"/></g><g transform="translate(-78,10) scale(1,1)"><path d="M 334.16267485762415 283.790482243984 L 324 288 L 334.16267485762415 292.209517756016" fill="none" stroke="#000000" stroke-miterlimit="10"/></g><g transform="translate(-78,10) scale(1,1)"><g><path fill="none" stroke="none"/><text fill="#000000" font-family="Arial" font-size="13px" font-style="normal" font-weight="normal" stroke="none" text-decoration="none" x="350.5" y="303">5 : return Json(UserWorkingDays)</text></g></g></g></svg>