<?xml version="1.0" encoding="UTF-8" standalone="no"?><svg xmlns="http://www.w3.org/2000/svg" xmlns:xlink="http://www.w3.org/1999/xlink" height="1524" version="1.1" width="1156"><defs/><g><g transform="translate(-70,2) scale(1,1)"><path d="M 80 8 L 1216 8 L 1216 1512 L 80 1512 L 80 8" fill="none" stroke="#000000" stroke-miterlimit="10"/></g><g transform="translate(-70,2) scale(1,1)"><path d="M 80 8 L 80 30 L 322.1669921875 30 L 333.1669921875 19 L 333.1669921875 8 L 80 8" fill="#ffffff" stroke="none"/></g><g transform="translate(-70,2) scale(1,1)"><path d="M 80 8 L 80 30 L 322.1669921875 30 L 333.1669921875 19 L 333.1669921875 8 L 80 8 L 80 8" fill="none" stroke="#000000" stroke-miterlimit="10"/></g><g transform="translate(-70,2) scale(1,1)"><g><path fill="none" stroke="none"/><text fill="#000000" font-family="Arial" font-size="13px" font-style="normal" font-weight="normal" stroke="none" text-decoration="none" x="104.72998046875" y="24">Consulter les employés en télétravail</text></g></g><g transform="translate(-70,2) scale(1,1)"><g><path fill="none" stroke="none"/><text fill="#000000" font-family="Arial" font-size="13px" font-style="normal" font-weight="bold" stroke="none" text-decoration="none" x="84.279541015625" y="24">sd</text></g></g><g transform="translate(-70,2) scale(1,1)"><path d="M 162.8631454190341 47.3 C 162.8631454190341 43.82060576 165.7415471412159 41 169.292236328125 41 C 172.8429255150341 41 175.72132723721592 43.82060576 175.72132723721592 47.3 C 175.72132723721592 50.779394239999995 172.8429255150341 53.6 169.292236328125 53.6 C 165.7415471412159 53.6 162.8631454190341 50.779394239999995 162.8631454190341 47.3 Z" fill="#ffffff" stroke="none"/></g><g transform="translate(-70,2) scale(1,1)"><path d="M 162.8631454190341 47.3 C 162.8631454190341 43.82060576 165.7415471412159 41 169.292236328125 41 C 172.8429255150341 41 175.72132723721592 43.82060576 175.72132723721592 47.3 C 175.72132723721592 50.779394239999995 172.8429255150341 53.6 169.292236328125 53.6 C 165.7415471412159 53.6 162.8631454190341 50.779394239999995 162.8631454190341 47.3 Z" fill="none" stroke="#000000" stroke-miterlimit="10"/></g><g transform="translate(-70,2) scale(1,1)"><path d="M 169.292236328125 53.6 L 169.292236328125 66.4" fill="none" stroke="#000000" stroke-miterlimit="10"/></g><g transform="translate(-70,2) scale(1,1)"><path d="M 162.4849636008523 58.4 L 176.09950905539773 58.4" fill="none" stroke="#000000" stroke-miterlimit="10"/></g><g transform="translate(-70,2) scale(1,1)"><path d="M 169.292236328125 66.4 L 159.83769087357956 79" fill="none" stroke="#000000" stroke-miterlimit="10"/></g><g transform="translate(-70,2) scale(1,1)"><path d="M 169.292236328125 66.4 L 178.74678178267047 79" fill="none" stroke="#000000" stroke-miterlimit="10"/></g><g transform="translate(-70,2) scale(1,1)"><g><path fill="none" stroke="none"/><text fill="#000000" font-family="Arial" font-size="13px" font-style="normal" font-weight="bold" stroke="none" text-decoration="none" x="124.5" y="98">Lifeline1: User</text></g></g><g transform="translate(-70,2) scale(1,1)"><path d="M 170.5 105 L 170.5 1512" fill="none" stroke="#000000" stroke-dasharray="3" stroke-miterlimit="10"/></g><g transform="translate(-70,2) scale(1,1)"><rect fill="#C0C0C0" height="39" opacity="0.2" stroke="none" width="149.7744140625" x="343" y="47"/></g><g transform="translate(-70,2) scale(1,1)"><rect fill="#ffffff" height="39" stroke="none" width="149.7744140625" x="336" y="40"/></g><g transform="translate(-70,2) scale(1,1)"><path d="M 336 40 L 485.7744140625 40 L 485.7744140625 79 L 336 79 L 336 40 Z Z" fill="none" stroke="#000000" stroke-miterlimit="10"/></g><g transform="translate(-70,2) scale(1,1)"><g><path fill="none" stroke="none"/><text fill="#000000" font-family="Arial" font-size="13px" font-style="normal" font-weight="bold" stroke="none" text-decoration="none" x="345.5" y="58">Interface: Employees</text></g></g><g transform="translate(-70,2) scale(1,1)"><path d="M 411.5 80 L 411.5 1512" fill="none" stroke="#000000" stroke-dasharray="3" stroke-miterlimit="10"/></g><g transform="translate(-70,2) scale(1,1)"><rect fill="#C0C0C0" height="39" opacity="0.2" stroke="none" width="159.841796875" x="743" y="47"/></g><g transform="translate(-70,2) scale(1,1)"><rect fill="#ffffff" height="39" stroke="none" width="159.841796875" x="736" y="40"/></g><g transform="translate(-70,2) scale(1,1)"><path d="M 736 40 L 895.841796875 40 L 895.841796875 79 L 736 79 L 736 40 Z Z" fill="none" stroke="#000000" stroke-miterlimit="10"/></g><g transform="translate(-70,2) scale(1,1)"><g><path fill="none" stroke="none"/><text fill="#000000" font-family="Arial" font-size="13px" font-style="normal" font-weight="bold" stroke="none" text-decoration="none" x="745.5" y="58">Controller: Attendance</text></g></g><g transform="translate(-70,2) scale(1,1)"><path d="M 816.5 80 L 816.5 1512" fill="none" stroke="#000000" stroke-dasharray="3" stroke-miterlimit="10"/></g><g transform="translate(-70,2) scale(1,1)"><rect fill="#C0C0C0" height="39" opacity="0.2" stroke="none" width="71.736328125" x="1095" y="47"/></g><g transform="translate(-70,2) scale(1,1)"><rect fill="#ffffff" height="39" stroke="none" width="71.736328125" x="1088" y="40"/></g><g transform="translate(-70,2) scale(1,1)"><path d="M 1088 40 L 1159.736328125 40 L 1159.736328125 79 L 1088 79 L 1088 40 Z Z" fill="none" stroke="#000000" stroke-miterlimit="10"/></g><g transform="translate(-70,2) scale(1,1)"><g><path fill="none" stroke="none"/><text fill="#000000" font-family="Arial" font-size="13px" font-style="normal" font-weight="bold" stroke="none" text-decoration="none" x="1105.799560546875" y="58">Users</text></g></g><g transform="translate(-70,2) scale(1,1)"><path d="M 1124.5 80 L 1124.5 1512" fill="none" stroke="#000000" stroke-dasharray="3" stroke-miterlimit="10"/></g><g transform="translate(-70,2) scale(1,1)"><path d="M 170 208 L 404 208" fill="none" stroke="#000000" stroke-miterlimit="10"/></g><g transform="translate(-70,2) scale(1,1)"><path d="M 393.83732514237585 212.209517756016 L 404 208 L 393.83732514237585 203.790482243984" fill="#000000" stroke="none"/></g><g transform="translate(-70,2) scale(1,1)"><path d="M 393.83732514237585 212.209517756016 L 404 208 L 393.83732514237585 203.790482243984 L 393.83732514237585 212.209517756016" fill="none" stroke="#000000" stroke-miterlimit="10"/></g><g transform="translate(-70,2) scale(1,1)"><g><path fill="none" stroke="none"/><text fill="#000000" font-family="Arial" font-size="13px" font-style="normal" font-weight="normal" stroke="none" text-decoration="none" x="210.5" y="203">1 : cliqueButtonEmployees</text></g></g><g transform="translate(-70,2) scale(1,1)"><rect fill="#ffffff" height="28" stroke="none" width="13" x="404" y="208"/></g><g transform="translate(-70,2) scale(1,1)"><path d="M 404 208 L 417 208 L 417 236 L 404 236 L 404 208 Z Z" fill="none" stroke="#000000" stroke-miterlimit="10"/></g><g transform="translate(-70,2) scale(1,1)"><path d="M 417 224 L 809 224" fill="none" stroke="#000000" stroke-miterlimit="10"/></g><g transform="translate(-70,2) scale(1,1)"><path d="M 798.8373251423759 228.209517756016 L 809 224 L 798.8373251423758 219.790482243984" fill="#000000" stroke="none"/></g><g transform="translate(-70,2) scale(1,1)"><path d="M 798.8373251423759 228.209517756016 L 809 224 L 798.8373251423758 219.790482243984 L 798.8373251423759 228.209517756016" fill="none" stroke="#000000" stroke-miterlimit="10"/></g><g transform="translate(-70,2) scale(1,1)"><g><path fill="none" stroke="none"/><text fill="#000000" font-family="Arial" font-size="13px" font-style="normal" font-weight="normal" stroke="none" text-decoration="none" x="497.5" y="219">2 : demanderTélétravailEmployees(token)</text></g></g><g transform="translate(-70,2) scale(1,1)"><rect fill="#ffffff" height="78" stroke="none" width="13" x="809" y="224"/></g><g transform="translate(-70,2) scale(1,1)"><path d="M 809 224 L 822 224 L 822 302 L 809 302 L 809 224 Z Z" fill="none" stroke="#000000" stroke-miterlimit="10"/></g><g transform="translate(-70,2) scale(1,1)"><path d="M 822 240 L 1117 240" fill="none" stroke="#000000" stroke-miterlimit="10"/></g><g transform="translate(-70,2) scale(1,1)"><path d="M 1106.837325142376 244.209517756016 L 1117 240 L 1106.837325142376 235.790482243984" fill="#000000" stroke="none"/></g><g transform="translate(-70,2) scale(1,1)"><path d="M 1106.837325142376 244.209517756016 L 1117 240 L 1106.837325142376 235.790482243984 L 1106.837325142376 244.209517756016" fill="none" stroke="#000000" stroke-miterlimit="10"/></g><g transform="translate(-70,2) scale(1,1)"><g><path fill="none" stroke="none"/><text fill="#000000" font-family="Arial" font-size="13px" font-style="normal" font-weight="normal" stroke="none" text-decoration="none" x="869.5791015625" y="234">3 : GetRemoteEmployees(token)</text></g></g><g transform="translate(-70,2) scale(1,1)"><rect fill="#ffffff" height="40" stroke="none" width="13" x="1117" y="240"/></g><g transform="translate(-70,2) scale(1,1)"><path d="M 1117 240 L 1130 240 L 1130 280 L 1117 280 L 1117 240 Z Z" fill="none" stroke="#000000" stroke-miterlimit="10"/></g><g transform="translate(-70,2) scale(1,1)"><path d="M 1117 272 L 822 272" fill="none" stroke="#000000" stroke-dasharray="3" stroke-miterlimit="10"/></g><g transform="translate(-70,2) scale(1,1)"><path d="M 832.1626748576241 267.790482243984 L 822 272 L 832.1626748576241 276.209517756016" fill="none" stroke="#000000" stroke-miterlimit="10"/></g><g transform="translate(-70,2) scale(1,1)"><g><path fill="none" stroke="none"/><text fill="#000000" font-family="Arial" font-size="13px" font-style="normal" font-weight="normal" stroke="none" text-decoration="none" x="828.5791015625" y="287">4 : return(RemoteEmployees,OnSiteEmployees)</text></g></g><g transform="translate(-70,2) scale(1,1)"><rect fill="#ffffff" height="71" stroke="none" width="1040" x="128" y="112"/></g><g transform="translate(-70,2) scale(1,1)"><path d="M 128 112 L 1168 112 L 1168 183 L 128 183 L 128 112 Z Z" fill="none" stroke="#000000" stroke-miterlimit="10"/></g><g transform="translate(-70,2) scale(1,1)"><path d="M 128 112 L 128 134 L 153.1708984375 134 L 164.1708984375 123 L 164.1708984375 112 L 128 112 L 128 112" fill="none" stroke="#000000" stroke-miterlimit="10"/></g><g transform="translate(-70,2) scale(1,1)"><g><path fill="none" stroke="none"/><text fill="#000000" font-family="Arial" font-size="13px" font-style="normal" font-weight="normal" stroke="none" text-decoration="none" x="666.08544921875" y="123"/></g></g><g transform="translate(-70,2) scale(1,1)"><g><path fill="none" stroke="none"/><text fill="#000000" font-family="Arial" font-size="13px" font-style="normal" font-weight="bold" stroke="none" text-decoration="none" x="132.2763671875" y="128">ref</text></g></g><g transform="translate(-70,2) scale(1,1)"><path d="M 816 320 L 411 320" fill="none" stroke="#000000" stroke-dasharray="3" stroke-miterlimit="10"/></g><g transform="translate(-70,2) scale(1,1)"><path d="M 421.16267485762415 315.790482243984 L 411 320 L 421.16267485762415 324.209517756016" fill="none" stroke="#000000" stroke-miterlimit="10"/></g><g transform="translate(-70,2) scale(1,1)"><g><path fill="none" stroke="none"/><text fill="#000000" font-family="Arial" font-size="13px" font-style="normal" font-weight="normal" stroke="none" text-decoration="none" x="460.5791015625" y="335">5 : return Json(RemoteEmployees,OnSiteEmployee)</text></g></g><g transform="translate(-70,2) scale(1,1)"><path d="M 170 416 L 404 416" fill="none" stroke="#000000" stroke-miterlimit="10"/></g><g transform="translate(-70,2) scale(1,1)"><path d="M 393.83732514237585 420.209517756016 L 404 416 L 393.83732514237585 411.790482243984" fill="#000000" stroke="none"/></g><g transform="translate(-70,2) scale(1,1)"><path d="M 393.83732514237585 420.209517756016 L 404 416 L 393.83732514237585 411.790482243984 L 393.83732514237585 420.209517756016" fill="none" stroke="#000000" stroke-miterlimit="10"/></g><g transform="translate(-70,2) scale(1,1)"><g><path fill="none" stroke="none"/><text fill="#000000" font-family="Arial" font-size="13px" font-style="normal" font-weight="normal" stroke="none" text-decoration="none" x="219.5" y="411">6 : cliqueButtonExclude</text></g></g><g transform="translate(-70,2) scale(1,1)"><rect fill="#ffffff" height="28" stroke="none" width="13" x="404" y="416"/></g><g transform="translate(-70,2) scale(1,1)"><path d="M 404 416 L 417 416 L 417 444 L 404 444 L 404 416 Z Z" fill="none" stroke="#000000" stroke-miterlimit="10"/></g><g transform="translate(-70,2) scale(1,1)"><path d="M 417 432 L 809 432" fill="none" stroke="#000000" stroke-miterlimit="10"/></g><g transform="translate(-70,2) scale(1,1)"><path d="M 798.8373251423759 436.209517756016 L 809 432 L 798.8373251423758 427.790482243984" fill="#000000" stroke="none"/></g><g transform="translate(-70,2) scale(1,1)"><path d="M 798.8373251423759 436.209517756016 L 809 432 L 798.8373251423758 427.790482243984 L 798.8373251423759 436.209517756016" fill="none" stroke="#000000" stroke-miterlimit="10"/></g><g transform="translate(-70,2) scale(1,1)"><g><path fill="none" stroke="none"/><text fill="#000000" font-family="Arial" font-size="13px" font-style="normal" font-weight="normal" stroke="none" text-decoration="none" x="473.114990234375" y="427">7 : MettreEmployéEnPrésentiel(token,employee)</text></g></g><g transform="translate(-70,2) scale(1,1)"><rect fill="#ffffff" height="28" stroke="none" width="13" x="809" y="432"/></g><g transform="translate(-70,2) scale(1,1)"><path d="M 809 432 L 822 432 L 822 460 L 809 460 L 809 432 Z Z" fill="none" stroke="#000000" stroke-miterlimit="10"/></g><g transform="translate(-70,2) scale(1,1)"><path d="M 822 448 L 1117 448" fill="none" stroke="#000000" stroke-miterlimit="10"/></g><g transform="translate(-70,2) scale(1,1)"><path d="M 1106.837325142376 452.209517756016 L 1117 448 L 1106.837325142376 443.790482243984" fill="#000000" stroke="none"/></g><g transform="translate(-70,2) scale(1,1)"><path d="M 1106.837325142376 452.209517756016 L 1117 448 L 1106.837325142376 443.790482243984 L 1106.837325142376 452.209517756016" fill="none" stroke="#000000" stroke-miterlimit="10"/></g><g transform="translate(-70,2) scale(1,1)"><g><path fill="none" stroke="none"/><text fill="#000000" font-family="Arial" font-size="13px" font-style="normal" font-weight="normal" stroke="none" text-decoration="none" x="846.5" y="443">8 : UpdateEmployee(employee.id , OnSite)</text></g></g><g transform="translate(-70,2) scale(1,1)"><rect fill="#ffffff" height="28" stroke="none" width="13" x="1117" y="448"/></g><g transform="translate(-70,2) scale(1,1)"><path d="M 1117 448 L 1130 448 L 1130 476 L 1117 476 L 1117 448 Z Z" fill="none" stroke="#000000" stroke-miterlimit="10"/></g><g transform="translate(-70,2) scale(1,1)"><path d="M 816 482 L 411 482" fill="none" stroke="#000000" stroke-dasharray="3" stroke-miterlimit="10"/></g><g transform="translate(-70,2) scale(1,1)"><path d="M 421.16267485762415 477.790482243984 L 411 482 L 421.16267485762415 486.209517756016" fill="none" stroke="#000000" stroke-miterlimit="10"/></g><g transform="translate(-70,2) scale(1,1)"><g><path fill="none" stroke="none"/><text fill="#000000" font-family="Arial" font-size="13px" font-style="normal" font-weight="normal" stroke="none" text-decoration="none" x="516.5" y="497">9 : Message(Employee Updated)</text></g></g><g transform="translate(-70,2) scale(1,1)"><path d="M 170 644 L 404 644" fill="none" stroke="#000000" stroke-miterlimit="10"/></g><g transform="translate(-70,2) scale(1,1)"><path d="M 393.83732514237585 648.209517756016 L 404 644 L 393.83732514237585 639.790482243984" fill="#000000" stroke="none"/></g><g transform="translate(-70,2) scale(1,1)"><path d="M 393.83732514237585 648.209517756016 L 404 644 L 393.83732514237585 639.790482243984 L 393.83732514237585 648.209517756016" fill="none" stroke="#000000" stroke-miterlimit="10"/></g><g transform="translate(-70,2) scale(1,1)"><g><path fill="none" stroke="none"/><text fill="#000000" font-family="Arial" font-size="13px" font-style="normal" font-weight="normal" stroke="none" text-decoration="none" x="227.5" y="639">10 : cliqueButtonAdd</text></g></g><g transform="translate(-70,2) scale(1,1)"><rect fill="#ffffff" height="28" stroke="none" width="13" x="404" y="644"/></g><g transform="translate(-70,2) scale(1,1)"><path d="M 404 644 L 417 644 L 417 672 L 404 672 L 404 644 Z Z" fill="none" stroke="#000000" stroke-miterlimit="10"/></g><g transform="translate(-70,2) scale(1,1)"><path d="M 411 680 L 441 680 L 441 700 L 417 700" fill="none" stroke="#000000" stroke-miterlimit="10"/></g><g transform="translate(-70,2) scale(1,1)"><path d="M 427.16267485762415 695.790482243984 L 417 700 L 427.16267485762415 704.209517756016" fill="#000000" stroke="none"/></g><g transform="translate(-70,2) scale(1,1)"><path d="M 427.16267485762415 695.790482243984 L 417 700 L 427.16267485762415 704.209517756016 L 427.16267485762415 695.790482243984" fill="none" stroke="#000000" stroke-miterlimit="10"/></g><g transform="translate(-70,2) scale(1,1)"><g><path fill="none" stroke="none"/><text fill="#000000" font-family="Arial" font-size="13px" font-style="normal" font-weight="normal" stroke="none" text-decoration="none" x="426.46728515625" y="723">11 : chargerPopupAssignEmployeesRemotly(OnSiteEmployees)</text></g></g><g transform="translate(-70,2) scale(1,1)"><rect fill="#ffffff" height="28" stroke="none" width="13" x="404" y="700"/></g><g transform="translate(-70,2) scale(1,1)"><path d="M 404 700 L 417 700 L 417 728 L 404 728 L 404 700 Z Z" fill="none" stroke="#000000" stroke-miterlimit="10"/></g><g transform="translate(-70,2) scale(1,1)"><path d="M 170 776 L 404 776" fill="none" stroke="#000000" stroke-miterlimit="10"/></g><g transform="translate(-70,2) scale(1,1)"><path d="M 393.83732514237585 780.209517756016 L 404 776 L 393.83732514237585 771.790482243984" fill="#000000" stroke="none"/></g><g transform="translate(-70,2) scale(1,1)"><path d="M 393.83732514237585 780.209517756016 L 404 776 L 393.83732514237585 771.790482243984 L 393.83732514237585 780.209517756016" fill="none" stroke="#000000" stroke-miterlimit="10"/></g><g transform="translate(-70,2) scale(1,1)"><g><path fill="none" stroke="none"/><text fill="#000000" font-family="Arial" font-size="13px" font-style="normal" font-weight="normal" stroke="none" text-decoration="none" x="164.5" y="771">12 : selectnewEmployees(newEmployees)</text></g></g><g transform="translate(-70,2) scale(1,1)"><rect fill="#ffffff" height="28" stroke="none" width="13" x="404" y="776"/></g><g transform="translate(-70,2) scale(1,1)"><path d="M 404 776 L 417 776 L 417 804 L 404 804 L 404 776 Z Z" fill="none" stroke="#000000" stroke-miterlimit="10"/></g><g transform="translate(-70,2) scale(1,1)"><path d="M 170 832 L 404 832" fill="none" stroke="#000000" stroke-miterlimit="10"/></g><g transform="translate(-70,2) scale(1,1)"><path d="M 393.83732514237585 836.209517756016 L 404 832 L 393.83732514237585 827.790482243984" fill="#000000" stroke="none"/></g><g transform="translate(-70,2) scale(1,1)"><path d="M 393.83732514237585 836.209517756016 L 404 832 L 393.83732514237585 827.790482243984 L 393.83732514237585 836.209517756016" fill="none" stroke="#000000" stroke-miterlimit="10"/></g><g transform="translate(-70,2) scale(1,1)"><g><path fill="none" stroke="none"/><text fill="#000000" font-family="Arial" font-size="13px" font-style="normal" font-weight="normal" stroke="none" text-decoration="none" x="223.5" y="827">13 : cliqueButtonSave</text></g></g><g transform="translate(-70,2) scale(1,1)"><rect fill="#ffffff" height="48" stroke="none" width="13" x="404" y="832"/></g><g transform="translate(-70,2) scale(1,1)"><path d="M 404 832 L 417 832 L 417 880 L 404 880 L 404 832 Z Z" fill="none" stroke="#000000" stroke-miterlimit="10"/></g><g transform="translate(-70,2) scale(1,1)"><path d="M 417 856 L 809 856" fill="none" stroke="#000000" stroke-miterlimit="10"/></g><g transform="translate(-70,2) scale(1,1)"><path d="M 798.8373251423759 860.209517756016 L 809 856 L 798.8373251423758 851.790482243984" fill="#000000" stroke="none"/></g><g transform="translate(-70,2) scale(1,1)"><path d="M 798.8373251423759 860.209517756016 L 809 856 L 798.8373251423758 851.790482243984 L 798.8373251423759 860.209517756016" fill="none" stroke="#000000" stroke-miterlimit="10"/></g><g transform="translate(-70,2) scale(1,1)"><g><path fill="none" stroke="none"/><text fill="#000000" font-family="Arial" font-size="13px" font-style="normal" font-weight="normal" stroke="none" text-decoration="none" x="473.5" y="851">14 : AjouterDesEmployés(token,newEmployees)</text></g></g><g transform="translate(-70,2) scale(1,1)"><rect fill="#ffffff" height="28" stroke="none" width="13" x="809" y="856"/></g><g transform="translate(-70,2) scale(1,1)"><path d="M 809 856 L 822 856 L 822 884 L 809 884 L 809 856 Z Z" fill="none" stroke="#000000" stroke-miterlimit="10"/></g><g transform="translate(-70,2) scale(1,1)"><path d="M 816 888 L 846 888 L 846 908 L 822 908" fill="none" stroke="#000000" stroke-miterlimit="10"/></g><g transform="translate(-70,2) scale(1,1)"><path d="M 832.1626748576241 903.790482243984 L 822 908 L 832.1626748576241 912.209517756016" fill="#000000" stroke="none"/></g><g transform="translate(-70,2) scale(1,1)"><path d="M 832.1626748576241 903.790482243984 L 822 908 L 832.1626748576241 912.209517756016 L 832.1626748576241 903.790482243984" fill="none" stroke="#000000" stroke-miterlimit="10"/></g><g transform="translate(-70,2) scale(1,1)"><g><path fill="none" stroke="none"/><text fill="#000000" font-family="Arial" font-size="13px" font-style="normal" font-weight="normal" stroke="none" text-decoration="none" x="862.5" y="902">15 : Initialize i to 0</text></g></g><g transform="translate(-70,2) scale(1,1)"><rect fill="#ffffff" height="28" stroke="none" width="13" x="809" y="908"/></g><g transform="translate(-70,2) scale(1,1)"><path d="M 809 908 L 822 908 L 822 936 L 809 936 L 809 908 Z Z" fill="none" stroke="#000000" stroke-miterlimit="10"/></g><g transform="translate(-70,2) scale(1,1)"><path d="M 816 1064 L 1117 1064" fill="none" stroke="#000000" stroke-miterlimit="10"/></g><g transform="translate(-70,2) scale(1,1)"><path d="M 1106.837325142376 1068.2095177560159 L 1117 1064 L 1106.837325142376 1059.7904822439841" fill="#000000" stroke="none"/></g><g transform="translate(-70,2) scale(1,1)"><path d="M 1106.837325142376 1068.2095177560159 L 1117 1064 L 1106.837325142376 1059.7904822439841 L 1106.837325142376 1068.2095177560159" fill="none" stroke="#000000" stroke-miterlimit="10"/></g><g transform="translate(-70,2) scale(1,1)"><g><path fill="none" stroke="none"/><text fill="#000000" font-family="Arial" font-size="13px" font-style="normal" font-weight="normal" stroke="none" text-decoration="none" x="818.75" y="1059">16 : UpdateEmployee(newEmployees[i].id,Remote)</text></g></g><g transform="translate(-70,2) scale(1,1)"><rect fill="#ffffff" height="28" stroke="none" width="13" x="1117" y="1064"/></g><g transform="translate(-70,2) scale(1,1)"><path d="M 1117 1064 L 1130 1064 L 1130 1092 L 1117 1092 L 1117 1064 Z Z" fill="none" stroke="#000000" stroke-miterlimit="10"/></g><g transform="translate(-70,2) scale(1,1)"><path d="M 816 1096 L 846 1096 L 846 1116 L 822 1116" fill="none" stroke="#000000" stroke-miterlimit="10"/></g><g transform="translate(-70,2) scale(1,1)"><path d="M 832.1626748576241 1111.7904822439841 L 822 1116 L 832.1626748576241 1120.2095177560159" fill="#000000" stroke="none"/></g><g transform="translate(-70,2) scale(1,1)"><path d="M 832.1626748576241 1111.7904822439841 L 822 1116 L 832.1626748576241 1120.2095177560159 L 832.1626748576241 1111.7904822439841" fill="none" stroke="#000000" stroke-miterlimit="10"/></g><g transform="translate(-70,2) scale(1,1)"><g><path fill="none" stroke="none"/><text fill="#000000" font-family="Arial" font-size="13px" font-style="normal" font-weight="normal" stroke="none" text-decoration="none" x="854.5" y="1110">17 : incrémenter i</text></g></g><g transform="translate(-70,2) scale(1,1)"><rect fill="#ffffff" height="28" stroke="none" width="13" x="809" y="1116"/></g><g transform="translate(-70,2) scale(1,1)"><path d="M 809 1116 L 822 1116 L 822 1144 L 809 1144 L 809 1116 Z Z" fill="none" stroke="#000000" stroke-miterlimit="10"/></g><g transform="translate(-70,2) scale(1,1)"><path d="M 816 1192 L 411 1192" fill="none" stroke="#000000" stroke-dasharray="3" stroke-miterlimit="10"/></g><g transform="translate(-70,2) scale(1,1)"><path d="M 421.16267485762415 1187.7904822439841 L 411 1192 L 421.16267485762415 1196.2095177560159" fill="none" stroke="#000000" stroke-miterlimit="10"/></g><g transform="translate(-70,2) scale(1,1)"><g><path fill="none" stroke="none"/><text fill="#000000" font-family="Arial" font-size="13px" font-style="normal" font-weight="normal" stroke="none" text-decoration="none" x="443.5" y="1210">18 : Message(Selected Employees are now working remotely)</text></g></g><g transform="translate(-70,2) scale(1,1)"><rect fill="#ffffff" height="79" stroke="none" width="783" x="272" y="1352"/></g><g transform="translate(-70,2) scale(1,1)"><path d="M 272 1352 L 1055 1352 L 1055 1431 L 272 1431 L 272 1352 Z Z" fill="none" stroke="#000000" stroke-miterlimit="10"/></g><g transform="translate(-70,2) scale(1,1)"><path d="M 272 1352 L 272 1374 L 297.1708984375 1374 L 308.1708984375 1363 L 308.1708984375 1352 L 272 1352 L 272 1352" fill="none" stroke="#000000" stroke-miterlimit="10"/></g><g transform="translate(-70,2) scale(1,1)"><g><path fill="none" stroke="none"/><text fill="#000000" font-family="Arial" font-size="13px" font-style="normal" font-weight="normal" stroke="none" text-decoration="none" x="681.58544921875" y="1363"/></g></g><g transform="translate(-70,2) scale(1,1)"><g><path fill="none" stroke="none"/><text fill="#000000" font-family="Arial" font-size="13px" font-style="normal" font-weight="bold" stroke="none" text-decoration="none" x="276.2763671875" y="1368">ref</text></g></g><g transform="translate(-70,2) scale(1,1)"><path d="M 128 368 L 1167 368 L 1167 535 L 128 535 L 128 368" fill="none" stroke="#000000" stroke-miterlimit="10"/></g><g transform="translate(-70,2) scale(1,1)"><path d="M 128 368 L 128 390 L 435.94140625 390 L 446.94140625 379 L 446.94140625 368 L 128 368" fill="#ffffff" stroke="none"/></g><g transform="translate(-70,2) scale(1,1)"><path d="M 128 368 L 128 390 L 435.94140625 390 L 446.94140625 379 L 446.94140625 368 L 128 368 L 128 368" fill="none" stroke="#000000" stroke-miterlimit="10"/></g><g transform="translate(-70,2) scale(1,1)"><g><path fill="none" stroke="none"/><text fill="#000000" font-family="Arial" font-size="13px" font-style="normal" font-weight="normal" stroke="none" text-decoration="none" x="157.07177734375" y="384">modifier un Employé de télétravail en présentiel</text></g></g><g transform="translate(-70,2) scale(1,1)"><g><path fill="none" stroke="none"/><text fill="#000000" font-family="Arial" font-size="13px" font-style="normal" font-weight="bold" stroke="none" text-decoration="none" x="131.930419921875" y="383.5">opt</text></g></g><g transform="translate(-70,2) scale(1,1)"><path d="M 128 592 L 1168 592 L 1168 1240 L 128 1240 L 128 592" fill="none" stroke="#000000" stroke-miterlimit="10"/></g><g transform="translate(-70,2) scale(1,1)"><path d="M 128 592 L 128 614 L 495.92041015625 614 L 506.92041015625 603 L 506.92041015625 592 L 128 592" fill="#ffffff" stroke="none"/></g><g transform="translate(-70,2) scale(1,1)"><path d="M 128 592 L 128 614 L 495.92041015625 614 L 506.92041015625 603 L 506.92041015625 592 L 128 592 L 128 592" fill="none" stroke="#000000" stroke-miterlimit="10"/></g><g transform="translate(-70,2) scale(1,1)"><g><path fill="none" stroke="none"/><text fill="#000000" font-family="Arial" font-size="13px" font-style="normal" font-weight="normal" stroke="none" text-decoration="none" x="157.07177734375" y="608">enregistrer un nouvel employé pour le travail en télétravail</text></g></g><g transform="translate(-70,2) scale(1,1)"><g><path fill="none" stroke="none"/><text fill="#000000" font-family="Arial" font-size="13px" font-style="normal" font-weight="bold" stroke="none" text-decoration="none" x="131.930419921875" y="607.5">opt</text></g></g><g transform="translate(-70,2) scale(1,1)"><path d="M 760 960 L 1143 960 L 1143 1152 L 760 1152 L 760 960" fill="none" stroke="#000000" stroke-miterlimit="10"/></g><g transform="translate(-70,2) scale(1,1)"><path d="M 760 960 L 760 982 L 800.578125 982 L 811.578125 971 L 811.578125 960 L 760 960" fill="#ffffff" stroke="none"/></g><g transform="translate(-70,2) scale(1,1)"><path d="M 760 960 L 760 982 L 800.578125 982 L 811.578125 971 L 811.578125 960 L 760 960 L 760 960" fill="none" stroke="#000000" stroke-miterlimit="10"/></g><g transform="translate(-70,2) scale(1,1)"><g><path fill="none" stroke="none"/><text fill="#000000" font-family="Arial" font-size="13px" font-style="normal" font-weight="bold" stroke="none" text-decoration="none" x="763.57177734375" y="976">loop</text></g></g><g transform="translate(-70,2) scale(1,1)"><g><path fill="none" stroke="none"/><text fill="#000000" font-family="Arial" font-size="13px" font-style="normal" font-weight="normal" stroke="none" text-decoration="none" x="779.5" y="1009">[ len(newEmployees) &gt; i ]</text></g></g><g transform="translate(-70,2) scale(1,1)"><path d="M 128 1312 L 1168 1312 L 1168 1472 L 128 1472 L 128 1312" fill="none" stroke="#000000" stroke-miterlimit="10"/></g><g transform="translate(-70,2) scale(1,1)"><path d="M 128 1312 L 128 1334 L 162.07177734375 1334 L 173.07177734375 1323 L 173.07177734375 1312 L 128 1312" fill="#ffffff" stroke="none"/></g><g transform="translate(-70,2) scale(1,1)"><path d="M 128 1312 L 128 1334 L 162.07177734375 1334 L 173.07177734375 1323 L 173.07177734375 1312 L 128 1312 L 128 1312" fill="none" stroke="#000000" stroke-miterlimit="10"/></g><g transform="translate(-70,2) scale(1,1)"><g><path fill="none" stroke="none"/><text fill="#000000" font-family="Arial" font-size="13px" font-style="normal" font-weight="bold" stroke="none" text-decoration="none" x="131.930419921875" y="1327.5">opt</text></g></g></g></svg>