<?xml version="1.0" encoding="UTF-8" standalone="no"?><svg xmlns="http://www.w3.org/2000/svg" xmlns:xlink="http://www.w3.org/1999/xlink" height="420" version="1.1" width="908"><defs/><g><g transform="translate(-30,2) scale(1,1)"><path d="M 40 8 L 928 8 L 928 408 L 40 408 L 40 8" fill="none" stroke="#000000" stroke-miterlimit="10"/></g><g transform="translate(-30,2) scale(1,1)"><path d="M 40 8 L 40 30 L 176.681640625 30 L 187.681640625 19 L 187.681640625 8 L 40 8" fill="#ffffff" stroke="none"/></g><g transform="translate(-30,2) scale(1,1)"><path d="M 40 8 L 40 30 L 176.681640625 30 L 187.681640625 19 L 187.681640625 8 L 40 8 L 40 8" fill="none" stroke="#000000" stroke-miterlimit="10"/></g><g transform="translate(-30,2) scale(1,1)"><g><path fill="none" stroke="none"/><text fill="#000000" font-family="Arial" font-size="13px" font-style="normal" font-weight="normal" stroke="none" text-decoration="none" x="64.72998046875" y="24">Arrêter le pointage</text></g></g><g transform="translate(-30,2) scale(1,1)"><g><path fill="none" stroke="none"/><text fill="#000000" font-family="Arial" font-size="13px" font-style="normal" font-weight="bold" stroke="none" text-decoration="none" x="44.279541015625" y="24">sd</text></g></g><g transform="translate(-30,2) scale(1,1)"><path d="M 90.8631454190341 47.3 C 90.8631454190341 43.82060576 93.74154714121592 41 97.292236328125 41 C 100.84292551503408 41 103.7213272372159 43.82060576 103.7213272372159 47.3 C 103.7213272372159 50.779394239999995 100.84292551503408 53.6 97.292236328125 53.6 C 93.74154714121592 53.6 90.8631454190341 50.779394239999995 90.8631454190341 47.3 Z" fill="#ffffff" stroke="none"/></g><g transform="translate(-30,2) scale(1,1)"><path d="M 90.8631454190341 47.3 C 90.8631454190341 43.82060576 93.74154714121592 41 97.292236328125 41 C 100.84292551503408 41 103.7213272372159 43.82060576 103.7213272372159 47.3 C 103.7213272372159 50.779394239999995 100.84292551503408 53.6 97.292236328125 53.6 C 93.74154714121592 53.6 90.8631454190341 50.779394239999995 90.8631454190341 47.3 Z" fill="none" stroke="#000000" stroke-miterlimit="10"/></g><g transform="translate(-30,2) scale(1,1)"><path d="M 97.292236328125 53.6 L 97.292236328125 66.4" fill="none" stroke="#000000" stroke-miterlimit="10"/></g><g transform="translate(-30,2) scale(1,1)"><path d="M 90.48496360085227 58.4 L 104.09950905539773 58.4" fill="none" stroke="#000000" stroke-miterlimit="10"/></g><g transform="translate(-30,2) scale(1,1)"><path d="M 97.292236328125 66.4 L 87.83769087357955 79" fill="none" stroke="#000000" stroke-miterlimit="10"/></g><g transform="translate(-30,2) scale(1,1)"><path d="M 97.292236328125 66.4 L 106.74678178267045 79" fill="none" stroke="#000000" stroke-miterlimit="10"/></g><g transform="translate(-30,2) scale(1,1)"><g><path fill="none" stroke="none"/><text fill="#000000" font-family="Arial" font-size="13px" font-style="normal" font-weight="bold" stroke="none" text-decoration="none" x="52.5" y="98">Lifeline1: User</text></g></g><g transform="translate(-30,2) scale(1,1)"><path d="M 98.5 105 L 98.5 408" fill="none" stroke="#000000" stroke-dasharray="3" stroke-miterlimit="10"/></g><g transform="translate(-30,2) scale(1,1)"><rect fill="#C0C0C0" height="39" opacity="0.2" stroke="none" width="151.919921875" x="191" y="47"/></g><g transform="translate(-30,2) scale(1,1)"><rect fill="#ffffff" height="39" stroke="none" width="151.919921875" x="184" y="40"/></g><g transform="translate(-30,2) scale(1,1)"><path d="M 184 40 L 335.919921875 40 L 335.919921875 79 L 184 79 L 184 40 Z Z" fill="none" stroke="#000000" stroke-miterlimit="10"/></g><g transform="translate(-30,2) scale(1,1)"><g><path fill="none" stroke="none"/><text fill="#000000" font-family="Arial" font-size="13px" font-style="normal" font-weight="bold" stroke="none" text-decoration="none" x="193.5" y="58">Interface: Attendance</text></g></g><g transform="translate(-30,2) scale(1,1)"><path d="M 260.5 80 L 260.5 408" fill="none" stroke="#000000" stroke-dasharray="3" stroke-miterlimit="10"/></g><g transform="translate(-30,2) scale(1,1)"><rect fill="#C0C0C0" height="39" opacity="0.2" stroke="none" width="159.841796875" x="399" y="47"/></g><g transform="translate(-30,2) scale(1,1)"><rect fill="#ffffff" height="39" stroke="none" width="159.841796875" x="392" y="40"/></g><g transform="translate(-30,2) scale(1,1)"><path d="M 392 40 L 551.841796875 40 L 551.841796875 79 L 392 79 L 392 40 Z Z" fill="none" stroke="#000000" stroke-miterlimit="10"/></g><g transform="translate(-30,2) scale(1,1)"><g><path fill="none" stroke="none"/><text fill="#000000" font-family="Arial" font-size="13px" font-style="normal" font-weight="bold" stroke="none" text-decoration="none" x="401.5" y="58">Controller: Attendance</text></g></g><g transform="translate(-30,2) scale(1,1)"><path d="M 472.5 80 L 472.5 408" fill="none" stroke="#000000" stroke-dasharray="3" stroke-miterlimit="10"/></g><g transform="translate(-30,2) scale(1,1)"><rect fill="#C0C0C0" height="39" opacity="0.2" stroke="none" width="97.01904296875" x="783" y="47"/></g><g transform="translate(-30,2) scale(1,1)"><rect fill="#ffffff" height="39" stroke="none" width="97.01904296875" x="776" y="40"/></g><g transform="translate(-30,2) scale(1,1)"><path d="M 776 40 L 873.01904296875 40 L 873.01904296875 79 L 776 79 L 776 40 Z Z" fill="none" stroke="#000000" stroke-miterlimit="10"/></g><g transform="translate(-30,2) scale(1,1)"><g><path fill="none" stroke="none"/><text fill="#000000" font-family="Arial" font-size="13px" font-style="normal" font-weight="bold" stroke="none" text-decoration="none" x="785.5" y="58">Attendances</text></g></g><g transform="translate(-30,2) scale(1,1)"><path d="M 825.5 80 L 825.5 408" fill="none" stroke="#000000" stroke-dasharray="3" stroke-miterlimit="10"/></g><g transform="translate(-30,2) scale(1,1)"><rect fill="#ffffff" height="79" stroke="none" width="832" x="72" y="136"/></g><g transform="translate(-30,2) scale(1,1)"><path d="M 72 136 L 904 136 L 904 215 L 72 215 L 72 136 Z Z" fill="none" stroke="#000000" stroke-miterlimit="10"/></g><g transform="translate(-30,2) scale(1,1)"><path d="M 72 136 L 72 158 L 97.1708984375 158 L 108.1708984375 147 L 108.1708984375 136 L 72 136 L 72 136" fill="none" stroke="#000000" stroke-miterlimit="10"/></g><g transform="translate(-30,2) scale(1,1)"><g><path fill="none" stroke="none"/><text fill="#000000" font-family="Arial" font-size="13px" font-style="normal" font-weight="normal" stroke="none" text-decoration="none" x="506.08544921875" y="147"/></g></g><g transform="translate(-30,2) scale(1,1)"><g><path fill="none" stroke="none"/><text fill="#000000" font-family="Arial" font-size="13px" font-style="normal" font-weight="bold" stroke="none" text-decoration="none" x="76.2763671875" y="152">ref</text></g></g><g transform="translate(-30,2) scale(1,1)"><path d="M 98 240 L 253 240" fill="none" stroke="#000000" stroke-miterlimit="10"/></g><g transform="translate(-30,2) scale(1,1)"><path d="M 242.83732514237585 244.209517756016 L 253 240 L 242.83732514237585 235.790482243984" fill="#000000" stroke="none"/></g><g transform="translate(-30,2) scale(1,1)"><path d="M 242.83732514237585 244.209517756016 L 253 240 L 242.83732514237585 235.790482243984 L 242.83732514237585 244.209517756016" fill="none" stroke="#000000" stroke-miterlimit="10"/></g><g transform="translate(-30,2) scale(1,1)"><g><path fill="none" stroke="none"/><text fill="#000000" font-family="Arial" font-size="13px" font-style="normal" font-weight="normal" stroke="none" text-decoration="none" x="103.5" y="235">1 : cliqueButtonClockOut</text></g></g><g transform="translate(-30,2) scale(1,1)"><rect fill="#ffffff" height="28" stroke="none" width="13" x="253" y="240"/></g><g transform="translate(-30,2) scale(1,1)"><path d="M 253 240 L 266 240 L 266 268 L 253 268 L 253 240 Z Z" fill="none" stroke="#000000" stroke-miterlimit="10"/></g><g transform="translate(-30,2) scale(1,1)"><path d="M 260 271 L 465 271" fill="none" stroke="#000000" stroke-miterlimit="10"/></g><g transform="translate(-30,2) scale(1,1)"><path d="M 454.83732514237585 275.209517756016 L 465 271 L 454.83732514237585 266.790482243984" fill="#000000" stroke="none"/></g><g transform="translate(-30,2) scale(1,1)"><path d="M 454.83732514237585 275.209517756016 L 465 271 L 454.83732514237585 266.790482243984 L 454.83732514237585 275.209517756016" fill="none" stroke="#000000" stroke-miterlimit="10"/></g><g transform="translate(-30,2) scale(1,1)"><g><path fill="none" stroke="none"/><text fill="#000000" font-family="Arial" font-size="13px" font-style="normal" font-weight="normal" stroke="none" text-decoration="none" x="262.614990234375" y="266">2 : ArrêterPointage(token,Counter)</text></g></g><g transform="translate(-30,2) scale(1,1)"><rect fill="#ffffff" height="57" stroke="none" width="13" x="465" y="271"/></g><g transform="translate(-30,2) scale(1,1)"><path d="M 465 271 L 478 271 L 478 328 L 465 328 L 465 271 Z Z" fill="none" stroke="#000000" stroke-miterlimit="10"/></g><g transform="translate(-30,2) scale(1,1)"><path d="M 478 299 L 818 299" fill="none" stroke="#000000" stroke-miterlimit="10"/></g><g transform="translate(-30,2) scale(1,1)"><path d="M 807.8373251423759 303.209517756016 L 818 299 L 807.8373251423758 294.790482243984" fill="#000000" stroke="none"/></g><g transform="translate(-30,2) scale(1,1)"><path d="M 807.8373251423759 303.209517756016 L 818 299 L 807.8373251423758 294.790482243984 L 807.8373251423759 303.209517756016" fill="none" stroke="#000000" stroke-miterlimit="10"/></g><g transform="translate(-30,2) scale(1,1)"><g><path fill="none" stroke="none"/><text fill="#000000" font-family="Arial" font-size="13px" font-style="normal" font-weight="normal" stroke="none" text-decoration="none" x="479.5" y="294">3 : UpdateAttendance(token.user.id ,CurrentDate,Counter)</text></g></g><g transform="translate(-30,2) scale(1,1)"><rect fill="#ffffff" height="28" stroke="none" width="13" x="818" y="299"/></g><g transform="translate(-30,2) scale(1,1)"><path d="M 818 299 L 831 299 L 831 327 L 818 327 L 818 299 Z Z" fill="none" stroke="#000000" stroke-miterlimit="10"/></g><g transform="translate(-30,2) scale(1,1)"><path d="M 472 362 L 260 362" fill="none" stroke="#000000" stroke-dasharray="3" stroke-miterlimit="10"/></g><g transform="translate(-30,2) scale(1,1)"><path d="M 270.16267485762415 357.790482243984 L 260 362 L 270.16267485762415 366.209517756016" fill="none" stroke="#000000" stroke-miterlimit="10"/></g><g transform="translate(-30,2) scale(1,1)"><g><path fill="none" stroke="none"/><text fill="#000000" font-family="Arial" font-size="13px" font-style="normal" font-weight="normal" stroke="none" text-decoration="none" x="268.5" y="377">4 : Message(You are clocked out)</text></g></g></g></svg>