<?xml version="1.0" encoding="UTF-8" standalone="no"?><svg xmlns="http://www.w3.org/2000/svg" xmlns:xlink="http://www.w3.org/1999/xlink" height="628" version="1.1" width="1124"><defs/><g><g transform="translate(-254,2) scale(1,1)"><path d="M 264 8 L 1368 8 L 1368 616 L 264 616 L 264 8" fill="none" stroke="#000000" stroke-miterlimit="10"/></g><g transform="translate(-254,2) scale(1,1)"><path d="M 264 8 L 264 30 L 599.42041015625 30 L 610.42041015625 19 L 610.42041015625 8 L 264 8" fill="#ffffff" stroke="none"/></g><g transform="translate(-254,2) scale(1,1)"><path d="M 264 8 L 264 30 L 599.42041015625 30 L 610.42041015625 19 L 610.42041015625 8 L 264 8 L 264 8" fill="none" stroke="#000000" stroke-miterlimit="10"/></g><g transform="translate(-254,2) scale(1,1)"><g><path fill="none" stroke="none"/><text fill="#000000" font-family="Arial" font-size="13px" font-style="normal" font-weight="normal" stroke="none" text-decoration="none" x="288.72998046875" y="24">Consulter la localisation géographique de l’entreprise</text></g></g><g transform="translate(-254,2) scale(1,1)"><g><path fill="none" stroke="none"/><text fill="#000000" font-family="Arial" font-size="13px" font-style="normal" font-weight="bold" stroke="none" text-decoration="none" x="268.279541015625" y="24">sd</text></g></g><g transform="translate(-254,2) scale(1,1)"><path d="M 346.8631454190341 47.3 C 346.8631454190341 43.82060576 349.7415471412159 41 353.292236328125 41 C 356.8429255150341 41 359.721327237216 43.82060576 359.721327237216 47.3 C 359.721327237216 50.779394239999995 356.8429255150341 53.6 353.292236328125 53.6 C 349.7415471412159 53.6 346.8631454190341 50.779394239999995 346.8631454190341 47.3 Z" fill="#ffffff" stroke="none"/></g><g transform="translate(-254,2) scale(1,1)"><path d="M 346.8631454190341 47.3 C 346.8631454190341 43.82060576 349.7415471412159 41 353.292236328125 41 C 356.8429255150341 41 359.721327237216 43.82060576 359.721327237216 47.3 C 359.721327237216 50.779394239999995 356.8429255150341 53.6 353.292236328125 53.6 C 349.7415471412159 53.6 346.8631454190341 50.779394239999995 346.8631454190341 47.3 Z" fill="none" stroke="#000000" stroke-miterlimit="10"/></g><g transform="translate(-254,2) scale(1,1)"><path d="M 353.292236328125 53.6 L 353.292236328125 66.4" fill="none" stroke="#000000" stroke-miterlimit="10"/></g><g transform="translate(-254,2) scale(1,1)"><path d="M 346.48496360085227 58.4 L 360.0995090553978 58.4" fill="none" stroke="#000000" stroke-miterlimit="10"/></g><g transform="translate(-254,2) scale(1,1)"><path d="M 353.292236328125 66.4 L 343.83769087357956 79" fill="none" stroke="#000000" stroke-miterlimit="10"/></g><g transform="translate(-254,2) scale(1,1)"><path d="M 353.292236328125 66.4 L 362.7467817826705 79" fill="none" stroke="#000000" stroke-miterlimit="10"/></g><g transform="translate(-254,2) scale(1,1)"><g><path fill="none" stroke="none"/><text fill="#000000" font-family="Arial" font-size="13px" font-style="normal" font-weight="bold" stroke="none" text-decoration="none" x="308.5" y="98">Lifeline1: User</text></g></g><g transform="translate(-254,2) scale(1,1)"><path d="M 354.5 105 L 354.5 616" fill="none" stroke="#000000" stroke-dasharray="3" stroke-miterlimit="10"/></g><g transform="translate(-254,2) scale(1,1)"><rect fill="#C0C0C0" height="39" opacity="0.2" stroke="none" width="132.41357421875" x="447" y="47"/></g><g transform="translate(-254,2) scale(1,1)"><rect fill="#ffffff" height="39" stroke="none" width="132.41357421875" x="440" y="40"/></g><g transform="translate(-254,2) scale(1,1)"><path d="M 440 40 L 572.41357421875 40 L 572.41357421875 79 L 440 79 L 440 40 Z Z" fill="none" stroke="#000000" stroke-miterlimit="10"/></g><g transform="translate(-254,2) scale(1,1)"><g><path fill="none" stroke="none"/><text fill="#000000" font-family="Arial" font-size="13px" font-style="normal" font-weight="bold" stroke="none" text-decoration="none" x="449.5" y="58">Interface: Settings</text></g></g><g transform="translate(-254,2) scale(1,1)"><path d="M 507.5 80 L 507.5 616" fill="none" stroke="#000000" stroke-dasharray="3" stroke-miterlimit="10"/></g><g transform="translate(-254,2) scale(1,1)"><rect fill="#C0C0C0" height="39" opacity="0.2" stroke="none" width="194.525390625" x="655" y="47"/></g><g transform="translate(-254,2) scale(1,1)"><rect fill="#ffffff" height="39" stroke="none" width="194.525390625" x="648" y="40"/></g><g transform="translate(-254,2) scale(1,1)"><path d="M 648 40 L 842.525390625 40 L 842.525390625 79 L 648 79 L 648 40 Z Z" fill="none" stroke="#000000" stroke-miterlimit="10"/></g><g transform="translate(-254,2) scale(1,1)"><g><path fill="none" stroke="none"/><text fill="#000000" font-family="Arial" font-size="13px" font-style="normal" font-weight="bold" stroke="none" text-decoration="none" x="657.5" y="58">Interface: CompanyLocation</text></g></g><g transform="translate(-254,2) scale(1,1)"><path d="M 746.5 80 L 746.5 616" fill="none" stroke="#000000" stroke-dasharray="3" stroke-miterlimit="10"/></g><g transform="translate(-254,2) scale(1,1)"><rect fill="#C0C0C0" height="39" opacity="0.2" stroke="none" width="143.21728515625" x="927" y="47"/></g><g transform="translate(-254,2) scale(1,1)"><rect fill="#ffffff" height="39" stroke="none" width="143.21728515625" x="920" y="40"/></g><g transform="translate(-254,2) scale(1,1)"><path d="M 920 40 L 1063.21728515625 40 L 1063.21728515625 79 L 920 79 L 920 40 Z Z" fill="none" stroke="#000000" stroke-miterlimit="10"/></g><g transform="translate(-254,2) scale(1,1)"><g><path fill="none" stroke="none"/><text fill="#000000" font-family="Arial" font-size="13px" font-style="normal" font-weight="bold" stroke="none" text-decoration="none" x="929.5" y="58">Controller: Location</text></g></g><g transform="translate(-254,2) scale(1,1)"><path d="M 992.5 80 L 992.5 616" fill="none" stroke="#000000" stroke-dasharray="3" stroke-miterlimit="10"/></g><g transform="translate(-254,2) scale(1,1)"><rect fill="#C0C0C0" height="39" opacity="0.2" stroke="none" width="89.07177734375" x="1231" y="47"/></g><g transform="translate(-254,2) scale(1,1)"><rect fill="#ffffff" height="39" stroke="none" width="89.07177734375" x="1224" y="40"/></g><g transform="translate(-254,2) scale(1,1)"><path d="M 1224 40 L 1313.07177734375 40 L 1313.07177734375 79 L 1224 79 L 1224 40 Z Z" fill="none" stroke="#000000" stroke-miterlimit="10"/></g><g transform="translate(-254,2) scale(1,1)"><g><path fill="none" stroke="none"/><text fill="#000000" font-family="Arial" font-size="13px" font-style="normal" font-weight="bold" stroke="none" text-decoration="none" x="1233.5" y="58">Companies</text></g></g><g transform="translate(-254,2) scale(1,1)"><path d="M 1269.5 80 L 1269.5 616" fill="none" stroke="#000000" stroke-dasharray="3" stroke-miterlimit="10"/></g><g transform="translate(-254,2) scale(1,1)"><path d="M 354 144 L 500 144" fill="none" stroke="#000000" stroke-miterlimit="10"/></g><g transform="translate(-254,2) scale(1,1)"><path d="M 489.83732514237585 148.209517756016 L 500 144 L 489.83732514237585 139.790482243984" fill="#000000" stroke="none"/></g><g transform="translate(-254,2) scale(1,1)"><path d="M 489.83732514237585 148.209517756016 L 500 144 L 489.83732514237585 139.790482243984 L 489.83732514237585 148.209517756016" fill="none" stroke="#000000" stroke-miterlimit="10"/></g><g transform="translate(-254,2) scale(1,1)"><g><path fill="none" stroke="none"/><text fill="#000000" font-family="Arial" font-size="13px" font-style="normal" font-weight="normal" stroke="none" text-decoration="none" x="353.5" y="139">1 : ConsultePageSettings</text></g></g><g transform="translate(-254,2) scale(1,1)"><rect fill="#ffffff" height="28" stroke="none" width="13" x="500" y="144"/></g><g transform="translate(-254,2) scale(1,1)"><path d="M 500 144 L 513 144 L 513 172 L 500 172 L 500 144 Z Z" fill="none" stroke="#000000" stroke-miterlimit="10"/></g><g transform="translate(-254,2) scale(1,1)"><path d="M 354 204 L 500 204" fill="none" stroke="#000000" stroke-miterlimit="10"/></g><g transform="translate(-254,2) scale(1,1)"><path d="M 489.83732514237585 208.209517756016 L 500 204 L 489.83732514237585 199.790482243984" fill="#000000" stroke="none"/></g><g transform="translate(-254,2) scale(1,1)"><path d="M 489.83732514237585 208.209517756016 L 500 204 L 489.83732514237585 199.790482243984 L 489.83732514237585 208.209517756016" fill="none" stroke="#000000" stroke-miterlimit="10"/></g><g transform="translate(-254,2) scale(1,1)"><g><path fill="none" stroke="none"/><text fill="#000000" font-family="Arial" font-size="13px" font-style="normal" font-weight="normal" stroke="none" text-decoration="none" x="360.5" y="199">2 : cliqueButtonClockIn</text></g></g><g transform="translate(-254,2) scale(1,1)"><rect fill="#ffffff" height="28" stroke="none" width="13" x="500" y="204"/></g><g transform="translate(-254,2) scale(1,1)"><path d="M 500 204 L 513 204 L 513 232 L 500 232 L 500 204 Z Z" fill="none" stroke="#000000" stroke-miterlimit="10"/></g><g transform="translate(-254,2) scale(1,1)"><path d="M 507 256 L 739 256" fill="none" stroke="#000000" stroke-miterlimit="10"/></g><g transform="translate(-254,2) scale(1,1)"><path d="M 728.8373251423759 260.209517756016 L 739 256 L 728.8373251423758 251.790482243984" fill="#000000" stroke="none"/></g><g transform="translate(-254,2) scale(1,1)"><path d="M 728.8373251423759 260.209517756016 L 739 256 L 728.8373251423758 251.790482243984 L 728.8373251423759 260.209517756016" fill="none" stroke="#000000" stroke-miterlimit="10"/></g><g transform="translate(-254,2) scale(1,1)"><g><path fill="none" stroke="none"/><text fill="#000000" font-family="Arial" font-size="13px" font-style="normal" font-weight="normal" stroke="none" text-decoration="none" x="566.5" y="251">3 : chargerInterface</text></g></g><g transform="translate(-254,2) scale(1,1)"><rect fill="#ffffff" height="28" stroke="none" width="13" x="739" y="256"/></g><g transform="translate(-254,2) scale(1,1)"><path d="M 739 256 L 752 256 L 752 284 L 739 284 L 739 256 Z Z" fill="none" stroke="#000000" stroke-miterlimit="10"/></g><g transform="translate(-254,2) scale(1,1)"><path d="M 752 272 L 985 272" fill="none" stroke="#000000" stroke-miterlimit="10"/></g><g transform="translate(-254,2) scale(1,1)"><path d="M 974.8373251423759 276.209517756016 L 985 272 L 974.8373251423758 267.790482243984" fill="#000000" stroke="none"/></g><g transform="translate(-254,2) scale(1,1)"><path d="M 974.8373251423759 276.209517756016 L 985 272 L 974.8373251423758 267.790482243984 L 974.8373251423759 276.209517756016" fill="none" stroke="#000000" stroke-miterlimit="10"/></g><g transform="translate(-254,2) scale(1,1)"><g><path fill="none" stroke="none"/><text fill="#000000" font-family="Arial" font-size="13px" font-style="normal" font-weight="normal" stroke="none" text-decoration="none" x="753.5" y="267">4 : demanderZoneGéographique(token)</text></g></g><g transform="translate(-254,2) scale(1,1)"><rect fill="#ffffff" height="56" stroke="none" width="13" x="985" y="272"/></g><g transform="translate(-254,2) scale(1,1)"><path d="M 985 272 L 998 272 L 998 328 L 985 328 L 985 272 Z Z" fill="none" stroke="#000000" stroke-miterlimit="10"/></g><g transform="translate(-254,2) scale(1,1)"><path d="M 998 296 L 1262 296" fill="none" stroke="#000000" stroke-miterlimit="10"/></g><g transform="translate(-254,2) scale(1,1)"><path d="M 1251.837325142376 300.209517756016 L 1262 296 L 1251.837325142376 291.790482243984" fill="#000000" stroke="none"/></g><g transform="translate(-254,2) scale(1,1)"><path d="M 1251.837325142376 300.209517756016 L 1262 296 L 1251.837325142376 291.790482243984 L 1251.837325142376 300.209517756016" fill="none" stroke="#000000" stroke-miterlimit="10"/></g><g transform="translate(-254,2) scale(1,1)"><g><path fill="none" stroke="none"/><text fill="#000000" font-family="Arial" font-size="13px" font-style="normal" font-weight="normal" stroke="none" text-decoration="none" x="1033.5" y="291">5 : GetZone(token.user.company)</text></g></g><g transform="translate(-254,2) scale(1,1)"><rect fill="#ffffff" height="36" stroke="none" width="13" x="1262" y="296"/></g><g transform="translate(-254,2) scale(1,1)"><path d="M 1262 296 L 1275 296 L 1275 332 L 1262 332 L 1262 296 Z Z" fill="none" stroke="#000000" stroke-miterlimit="10"/></g><g transform="translate(-254,2) scale(1,1)"><path d="M 1262 320 L 998 320" fill="none" stroke="#000000" stroke-dasharray="3" stroke-miterlimit="10"/></g><g transform="translate(-254,2) scale(1,1)"><path d="M 1008.1626748576241 315.790482243984 L 998 320 L 1008.1626748576241 324.209517756016" fill="none" stroke="#000000" stroke-miterlimit="10"/></g><g transform="translate(-254,2) scale(1,1)"><g><path fill="none" stroke="none"/><text fill="#000000" font-family="Arial" font-size="13px" font-style="normal" font-weight="normal" stroke="none" text-decoration="none" x="1015.11181640625" y="335">6 : return(Adress,RegionCenter,Radius)</text></g></g><g transform="translate(-254,2) scale(1,1)"><path d="M 992 392 L 746 392" fill="none" stroke="#000000" stroke-dasharray="3" stroke-miterlimit="10"/></g><g transform="translate(-254,2) scale(1,1)"><path d="M 756.1626748576241 387.790482243984 L 746 392 L 756.1626748576241 396.209517756016" fill="none" stroke="#000000" stroke-miterlimit="10"/></g><g transform="translate(-254,2) scale(1,1)"><g><path fill="none" stroke="none"/><text fill="#000000" font-family="Arial" font-size="13px" font-style="normal" font-weight="normal" stroke="none" text-decoration="none" x="749.5" y="407">7 : return Json(geographical coordinates)</text></g></g><g transform="translate(-254,2) scale(1,1)"><path d="M 354 488 L 739 488" fill="none" stroke="#000000" stroke-miterlimit="10"/></g><g transform="translate(-254,2) scale(1,1)"><path d="M 728.8373251423759 492.209517756016 L 739 488 L 728.8373251423758 483.790482243984" fill="#000000" stroke="none"/></g><g transform="translate(-254,2) scale(1,1)"><path d="M 728.8373251423759 492.209517756016 L 739 488 L 728.8373251423758 483.790482243984 L 728.8373251423759 492.209517756016" fill="none" stroke="#000000" stroke-miterlimit="10"/></g><g transform="translate(-254,2) scale(1,1)"><g><path fill="none" stroke="none"/><text fill="#000000" font-family="Arial" font-size="13px" font-style="normal" font-weight="normal" stroke="none" text-decoration="none" x="513.39453125" y="483">8 : saisirDonnées(données)</text></g></g><g transform="translate(-254,2) scale(1,1)"><rect fill="#ffffff" height="28" stroke="none" width="13" x="739" y="488"/></g><g transform="translate(-254,2) scale(1,1)"><path d="M 739 488 L 752 488 L 752 516 L 739 516 L 739 488 Z Z" fill="none" stroke="#000000" stroke-miterlimit="10"/></g><g transform="translate(-254,2) scale(1,1)"><path d="M 752 504 L 985 504" fill="none" stroke="#000000" stroke-miterlimit="10"/></g><g transform="translate(-254,2) scale(1,1)"><path d="M 974.8373251423759 508.209517756016 L 985 504 L 974.8373251423758 499.790482243984" fill="#000000" stroke="none"/></g><g transform="translate(-254,2) scale(1,1)"><path d="M 974.8373251423759 508.209517756016 L 985 504 L 974.8373251423758 499.790482243984 L 974.8373251423759 508.209517756016" fill="none" stroke="#000000" stroke-miterlimit="10"/></g><g transform="translate(-254,2) scale(1,1)"><g><path fill="none" stroke="none"/><text fill="#000000" font-family="Arial" font-size="13px" font-style="normal" font-weight="normal" stroke="none" text-decoration="none" x="766.5" y="499">9 : UpdateLocation(données,token)</text></g></g><g transform="translate(-254,2) scale(1,1)"><rect fill="#ffffff" height="28" stroke="none" width="13" x="985" y="504"/></g><g transform="translate(-254,2) scale(1,1)"><path d="M 985 504 L 998 504 L 998 532 L 985 532 L 985 504 Z Z" fill="none" stroke="#000000" stroke-miterlimit="10"/></g><g transform="translate(-254,2) scale(1,1)"><path d="M 998 520 L 1262 520" fill="none" stroke="#000000" stroke-miterlimit="10"/></g><g transform="translate(-254,2) scale(1,1)"><path d="M 1251.837325142376 524.209517756016 L 1262 520 L 1251.837325142376 515.790482243984" fill="#000000" stroke="none"/></g><g transform="translate(-254,2) scale(1,1)"><path d="M 1251.837325142376 524.209517756016 L 1262 520 L 1251.837325142376 515.790482243984 L 1251.837325142376 524.209517756016" fill="none" stroke="#000000" stroke-miterlimit="10"/></g><g transform="translate(-254,2) scale(1,1)"><g><path fill="none" stroke="none"/><text fill="#000000" font-family="Arial" font-size="13px" font-style="normal" font-weight="normal" stroke="none" text-decoration="none" x="1007.5" y="515">10 : Update(token.user.company,données)</text></g></g><g transform="translate(-254,2) scale(1,1)"><rect fill="#ffffff" height="28" stroke="none" width="13" x="1262" y="520"/></g><g transform="translate(-254,2) scale(1,1)"><path d="M 1262 520 L 1275 520 L 1275 548 L 1262 548 L 1262 520 Z Z" fill="none" stroke="#000000" stroke-miterlimit="10"/></g><g transform="translate(-254,2) scale(1,1)"><path d="M 992 544 L 746 544" fill="none" stroke="#000000" stroke-dasharray="3" stroke-miterlimit="10"/></g><g transform="translate(-254,2) scale(1,1)"><path d="M 756.1626748576241 539.790482243984 L 746 544 L 756.1626748576241 548.209517756016" fill="none" stroke="#000000" stroke-miterlimit="10"/></g><g transform="translate(-254,2) scale(1,1)"><g><path fill="none" stroke="none"/><text fill="#000000" font-family="Arial" font-size="13px" font-style="normal" font-weight="normal" stroke="none" text-decoration="none" x="774.11181640625" y="559">11 : Message(Location Updated)</text></g></g><g transform="translate(-254,2) scale(1,1)"><path d="M 296 440 L 1344 440 L 1344 576 L 296 576 L 296 440" fill="none" stroke="#000000" stroke-miterlimit="10"/></g><g transform="translate(-254,2) scale(1,1)"><path d="M 296 440 L 296 462 L 330.07177734375 462 L 341.07177734375 451 L 341.07177734375 440 L 296 440" fill="#ffffff" stroke="none"/></g><g transform="translate(-254,2) scale(1,1)"><path d="M 296 440 L 296 462 L 330.07177734375 462 L 341.07177734375 451 L 341.07177734375 440 L 296 440 L 296 440" fill="none" stroke="#000000" stroke-miterlimit="10"/></g><g transform="translate(-254,2) scale(1,1)"><g><path fill="none" stroke="none"/><text fill="#000000" font-family="Arial" font-size="13px" font-style="normal" font-weight="bold" stroke="none" text-decoration="none" x="299.930419921875" y="455.5">opt</text></g></g></g></svg>