<?xml version="1.0" encoding="UTF-8" standalone="no"?><svg xmlns="http://www.w3.org/2000/svg" xmlns:xlink="http://www.w3.org/1999/xlink" height="740" version="1.1" width="1491"><defs/><g><g transform="translate(-62,-78) scale(1,1)"><path d="M 270.19206516335225 201.68 C 270.19206516335225 196.886167936 274.07790748829774 193 278.871337890625 193 C 283.66476829295226 193 287.55061061789775 196.886167936 287.55061061789775 201.68 C 287.55061061789775 206.47383206400002 283.66476829295226 210.36 278.871337890625 210.36 C 274.07790748829774 210.36 270.19206516335225 206.47383206400002 270.19206516335225 201.68 Z" fill="#ffffff" stroke="none"/></g><g transform="translate(-62,-78) scale(1,1)"><path d="M 270.19206516335225 201.68 C 270.19206516335225 196.886167936 274.07790748829774 193 278.871337890625 193 C 283.66476829295226 193 287.55061061789775 196.886167936 287.55061061789775 201.68 C 287.55061061789775 206.47383206400002 283.66476829295226 210.36 278.871337890625 210.36 C 274.07790748829774 210.36 270.19206516335225 206.47383206400002 270.19206516335225 201.68 Z" fill="none" stroke="#000000" stroke-miterlimit="10"/></g><g transform="translate(-62,-78) scale(1,1)"><path d="M 278.871337890625 210.36 L 278.871337890625 227.64" fill="none" stroke="#000000" stroke-miterlimit="10"/></g><g transform="translate(-62,-78) scale(1,1)"><path d="M 269.68151970880683 216.84 L 288.06115607244317 216.84" fill="none" stroke="#000000" stroke-miterlimit="10"/></g><g transform="translate(-62,-78) scale(1,1)"><path d="M 278.871337890625 227.64 L 266.10770152698865 245" fill="none" stroke="#000000" stroke-miterlimit="10"/></g><g transform="translate(-62,-78) scale(1,1)"><path d="M 278.871337890625 227.64 L 291.63497425426135 245" fill="none" stroke="#000000" stroke-miterlimit="10"/></g><g transform="translate(-62,-78) scale(1,1)"><g><path fill="none" stroke="none"/><text fill="#000000" font-family="Arial" font-size="13px" font-style="normal" font-weight="bold" stroke="none" text-decoration="none" x="252.5" y="264">employé</text></g></g><g transform="translate(-62,-78) scale(1,1)"><path d="M 270.55070774147725 393.68 C 270.55070774147725 388.886167936 274.43655006642274 385 279.22998046875 385 C 284.02341087107726 385 287.90925319602275 388.886167936 287.90925319602275 393.68 C 287.90925319602275 398.473832064 284.02341087107726 402.36 279.22998046875 402.36 C 274.43655006642274 402.36 270.55070774147725 398.473832064 270.55070774147725 393.68 Z" fill="#ffffff" stroke="none"/></g><g transform="translate(-62,-78) scale(1,1)"><path d="M 270.55070774147725 393.68 C 270.55070774147725 388.886167936 274.43655006642274 385 279.22998046875 385 C 284.02341087107726 385 287.90925319602275 388.886167936 287.90925319602275 393.68 C 287.90925319602275 398.473832064 284.02341087107726 402.36 279.22998046875 402.36 C 274.43655006642274 402.36 270.55070774147725 398.473832064 270.55070774147725 393.68 Z" fill="none" stroke="#000000" stroke-miterlimit="10"/></g><g transform="translate(-62,-78) scale(1,1)"><path d="M 279.22998046875 402.36 L 279.22998046875 419.64" fill="none" stroke="#000000" stroke-miterlimit="10"/></g><g transform="translate(-62,-78) scale(1,1)"><path d="M 270.04016228693183 408.84 L 288.41979865056817 408.84" fill="none" stroke="#000000" stroke-miterlimit="10"/></g><g transform="translate(-62,-78) scale(1,1)"><path d="M 279.22998046875 419.64 L 266.46634410511365 437" fill="none" stroke="#000000" stroke-miterlimit="10"/></g><g transform="translate(-62,-78) scale(1,1)"><path d="M 279.22998046875 419.64 L 291.99361683238635 437" fill="none" stroke="#000000" stroke-miterlimit="10"/></g><g transform="translate(-62,-78) scale(1,1)"><g><path fill="none" stroke="none"/><text fill="#000000" font-family="Arial" font-size="13px" font-style="normal" font-weight="bold" stroke="none" text-decoration="none" x="252.5" y="456">Manager</text></g></g><g transform="translate(-62,-78) scale(1,1)"><path d="M 191 119 C 191 105.7451648 241.36795999999998 95 303.5 95 C 365.63204 95 416 105.7451648 416 119 C 416 132.2548352 365.63204 143 303.5 143 C 241.36795999999998 143 191 132.2548352 191 119 Z" fill="#C0C0C0" opacity="0.2" stroke="none"/></g><g transform="translate(-62,-78) scale(1,1)"><path d="M 184 112 C 184 98.7451648 234.36795999999998 88 296.5 88 C 358.63204 88 409 98.7451648 409 112 C 409 125.2548352 358.63204 136 296.5 136 C 234.36795999999998 136 184 125.2548352 184 112 Z" fill="#ffffff" stroke="none"/></g><g transform="translate(-62,-78) scale(1,1)"><path d="M 184 112 C 184 98.7451648 234.36795999999998 88 296.5 88 C 358.63204 88 409 98.7451648 409 112 C 409 125.2548352 358.63204 136 296.5 136 C 234.36795999999998 136 184 125.2548352 184 112 Z" fill="none" stroke="#000000" stroke-miterlimit="10"/></g><g transform="translate(-62,-78) scale(1,1)"><g><path fill="none" stroke="none"/><text fill="#000000" font-family="Arial" font-size="13px" font-style="normal" font-weight="bold" stroke="none" text-decoration="none" x="221.378662109375" y="117.5">consulter page pointage</text></g></g><g transform="translate(-62,-78) scale(1,1)"><path d="M 463 119 C 463 105.7451648 505.9806592 95 559 95 C 612.0193408 95 655 105.7451648 655 119 C 655 132.2548352 612.0193408 143 559 143 C 505.9806592 143 463 132.2548352 463 119 Z" fill="#C0C0C0" opacity="0.2" stroke="none"/></g><g transform="translate(-62,-78) scale(1,1)"><path d="M 456 112 C 456 98.7451648 498.9806592 88 552 88 C 605.0193408 88 648 98.7451648 648 112 C 648 125.2548352 605.0193408 136 552 136 C 498.9806592 136 456 125.2548352 456 112 Z" fill="#ffffff" stroke="none"/></g><g transform="translate(-62,-78) scale(1,1)"><path d="M 456 112 C 456 98.7451648 498.9806592 88 552 88 C 605.0193408 88 648 98.7451648 648 112 C 648 125.2548352 605.0193408 136 552 136 C 498.9806592 136 456 125.2548352 456 112 Z" fill="none" stroke="#000000" stroke-miterlimit="10"/></g><g transform="translate(-62,-78) scale(1,1)"><g><path fill="none" stroke="none"/><text fill="#000000" font-family="Arial" font-size="13px" font-style="normal" font-weight="bold" stroke="none" text-decoration="none" x="494.925048828125" y="117.5">activer le pointage</text></g></g><g transform="translate(-62,-78) scale(1,1)"><path d="M 719 127 C 719 113.7451648 761.9806592 103 815 103 C 868.0193408 103 911 113.7451648 911 127 C 911 140.2548352 868.0193408 151 815 151 C 761.9806592 151 719 140.2548352 719 127 Z" fill="#C0C0C0" opacity="0.2" stroke="none"/></g><g transform="translate(-62,-78) scale(1,1)"><path d="M 712 120 C 712 106.7451648 754.9806592 96 808 96 C 861.0193408 96 904 106.7451648 904 120 C 904 133.2548352 861.0193408 144 808 144 C 754.9806592 144 712 133.2548352 712 120 Z" fill="#ffffff" stroke="none"/></g><g transform="translate(-62,-78) scale(1,1)"><path d="M 712 120 C 712 106.7451648 754.9806592 96 808 96 C 861.0193408 96 904 106.7451648 904 120 C 904 133.2548352 861.0193408 144 808 144 C 754.9806592 144 712 133.2548352 712 120 Z" fill="none" stroke="#000000" stroke-miterlimit="10"/></g><g transform="translate(-62,-78) scale(1,1)"><g><path fill="none" stroke="none"/><text fill="#000000" font-family="Arial" font-size="13px" font-style="normal" font-weight="bold" stroke="none" text-decoration="none" x="751.286865234375" y="125.5">arrêter le pointage</text></g></g><g transform="translate(-62,-78) scale(1,1)"><path d="M 455 243 C 455 227.5360256 501.7862384 215 559.5 215 C 617.2137616 215 664 227.5360256 664 243 C 664 258.4639744 617.2137616 271 559.5 271 C 501.7862384 271 455 258.4639744 455 243 Z" fill="#C0C0C0" opacity="0.2" stroke="none"/></g><g transform="translate(-62,-78) scale(1,1)"><path d="M 448 236 C 448 220.5360256 494.7862384 208 552.5 208 C 610.2137616 208 657 220.5360256 657 236 C 657 251.4639744 610.2137616 264 552.5 264 C 494.7862384 264 448 251.4639744 448 236 Z" fill="#ffffff" stroke="none"/></g><g transform="translate(-62,-78) scale(1,1)"><path d="M 448 236 C 448 220.5360256 494.7862384 208 552.5 208 C 610.2137616 208 657 220.5360256 657 236 C 657 251.4639744 610.2137616 264 552.5 264 C 494.7862384 264 448 251.4639744 448 236 Z" fill="none" stroke="#000000" stroke-miterlimit="10"/></g><g transform="translate(-62,-78) scale(1,1)"><g><path fill="none" stroke="none"/><text fill="#000000" font-family="Arial" font-size="13px" font-style="normal" font-weight="bold" stroke="none" text-decoration="none" x="483.135986328125" y="241.5">gérer  temps de travail</text></g></g><g transform="translate(-62,-78) scale(1,1)"><path d="M 348 137 L 492 207" fill="none" stroke="#000000" stroke-miterlimit="10"/></g><g transform="translate(-62,-78) scale(1,1)"><path d="M 470.0392929172242 205.685715242225 L 492 207 L 477.4007747667506 190.54209543748496" fill="#FFFFFF" stroke="none"/></g><g transform="translate(-62,-78) scale(1,1)"><path d="M 470.0392929172242 205.685715242225 L 492 207 L 477.4007747667506 190.54209543748496 L 470.0392929172242 205.685715242225" fill="none" stroke="#000000" stroke-miterlimit="10"/></g><g transform="translate(-62,-78) scale(1,1)"><path d="M 552 137 L 552 207" fill="none" stroke="#000000" stroke-miterlimit="10"/></g><g transform="translate(-62,-78) scale(1,1)"><path d="M 543.580964487968 186.6746502847517 L 552 207 L 560.419035512032 186.6746502847517" fill="#FFFFFF" stroke="none"/></g><g transform="translate(-62,-78) scale(1,1)"><path d="M 543.580964487968 186.6746502847517 L 552 207 L 560.419035512032 186.6746502847517 L 543.580964487968 186.6746502847517" fill="none" stroke="#000000" stroke-miterlimit="10"/></g><g transform="translate(-62,-78) scale(1,1)"><path d="M 753 145 L 616 207" fill="none" stroke="#000000" stroke-miterlimit="10"/></g><g transform="translate(-62,-78) scale(1,1)"><path d="M 631.0462159943439 190.94972323442528 L 616 207 L 637.9885409016568 206.2900218199393" fill="#FFFFFF" stroke="none"/></g><g transform="translate(-62,-78) scale(1,1)"><path d="M 631.0462159943439 190.94972323442528 L 616 207 L 637.9885409016568 206.2900218199393 L 631.0462159943439 190.94972323442528" fill="none" stroke="#000000" stroke-miterlimit="10"/></g><g transform="translate(-62,-78) scale(1,1)"><path d="M 799 355 C 799 339.5360256 827.4299152 327 862.5 327 C 897.5700848 327 926 339.5360256 926 355 C 926 370.4639744 897.5700848 383 862.5 383 C 827.4299152 383 799 370.4639744 799 355 Z" fill="#C0C0C0" opacity="0.2" stroke="none"/></g><g transform="translate(-62,-78) scale(1,1)"><path d="M 792 348 C 792 332.5360256 820.4299152 320 855.5 320 C 890.5700848 320 919 332.5360256 919 348 C 919 363.4639744 890.5700848 376 855.5 376 C 820.4299152 376 792 363.4639744 792 348 Z" fill="#ffffff" stroke="none"/></g><g transform="translate(-62,-78) scale(1,1)"><path d="M 792 348 C 792 332.5360256 820.4299152 320 855.5 320 C 890.5700848 320 919 332.5360256 919 348 C 919 363.4639744 890.5700848 376 855.5 376 C 820.4299152 376 792 363.4639744 792 348 Z" fill="none" stroke="#000000" stroke-miterlimit="10"/></g><g transform="translate(-62,-78) scale(1,1)"><g><path fill="none" stroke="none"/><text fill="#000000" font-family="Arial" font-size="13px" font-style="normal" font-weight="bold" stroke="none" text-decoration="none" x="814.947998046875" y="353.5">s'authentifier</text></g></g><g transform="translate(-62,-78) scale(1,1)"><path d="M 630 265 L 791 324" fill="none" stroke="#000000" stroke-dasharray="3" stroke-miterlimit="10"/></g><g transform="translate(-62,-78) scale(1,1)"><path d="M 780.0094421962784 324.45567440465067 L 791 324 L 782.9062915864241 316.5507125095074" fill="none" stroke="#000000" stroke-miterlimit="10"/></g><g transform="translate(-62,-78) scale(1,1)"><g><path fill="none" stroke="none"/><text fill="#000000" font-family="Arial" font-size="13px" font-style="normal" font-weight="normal" stroke="none" text-decoration="none" x="703.5" y="283">«include»</text></g></g><g transform="translate(-62,-78) scale(1,1)"><path d="M 447 416 C 447 402.19288 498.93496319999997 391 563 391 C 627.0650368 391 679 402.19288 679 416 C 679 429.80712 627.0650368 441 563 441 C 498.93496319999997 441 447 429.80712 447 416 Z" fill="#C0C0C0" opacity="0.2" stroke="none"/></g><g transform="translate(-62,-78) scale(1,1)"><path d="M 440 409 C 440 395.19288 491.93496319999997 384 556 384 C 620.0650368 384 672 395.19288 672 409 C 672 422.80712 620.0650368 434 556 434 C 491.93496319999997 434 440 422.80712 440 409 Z" fill="#ffffff" stroke="none"/></g><g transform="translate(-62,-78) scale(1,1)"><path d="M 440 409 C 440 395.19288 491.93496319999997 384 556 384 C 620.0650368 384 672 395.19288 672 409 C 672 422.80712 620.0650368 434 556 434 C 491.93496319999997 434 440 422.80712 440 409 Z" fill="none" stroke="#000000" stroke-miterlimit="10"/></g><g transform="translate(-62,-78) scale(1,1)"><g><path fill="none" stroke="none"/><text fill="#000000" font-family="Arial" font-size="13px" font-style="normal" font-weight="bold" stroke="none" text-decoration="none" x="478.32373046875" y="414.5">gérer les zones de travail</text></g></g><g transform="translate(-62,-78) scale(1,1)"><path d="M 79 563 C 79 543.1177472 190.4810848 527 328 527 C 465.51891520000004 527 577 543.1177472 577 563 C 577 582.8822528 465.51891520000004 599 328 599 C 190.4810848 599 79 582.8822528 79 563 Z" fill="#C0C0C0" opacity="0.2" stroke="none"/></g><g transform="translate(-62,-78) scale(1,1)"><path d="M 72 556 C 72 536.1177472 183.4810848 520 321 520 C 458.51891520000004 520 570 536.1177472 570 556 C 570 575.8822528 458.51891520000004 592 321 592 C 183.4810848 592 72 575.8822528 72 556 Z" fill="#ffffff" stroke="none"/></g><g transform="translate(-62,-78) scale(1,1)"><path d="M 72 556 C 72 536.1177472 183.4810848 520 321 520 C 458.51891520000004 520 570 536.1177472 570 556 C 570 575.8822528 458.51891520000004 592 321 592 C 183.4810848 592 72 575.8822528 72 556 Z" fill="none" stroke="#000000" stroke-miterlimit="10"/></g><g transform="translate(-62,-78) scale(1,1)"><g><path fill="none" stroke="none"/><text fill="#000000" font-family="Arial" font-size="13px" font-style="normal" font-weight="bold" stroke="none" text-decoration="none" x="156.192626953125" y="561.5">consulter la localisation géographique de l'entreprise</text></g></g><g transform="translate(-62,-78) scale(1,1)"><path d="M 159 735 C 159 721.7451648 232.873008 711 324 711 C 415.126992 711 489 721.7451648 489 735 C 489 748.2548352 415.126992 759 324 759 C 232.873008 759 159 748.2548352 159 735 Z" fill="#C0C0C0" opacity="0.2" stroke="none"/></g><g transform="translate(-62,-78) scale(1,1)"><path d="M 152 728 C 152 714.7451648 225.873008 704 317 704 C 408.126992 704 482 714.7451648 482 728 C 482 741.2548352 408.126992 752 317 752 C 225.873008 752 152 741.2548352 152 728 Z" fill="#ffffff" stroke="none"/></g><g transform="translate(-62,-78) scale(1,1)"><path d="M 152 728 C 152 714.7451648 225.873008 704 317 704 C 408.126992 704 482 714.7451648 482 728 C 482 741.2548352 408.126992 752 317 752 C 225.873008 752 152 741.2548352 152 728 Z" fill="none" stroke="#000000" stroke-miterlimit="10"/></g><g transform="translate(-62,-78) scale(1,1)"><g><path fill="none" stroke="none"/><text fill="#000000" font-family="Arial" font-size="13px" font-style="normal" font-weight="bold" stroke="none" text-decoration="none" x="207.81396484375" y="733.5">modifier localisation de l'entreprise</text></g></g><g transform="translate(-62,-78) scale(1,1)"><path d="M 447 234 L 311 232" fill="none" stroke="#000000" stroke-miterlimit="10"/></g><g transform="translate(-62,-78) scale(1,1)"><path d="M 719 567 C 719 549.3268864 795.3354416 535 889.5 535 C 983.6645584 535 1060 549.3268864 1060 567 C 1060 584.6731136 983.6645584 599 889.5 599 C 795.3354416 599 719 584.6731136 719 567 Z" fill="#C0C0C0" opacity="0.2" stroke="none"/></g><g transform="translate(-62,-78) scale(1,1)"><path d="M 712 560 C 712 542.3268864 788.3354416 528 882.5 528 C 976.6645584 528 1053 542.3268864 1053 560 C 1053 577.6731136 976.6645584 592 882.5 592 C 788.3354416 592 712 577.6731136 712 560 Z" fill="#ffffff" stroke="none"/></g><g transform="translate(-62,-78) scale(1,1)"><path d="M 712 560 C 712 542.3268864 788.3354416 528 882.5 528 C 976.6645584 528 1053 542.3268864 1053 560 C 1053 577.6731136 976.6645584 592 882.5 592 C 788.3354416 592 712 577.6731136 712 560 Z" fill="none" stroke="#000000" stroke-miterlimit="10"/></g><g transform="translate(-62,-78) scale(1,1)"><g><path fill="none" stroke="none"/><text fill="#000000" font-family="Arial" font-size="13px" font-style="normal" font-weight="bold" stroke="none" text-decoration="none" x="769.06103515625" y="565.5">consulter les employés en télétravail</text></g></g><g transform="translate(-62,-78) scale(1,1)"><path d="M 655 699 C 655 683.5360256 732.9024448 671 829 671 C 925.0975552 671 1003 683.5360256 1003 699 C 1003 714.4639744 925.0975552 727 829 727 C 732.9024448 727 655 714.4639744 655 699 Z" fill="#C0C0C0" opacity="0.2" stroke="none"/></g><g transform="translate(-62,-78) scale(1,1)"><path d="M 648 692 C 648 676.5360256 725.9024448 664 822 664 C 918.0975552 664 996 676.5360256 996 692 C 996 707.4639744 918.0975552 720 822 720 C 725.9024448 720 648 707.4639744 648 692 Z" fill="#ffffff" stroke="none"/></g><g transform="translate(-62,-78) scale(1,1)"><path d="M 648 692 C 648 676.5360256 725.9024448 664 822 664 C 918.0975552 664 996 676.5360256 996 692 C 996 707.4639744 918.0975552 720 822 720 C 725.9024448 720 648 707.4639744 648 692 Z" fill="none" stroke="#000000" stroke-miterlimit="10"/></g><g transform="translate(-62,-78) scale(1,1)"><g><path fill="none" stroke="none"/><text fill="#000000" font-family="Arial" font-size="13px" font-style="normal" font-weight="bold" stroke="none" text-decoration="none" x="703.4384765625" y="697.5">consulter page pointage d'un employé</text></g></g><g transform="translate(-62,-78) scale(1,1)"><path d="M 1119 703 C 1119 685.3268864 1215.4826256 671 1334.5 671 C 1453.5173744 671 1550 685.3268864 1550 703 C 1550 720.6731136 1453.5173744 735 1334.5 735 C 1215.4826256 735 1119 720.6731136 1119 703 Z" fill="#C0C0C0" opacity="0.2" stroke="none"/></g><g transform="translate(-62,-78) scale(1,1)"><path d="M 1112 696 C 1112 678.3268864 1208.4826256 664 1327.5 664 C 1446.5173744 664 1543 678.3268864 1543 696 C 1543 713.6731136 1446.5173744 728 1327.5 728 C 1208.4826256 728 1112 713.6731136 1112 696 Z" fill="#ffffff" stroke="none"/></g><g transform="translate(-62,-78) scale(1,1)"><path d="M 1112 696 C 1112 678.3268864 1208.4826256 664 1327.5 664 C 1446.5173744 664 1543 678.3268864 1543 696 C 1543 713.6731136 1446.5173744 728 1327.5 728 C 1208.4826256 728 1112 713.6731136 1112 696 Z" fill="none" stroke="#000000" stroke-miterlimit="10"/></g><g transform="translate(-62,-78) scale(1,1)"><g><path fill="none" stroke="none"/><text fill="#000000" font-family="Arial" font-size="13px" font-style="normal" font-weight="bold" stroke="none" text-decoration="none" x="1179.761474609375" y="701.5">modifier un Employé de télétravail en présentiel</text></g></g><g transform="translate(-62,-78) scale(1,1)"><path d="M 871 783 C 871 765.3268864 989.8683856 751 1136.5 751 C 1283.1316144 751 1402 765.3268864 1402 783 C 1402 800.6731136 1283.1316144 815 1136.5 815 C 989.8683856 815 871 800.6731136 871 783 Z" fill="#C0C0C0" opacity="0.2" stroke="none"/></g><g transform="translate(-62,-78) scale(1,1)"><path d="M 864 776 C 864 758.3268864 982.8683856 744 1129.5 744 C 1276.1316144 744 1395 758.3268864 1395 776 C 1395 793.6731136 1276.1316144 808 1129.5 808 C 982.8683856 808 864 793.6731136 864 776 Z" fill="#ffffff" stroke="none"/></g><g transform="translate(-62,-78) scale(1,1)"><path d="M 864 776 C 864 758.3268864 982.8683856 744 1129.5 744 C 1276.1316144 744 1395 758.3268864 1395 776 C 1395 793.6731136 1276.1316144 808 1129.5 808 C 982.8683856 808 864 793.6731136 864 776 Z" fill="none" stroke="#000000" stroke-miterlimit="10"/></g><g transform="translate(-62,-78) scale(1,1)"><g><path fill="none" stroke="none"/><text fill="#000000" font-family="Arial" font-size="13px" font-style="normal" font-weight="bold" stroke="none" text-decoration="none" x="948.8837890625" y="781.5">enregistrer un nouvel employé pour le travail en télétravail</text></g></g><g transform="translate(-62,-78) scale(1,1)"><path d="M 318 703 L 320 593" fill="none" stroke="#000000" stroke-dasharray="3" stroke-miterlimit="10"/></g><g transform="translate(-62,-78) scale(1,1)"><path d="M 324.02407676781877 603.2375195319325 L 320 593 L 315.6064324869806 603.0844714540991" fill="none" stroke="#000000" stroke-miterlimit="10"/></g><g transform="translate(-62,-78) scale(1,1)"><g><path fill="none" stroke="none"/><text fill="#000000" font-family="Arial" font-size="13px" font-style="normal" font-weight="normal" stroke="none" text-decoration="none" x="262.5" y="652">«extend»</text></g></g><g transform="translate(-62,-78) scale(1,1)"><path d="M 835 663 L 867 593" fill="none" stroke="#000000" stroke-dasharray="3" stroke-miterlimit="10"/></g><g transform="translate(-62,-78) scale(1,1)"><path d="M 866.6032176911364 603.992841479771 L 867 593 L 858.9463197838929 600.4925452936025" fill="none" stroke="#000000" stroke-miterlimit="10"/></g><g transform="translate(-62,-78) scale(1,1)"><g><path fill="none" stroke="none"/><text fill="#000000" font-family="Arial" font-size="13px" font-style="normal" font-weight="normal" stroke="none" text-decoration="none" x="796.5" y="620">«extend»</text></g></g><g transform="translate(-62,-78) scale(1,1)"><path d="M 1219 663 L 990 593" fill="none" stroke="#000000" stroke-dasharray="3" stroke-miterlimit="10"/></g><g transform="translate(-62,-78) scale(1,1)"><path d="M 1000.9493062704521 591.945157738883 L 990 593 L 998.488214829043 599.9964425972071" fill="none" stroke="#000000" stroke-miterlimit="10"/></g><g transform="translate(-62,-78) scale(1,1)"><g><path fill="none" stroke="none"/><text fill="#000000" font-family="Arial" font-size="13px" font-style="normal" font-weight="normal" stroke="none" text-decoration="none" x="1118.5" y="630">«extend»</text></g></g><g transform="translate(-62,-78) scale(1,1)"><path d="M 1091 743 L 920 593" fill="none" stroke="#000000" stroke-dasharray="3" stroke-miterlimit="10"/></g><g transform="translate(-62,-78) scale(1,1)"><path d="M 930.4157986405232 596.5371088024082 L 920 593 L 924.8639682302102 602.866195470165" fill="none" stroke="#000000" stroke-miterlimit="10"/></g><g transform="translate(-62,-78) scale(1,1)"><g><path fill="none" stroke="none"/><text fill="#000000" font-family="Arial" font-size="13px" font-style="normal" font-weight="normal" stroke="none" text-decoration="none" x="1023.5" y="686">«extend»</text></g></g><g transform="translate(-62,-78) scale(1,1)"><path d="M 380 519 L 514 435" fill="none" stroke="#000000" stroke-miterlimit="10"/></g><g transform="translate(-62,-78) scale(1,1)"><path d="M 501.2502396428943 452.92884856415424 L 514 435 L 492.306947594407 438.6621683915673" fill="#FFFFFF" stroke="none"/></g><g transform="translate(-62,-78) scale(1,1)"><path d="M 501.2502396428943 452.92884856415424 L 514 435 L 492.306947594407 438.6621683915673 L 501.2502396428943 452.92884856415424" fill="none" stroke="#000000" stroke-miterlimit="10"/></g><g transform="translate(-62,-78) scale(1,1)"><path d="M 811 527 L 612 435" fill="none" stroke="#000000" stroke-miterlimit="10"/></g><g transform="translate(-62,-78) scale(1,1)"><path d="M 633.9820967744483 435.88736767959483 L 612 435 L 626.916225990264 451.1711533975586" fill="#FFFFFF" stroke="none"/></g><g transform="translate(-62,-78) scale(1,1)"><path d="M 633.9820967744483 435.88736767959483 L 612 435 L 626.916225990264 451.1711533975586 L 633.9820967744483 435.88736767959483" fill="none" stroke="#000000" stroke-miterlimit="10"/></g><g transform="translate(-62,-78) scale(1,1)"><path d="M 279 383 L 278 272" fill="none" stroke="#000000" stroke-miterlimit="10"/></g><g transform="translate(-62,-78) scale(1,1)"><path d="M 286.6017977072112 292.2486808509645 L 278 272 L 269.76440994936473 292.4003690289631" fill="#FFFFFF" stroke="none"/></g><g transform="translate(-62,-78) scale(1,1)"><path d="M 286.6017977072112 292.2486808509645 L 278 272 L 269.76440994936473 292.4003690289631 L 286.6017977072112 292.2486808509645" fill="none" stroke="#000000" stroke-miterlimit="10"/></g><g transform="translate(-62,-78) scale(1,1)"><path d="M 673 385 L 791 361" fill="none" stroke="#000000" stroke-dasharray="3" stroke-miterlimit="10"/></g><g transform="translate(-62,-78) scale(1,1)"><path d="M 781.8802177330454 367.15057488397144 L 791 361 L 780.2022269074397 358.90045332474347" fill="none" stroke="#000000" stroke-miterlimit="10"/></g><g transform="translate(-62,-78) scale(1,1)"><g><path fill="none" stroke="none"/><text fill="#000000" font-family="Arial" font-size="13px" font-style="normal" font-weight="normal" stroke="none" text-decoration="none" x="719.5" y="394">«include»</text></g></g></g></svg>